<svg width="285" height="209" viewBox="0 0 285 209" fill="none" xmlns="http://www.w3.org/2000/svg">
<g clip-path="url(#clip0_10268_19015)">
<path d="M38.0849 105.886C34.3498 107.019 30.8539 109.759 29.9206 113.561C28.8534 117.931 31.3143 122.337 31.67 126.824C32.8186 141.525 11.9706 151.897 14.9451 166.337C16.126 172.079 20.899 176.304 25.6026 179.792C33.1367 185.365 41.4964 190.288 50.7543 191.678C64.8054 193.789 79.4867 187.583 93.1444 191.505C104.16 194.67 112.59 203.945 123.53 207.367C131.857 209.974 140.829 208.947 149.48 207.891C154.146 207.324 159.033 206.668 162.797 203.86C169.796 198.633 170.235 188.311 174.921 180.913C182.158 169.505 198.026 167.264 211.331 169.482C224.636 171.699 237.556 177.158 251.035 176.713C253.916 176.616 256.867 176.224 259.381 174.806C262.436 173.083 264.5 170.047 266.326 167.042C277.734 148.196 283.996 126.669 284.483 104.626C284.561 100.837 284.427 96.8853 282.651 93.5425C280.407 89.3122 275.92 86.7827 271.452 85.0801C260.725 80.9846 248.874 80.3151 238.363 75.6961C228.225 71.2412 220.014 63.4292 211.185 56.7334C193.59 43.4167 173.197 34.3057 151.56 30.0952C146.489 29.1124 141.226 28.41 136.187 29.5454C130.382 30.8527 125.378 34.483 120.88 38.3905C108.91 48.786 99.3171 61.6123 88.2865 73.0054C80.6771 80.8624 72.3915 88.0307 63.5253 94.4252C59.4435 97.377 55.1045 100.881 50.5558 103.064C46.392 105.058 42.4878 104.555 38.0849 105.886Z" fill="#B7E143"/>
<path d="M37.1594 45.7676C37.1594 45.7676 57.742 66.4155 46.1231 97.0552C34.5036 127.694 66.0407 178.646 66.0407 178.646C66.0407 178.646 65.7023 178.596 65.0757 178.486C22.7962 171 1.80293 122.497 25.3044 86.4663C34.0318 73.0699 41.2185 57.3566 37.1594 45.7676Z" fill="#8ED16E"/>
<path d="M0.5 129.282C0.5 129.282 23.9871 125.529 26.127 146.644C28.2674 167.76 71.2907 170.688 71.2907 170.688C71.2907 170.688 70.9984 170.882 70.4824 171.226C34.9591 194.627 1.00163 186.127 6.11842 155.066C8.0257 143.515 7.86846 131.917 0.5 129.282Z" fill="#8ED16E"/>
<path d="M31.2163 129.021C34.7833 129.021 37.6747 121.452 37.6747 112.117C37.6747 102.782 34.7833 95.2129 31.2163 95.2129C27.6492 95.2129 24.7578 102.782 24.7578 112.117C24.7578 121.452 27.6492 129.021 31.2163 129.021Z" fill="black" fill-opacity="0.2"/>
<path d="M30.6258 173.507C32.3262 171.802 30.6371 167.342 26.8524 163.546C23.069 159.75 18.623 158.056 16.9232 159.762C15.2234 161.467 16.9124 165.926 20.6965 169.723C24.48 173.519 28.9259 175.213 30.6258 173.507Z" fill="black" fill-opacity="0.2"/>
<path d="M133.956 180.908L131.369 185.704L140.686 190.762L143.272 185.966L133.956 180.908Z" fill="#8ED16E"/>
<path d="M139.251 186.962C139.544 186.419 138.903 185.502 137.819 184.914C136.736 184.325 135.62 184.289 135.327 184.831C135.034 185.375 135.675 186.291 136.759 186.879C137.842 187.468 138.958 187.504 139.251 186.962Z" fill="#8ED16E"/>
<path d="M139.251 186.962C139.543 186.419 138.902 185.502 137.819 184.914C136.735 184.325 135.62 184.289 135.327 184.831C135.034 185.375 135.675 186.291 136.759 186.879C137.842 187.468 138.958 187.504 139.251 186.962Z" fill="black" fill-opacity="0.2"/>
<path d="M127.179 182.758L126.188 188.118L136.603 190.057L137.594 184.696L127.179 182.758Z" fill="#8ED16E"/>
<path d="M127.179 182.758L126.188 188.118L136.603 190.057L137.594 184.696L127.179 182.758Z" fill="black" fill-opacity="0.2"/>
<path d="M134.073 186.883C134.186 186.277 133.295 185.602 132.084 185.377C130.872 185.151 129.8 185.46 129.687 186.068C129.575 186.674 130.466 187.348 131.677 187.574C132.888 187.799 133.962 187.491 134.073 186.883Z" fill="#8ED16E"/>
<path d="M134.073 186.881C134.186 186.275 133.295 185.6 132.084 185.375C130.872 185.149 129.8 185.458 129.687 186.066C129.575 186.672 130.466 187.346 131.677 187.572C132.888 187.797 133.962 187.489 134.073 186.881Z" fill="black" fill-opacity="0.2"/>
<path d="M128.155 185.971L127.164 191.332L137.579 193.27L138.571 187.909L128.155 185.971Z" fill="#8ED16E"/>
<path d="M135.047 190.098C135.159 189.491 134.268 188.817 133.056 188.591C131.845 188.366 130.772 188.675 130.66 189.282C130.548 189.888 131.439 190.563 132.65 190.788C133.862 191.014 134.935 190.706 135.047 190.098Z" fill="#8ED16E"/>
<path d="M135.047 190.098C135.158 189.491 134.268 188.817 133.056 188.591C131.845 188.366 130.772 188.675 130.66 189.282C130.548 189.888 131.439 190.563 132.65 190.788C133.862 191.014 134.934 190.706 135.047 190.098Z" fill="black" fill-opacity="0.2"/>
<path d="M144.946 194.691L142.359 199.487L151.676 204.544L154.262 199.749L144.946 194.691Z" fill="#8ED16E"/>
<path d="M150.242 200.743C150.535 200.2 149.894 199.283 148.81 198.695C147.727 198.107 146.611 198.07 146.319 198.612C146.026 199.155 146.667 200.072 147.75 200.66C148.834 201.249 149.949 201.286 150.242 200.743Z" fill="#8ED16E"/>
<path d="M150.242 200.743C150.535 200.2 149.894 199.283 148.81 198.695C147.727 198.107 146.611 198.07 146.319 198.613C146.026 199.155 146.667 200.072 147.75 200.66C148.834 201.248 149.949 201.285 150.242 200.743Z" fill="black" fill-opacity="0.2"/>
<path d="M138.171 196.535L137.18 201.895L147.595 203.834L148.586 198.474L138.171 196.535Z" fill="#8ED16E"/>
<path d="M138.171 196.535L137.18 201.896L147.595 203.835L148.586 198.474L138.171 196.535Z" fill="black" fill-opacity="0.2"/>
<path d="M145.062 200.661C145.174 200.054 144.283 199.379 143.072 199.154C141.861 198.928 140.787 199.238 140.676 199.845C140.563 200.451 141.454 201.126 142.665 201.351C143.877 201.576 144.95 201.268 145.062 200.661Z" fill="#8ED16E"/>
<path d="M145.062 200.661C145.174 200.054 144.283 199.379 143.072 199.154C141.861 198.928 140.787 199.238 140.676 199.845C140.563 200.451 141.454 201.126 142.665 201.351C143.877 201.576 144.949 201.268 145.062 200.661Z" fill="black" fill-opacity="0.2"/>
<path d="M139.146 199.754L138.154 205.114L148.57 207.053L149.561 201.692L139.146 199.754Z" fill="#8ED16E"/>
<path d="M146.04 203.88C146.153 203.272 145.262 202.597 144.05 202.372C142.839 202.147 141.767 202.457 141.654 203.064C141.542 203.67 142.433 204.345 143.644 204.57C144.855 204.795 145.928 204.486 146.04 203.88Z" fill="#8ED16E"/>
<path d="M146.04 203.88C146.153 203.272 145.262 202.597 144.05 202.372C142.839 202.147 141.767 202.457 141.654 203.063C141.542 203.669 142.433 204.344 143.644 204.57C144.855 204.795 145.928 204.486 146.04 203.88Z" fill="black" fill-opacity="0.2"/>
<path d="M161.435 185.809L158.848 190.604L168.164 195.662L170.751 190.867L161.435 185.809Z" fill="#8ED16E"/>
<path d="M166.725 191.86C167.018 191.317 166.376 190.4 165.293 189.812C164.209 189.224 163.094 189.187 162.801 189.73C162.508 190.272 163.15 191.19 164.233 191.778C165.317 192.366 166.433 192.403 166.725 191.86Z" fill="#8ED16E"/>
<path d="M166.727 191.86C167.019 191.317 166.378 190.4 165.295 189.812C164.211 189.224 163.096 189.187 162.803 189.73C162.51 190.272 163.152 191.189 164.235 191.777C165.319 192.365 166.434 192.403 166.727 191.86Z" fill="black" fill-opacity="0.2"/>
<path d="M154.658 187.654L153.666 193.015L164.082 194.953L165.074 189.593L154.658 187.654Z" fill="#8ED16E"/>
<path d="M154.657 187.654L153.666 193.015L164.082 194.954L165.073 189.593L154.657 187.654Z" fill="black" fill-opacity="0.2"/>
<path d="M161.549 191.78C161.66 191.173 160.769 190.499 159.558 190.273C158.347 190.048 157.274 190.357 157.162 190.963C157.05 191.569 157.941 192.244 159.152 192.469C160.364 192.696 161.436 192.387 161.549 191.78Z" fill="#8ED16E"/>
<path d="M161.549 191.78C161.66 191.173 160.769 190.498 159.558 190.273C158.347 190.048 157.274 190.357 157.162 190.964C157.05 191.57 157.941 192.245 159.152 192.47C160.364 192.696 161.436 192.387 161.549 191.78Z" fill="black" fill-opacity="0.2"/>
<path d="M155.633 190.873L154.641 196.233L165.057 198.172L166.048 192.812L155.633 190.873Z" fill="#8ED16E"/>
<path d="M162.527 194.999C162.639 194.392 161.749 193.717 160.537 193.491C159.326 193.266 158.252 193.576 158.14 194.183C158.028 194.789 158.919 195.463 160.13 195.689C161.342 195.914 162.415 195.606 162.527 194.999Z" fill="#8ED16E"/>
<path d="M162.527 194.999C162.638 194.392 161.748 193.717 160.537 193.491C159.325 193.266 158.252 193.576 158.14 194.183C158.028 194.789 158.919 195.463 160.13 195.689C161.342 195.914 162.414 195.606 162.527 194.999Z" fill="black" fill-opacity="0.2"/>
<path d="M91.4385 13.4961C91.4385 13.4961 80.1688 28.51 88.2308 46.0109C96.2934 63.5112 74.1797 91.6298 74.1797 91.6298" stroke="#525360" stroke-width="2" stroke-miterlimit="10"/>
<path d="M96.4903 7.87743C95.5953 11.7412 91.3114 14.0432 91.3114 14.0432C91.3114 14.0432 88.4827 10.08 89.3784 6.21621C90.2734 2.35181 92.5861 -0.408908 94.5573 0.049814C96.5286 0.509135 97.3854 4.01363 96.4903 7.87743Z" fill="#8ED16E"/>
<path d="M93.6134 7.20328C93.895 5.9906 93.7557 4.92105 93.3025 4.81505C92.8493 4.70966 92.2532 5.60674 91.9716 6.82002C91.69 8.03329 91.8299 9.10225 92.2831 9.20825C92.7363 9.31424 93.3324 8.41656 93.6134 7.20328Z" fill="#8ED16E"/>
<path d="M93.6149 7.20524C93.8965 5.99256 93.7572 4.923 93.304 4.81701C92.8508 4.71161 92.2553 5.60869 91.9737 6.82197C91.6921 8.03525 91.8314 9.1042 92.2846 9.2102C92.7378 9.3162 93.3339 8.41851 93.6149 7.20524Z" fill="black" fill-opacity="0.2"/>
<path d="M94.5437 25.0449C90.823 26.3905 86.5684 24.0334 86.5684 24.0334C86.5684 24.0334 88.3471 19.4959 92.0708 18.1533C95.7939 16.8107 99.3603 17.2766 100.046 19.166C100.731 21.0553 98.2644 23.6993 94.5437 25.0449Z" fill="#8ED16E"/>
<path d="M93.4976 22.0649C94.6647 21.6409 95.4826 20.942 95.3241 20.5037C95.1663 20.0647 94.0919 20.0521 92.9248 20.4755C91.7577 20.8989 90.9398 21.5978 91.0976 22.0367C91.2561 22.4757 92.3305 22.4883 93.4976 22.0649Z" fill="#8ED16E"/>
<path d="M93.4982 22.0668C94.6653 21.6428 95.4832 20.944 95.3247 20.5056C95.1669 20.0666 94.0919 20.0541 92.9248 20.4775C91.7577 20.9008 90.9398 21.5997 91.0976 22.0387C91.2561 22.4776 92.3311 22.4902 93.4982 22.0668Z" fill="black" fill-opacity="0.2"/>
<path d="M93.6778 38.724C89.9571 40.0696 85.7031 37.7126 85.7031 37.7126C85.7031 37.7126 87.4819 33.1756 91.205 31.8336C94.9286 30.4904 98.4945 30.9557 99.1797 32.8457C99.8649 34.735 97.3985 37.3814 93.6778 38.724Z" fill="#8ED16E"/>
<path d="M92.6757 35.9528C93.844 35.5306 94.6631 34.833 94.5059 34.3934C94.3481 33.9545 93.273 33.9401 92.1053 34.3623C90.9371 34.7839 90.1179 35.4821 90.2752 35.9217C90.433 36.3607 91.5081 36.375 92.6757 35.9528Z" fill="#8ED16E"/>
<path d="M92.6757 35.9528C93.844 35.5306 94.6631 34.833 94.5059 34.3934C94.3481 33.9545 93.273 33.9401 92.1053 34.3623C90.9371 34.7839 90.1179 35.4821 90.2752 35.9217C90.433 36.3607 91.5081 36.375 92.6757 35.9528Z" fill="black" fill-opacity="0.2"/>
<path d="M98.0241 54.7748C94.304 56.1204 90.0488 53.7633 90.0488 53.7633C90.0488 53.7633 91.8276 49.2264 95.5513 47.8844C99.2749 46.5412 102.841 47.0065 103.526 48.8964C104.211 50.7858 101.745 53.4382 98.0241 54.7748Z" fill="#8ED16E"/>
<path d="M97.0241 52.0095C98.1924 51.5873 99.0115 50.8896 98.8537 50.4501C98.6958 50.0111 97.6214 49.9967 96.4531 50.4189C95.2848 50.8405 94.4651 51.5388 94.623 51.9783C94.7802 52.4173 95.8558 52.4317 97.0241 52.0095Z" fill="#8ED16E"/>
<path d="M97.0235 52.0095C98.1918 51.5873 99.0109 50.8896 98.8531 50.4501C98.6952 50.0111 97.6208 49.9967 96.4525 50.4189C95.2843 50.8405 94.4651 51.5388 94.623 51.9783C94.7802 52.4173 95.8552 52.4317 97.0235 52.0095Z" fill="black" fill-opacity="0.2"/>
<path d="M95.1974 69.4531C91.4767 70.7987 87.2227 68.4416 87.2227 68.4416C87.2227 68.4416 89.0014 63.9041 92.7245 62.5615C96.4482 61.2189 100.014 61.6848 100.699 63.5742C101.384 65.4641 98.9211 68.1105 95.1974 69.4531Z" fill="#8ED16E"/>
<path d="M94.2022 66.4379C95.3693 66.0145 96.1872 65.3157 96.0288 64.8767C95.8709 64.4377 94.7965 64.4252 93.6294 64.8486C92.4623 65.2725 91.6444 65.9714 91.8028 66.4104C91.9607 66.8493 93.0351 66.8613 94.2022 66.4379Z" fill="#8ED16E"/>
<path d="M94.2022 66.4379C95.3693 66.0145 96.1872 65.3157 96.0288 64.8767C95.8709 64.4377 94.7965 64.4252 93.6294 64.8486C92.4623 65.2725 91.6444 65.9714 91.8028 66.4104C91.9607 66.8493 93.0351 66.8613 94.2022 66.4379Z" fill="black" fill-opacity="0.2"/>
<path d="M77.7459 28.9325C80.4926 31.7878 85.3475 31.5656 85.3475 31.5656C85.3475 31.5656 85.7469 26.7071 83.0002 23.8524C80.2535 20.9977 76.8508 19.8215 75.3986 21.2198C73.9469 22.6182 74.9992 26.0777 77.7459 28.9325Z" fill="#8ED16E"/>
<path d="M82.0382 27.9183C82.373 27.5937 81.9455 26.605 81.0834 25.7091C80.2206 24.8126 79.2496 24.3497 78.9148 24.6737C78.58 24.9983 79.0075 25.987 79.8702 26.8834C80.7324 27.7793 81.7034 28.2422 82.0382 27.9183Z" fill="#8ED16E"/>
<path d="M82.0382 27.9189C82.373 27.5943 81.9455 26.605 81.0834 25.7091C80.2206 24.8126 79.2496 24.3497 78.9148 24.6737C78.58 24.9983 79.0075 25.987 79.8702 26.8834C80.7324 27.7793 81.7034 28.2428 82.0382 27.9189Z" fill="black" fill-opacity="0.2"/>
<path d="M76.1676 74.2671C78.9143 77.1218 83.7698 76.8996 83.7698 76.8996C83.7698 76.8996 84.1686 72.0411 81.4219 69.1864C78.6751 66.3316 75.2731 65.1555 73.8208 66.5538C72.3685 67.9521 73.4208 71.4123 76.1676 74.2671Z" fill="#8ED16E"/>
<path d="M80.4562 73.2589C80.791 72.9344 80.3635 71.9451 79.5013 71.0492C78.6386 70.1527 77.6676 69.6892 77.3328 70.0138C76.998 70.3377 77.4255 71.327 78.2882 72.2235C79.1504 73.1194 80.1214 73.5829 80.4562 73.2589Z" fill="#8ED16E"/>
<path d="M80.4562 73.2589C80.791 72.9344 80.3635 71.9451 79.5013 71.0492C78.6386 70.1527 77.6676 69.6892 77.3328 70.0138C76.998 70.3377 77.4255 71.327 78.2882 72.2235C79.1504 73.1194 80.1214 73.5829 80.4562 73.2589Z" fill="black" fill-opacity="0.2"/>
<path d="M79.8102 44.9554C83.3498 46.728 87.8489 44.8853 87.8489 44.8853C87.8489 44.8853 86.6095 40.1729 83.0729 38.4003C79.5358 36.6277 75.9353 36.6451 75.0342 38.4704C74.1332 40.2957 76.2701 43.1828 79.8102 44.9554Z" fill="#8ED16E"/>
<path d="M83.5096 42.5554C83.7176 42.1379 82.9852 41.3487 81.8743 40.7929C80.7634 40.2366 79.6944 40.1234 79.4863 40.5414C79.2789 40.9594 80.0107 41.7487 81.1216 42.305C82.2325 42.8608 83.3015 42.9734 83.5096 42.5554Z" fill="#8ED16E"/>
<path d="M83.5096 42.5556C83.7176 42.1382 82.9852 41.3483 81.8743 40.7925C80.7634 40.2362 79.6944 40.1236 79.4863 40.5416C79.2789 40.9596 80.0107 41.7489 81.1216 42.3052C82.2325 42.861 83.3015 42.9736 83.5096 42.5556Z" fill="black" fill-opacity="0.2"/>
<path d="M81.2942 60.9183C84.8344 62.6909 89.3335 60.8476 89.3335 60.8476C89.3335 60.8476 88.0935 56.1358 84.5564 54.3632C81.0198 52.5906 77.4187 52.608 76.5177 54.4333C75.6166 56.2586 77.7691 59.163 81.2942 60.9183Z" fill="#8ED16E"/>
<path d="M84.9955 58.5182C85.2035 58.1008 84.4711 57.3116 83.3602 56.7558C82.2493 56.1995 81.1803 56.0863 80.9728 56.5043C80.7648 56.9223 81.4972 57.7116 82.6081 58.2679C83.719 58.8237 84.788 58.9362 84.9955 58.5182Z" fill="#8ED16E"/>
<path d="M84.9955 58.5185C85.2035 58.1011 84.4711 57.3112 83.3602 56.7554C82.2493 56.1991 81.1803 56.0865 80.9728 56.5045C80.7648 56.9225 81.4972 57.7118 82.6081 58.2681C83.719 58.8239 84.788 58.9365 84.9955 58.5185Z" fill="black" fill-opacity="0.2"/>
<path d="M158.076 196.08L163.42 197.075L165.354 186.627L160.01 185.631L158.076 196.08Z" fill="#8ED16E"/>
<path d="M162.881 191.587C163.106 190.372 162.798 189.296 162.194 189.183C161.588 189.07 160.915 189.964 160.691 191.179C160.466 192.395 160.775 193.471 161.379 193.583C161.984 193.696 162.656 192.802 162.881 191.587Z" fill="#8ED16E"/>
<path d="M162.881 191.587C163.106 190.372 162.798 189.296 162.194 189.183C161.588 189.07 160.915 189.964 160.691 191.179C160.466 192.395 160.774 193.471 161.378 193.583C161.983 193.696 162.656 192.802 162.881 191.587Z" fill="black" fill-opacity="0.2"/>
<path d="M193.76 167.55L199.104 168.546L201.037 158.097L195.693 157.102L193.76 167.55Z" fill="#8ED16E"/>
<path d="M198.565 163.058C198.79 161.843 198.481 160.767 197.877 160.654C197.272 160.541 196.599 161.435 196.374 162.65C196.149 163.865 196.458 164.941 197.062 165.054C197.667 165.167 198.34 164.273 198.565 163.058Z" fill="#8ED16E"/>
<path d="M198.564 163.058C198.789 161.843 198.481 160.767 197.877 160.654C197.272 160.541 196.599 161.435 196.374 162.65C196.149 163.865 196.458 164.941 197.062 165.054C197.667 165.167 198.34 164.273 198.564 163.058Z" fill="black" fill-opacity="0.2"/>
<path d="M198.715 219.096L204.059 220.093L205.992 209.644L200.648 208.648L198.715 219.096Z" fill="#8ED16E"/>
<path d="M203.963 146.727L209.307 147.723L211.24 137.275L205.896 136.279L203.963 146.727Z" fill="#8ED16E"/>
<path d="M208.772 142.238C208.997 141.023 208.688 139.946 208.084 139.834C207.479 139.721 206.806 140.615 206.581 141.83C206.356 143.045 206.665 144.122 207.269 144.234C207.874 144.347 208.547 143.453 208.772 142.238Z" fill="#8ED16E"/>
<path d="M208.771 142.238C208.996 141.023 208.688 139.946 208.084 139.834C207.479 139.721 206.806 140.615 206.581 141.83C206.357 143.045 206.664 144.122 207.268 144.234C207.873 144.347 208.546 143.453 208.771 142.238Z" fill="black" fill-opacity="0.2"/>
<path d="M208.08 52.4842H222.995V52.168H208.08V52.4842Z" fill="#8ED16E"/>
<path d="M208.08 52.8006H222.995V52.4844H208.08V52.8006Z" fill="#8ED16E"/>
<path d="M208.08 52.8H222.995V52.4844H208.08V52.8Z" fill="black" fill-opacity="0.2"/>
<path d="M208.08 53.117H222.995V52.8008H208.08V53.117Z" fill="#8ED16E"/>
<path d="M208.08 53.4295H222.995V53.1133H208.08V53.4295Z" fill="#8ED16E"/>
<path d="M208.079 53.4285H222.994V53.1129H208.079V53.4285ZM0.5 0H284.5V209H0.5V0ZM0.5 209H284.5V0H0.5V209Z" fill="black" fill-opacity="0.2"/>
<path d="M208.08 53.7439H222.995V53.4277H208.08V53.7439Z" fill="#8ED16E"/>
<path d="M208.08 54.0584H222.995V53.7422H208.08V54.0584Z" fill="#8ED16E"/>
<path d="M208.08 54.0584H222.995V53.7422H208.08V54.0584Z" fill="black" fill-opacity="0.2"/>
<path d="M208.08 54.3728H222.995V54.0566H208.08V54.3728Z" fill="#8ED16E"/>
<path d="M208.08 54.6873H222.995V54.3711H208.08V54.6873Z" fill="#8ED16E"/>
<path d="M208.079 54.6867H222.994V54.3705H208.079V54.6867ZM0.5 0H284.5V209H0.5V0ZM0.5 209H284.5V0H0.5V209Z" fill="black" fill-opacity="0.2"/>
<path d="M208.08 49.9685H222.995V49.6523H208.08V49.9685Z" fill="#8ED16E"/>
<path d="M208.08 50.283H222.995V49.9668H208.08V50.283Z" fill="#8ED16E"/>
<path d="M208.079 50.2816H222.994V49.9654H208.079V50.2816ZM0.5 0H284.5V209H0.5V0ZM0.5 209H284.5V0H0.5V209Z" fill="black" fill-opacity="0.2"/>
<path d="M208.08 50.5994H222.995V50.2832H208.08V50.5994Z" fill="#8ED16E"/>
<path d="M208.08 50.9119H222.995V50.5957H208.08V50.9119Z" fill="#8ED16E"/>
<path d="M208.079 50.9134H222.994V50.5972H208.079V50.9134ZM0.5 0H284.5V209H0.5V0ZM0.5 209H284.5V0H0.5V209Z" fill="black" fill-opacity="0.2"/>
<path d="M208.08 51.2264H222.995V50.9102H208.08V51.2264Z" fill="#8ED16E"/>
<path d="M208.08 51.5428H222.995V51.2266H208.08V51.5428Z" fill="#8ED16E"/>
<path d="M208.079 51.5422H222.994V51.226H208.079V51.5422ZM0.5 0H284.5V209H0.5V0ZM0.5 209H284.5V0H0.5V209Z" fill="black" fill-opacity="0.2"/>
<path d="M208.08 51.8553H222.995V51.5391H208.08V51.8553Z" fill="#8ED16E"/>
<path d="M208.08 52.1717H222.995V51.8555H208.08V52.1717Z" fill="#8ED16E"/>
<path d="M208.079 52.171H222.994V51.8554H208.079V52.171ZM0.5 0H284.5V209H0.5V0ZM0.5 209H284.5V0H0.5V209Z" fill="black" fill-opacity="0.2"/>
<path d="M260.008 182.434C260.008 182.434 265.442 189.287 266.698 189.146C267.955 189.007 270.88 191.803 269.209 192.656C267.539 193.51 257.919 194.054 253.172 190.419V184.941L260.008 182.434Z" fill="#AB684D"/>
<path d="M232.545 182.852C232.545 182.852 229.338 188.585 227.109 189.287C224.882 189.989 222.928 192.504 225.856 193.203C228.783 193.903 239.239 192.364 240.213 190.685V183.27L232.545 182.852Z" fill="#AB684D"/>
<path d="M228.517 126.53L231.288 146.355V155.573C231.279 156.971 231.446 158.365 231.788 159.721C232.691 163.21 231.949 175.384 231.529 181.161C231.392 183.045 231.288 184.25 231.288 184.25C233.098 183.41 240.766 186.066 240.766 186.066L241.542 183.419L242.16 181.312C243.834 180.055 242.452 157.541 242.16 152.355C241.971 148.813 243.546 137.329 244.554 130.447C244.846 128.501 245.082 126.936 245.224 125.994C245.315 125.41 245.364 125.085 245.364 125.085C245.671 125.336 245.927 125.645 246.116 125.994C246.356 126.408 246.563 126.841 246.732 127.288C249.537 134.399 250.815 154.727 250.815 156.537V175.656C250.809 177.543 251.067 179.419 251.581 181.234C251.926 182.557 252.179 183.903 252.336 185.261C252.535 186.779 252.628 188.002 252.628 188.002C252.768 187.163 261.411 183.386 261.411 183.386V151.504C261.411 151.504 261.827 138.925 263.084 126.471C263.624 120.805 263.08 115.089 261.481 109.628C261.134 108.438 260.786 107.429 260.486 106.631C259.976 105.271 259.612 104.52 259.612 104.52H231.141C230.663 104.61 230.267 105.575 229.908 107.041C229.675 108.023 229.471 109.228 229.293 110.55C228.765 114.443 228.462 119.291 228.316 122.093C228.242 123.574 228.309 125.061 228.517 126.53Z" fill="#608FD7"/>
<path d="M234.215 69.9994L231.298 80.3482C231.298 80.3482 228.23 83.273 225.723 80.3482C223.215 77.4228 221.671 69.5808 221.519 67.9016C221.368 66.223 219.148 57.5534 218.311 57.5534C217.475 57.5534 209.112 58.1115 208.136 54.6286C207.354 51.826 216.69 53.1656 220.428 53.7944C220.889 53.8729 221.322 54.0675 221.687 54.3585C222.052 54.6502 222.339 55.0298 222.519 55.4616L228.251 69.1945C228.251 69.1945 231.287 65.6643 234.215 69.9994Z" fill="#AB684D"/>
<path d="M253.034 45.9473C253.034 45.9473 249.409 56.1553 254.011 59.7916C258.612 63.4272 237.557 64.4075 237.557 64.4075L240.415 61.681C240.415 61.681 242.434 53.6401 241.041 46.927L253.034 45.9473Z" fill="#AB684D"/>
<path d="M248.573 59.5133C248.573 59.5133 252.267 58.6037 252.267 57.627L254.665 59.0103C255.239 59.3397 255.889 59.5133 256.55 59.5133H262.304C262.905 59.5115 263.498 59.6535 264.033 59.9272C264.569 60.2008 265.032 60.5985 265.386 61.0871C266.706 62.9502 267.89 66.6241 264.744 72.939C259.726 83.007 261.956 107.748 261.956 107.748C261.956 107.748 244.114 104.53 229.337 109.427C229.337 109.427 231.568 98.3784 230.731 92.0868C229.894 85.7946 232.124 77.0053 232.124 77.0053L233.378 71.6904C233.378 71.6904 233.308 66.7176 228.15 69.2417C228.15 69.2417 227.404 62.2393 232.463 61.2392C232.604 61.2075 232.747 61.1979 232.891 61.2099C233.973 61.3237 239.014 61.6896 240.63 58.9486C240.627 58.9516 244.672 61.3297 248.573 59.5133Z" fill="#24500F"/>
<path d="M246.275 53.9891C250.509 53.9891 253.939 50.5463 253.939 46.2993C253.939 42.0522 250.509 38.6094 246.275 38.6094C242.041 38.6094 238.609 42.0522 238.609 46.2993C238.609 50.5463 242.041 53.9891 246.275 53.9891Z" fill="#AB684D"/>
<path d="M250.483 47.6912C250.034 46.948 250.947 45.9802 250.646 45.167C250.37 44.4178 249.268 44.2891 248.898 43.5902C248.605 43.0255 248.897 42.3326 248.779 41.7092C248.613 40.9049 247.751 40.4049 246.932 40.3642C246.112 40.3229 245.322 40.6301 244.542 40.893C243.274 41.3235 241.939 41.6535 240.61 41.502C239.28 41.3499 237.954 40.6247 237.362 39.4342C237.266 39.2611 237.213 39.0653 237.213 38.8664C237.236 38.4275 237.639 38.1263 237.898 37.7753C238.354 37.1639 238.406 36.3309 238.819 35.6931C239.665 34.3942 241.523 34.4265 243.068 34.4205C245.342 34.4205 247.605 33.9936 249.879 34.0696C252.154 34.1457 254.545 34.7924 256.051 36.5064C257.86 38.5688 257.942 41.5864 257.927 44.3358C257.927 45.4682 257.88 46.7 257.16 47.575C256.95 47.8289 256.693 48.0397 256.493 48.3002C256.054 48.8853 255.938 49.6332 255.528 50.2273C254.799 51.2831 253.376 51.5412 252.108 51.7107C252.481 51.661 252.171 49.1542 252.108 48.923C251.863 47.7558 251.596 47.7906 250.483 47.6912Z" fill="#281C1C"/>
<path d="M252.324 185.285C252.522 186.803 252.615 188.026 252.615 188.026C252.756 187.187 261.398 183.41 261.398 183.41V181.137C261.178 181.13 260.957 181.139 260.739 181.169C259.063 181.395 257.509 182.211 256.074 183.082C254.862 183.88 253.61 184.616 252.324 185.285Z" fill="black" fill-opacity="0.2"/>
<path d="M252.326 185.285C252.524 186.803 252.617 188.026 252.617 188.026C252.758 187.187 261.4 183.41 261.4 183.41V181.137C261.18 181.13 260.959 181.139 260.74 181.169C259.064 181.395 257.511 182.211 256.076 183.082C254.864 183.88 253.612 184.616 252.326 185.285Z" fill="#608FD7"/>
<path d="M253.631 75.5123C253.631 75.5123 249.623 78.9311 242.043 77.2289C242.043 77.2289 233.756 75.502 230.436 70.1893C227.116 64.8765 220.409 59.5118 220.409 59.5118C220.409 59.5118 209.77 57.1307 209.749 53.1796C209.728 49.2279 221.967 55.7492 221.967 55.7492L226.991 59.2435L243.127 69.2863C243.127 69.2863 246.301 68.8161 247.163 67.9823C248.025 67.1484 255.664 72.1021 253.631 75.5123Z" fill="#AB684D"/>
<path d="M253.971 76.391C253.971 76.391 248.822 67.2607 245.885 67.415C242.947 67.5695 251.402 66.5977 251.402 66.5977L254.892 71.1676L253.971 76.391Z" fill="#B7E143"/>
<path d="M129.781 179.004L127.195 183.8L136.512 188.857L139.097 184.062L129.781 179.004Z" fill="#8ED16E"/>
<path d="M136.018 185.21C136.314 184.666 135.673 183.745 134.589 183.153C133.505 182.559 132.387 182.519 132.092 183.062C131.796 183.605 132.436 184.526 133.519 185.12C134.604 185.713 135.723 185.753 136.018 185.21Z" fill="#8ED16E"/>
<path d="M136.018 185.21C136.313 184.667 135.673 183.746 134.589 183.153C133.505 182.559 132.387 182.519 132.092 183.062C131.796 183.605 132.436 184.526 133.519 185.12C134.604 185.712 135.722 185.753 136.018 185.21Z" fill="black" fill-opacity="0.2"/>
<path d="M162.664 186.787L160.078 191.583L169.395 196.641L171.98 191.845L162.664 186.787Z" fill="#8ED16E"/>
<path d="M168.901 192.993C169.196 192.45 168.556 191.529 167.471 190.936C166.388 190.342 165.269 190.302 164.975 190.845C164.679 191.388 165.318 192.31 166.402 192.903C167.487 193.496 168.606 193.536 168.901 192.993Z" fill="#8ED16E"/>
<path d="M168.9 192.993C169.196 192.45 168.556 191.529 167.471 190.936C166.388 190.343 165.269 190.302 164.975 190.845C164.679 191.388 165.318 192.309 166.402 192.903C167.487 193.496 168.605 193.536 168.9 192.993Z" fill="black" fill-opacity="0.2"/>
<path d="M145.924 196.369L143.338 201.165L152.654 206.223L155.24 201.427L145.924 196.369Z" fill="#8ED16E"/>
<path d="M152.161 202.575C152.456 202.032 151.816 201.111 150.731 200.518C149.648 199.924 148.529 199.884 148.234 200.427C147.938 200.971 148.578 201.892 149.662 202.485C150.747 203.078 151.865 203.118 152.161 202.575Z" fill="#8ED16E"/>
<path d="M152.16 202.575C152.456 202.032 151.816 201.111 150.731 200.518C149.648 199.925 148.529 199.884 148.234 200.427C147.938 200.97 148.578 201.891 149.662 202.485C150.747 203.078 151.865 203.118 152.16 202.575Z" fill="black" fill-opacity="0.2"/>
<path d="M129.781 179.004L127.195 183.8L136.512 188.857L139.097 184.062L129.781 179.004Z" fill="#8ED16E"/>
<path d="M136.018 185.21C136.314 184.666 135.673 183.745 134.589 183.153C133.505 182.559 132.387 182.519 132.092 183.062C131.796 183.605 132.436 184.526 133.519 185.12C134.604 185.713 135.723 185.753 136.018 185.21Z" fill="#8ED16E"/>
<path d="M136.018 185.21C136.313 184.667 135.673 183.746 134.589 183.153C133.505 182.559 132.387 182.519 132.092 183.062C131.796 183.605 132.436 184.526 133.519 185.12C134.604 185.712 135.722 185.753 136.018 185.21Z" fill="black" fill-opacity="0.2"/>
<path d="M152.275 79.1484L149.689 83.9441L159.006 89.002L161.591 84.2064L152.275 79.1484Z" fill="#8ED16E"/>
<path d="M158.512 85.3541C158.808 84.811 158.167 83.8899 157.083 83.2971C155.999 82.7036 154.881 82.6635 154.586 83.2066C154.29 83.7498 154.93 84.6708 156.013 85.2643C157.098 85.8572 158.217 85.8973 158.512 85.3541Z" fill="#8ED16E"/>
<path d="M158.512 85.3545C158.807 84.8113 158.167 83.8903 157.083 83.2974C155.999 82.7039 154.881 82.6632 154.586 83.2064C154.29 83.7495 154.93 84.6706 156.013 85.264C157.098 85.8569 158.216 85.8976 158.512 85.3545Z" fill="black" fill-opacity="0.2"/>
<path d="M162.664 186.787L160.078 191.583L169.395 196.641L171.98 191.845L162.664 186.787Z" fill="#8ED16E"/>
<path d="M168.901 192.993C169.196 192.45 168.556 191.529 167.471 190.936C166.388 190.342 165.269 190.302 164.975 190.845C164.679 191.388 165.318 192.31 166.402 192.903C167.487 193.496 168.606 193.536 168.901 192.993Z" fill="#8ED16E"/>
<path d="M168.9 192.993C169.196 192.45 168.556 191.529 167.471 190.936C166.388 190.343 165.269 190.302 164.975 190.845C164.679 191.388 165.318 192.309 166.402 192.903C167.487 193.496 168.605 193.536 168.9 192.993Z" fill="black" fill-opacity="0.2"/>
<path d="M185.24 58.9941L182.654 63.7898L191.971 68.8477L194.556 64.0521L185.24 58.9941Z" fill="#8ED16E"/>
<path d="M191.477 65.1998C191.773 64.6567 191.132 63.7356 190.048 63.1428C188.964 62.5493 187.846 62.5092 187.551 63.0523C187.255 63.5955 187.895 64.5165 188.978 65.11C190.063 65.7029 191.182 65.743 191.477 65.1998Z" fill="#8ED16E"/>
<path d="M191.477 65.2002C191.772 64.657 191.132 63.736 190.048 63.1431C188.964 62.5496 187.846 62.5089 187.551 63.0521C187.255 63.5952 187.895 64.5163 188.978 65.1097C190.063 65.7026 191.181 65.7433 191.477 65.2002Z" fill="black" fill-opacity="0.2"/>
<path d="M169.09 169.293L166.504 174.089L175.82 179.147L178.406 174.351L169.09 169.293Z" fill="#8ED16E"/>
<path d="M175.327 175.499C175.622 174.956 174.982 174.034 173.897 173.442C172.814 172.848 171.695 172.808 171.4 173.351C171.104 173.894 171.744 174.815 172.828 175.409C173.913 176.002 175.031 176.042 175.327 175.499Z" fill="#8ED16E"/>
<path d="M175.326 175.499C175.622 174.956 174.982 174.035 173.897 173.442C172.814 172.848 171.695 172.808 171.4 173.351C171.104 173.894 171.744 174.815 172.828 175.409C173.913 176.001 175.031 176.042 175.326 175.499Z" fill="black" fill-opacity="0.2"/>
<path d="M208.586 38.4319L220.731 47.1156L220.914 46.8582L208.769 38.1744L208.586 38.4319Z" fill="#8ED16E"/>
<path d="M207.979 166.467L105.045 179.668L89.3212 72.4402L192.259 59.2398L207.979 166.467Z" fill="white"/>
<path d="M207.979 166.467L105.045 179.668L89.3212 72.4402L192.259 59.2398L207.979 166.467Z" stroke="#24500F" stroke-width="2.00307" stroke-linecap="round" stroke-linejoin="round"/>
<path d="M124.371 96.6876C124.56 98.1577 123.426 99.4945 121.839 99.6739C120.251 99.8532 118.811 98.8067 118.621 97.3366C118.432 95.8666 119.566 94.5294 121.153 94.35C122.741 94.1707 124.182 95.2176 124.371 96.6876Z" fill="white"/>
<path d="M124.371 96.6876C124.56 98.1577 123.426 99.4945 121.839 99.6739C120.251 99.8532 118.811 98.8067 118.621 97.3366C118.432 95.8666 119.566 94.5294 121.153 94.35C122.741 94.1707 124.182 95.2176 124.371 96.6876Z" stroke="#B7E143" stroke-width="3.0046" stroke-linecap="round" stroke-linejoin="round"/>
<path d="M126.035 109.604C126.224 111.074 125.09 112.411 123.503 112.59C121.915 112.769 120.475 111.723 120.286 110.253C120.096 108.783 121.23 107.445 122.817 107.266C124.405 107.087 125.846 108.134 126.035 109.604Z" fill="white"/>
<path d="M126.035 109.604C126.224 111.074 125.09 112.411 123.503 112.59C121.915 112.769 120.475 111.723 120.286 110.253C120.096 108.783 121.23 107.445 122.817 107.266C124.405 107.087 125.846 108.134 126.035 109.604Z" stroke="#B7E143" stroke-width="3.0046" stroke-linecap="round" stroke-linejoin="round"/>
<path d="M127.695 122.518C127.884 123.988 126.75 125.325 125.163 125.504C123.576 125.683 122.135 124.637 121.946 123.167C121.757 121.697 122.89 120.359 124.478 120.18C126.065 120.001 127.506 121.048 127.695 122.518Z" fill="white"/>
<path d="M127.695 122.518C127.884 123.988 126.75 125.325 125.163 125.504C123.576 125.683 122.135 124.637 121.946 123.167C121.757 121.697 122.89 120.359 124.478 120.18C126.065 120.001 127.506 121.048 127.695 122.518Z" stroke="#B7E143" stroke-width="3.0046" stroke-linecap="round" stroke-linejoin="round"/>
<path d="M129.398 135.104C129.587 136.574 128.454 137.911 126.866 138.09C125.279 138.269 123.838 137.223 123.649 135.753C123.46 134.283 124.593 132.945 126.181 132.766C127.768 132.587 129.209 133.634 129.398 135.104Z" fill="white"/>
<path d="M129.398 135.104C129.587 136.574 128.454 137.911 126.866 138.09C125.279 138.269 123.838 137.223 123.649 135.753C123.46 134.283 124.593 132.945 126.181 132.766C127.768 132.587 129.209 133.634 129.398 135.104Z" stroke="#B7E143" stroke-width="3.0046" stroke-linecap="round" stroke-linejoin="round"/>
<path d="M130.27 95.5207L165.83 91.5063L130.27 95.5207Z" fill="white"/>
<path d="M130.27 95.5207L165.83 91.5063" stroke="#B7E143" stroke-width="3.0046" stroke-linecap="round" stroke-linejoin="round"/>
<path d="M131.946 108.536L167.505 104.522L131.946 108.536Z" fill="white"/>
<path d="M131.946 108.536L167.505 104.522" stroke="#B7E143" stroke-width="3.0046" stroke-linecap="round" stroke-linejoin="round"/>
<path d="M133.645 121.745L169.205 117.731L133.645 121.745Z" fill="white"/>
<path d="M133.645 121.745L169.205 117.731" stroke="#B7E143" stroke-width="3.0046" stroke-linecap="round" stroke-linejoin="round"/>
<path d="M135.348 134.333L170.908 130.319L135.348 134.333Z" fill="white"/>
<path d="M135.348 134.333L170.908 130.319" stroke="#B7E143" stroke-width="3.0046" stroke-linecap="round" stroke-linejoin="round"/>
<path d="M131.799 145.727H60.5V169.86H70.9094L76.8872 176.606L77.9415 169.86H131.799V145.727Z" fill="white"/>
<path d="M131.799 145.727H60.5V169.86H70.9094L76.8872 176.606L77.9415 169.86H131.799V145.727Z" stroke="#24500F" stroke-width="2.00307" stroke-linecap="round" stroke-linejoin="round"/>
<path d="M79.7209 157.488C79.7209 160.055 77.6405 162.135 75.0741 162.135C72.5078 162.135 70.4277 160.055 70.4277 157.488C70.4277 154.922 72.5078 152.842 75.0741 152.842C77.6405 152.842 79.7209 154.922 79.7209 157.488Z" stroke="#24500F" stroke-width="2.50384" stroke-linecap="round" stroke-linejoin="round"/>
<path d="M87.1348 154.818H119.561" stroke="#24500F" stroke-width="2.50384" stroke-linecap="round" stroke-linejoin="round"/>
<path d="M87.1348 160.355H119.561" stroke="#24500F" stroke-width="2.50384" stroke-linecap="round" stroke-linejoin="round"/>
<path d="M212.806 179.162C211.507 180.527 209.348 180.58 207.983 179.281L186.072 158.423L190.775 153.482L212.687 174.34C214.051 175.639 214.104 177.798 212.806 179.162Z" fill="white"/>
<path d="M212.806 179.162C211.507 180.527 209.348 180.58 207.983 179.281L186.072 158.423L190.775 153.482L212.687 174.34C214.051 175.639 214.104 177.798 212.806 179.162Z" stroke="#24500F" stroke-width="2.00307" stroke-linecap="round" stroke-linejoin="round"/>
<path d="M164.364 133.048C157.757 139.988 158.027 150.972 164.968 157.579C171.909 164.186 182.892 163.915 189.499 156.974C196.106 150.033 195.833 139.052 188.892 132.446C181.951 125.839 170.971 126.107 164.364 133.048ZM185.863 153.513C181.169 158.445 173.361 158.637 168.429 153.943C163.497 149.249 163.305 141.44 167.999 136.509C172.694 131.577 180.499 131.387 185.431 136.082C190.363 140.776 190.558 148.581 185.863 153.513Z" fill="white"/>
<path d="M164.364 133.048C157.757 139.988 158.027 150.972 164.968 157.579C171.909 164.186 182.892 163.915 189.499 156.974C196.106 150.033 195.833 139.052 188.892 132.446C181.951 125.839 170.971 126.107 164.364 133.048ZM185.863 153.513C181.169 158.445 173.361 158.637 168.429 153.943C163.497 149.249 163.305 141.44 167.999 136.509C172.694 131.577 180.499 131.387 185.431 136.082C190.363 140.776 190.558 148.581 185.863 153.513Z" stroke="#24500F" stroke-width="2.00307" stroke-linecap="round" stroke-linejoin="round"/>
</g>
<defs>
<clipPath id="clip0_10268_19015">
<rect width="284" height="209" fill="white" transform="translate(0.5)"/>
</clipPath>
</defs>
</svg>
