<svg width="203" height="200" viewBox="0 0 203 200" fill="none" xmlns="http://www.w3.org/2000/svg">
<path d="M16.1178 115.542L21.8068 120.65L13.3338 123.394L16.1178 115.542Z" fill="url(#paint0_linear_9801_12413)"/>
<path d="M16.1178 115.542L21.8068 120.65L13.3338 123.394L16.1178 115.542Z" stroke="#24500F" stroke-width="1.5023" stroke-linecap="round" stroke-linejoin="round"/>
<path d="M84.6406 9.51891L87.7546 0.753653L94.7641 9.01631L84.6406 9.51891Z" fill="#B7E143"/>
<path d="M84.6406 9.51891L87.7546 0.753653L94.7641 9.01631L84.6406 9.51891Z" stroke="#24500F" stroke-width="1.5023" stroke-linecap="round" stroke-linejoin="round"/>
<path d="M142.704 186.613L152.334 184.474L148.858 195.427L142.704 186.613Z" fill="#B7E143"/>
<path d="M142.704 186.613L152.334 184.474L148.858 195.427L142.704 186.613Z" stroke="#24500F" stroke-width="1.5023" stroke-linecap="round" stroke-linejoin="round"/>
<path d="M194.405 141.134L89.9506 200L10.1836 78.5783L114.638 19.7087L194.405 141.134Z" fill="#E3ECFF"/>
<path d="M33.1754 73.8537L30.3516 73.063" stroke="#24500F" stroke-width="1.5023" stroke-linecap="round" stroke-linejoin="round"/>
<path d="M37.2363 67.5859L39.3536 65.6616" stroke="#24500F" stroke-width="1.5023" stroke-linecap="round" stroke-linejoin="round"/>
<path d="M39.5664 82L41.5849 84.151" stroke="#24500F" stroke-width="1.5023" stroke-linecap="round" stroke-linejoin="round"/>
<path d="M32.6524 82.8398L30.6426 84.8497" stroke="#24500F" stroke-width="1.5023" stroke-linecap="round" stroke-linejoin="round"/>
<path d="M38.1407 91.3389L35.7266 93.2117" stroke="#24500F" stroke-width="1.5023" stroke-linecap="round" stroke-linejoin="round"/>
<path d="M121.904 175.652L124.086 173.629" stroke="#24500F" stroke-width="1.5023" stroke-linecap="round" stroke-linejoin="round"/>
<path d="M43.1812 98.5938L42.0449 101.201" stroke="#24500F" stroke-width="1.5023" stroke-linecap="round" stroke-linejoin="round"/>
<path d="M182.656 133.745L184.786 131.826" stroke="#24500F" stroke-width="1.5023" stroke-linecap="round" stroke-linejoin="round"/>
<path d="M183.896 142.225L180.963 141.891" stroke="#24500F" stroke-width="1.5023" stroke-linecap="round" stroke-linejoin="round"/>
<path d="M36.4705 108.918L35.2578 106.266" stroke="#24500F" stroke-width="1.5023" stroke-linecap="round" stroke-linejoin="round"/>
<path d="M87.5801 187.303L90.1526 185.973" stroke="#24500F" stroke-width="1.5023" stroke-linecap="round" stroke-linejoin="round"/>
<path d="M99.4316 190.264L99.5769 187.385" stroke="#24500F" stroke-width="1.5023" stroke-linecap="round" stroke-linejoin="round"/>
<path d="M101.518 181.251L103.759 179.428" stroke="#24500F" stroke-width="1.5023" stroke-linecap="round" stroke-linejoin="round"/>
<path d="M112.4 177.461L114.599 179.482" stroke="#24500F" stroke-width="1.5023" stroke-linecap="round" stroke-linejoin="round"/>
<path d="M43.7312 112.412L42.5371 114.978" stroke="#24500F" stroke-width="1.5023" stroke-linecap="round" stroke-linejoin="round"/>
<path d="M17.8542 79.2896L16.6523 81.8689" stroke="#24500F" stroke-width="1.5023" stroke-linecap="round" stroke-linejoin="round"/>
<path d="M91.0039 175.508L93.5628 177.062" stroke="#24500F" stroke-width="1.5023" stroke-linecap="round" stroke-linejoin="round"/>
<path d="M27.7793 91.3828L28.5186 94.198" stroke="#24500F" stroke-width="1.5023" stroke-linecap="round" stroke-linejoin="round"/>
<path d="M24.4862 85.2329L21.7871 86.3246" stroke="#24500F" stroke-width="1.5023" stroke-linecap="round" stroke-linejoin="round"/>
<path d="M25.579 76.951L23.0762 75.3345" stroke="#24500F" stroke-width="1.5023" stroke-linecap="round" stroke-linejoin="round"/>
<path d="M118.199 34.9033L115.689 33.2954" stroke="#24500F" stroke-width="1.5023" stroke-linecap="round" stroke-linejoin="round"/>
<path d="M110.293 29.7222L112.242 27.6045" stroke="#24500F" stroke-width="1.5023" stroke-linecap="round" stroke-linejoin="round"/>
<path d="M103.698 34.0095L101.105 32.8049" stroke="#24500F" stroke-width="1.5023" stroke-linecap="round" stroke-linejoin="round"/>
<path d="M33.0674 99.0238L30.1621 98.6851" stroke="#24500F" stroke-width="1.5023" stroke-linecap="round" stroke-linejoin="round"/>
<g style="mix-blend-mode:multiply" opacity="0.22">
<g style="mix-blend-mode:multiply">
<path style="mix-blend-mode:multiply" d="M164.975 157.719L123.586 181.127H77.605L42.3318 127.515L32.1465 66.2022L45.3883 58.7378L164.975 157.719Z" fill="#F1F5FF"/>
</g>
</g>
<path d="M182.964 162.541L56.6492 178.74L37.3545 47.1566L163.674 30.9578L182.964 162.541Z" fill="white"/>
<path d="M182.964 162.541L56.6492 178.74L37.3545 47.1566L163.674 30.9578L182.964 162.541Z" stroke="#24500F" stroke-width="2.00307" stroke-linecap="round" stroke-linejoin="round"/>
<path d="M80.3656 76.9108C80.5977 78.7148 79.2066 80.3553 77.2585 80.5753C75.3105 80.7954 73.5426 79.5112 73.3104 77.7072C73.0783 75.9032 74.4694 74.2623 76.4175 74.0423C78.3655 73.8222 80.1335 75.1069 80.3656 76.9108Z" fill="white"/>
<path d="M80.3656 76.9108C80.5977 78.7148 79.2066 80.3553 77.2585 80.5753C75.3105 80.7954 73.5426 79.5112 73.3104 77.7072C73.0783 75.9032 74.4694 74.2623 76.4175 74.0423C78.3655 73.8222 80.1335 75.1069 80.3656 76.9108Z" stroke="#24500F" stroke-width="2.00307" stroke-linecap="round" stroke-linejoin="round"/>
<path d="M82.4066 92.759C82.6387 94.5629 81.2476 96.2034 79.2996 96.4235C77.3515 96.6435 75.5836 95.3593 75.3515 93.5554C75.1193 91.7514 76.5105 90.1105 78.4585 89.8904C80.4066 89.6703 82.1745 90.955 82.4066 92.759Z" fill="white"/>
<path d="M82.4066 92.759C82.6387 94.5629 81.2476 96.2034 79.2996 96.4235C77.3515 96.6435 75.5836 95.3593 75.3515 93.5554C75.1193 91.7514 76.5105 90.1105 78.4585 89.8904C80.4066 89.6703 82.1745 90.955 82.4066 92.759Z" stroke="#24500F" stroke-width="2.00307" stroke-linecap="round" stroke-linejoin="round"/>
<path d="M84.4476 108.608C84.6798 110.412 83.2886 112.052 81.3406 112.272C79.3925 112.492 77.6246 111.208 77.3925 109.404C77.1604 107.6 78.5515 105.959 80.4995 105.739C82.4476 105.519 84.2155 106.804 84.4476 108.608Z" fill="white"/>
<path d="M84.4476 108.608C84.6798 110.412 83.2886 112.052 81.3406 112.272C79.3925 112.492 77.6246 111.208 77.3925 109.404C77.1604 107.6 78.5515 105.959 80.4995 105.739C82.4476 105.519 84.2155 106.804 84.4476 108.608Z" stroke="#24500F" stroke-width="2.00307" stroke-linecap="round" stroke-linejoin="round"/>
<path d="M86.5355 124.051C86.7676 125.855 85.3765 127.496 83.4285 127.716C81.4804 127.936 79.7125 126.652 79.4804 124.848C79.2482 123.044 80.6394 121.403 82.5874 121.183C84.5355 120.963 86.3034 122.247 86.5355 124.051Z" fill="white"/>
<path d="M86.5355 124.051C86.7676 125.855 85.3765 127.496 83.4285 127.716C81.4804 127.936 79.7125 126.652 79.4804 124.848C79.2482 123.044 80.6394 121.403 82.5874 121.183C84.5355 120.963 86.3034 122.247 86.5355 124.051Z" stroke="#24500F" stroke-width="2.00307" stroke-linecap="round" stroke-linejoin="round"/>
<path d="M87.6036 75.4795L131.241 70.5533L87.6036 75.4795Z" fill="white"/>
<path d="M87.6036 75.4795L131.241 70.5533" stroke="#24500F" stroke-width="2.00307" stroke-linecap="round" stroke-linejoin="round"/>
<path d="M89.6603 91.4492L133.297 86.523L89.6603 91.4492Z" fill="white"/>
<path d="M89.6603 91.4492L133.297 86.523" stroke="#24500F" stroke-width="2.00307" stroke-linecap="round" stroke-linejoin="round"/>
<path d="M91.7482 107.661L135.385 102.734L91.7482 107.661Z" fill="white"/>
<path d="M91.7482 107.661L135.385 102.734" stroke="#24500F" stroke-width="2.00307" stroke-linecap="round" stroke-linejoin="round"/>
<path d="M93.838 123.105L137.475 118.178L93.838 123.105Z" fill="white"/>
<path d="M93.838 123.105L137.475 118.178" stroke="#24500F" stroke-width="2.00307" stroke-linecap="round" stroke-linejoin="round"/>
<path d="M80.3656 76.9108C80.5977 78.7148 79.2066 80.3553 77.2585 80.5753C75.3105 80.7954 73.5426 79.5112 73.3104 77.7072C73.0783 75.9032 74.4694 74.2623 76.4175 74.0423C78.3655 73.8222 80.1335 75.1069 80.3656 76.9108Z" fill="white"/>
<path d="M80.3656 76.9108C80.5977 78.7148 79.2066 80.3553 77.2585 80.5753C75.3105 80.7954 73.5426 79.5112 73.3104 77.7072C73.0783 75.9032 74.4694 74.2623 76.4175 74.0423C78.3655 73.8222 80.1335 75.1069 80.3656 76.9108Z" stroke="#B7E143" stroke-width="3.0046" stroke-linecap="round" stroke-linejoin="round"/>
<path d="M82.4066 92.7594C82.6387 94.5634 81.2476 96.2039 79.2996 96.4239C77.3515 96.644 75.5836 95.3598 75.3515 93.5558C75.1193 91.7519 76.5105 90.1109 78.4585 89.8909C80.4066 89.6708 82.1745 90.9555 82.4066 92.7594Z" fill="white"/>
<path d="M82.4066 92.7594C82.6387 94.5634 81.2476 96.2039 79.2996 96.4239C77.3515 96.644 75.5836 95.3598 75.3515 93.5558C75.1193 91.7519 76.5105 90.1109 78.4585 89.8909C80.4066 89.6708 82.1745 90.9555 82.4066 92.7594Z" stroke="#B7E143" stroke-width="3.0046" stroke-linecap="round" stroke-linejoin="round"/>
<path d="M84.4476 108.608C84.6798 110.412 83.2886 112.052 81.3406 112.272C79.3925 112.492 77.6246 111.208 77.3925 109.404C77.1604 107.6 78.5515 105.959 80.4995 105.739C82.4476 105.519 84.2155 106.804 84.4476 108.608Z" fill="white"/>
<path d="M84.4476 108.608C84.6798 110.412 83.2886 112.052 81.3406 112.272C79.3925 112.492 77.6246 111.208 77.3925 109.404C77.1604 107.6 78.5515 105.959 80.4995 105.739C82.4476 105.519 84.2155 106.804 84.4476 108.608Z" stroke="#B7E143" stroke-width="3.0046" stroke-linecap="round" stroke-linejoin="round"/>
<path d="M86.5355 124.051C86.7676 125.855 85.3765 127.496 83.4285 127.716C81.4804 127.936 79.7125 126.652 79.4804 124.848C79.2482 123.044 80.6394 121.403 82.5874 121.183C84.5355 120.963 86.3034 122.247 86.5355 124.051Z" fill="white"/>
<path d="M86.5355 124.051C86.7676 125.855 85.3765 127.496 83.4285 127.716C81.4804 127.936 79.7125 126.652 79.4804 124.848C79.2482 123.044 80.6394 121.403 82.5874 121.183C84.5355 120.963 86.3034 122.247 86.5355 124.051Z" stroke="#B7E143" stroke-width="3.0046" stroke-linecap="round" stroke-linejoin="round"/>
<path d="M87.6036 75.4795L131.241 70.5533L87.6036 75.4795Z" fill="white"/>
<path d="M87.6036 75.4795L131.241 70.5533" stroke="#B7E143" stroke-width="3.0046" stroke-linecap="round" stroke-linejoin="round"/>
<path d="M89.6603 91.4492L133.297 86.523L89.6603 91.4492Z" fill="white"/>
<path d="M89.6603 91.4492L133.297 86.523" stroke="#B7E143" stroke-width="3.0046" stroke-linecap="round" stroke-linejoin="round"/>
<path d="M91.7482 107.661L135.385 102.734L91.7482 107.661Z" fill="white"/>
<path d="M91.7482 107.661L135.385 102.734" stroke="#B7E143" stroke-width="3.0046" stroke-linecap="round" stroke-linejoin="round"/>
<path d="M93.838 123.105L137.475 118.178L93.838 123.105Z" fill="white"/>
<path d="M93.838 123.105L137.475 118.178" stroke="#B7E143" stroke-width="3.0046" stroke-linecap="round" stroke-linejoin="round"/>
<path d="M89.4819 137.085H1.98828V166.701H14.7621L22.0977 174.979L23.3914 166.701H89.4819V137.085Z" fill="white"/>
<path d="M89.4819 137.085H1.98828V166.701H14.7621L22.0977 174.979L23.3914 166.701H89.4819V137.085Z" stroke="#24500F" stroke-width="2.00307" stroke-linecap="round" stroke-linejoin="round"/>
<path d="M25.5759 151.523C25.5759 154.672 23.0229 157.224 19.8736 157.224C16.7244 157.224 14.1719 154.672 14.1719 151.523C14.1719 148.373 16.7244 145.821 19.8736 145.821C23.0229 145.821 25.5759 148.373 25.5759 151.523Z" stroke="#24500F" stroke-width="2.50384" stroke-linecap="round" stroke-linejoin="round"/>
<path d="M34.6738 148.247H74.4656" stroke="#24500F" stroke-width="2.50384" stroke-linecap="round" stroke-linejoin="round"/>
<path d="M34.6738 155.041H74.4656" stroke="#24500F" stroke-width="2.50384" stroke-linecap="round" stroke-linejoin="round"/>
<g style="mix-blend-mode:multiply" opacity="0.22">
<g style="mix-blend-mode:multiply">
<path style="mix-blend-mode:multiply" d="M180.324 119.703L127.336 116.278L132.918 55.6167L168.669 60.7635L175.277 112.013L180.324 119.703Z" fill="url(#paint1_linear_9801_12413)" fill-opacity="0.22"/>
</g>
</g>
<path d="M197.195 113.753L132.983 110.848L135.563 53.828L199.774 56.7328L197.195 113.753Z" fill="white"/>
<path d="M197.195 113.753L132.983 110.848L135.563 53.828L199.774 56.7328L197.195 113.753Z" stroke="#24500F" stroke-width="2.00307" stroke-linecap="round" stroke-linejoin="round"/>
<path d="M136.52 63.9028L199.175 66.7371L136.52 63.9028Z" fill="white"/>
<path d="M136.52 63.9028L199.175 66.7371" stroke="#24500F" stroke-width="2.00307" stroke-linecap="round" stroke-linejoin="round"/>
<path d="M152.042 79.8696L143.896 79.5011L144.238 71.9565L152.383 72.3249L152.042 79.8696Z" fill="#B7E143"/>
<path d="M164.454 80.4311L156.309 80.0626L156.65 72.518L164.795 72.8865L164.454 80.4311Z" fill="#B7E143"/>
<path d="M176.866 80.9921L168.721 80.6237L169.062 73.079L177.207 73.4475L176.866 80.9921Z" fill="#B7E143"/>
<path d="M189.276 81.5537L181.131 81.1852L181.472 73.6405L189.618 74.009L189.276 81.5537Z" fill="#B7E143"/>
<path d="M151.483 92.2026L143.338 91.8341L143.679 84.2895L151.824 84.6579L151.483 92.2026Z" fill="#B7E143"/>
<path d="M163.896 92.7636L155.75 92.3951L156.091 84.8505L164.236 85.219L163.896 92.7636Z" fill="#B7E143"/>
<path d="M176.307 93.3251L168.162 92.9567L168.503 85.412L176.648 85.7805L176.307 93.3251Z" fill="#B7E143"/>
<path d="M188.717 93.8872L180.572 93.5187L180.914 85.974L189.059 86.3425L188.717 93.8872Z" fill="#B7E143"/>
<path d="M150.925 104.535L142.779 104.167L143.121 96.622L151.266 96.9905L150.925 104.535Z" fill="#B7E143"/>
<path d="M163.336 105.097L155.191 104.728L155.533 97.1835L163.678 97.552L163.336 105.097Z" fill="#B7E143"/>
<path d="M175.749 105.658L167.603 105.29L167.945 97.745L176.09 98.1135L175.749 105.658Z" fill="#B7E143"/>
<path d="M188.161 106.22L180.016 105.851L180.357 98.3066L188.502 98.675L188.161 106.22Z" fill="#B7E143"/>
<path d="M186.805 60.8338L181.167 60.579L181.614 50.6766L187.253 50.9315L186.805 60.8338Z" fill="white"/>
<path d="M186.805 60.8338L181.167 60.579L181.614 50.6766L187.253 50.9315L186.805 60.8338Z" stroke="#24500F" stroke-width="2.00307" stroke-linecap="round" stroke-linejoin="round"/>
<path d="M154.852 59.389L149.213 59.1337L149.661 49.2318L155.3 49.4867L154.852 59.389Z" fill="white"/>
<path d="M154.852 59.389L149.213 59.1337L149.661 49.2318L155.3 49.4867L154.852 59.389Z" stroke="#24500F" stroke-width="2.00307" stroke-linecap="round" stroke-linejoin="round"/>
<path d="M188.888 178.115C187.294 179.79 184.645 179.855 182.97 178.261L156.082 152.666L161.853 146.603L188.742 172.198C190.417 173.792 190.482 176.441 188.888 178.115Z" fill="white"/>
<path d="M188.888 178.115C187.294 179.79 184.645 179.855 182.97 178.261L156.082 152.666L161.853 146.603L188.742 172.198C190.417 173.792 190.482 176.441 188.888 178.115Z" stroke="#24500F" stroke-width="2.00307" stroke-linecap="round" stroke-linejoin="round"/>
<path d="M129.443 121.527C121.336 130.044 121.668 143.522 130.185 151.63C138.702 159.737 152.18 159.406 160.288 150.888C168.396 142.371 168.061 128.896 159.543 120.788C151.026 112.681 137.551 113.009 129.443 121.527ZM155.826 146.641C150.065 152.693 140.484 152.929 134.432 147.168C128.38 141.408 128.144 131.826 133.905 125.774C139.665 119.722 149.244 119.489 155.296 125.25C161.348 131.011 161.587 140.589 155.826 146.641Z" fill="white"/>
<path d="M129.443 121.527C121.336 130.044 121.668 143.522 130.185 151.63C138.702 159.737 152.18 159.406 160.288 150.888C168.396 142.371 168.061 128.896 159.543 120.788C151.026 112.681 137.551 113.009 129.443 121.527ZM155.826 146.641C150.065 152.693 140.484 152.929 134.432 147.168C128.38 141.408 128.144 131.826 133.905 125.774C139.665 119.722 149.244 119.489 155.296 125.25C161.348 131.011 161.587 140.589 155.826 146.641Z" stroke="#24500F" stroke-width="2.00307" stroke-linecap="round" stroke-linejoin="round"/>
<defs>
<linearGradient id="paint0_linear_9801_12413" x1="-553.975" y1="-218.617" x2="-546.676" y2="-223.223" gradientUnits="userSpaceOnUse">
<stop offset="0.31" stop-color="#62ADF4"/>
<stop offset="0.57" stop-color="#62ADF4"/>
<stop offset="0.83" stop-color="#62ADF4"/>
</linearGradient>
<linearGradient id="paint1_linear_9801_12413" x1="127.135" y1="87.4651" x2="180.123" y2="87.4651" gradientUnits="userSpaceOnUse">
<stop offset="0.31" stop-color="#9FCDFA"/>
<stop offset="0.57" stop-color="#E4F2FF"/>
<stop offset="0.83" stop-color="#E2F1FF"/>
</linearGradient>
</defs>
</svg>
