<svg width="247" height="200" viewBox="0 0 247 200" fill="none" xmlns="http://www.w3.org/2000/svg">
<path d="M212.004 13.9125V115.223C212.004 138.273 198.934 159.473 177.994 170.382L121.624 199.753L114.524 196.053L104.764 190.962L65.2641 170.382C60.1341 167.712 55.4841 164.432 51.3741 160.641C51.2841 160.562 51.1841 160.482 51.0941 160.402V160.391C38.5941 148.742 31.2441 132.503 31.2441 115.213V13.9125C91.4941 -4.6375 151.754 -4.6375 212.004 13.9125Z" fill="#F1F5FF"/>
<g opacity="0.98">
<path d="M56.3863 108.85C62.0951 113.273 65.1876 105.129 68.6998 106.653C90.0542 115.917 87.5361 134.975 89.2154 111.753C90.8945 88.5326 90.5525 55.8268 67.3378 54.125C51.3983 52.9594 40.7812 61.7295 38.9985 72.1841C36.8798 84.6097 43.9192 103.34 56.3863 108.85Z" fill="#18131E"/>
<path d="M65.9361 68.0796C60.7141 71.9531 53.1537 75.3597 44.4157 77.4148C44.546 83.2394 46.5208 95.1127 51.7056 99.1291C54.1552 101.026 58.4907 100.107 61.4912 99.9039C61.4912 99.9039 61.7989 103.718 67.6016 103.211C72.4115 102.79 73.0007 99.12 73.0007 99.12C73.0007 99.12 72.2728 93.4908 74.0428 91.0732C76.4189 87.8161 82.1965 87.129 82.5434 82.4147C82.7801 80.4036 81.3409 78.58 79.3287 78.3433C79.2163 78.3301 79.1036 78.322 78.9896 78.3188C74.9436 78.0202 75.1706 82.9083 75.1706 82.9083C71.3446 84.0874 68.2679 73.8919 65.9361 68.0796Z" fill="#F0A378"/>
<path d="M52.2577 81.2443L48.8586 88.0409L52.2159 88.2145L52.2577 81.2443Z" fill="#1D1D22"/>
<path d="M54.9586 80.82C55.0147 82.2207 55.828 83.3273 56.7716 83.2842C57.7151 83.2411 58.4366 82.0681 58.3859 80.6628C58.3352 79.2565 57.5157 78.1515 56.5729 78.1986C55.6301 78.2447 54.9088 79.4148 54.9597 80.8191" fill="#1D1D22"/>
<path d="M46.4782 81.2627C46.5343 82.6634 47.3474 83.7739 48.2912 83.7268C49.2351 83.6788 49.9563 82.5108 49.9045 81.1054C49.8528 79.699 49.0353 78.5941 48.0914 78.6422C47.1476 78.6892 46.4265 79.8573 46.4772 81.2626" fill="#1D1D22"/>
<path d="M55.2176 92.7979C54.6981 92.9799 52.5294 93.0928 51.8955 93.1091L51.861 91.8955C51.9351 91.9239 55.4358 92.3735 57.2037 89.8876L57.9238 90.8269C57.4353 91.5927 56.2247 92.4446 55.2176 92.7979Z" fill="#23232B"/>
</g>
<path d="M61.6023 99.4398L64.4482 110.484C64.4482 110.484 66.7401 114.746 71.8301 111.791C76.919 108.836 75.377 103.859 75.377 103.859C75.377 103.859 73.5902 99.4314 72.3168 95.1785C72.3168 95.1785 70.7921 92.1393 66.0525 93.9893C60.9992 95.9617 61.6023 99.4398 61.6023 99.4398Z" fill="#F0A378"/>
<path d="M33.7023 162.839C40.5166 161.829 51.1131 137.874 51.1131 137.874L40.1461 130.192L32.4274 145.322C32.4274 145.322 23.0466 164.419 33.7023 162.839Z" fill="#F0A378"/>
<path d="M62.2064 121.913C63.7998 118.396 65.8816 111.047 61.1882 109.406C59.2093 108.715 56.7438 107.441 51.4064 110.732C46.069 114.022 37.2379 127.17 32.1362 138.116L47.7002 147.542C47.7002 147.542 60.7927 125.031 62.2064 121.913Z" fill="#F9ECDE"/>
<path d="M62.044 122.659C67.352 122.668 73.444 120.858 76.015 112.821C77.315 108.751 78.545 105.592 78.545 105.592L64.131 106.288C61.916 107.988 60.045 110.096 58.623 112.5C55.401 117.95 57.084 122.652 62.044 122.659Z" fill="#F0A378"/>
<path d="M113.592 193.012C113.932 194.012 114.242 195.033 114.522 196.052L104.762 190.962L104.932 190.523H104.921L103.962 157.823L98.9023 147.033V147.023L100.262 146.222L100.682 145.972L100.822 145.892L101.902 145.252L102.182 145.092L103.891 144.082L110.701 140.082C110.701 140.082 113.782 148.073 115.352 153.972C116.722 159.122 114.232 186.252 113.592 193.012Z" fill="#F0A378"/>
<path d="M77.9222 105.619C76.5322 105.646 75.1432 105.722 73.7852 105.819L77.9222 105.619Z" fill="#F4E9DE"/>
<path d="M77.9238 105.62C78.1258 105.616 78.3268 105.608 78.5288 105.607C78.5308 105.602 78.5358 105.592 78.5358 105.592L77.9238 105.62Z" fill="#F4E9DE"/>
<path d="M113.951 138.15L103.891 144.081L102.181 145.09L101.901 145.251L100.821 145.89L100.681 145.97L98.9008 147.03L93.3908 150.28L90.0807 145.251C87.9108 148.38 86.4608 151.951 85.8208 155.701C85.4007 158.26 85.2608 160.86 85.4008 163.44H85.3908L55.6508 163.89C55.3908 163.711 55.1308 163.51 54.8708 163.31C54.1208 162.74 53.3808 162.15 52.6608 161.541C52.3408 161.28 52.0208 161.001 51.7008 160.72L49.4108 151.88L48.0608 146.661C48.0608 146.661 46.5468 135.001 46.5528 134.149C46.6687 116.903 49.4138 113.903 51.3768 111.506C52.3668 110.297 54.9668 107.903 63.9908 106.38C63.4808 106.78 63.0008 107.201 62.5308 107.64C62.2808 107.871 62.0308 108.11 61.7908 108.371C61.5508 108.61 61.3108 108.86 61.0808 109.13C60.9108 109.32 60.7408 109.51 60.5808 109.711C60.5708 109.72 60.5708 109.72 60.5708 109.73C60.4708 109.84 60.3708 109.961 60.2808 110.081L60.2708 110.09C60.1008 110.3 59.9308 110.52 59.7708 110.751C59.5608 111.03 59.3608 111.32 59.1708 111.61C59.1608 111.621 59.1508 111.621 59.1508 111.63C59.0108 111.86 58.8608 112.09 58.7208 112.32C58.6808 112.38 58.6508 112.44 58.6108 112.501C58.3308 112.98 58.0908 113.451 57.8908 113.911C57.7808 114.14 57.6908 114.371 57.6108 114.59C57.5108 114.82 57.4408 115.041 57.3808 115.26C57.3008 115.48 57.2508 115.701 57.2008 115.921C57.1408 116.13 57.1008 116.34 57.0708 116.541V116.55C57.0308 116.76 57.0108 116.961 56.9908 117.171C56.9308 117.94 56.9908 118.65 57.1608 119.291C57.2008 119.451 57.2508 119.6 57.3108 119.751C57.5308 120.35 57.8608 120.871 58.2908 121.291C58.5108 121.51 58.7508 121.701 59.0208 121.871C59.2808 122.041 59.5708 122.18 59.8808 122.3H59.8908C60.2008 122.421 60.5308 122.51 60.8908 122.57C61.2508 122.63 61.6308 122.661 62.0308 122.661C62.5408 122.661 63.0708 122.65 63.5907 122.61C63.8108 122.59 64.0408 122.57 64.2608 122.55C64.7508 122.501 65.2407 122.43 65.7208 122.331C65.9708 122.291 66.2108 122.23 66.4508 122.171C66.6208 122.13 66.7908 122.09 66.9508 122.041C67.0107 122.03 67.0608 122.02 67.1208 122.001C67.1707 121.98 67.2308 121.97 67.2808 121.951C67.4608 121.9 67.6308 121.84 67.8108 121.78C67.9207 121.74 68.0308 121.701 68.1408 121.661C68.5308 121.51 68.9207 121.35 69.3008 121.161C69.5308 121.041 69.7608 120.921 69.9908 120.791C70.1008 120.73 70.2108 120.661 70.3208 120.59C70.3808 120.56 70.4308 120.53 70.4808 120.49C70.5408 120.451 70.6007 120.411 70.6508 120.38C70.8708 120.24 71.0908 120.081 71.3008 119.921C71.4907 119.77 71.6808 119.621 71.8708 119.461C71.9207 119.411 71.9808 119.36 72.0308 119.31C72.2008 119.161 72.3708 119.001 72.5308 118.84C72.7308 118.64 72.9208 118.43 73.1108 118.211C73.2808 118.01 73.4508 117.8 73.6108 117.59C73.7608 117.39 73.9008 117.19 74.0408 116.98C74.1908 116.76 74.3408 116.53 74.4808 116.291C74.6208 116.05 74.7607 115.81 74.8908 115.55C75.0008 115.35 75.1008 115.13 75.2008 114.921C75.2708 114.751 75.3408 114.59 75.4108 114.421C75.4808 114.251 75.5508 114.09 75.6208 113.911C75.7508 113.56 75.8808 113.19 76.0008 112.82C76.0808 112.57 76.1608 112.331 76.2408 112.09C76.2408 112.081 76.2408 112.081 76.2508 112.07C76.3308 111.82 76.4108 111.581 76.4908 111.34C76.5708 111.1 76.6508 110.871 76.7308 110.64C76.8008 110.421 76.8808 110.19 76.9508 109.98C77.1408 109.411 77.3308 108.88 77.5008 108.411V108.4C77.8508 107.411 78.1408 106.64 78.3308 106.15C78.3608 106.06 78.3908 105.98 78.4208 105.911C78.4308 105.871 78.4508 105.831 78.4608 105.8C78.4808 105.751 78.4908 105.711 78.5108 105.671C78.5208 105.64 78.5308 105.621 78.5308 105.61H78.5408C78.7407 105.61 78.9308 105.59 79.1308 105.59C83.5408 105.53 87.8708 106.78 91.5708 109.19C91.9108 109.411 92.2708 109.661 92.6308 109.94C98.8508 114.61 107.591 126.55 113.951 138.15Z" fill="#F9ECDE"/>
<path d="M97.7891 186.761L64.2891 169.301C61.2391 167.711 58.3491 165.901 55.6491 163.891C55.3891 163.711 55.1291 163.511 54.8691 163.311H85.2791C85.3091 163.351 85.3491 163.391 85.3891 163.441C87.1791 165.601 93.0991 173.391 97.7891 186.761Z" fill="#2B2A38"/>
<path d="M49.16 124.947L48.052 124.559C44.016 136.094 45.951 141.911 48.196 148.642C49.606 152.441 50.575 156.386 51.091 160.4C51.448 160.731 51.897 161.003 52.373 161.261C51.881 156.823 50.857 152.46 49.31 148.268C47.133 141.743 45.254 136.103 49.16 124.947Z" fill="#B8ACA4"/>
<path d="M19.7591 131.585C17.1517 128.548 10.2793 130.288 12.1283 135.602C15.9339 143.606 26.2098 163.691 33.2102 162.908C40.1295 161.959 38.1758 154.177 34.8992 150.463C33.8477 149.269 31.5043 146.347 31.5043 146.347L19.7527 131.588L19.7591 131.585Z" fill="#F0A378"/>
<path d="M19.6557 131.47C20.11 128.969 20.4458 125.955 19.7324 124.811C18.4151 122.712 11.6058 116.147 11.6058 116.147L10.8285 121.123L9.56339 115.106C8.23988 115.409 6.94358 115.827 5.69021 116.35C4.27352 117.014 2.90605 117.779 1.60032 118.64C0.567908 119.263 2.57932 130.18 4.45253 132.261C5.74594 133.686 9.76644 135.035 12.1621 135.738C16.576 140.875 23.151 135.754 19.6494 131.474C17.6709 129.056 19.6557 131.47 19.6557 131.47Z" fill="#F0A378"/>
<path d="M5.44835 116.485C6.25946 115.986 7.19278 115.721 8.14474 115.72C9.01201 115.995 7.21267 118.186 5.9128 119.63L5.92134 119.688C7.76787 120.604 10.1769 121.935 10.5129 122.798C10.7479 123.401 9.63976 123.502 8.28053 123.426C9.25013 123.869 10.0929 124.549 10.7338 125.4C11.0105 126.099 9.47452 126.129 7.84232 125.978C9.23477 126.748 10.5294 127.602 10.7694 128.219C11.0754 129.004 9.09897 128.945 7.26296 128.732L7.57461 130.838C7.66992 131.482 8.21198 131.966 8.86427 131.988L15.953 132.229C16.6993 132.254 17.3255 131.668 17.3495 130.922C17.3517 130.842 17.3479 130.762 17.3361 130.682L14.033 108.416C13.9377 107.771 13.3947 107.285 12.7425 107.262L5.65283 107.022C4.90767 106.995 4.28363 107.577 4.25676 108.323C4.25439 108.405 4.25792 108.488 4.26966 108.569L5.44436 116.484L5.44835 116.485Z" fill="#020101"/>
<path d="M3.93997 117.26C5.51154 116.398 7.42743 115.494 8.14296 115.721C9.01806 115.999 7.17458 118.229 5.87657 119.661C7.728 120.579 10.1731 121.923 10.5136 122.794C10.7475 123.397 9.63738 123.497 8.27907 123.423C9.24867 123.865 10.0936 124.544 10.7345 125.395C11.0111 126.095 9.47329 126.123 7.84101 125.973C9.23354 126.742 10.5241 127.598 10.769 128.214C11.1746 129.254 7.57703 128.812 5.60459 128.496L5.94385 130.775C6.04216 131.42 6.58637 131.902 7.23781 131.922L14.3264 132.164C15.0717 132.189 15.6948 131.606 15.7207 130.86C15.723 130.778 15.7194 130.697 15.7076 130.616L12.4043 108.352C12.307 107.708 11.7628 107.224 11.1126 107.202L4.02584 106.962C3.28175 106.935 2.65487 107.515 2.62808 108.259C2.62455 108.343 2.63008 108.427 2.64266 108.51L3.93997 117.26Z" fill="#CDD3DC"/>
<path d="M10.4374 110.066C10.546 110.796 10.9282 111.337 11.293 111.277C11.6579 111.215 11.8633 110.574 11.7545 109.844C11.6458 109.113 11.2618 108.571 10.8989 108.632C10.5361 108.693 10.3287 109.335 10.4374 110.065" fill="#020101"/>
<path d="M10.9746 113.842C11.0834 114.571 11.4665 115.113 11.8303 115.052C12.1942 114.99 12.4006 114.348 12.2918 113.619C12.183 112.891 11.8 112.346 11.4362 112.407C11.0723 112.469 10.866 113.11 10.9746 113.841" fill="#020101"/>
<path d="M59.7589 92.4013L53.2665 93.8633L59.7589 92.4013Z" fill="#21376D"/>
<path d="M59.7589 92.4013L53.2665 93.8633L59.7589 92.4013Z" stroke="#B7E143" stroke-width="0.978723"/>
<path d="M84.248 134.873L90.248 145.123L84.248 134.873Z" fill="#21376D"/>
<path d="M84.248 134.873L90.248 145.123" stroke="#B8ADA5"/>
<path d="M49.8536 74.1367L14.3105 107.622L15.1236 113.185L62.605 98.631C62.605 98.631 62.9374 90.3636 60.0164 83.5576C57.0594 76.6666 49.8536 74.1367 49.8536 74.1367Z" fill="#B7E143" fill-opacity="0.36"/>
<path d="M201.37 154.493C192.035 151.159 184.678 119.431 184.678 119.431L202.222 110.762C202.222 110.762 204.059 117.696 209.061 131.214C215.65 149.023 210.58 157.783 201.37 154.493Z" fill="#EFA680"/>
<path d="M209.398 126.856L187.962 137.223C187.962 137.223 177.67 113.033 177.238 108.134C176.308 97.5628 182.504 94.599 184.678 93.8539C198.971 88.9575 209.398 126.856 209.398 126.856Z" fill="#259F46"/>
<path d="M231.868 124.057C227.603 132.188 212.631 158.88 201.874 154.675C192.054 148.285 206.814 134.264 206.814 134.264L223.396 120.104C227.743 116.176 233.615 119.206 231.863 124.076L231.868 124.057Z" fill="#EFA680"/>
<path d="M231.226 125.383C226.565 132.62 219.79 128.12 221.562 122.393C222.048 120.822 219.359 115.559 222.105 111.293C224.857 107.055 226.223 105.799 226.687 100.492L230.397 113.678L230.503 112.5C230.493 112.431 230.499 112.361 230.518 112.295L230.515 112.273L230.759 109.55C230.463 109.454 230.318 109.274 230.396 108.985C230.5 108.681 230.667 108.403 230.888 108.169L231.726 98.8672L233.667 99.3923C235.34 98.766 242.266 102.046 242.372 102.094C243.778 102.718 242.867 116.802 240.795 119.718C239.325 121.789 234.113 124.191 231.224 125.406L231.226 125.383Z" fill="#EFA680"/>
<path d="M226.894 121.214L224.736 121.551C223.972 121.67 223.257 121.149 223.137 120.385C223.122 120.295 223.117 120.202 223.12 120.11L224.225 91.7351C224.251 91.0651 224.747 90.507 225.41 90.4045L228.078 89.9884L226.894 121.214Z" fill="#020101"/>
<path d="M237.905 115.594L237.762 118.39C237.728 119.053 237.234 119.6 236.577 119.701L226.337 121.299C225.777 121.386 225.252 121.003 225.164 120.442C225.154 120.377 225.15 120.311 225.153 120.245L226.264 91.681C226.296 90.8562 226.907 90.1698 227.723 90.0426L237.233 88.5592C237.996 88.439 238.712 88.9609 238.832 89.7245C238.847 89.8123 238.853 89.9005 238.849 89.9891C238.765 92.1428 238.636 95.606 238.452 100.417L235.805 99.6719L235.02 99.5799L234.398 99.7204L234.174 99.9264C234.214 100.8 234.616 101.617 235.285 102.182L237.57 104.113L235.656 105.312C234.147 106.193 232.695 107.169 231.311 108.234C230.61 108.969 230.189 110.564 231.749 110.284C233.31 110.005 235.435 109.033 236.785 108.822L237.1 108.773L233.544 110.564C232.583 111.047 231.796 111.816 231.291 112.766L231.363 113.226L232.122 113.411L236.397 112.23L235.098 113.247L234.226 113.983L233.42 114.583L232.887 115.565L232.952 115.983L233.242 116.195L233.924 116.432L236.727 115.995L237.905 115.594Z" fill="#CDD3DC"/>
<path d="M229.049 93.4543C229.019 94.3587 228.62 95.1071 228.099 95.0599C227.626 95.0475 227.25 94.2915 227.322 93.3804C227.352 92.475 227.751 91.7267 228.272 91.7738C228.747 91.7859 229.122 92.5421 229.049 93.4543Z" fill="#020101"/>
<path d="M188.102 163.223C186.942 164.103 185.742 164.953 184.511 165.764C182.662 166.984 180.732 168.123 178.732 169.163L138.352 190.203L141.591 165.764L141.921 163.294H166.381V163.223H188.102Z" fill="#2B2A38"/>
<path d="M182.1 90.8046V90.7946C182.079 90.7846 182.06 90.7846 182.039 90.7846C182.02 90.7746 181.999 90.7746 181.99 90.7646C181.97 90.7546 181.959 90.7546 181.95 90.7546C180.91 90.4346 179.87 90.1546 178.81 89.9146C177.19 89.5446 175.56 89.2646 173.91 89.0646C169.86 88.4446 165.77 88.2046 161.68 88.3646C160.64 88.3946 159.6 88.4646 158.56 88.5546H158.549C158.499 88.5546 158.45 88.5646 158.4 88.5646C158.4 88.5646 158.4 88.5746 158.41 88.5746C158.45 88.6346 158.48 88.6846 158.52 88.7446C158.52 88.7446 158.52 88.7546 158.53 88.7546C159.11 89.6746 159.77 90.5146 160.499 91.2946C160.759 91.5746 161.03 91.8446 161.299 92.1046C161.82 92.5946 162.37 93.0546 162.94 93.4746C162.95 93.4946 162.97 93.5046 162.99 93.5146C166.03 95.7646 169.74 97.0446 173.629 97.0846V97.0746C174.03 97.0946 174.4 97.1046 174.749 97.1146H174.86C175.129 97.1246 175.37 97.1146 175.62 97.1046C175.99 97.0946 176.49 97.0546 176.89 97.0146C176.98 97.0146 177.06 97.0046 177.129 96.9946C177.23 96.9846 177.32 96.9746 177.4 96.9646C177.579 96.9346 177.749 96.9046 177.91 96.8746C178.249 96.8046 178.579 96.7346 178.97 96.6246C179.1 96.5846 179.23 96.5346 179.35 96.4846C182.94 95.1646 182.47 92.0746 182.1 90.8046Z" fill="#EFA680"/>
<path d="M199.361 128.015L199.231 129.725L199.161 130.635V130.664L198.291 142.255L198.041 145.624L197.371 154.565C194.611 157.725 191.501 160.624 188.101 163.225C186.941 164.105 185.741 164.954 184.51 165.765H140.951L143.151 143.105L144.791 121.025L146.425 116.175L148.779 108.34C148.779 108.34 127.715 106.485 137.719 97.3797C142.843 92.7177 153.991 89.0147 158.391 88.5747H158.411C158.501 88.5647 158.531 88.5547 158.55 88.5547H158.561C158.561 88.5647 158.481 88.6047 158.501 88.6947C158.51 88.7147 158.51 88.7247 158.521 88.7447C158.521 88.7447 158.521 88.7547 158.531 88.7547C158.571 88.8647 158.631 88.9647 158.691 89.0547C158.781 89.2047 158.781 89.1547 159.221 89.8047C159.621 90.3247 160.041 90.8247 160.501 91.2947C160.751 91.5747 161.021 91.8447 161.3 92.1047C161.811 92.6047 162.361 93.0647 162.941 93.4747C162.951 93.4947 162.971 93.5047 162.991 93.5147C163.431 93.8247 163.881 94.1147 164.351 94.3747C165.411 94.9347 166.51 95.4447 167.641 95.8747C168.251 96.1347 168.891 96.3347 169.541 96.4747C171.251 96.8547 172.991 97.0647 174.751 97.1147H174.861C174.941 97.1247 175.01 97.1247 175.09 97.1247C175.171 97.1347 175.371 97.1247 175.621 97.1047C175.991 97.0947 176.491 97.0547 176.891 97.0147C176.981 97.0147 177.061 97.0047 177.131 96.9947C177.231 96.9847 177.321 96.9747 177.401 96.9647C177.471 96.9647 177.531 96.9547 177.571 96.9447C177.691 96.9247 177.8 96.8947 177.911 96.8747C178.251 96.8047 178.581 96.7347 178.971 96.6247C179.101 96.5847 179.231 96.5347 179.351 96.4847C180.241 96.1247 181.021 95.5547 181.641 94.8147C182.131 93.8847 182.351 92.8347 182.26 91.7847C182.181 90.9547 181.891 90.7547 181.951 90.7547C181.961 90.7547 181.971 90.7547 181.991 90.7647C182.001 90.7747 182.021 90.7747 182.041 90.7847C182.061 90.7847 182.081 90.7947 182.101 90.8047H182.111C190.151 92.6547 197.649 97.0567 200.034 104.957C201.055 108.34 199.361 128.015 199.361 128.015Z" fill="#259F46"/>
<path d="M166.193 111.449L147.348 127.097C147.348 127.097 128.118 110.34 137.322 97.6293C144.454 87.7821 166.193 111.449 166.193 111.449Z" fill="#259F46"/>
<path d="M177.616 139.214C166.237 146.566 149.36 125.444 149.36 125.444L164.81 112.823L175.875 123.377C180.499 128.275 184.35 134.863 177.616 139.214Z" fill="#EFA680"/>
<path d="M168.227 110.483L162.197 115.592L160.745 114.09L164.894 110.795L156.157 103.456L157.821 102.189L168.227 110.483Z" fill="#33875B"/>
<path d="M221.369 123.29C214.296 127.287 210.994 121.248 213.098 118.131C212.835 115.422 213.604 112.715 215.251 110.551C216.711 108.711 221.298 106.596 222.796 105.803C223.273 105.53 223.881 105.694 224.157 106.168C224.242 106.317 224.289 106.483 224.29 106.654L220.78 111.567C220.78 111.567 232.544 103.926 233.695 104.263C235.382 103.673 238.081 116.288 221.364 123.306L221.369 123.29Z" fill="#EFA680"/>
<path d="M241.842 104.125L235.461 95.8597C234.774 94.9673 233.495 94.8011 232.602 95.4873L216.629 107.956C216.067 108.4 215.782 109.107 215.881 109.816C217.214 112.222 217.505 113.396 218.677 112.77C219.357 112.411 220.066 112.056 220.066 112.056C220.066 112.056 228.185 106.568 232.464 105.143C235.981 103.964 234.763 112.936 228.011 119.585L242.074 107.99C242.962 107.304 243.243 105.93 241.842 104.125Z" fill="#BD0000"/>
<path d="M219.391 124.264C210.485 132.07 189.453 138.953 175.94 139.929C162.427 140.905 165.337 127.019 182.203 124.978C199.07 122.938 199.835 122.625 211.453 118.608C219.345 114.777 224.192 119.291 219.385 124.282L219.391 124.264Z" fill="#EFA680"/>
<path d="M178.358 89.5235L178.002 77.2775C178.002 77.2775 177.467 70.9425 170.489 69.9265C163.888 68.9645 162.649 73.5925 162.649 73.5925L160.848 89.6775C160.848 89.6775 161.039 95.8395 169.455 95.8395C177.88 95.8395 178.358 89.5235 178.358 89.5235Z" fill="#EFA680"/>
<path d="M167.216 84.445C174.562 86.7856 177.713 80.2709 177.713 80.2709C177.713 80.2709 192.557 82.4809 195.868 81.0512C195.868 81.0512 201.149 61.3206 197.259 49.9242L197.195 49.4858L165.951 43.6474L163.252 62.0052C162.406 58.8165 156.577 55.9619 153.98 60.2635C148.753 69.0639 162.649 75.5388 162.649 75.5388C162.649 75.5388 161.291 82.557 167.216 84.445Z" fill="#EFA680"/>
<path d="M187.39 60.8798L190.282 69.5763L186.111 69.3418L187.39 60.8798Z" fill="#18131E"/>
<path d="M183.257 63.0038C183.389 64.1616 182.557 65.2089 181.398 65.3405C180.239 65.4722 179.194 64.6393 179.063 63.4815C178.932 62.3238 179.763 61.2774 180.92 61.1447L180.932 61.1455C182.083 61.0123 183.124 61.8379 183.257 62.9898L183.256 63.0038L183.257 63.0038Z" fill="#18131E"/>
<path d="M194.199 63.7578C194.331 64.9156 193.498 65.9628 192.34 66.0945C191.18 66.226 190.136 65.3932 190.004 64.2354C189.873 63.0776 190.703 62.0313 191.861 61.8986L191.871 61.8993C193.022 61.7661 194.065 62.5918 194.198 63.7437C194.199 63.7437 194.199 63.7447 194.199 63.7447L194.198 63.7567L194.199 63.7578Z" fill="#18131E"/>
<path d="M165.917 66.756C165.868 66.6163 165.811 66.464 165.749 66.3034C164.571 62.4984 161.627 59.4978 157.844 58.2507C156.549 55.9773 155.728 53.4659 155.429 50.8672C154.824 43.45 157.229 36.8759 161.697 35.2462C166.22 33.6024 176.546 35.2934 188.213 36.0976C202.226 37.0635 203.091 35.7409 203.091 35.7409C203.091 35.7409 214.249 53.9273 191.478 51.8515C179.547 50.7634 172.721 50.5916 172.721 50.5916L165.917 66.756Z" fill="#18131E"/>
<path d="M183.744 74.5918C185.056 75.7247 186.864 76.0879 188.511 75.5519L183.744 74.5918Z" fill="white"/>
<path d="M186.598 76.6386C185.331 76.5353 184.13 76.0305 183.168 75.1994L184.313 73.9752L183.742 74.5843L184.309 73.9709C185.393 74.8996 186.882 75.1957 188.238 74.7529L188.778 76.3338C188.08 76.5794 187.338 76.6836 186.598 76.6386Z" fill="#18131E"/>
</svg>
