<svg width="136" height="135" viewBox="0 0 136 135" fill="none" xmlns="http://www.w3.org/2000/svg">
<path d="M71.3463 116.363C45.1439 120.973 3.63474 123.067 0.282332 84.2287C-2.84694 47.9814 20.472 28.1049 48.6136 17.1263C62.6489 11.6509 77.6468 7.63607 91.585 17.058C102.796 24.6361 111.853 38.7231 114.83 52.5659C121.604 84.0633 97.987 111.911 71.3463 116.363Z" fill="#259F46" fill-opacity="0.2"/>
<path d="M31.8162 40.1899C25.5192 44.1969 18.8126 45.4237 14.7234 43.2159C10.6341 41.0081 17.913 54.5831 17.913 54.5831L27.6587 57.3694C27.6587 57.3694 30.2743 57.232 31.5703 57.0535C34.9988 56.5818 41.8227 55.4197 41.8227 55.4197L37.0579 36.9373L31.8162 40.1899Z" fill="#24500F"/>
<path d="M27.6597 57.3693C21.3373 57.7158 8.03707 57.1917 3.4928 47.453C3.15065 46.7223 2.8575 45.9391 2.62298 45.099C1.47926 41.0387 1.86342 38.0835 2.96863 35.5659C6.1294 28.3448 15.2109 24.6984 11.2092 8.78516L26.4049 13.5132C26.7847 15.7998 26.8617 17.8037 26.7129 19.5862C26.0015 28.3448 19.9048 31.7751 17.4826 37.4544C16.4264 39.9431 16.0764 42.8641 17.1956 46.857C18.7952 52.5503 22.9798 55.6874 27.6597 57.3693Z" fill="#B7E143"/>
<g opacity="0.4">
<path d="M26.7136 19.5864C26.0031 28.345 19.9055 31.7753 17.4833 37.4546L3.49351 47.4532C3.15136 46.7225 2.85821 45.9393 2.62369 45.0984C1.47996 41.0389 1.865 38.0838 2.96934 35.5662L26.7136 19.5864Z" fill="white"/>
</g>
<path d="M99.6765 103.504C105.973 99.4964 112.678 98.2705 116.768 100.478C120.857 102.686 113.579 89.1111 113.579 89.1111L103.833 86.3248C103.833 86.3248 102.465 86.1402 99.6765 86.66C96.8876 87.1798 90.0962 88.467 90.0962 88.467L93.4048 106.723L99.6765 103.504Z" fill="#24500F"/>
<path d="M103.833 86.3238C110.156 85.9773 123.455 86.5015 128 96.2402C128.341 96.9708 128.634 97.754 128.87 98.5941C130.013 102.654 129.628 105.61 128.524 108.127C125.362 115.348 116.282 118.995 120.284 134.908L105.088 130.18C104.707 127.892 104.63 125.889 104.78 124.107C105.491 115.348 111.587 111.917 114.009 106.239C115.066 103.75 115.416 100.828 114.297 96.8361C112.698 91.1429 108.513 88.0057 103.833 86.3238Z" fill="#B7E143"/>
<g opacity="0.4">
<path d="M104.779 124.106C105.49 115.347 111.587 111.916 114.009 106.238L127.999 96.239C128.341 96.9697 128.634 97.7529 128.869 98.5938C130.013 102.653 129.628 105.608 128.524 108.126L104.779 124.106Z" fill="white"/>
</g>
<path d="M90.5627 124.986H36.7106C31.6745 124.986 27.5923 120.904 27.5923 115.868V33.23C27.5923 29.2554 30.8152 26.0325 34.7898 26.0325H90.5627C94.5372 26.0325 97.7593 29.2554 97.7593 33.23V117.789C97.7593 121.764 94.5372 124.986 90.5627 124.986Z" fill="#24500F"/>
<path d="M92.485 123.064H36.7113C32.7367 123.064 29.5146 119.842 29.5146 115.868V31.3083C29.5146 27.3337 32.7367 24.1108 36.7113 24.1108H92.485C96.4596 24.1108 99.6816 27.3337 99.6816 31.3083V115.868C99.6816 119.842 96.4596 123.064 92.485 123.064Z" fill="white"/>
<path d="M81.9869 49.9624C81.9869 59.5655 74.2013 67.3502 64.5983 67.3502C54.9952 67.3502 47.2114 59.5655 47.2114 49.9624C47.2114 40.3585 54.9952 32.5747 64.5983 32.5747C74.2013 32.5747 81.9869 40.3585 81.9869 49.9624Z" fill="#CEE7EC"/>
<path d="M91.1171 89.3125H79.8829C78.4207 89.3125 77.2358 88.1277 77.2358 86.6672V75.433C77.2358 73.9716 78.4207 72.7859 79.8829 72.7859H91.1171C92.5785 72.7859 93.7625 73.9716 93.7625 75.433V86.6672C93.7625 88.1277 92.5785 89.3125 91.1171 89.3125Z" fill="#24500F"/>
<path d="M71.2505 89.3125H60.0163C58.555 89.3125 57.3701 88.1277 57.3701 86.6672V75.433C57.3701 73.9716 58.555 72.7859 60.0163 72.7859H71.2505C72.7119 72.7859 73.8968 73.9716 73.8968 75.433V86.6672C73.8968 88.1277 72.7119 89.3125 71.2505 89.3125Z" fill="#24500F"/>
<path d="M91.1171 111.072H79.8829C78.4207 111.072 77.2358 109.887 77.2358 108.427V97.1928C77.2358 95.7305 78.4207 94.5457 79.8829 94.5457H91.1171C92.5785 94.5457 93.7625 95.7305 93.7625 97.1928V108.427C93.7625 109.887 92.5785 111.072 91.1171 111.072Z" fill="#24500F"/>
<path d="M71.2505 111.072H60.0163C58.555 111.072 57.3701 109.887 57.3701 108.427V97.1928C57.3701 95.7305 58.555 94.5457 60.0163 94.5457H71.2505C72.7119 94.5457 73.8968 95.7305 73.8968 97.1928V108.427C73.8968 109.887 72.7119 111.072 71.2505 111.072Z" fill="#24500F"/>
<path d="M51.4878 111.072H40.2535C38.7922 111.072 37.6064 109.887 37.6064 108.427V97.1928C37.6064 95.7305 38.7922 94.5457 40.2535 94.5457H51.4878C52.9491 94.5457 54.1331 95.7305 54.1331 97.1928V108.427C54.1331 109.887 52.9491 111.072 51.4878 111.072Z" fill="#24500F"/>
<path d="M58.7807 43.6995C58.7264 40.6323 61.1714 38.092 64.2385 38.0377C67.3056 37.9835 69.8469 40.4346 69.9002 43.5008C69.9554 46.568 67.5034 49.1092 64.4372 49.1634C61.37 49.2177 58.8349 46.7666 58.7807 43.6995Z" fill="white"/>
<path d="M72.3829 60.2357C72.207 60.3539 72.0644 60.4457 71.9594 60.5026C69.7936 61.7094 67.3171 62.4199 64.6805 62.4672C62.036 62.5144 59.5316 61.8914 57.3299 60.7634C57.2223 60.7091 57.0726 60.6225 56.888 60.5114C55.7154 59.8104 55.1396 58.4357 55.3872 57.0898C55.9333 54.1163 57.3631 51.1857 59.3706 49.4303C60.8031 50.462 62.5716 51.0641 64.4696 51.0291C66.2819 50.9976 67.9533 50.3946 69.3105 49.3936C71.2873 50.9249 72.8835 53.2754 73.7699 56.7669C74.1077 58.0953 73.5328 59.4937 72.3829 60.2357Z" fill="white"/>
<path d="M103.766 110.064L100.839 120.065C100.601 120.878 99.7719 121.367 98.945 121.18L84.1431 117.837L71.8719 115.059H71.8666L54.1954 111.067L42.0537 108.324L27.9729 105.143C27.1416 104.955 26.5317 104.243 26.4757 103.391L25.71 91.7001L36.5058 89.4949L61.714 96.5716L73.9476 100.007L89.6674 104.423L101.938 107.867H101.944L102.657 108.067C103.518 108.309 104.016 109.207 103.766 110.064Z" fill="#B7E143"/>
<g opacity="0.4">
<path d="M73.9481 100.007L54.196 111.068L42.0552 108.324L61.7146 96.571L73.9481 100.007Z" fill="white"/>
</g>
<g opacity="0.4">
<path d="M101.94 107.868L84.1443 117.837L71.874 115.06L89.6695 104.422L101.94 107.868Z" fill="white"/>
</g>
<path d="M101.887 67.4832V81.3252C101.887 82.0725 101.34 82.7069 100.602 82.8198L84.8643 85.2228L74.058 86.8714L54.4362 89.8694L43.8041 91.4927L26.853 94.0785L23.1917 94.6377C22.3227 94.7707 21.5396 94.0978 21.5396 93.2183V80.3188C21.5396 79.617 22.0471 79.0185 22.7393 78.903L37.0678 76.5123L53.4369 73.7785L64.9004 71.8674L83.9551 68.6909L95.6067 66.7447L100.126 65.9912C101.048 65.8372 101.887 66.5487 101.887 67.4832Z" fill="#B7E143"/>
<g opacity="0.4">
<path d="M64.9014 71.8669L54.4364 89.869L43.8042 91.4931L53.437 73.779L64.9014 71.8669Z" fill="white"/>
</g>
<g opacity="0.4">
<path d="M37.0687 76.512L26.854 94.0773L23.1935 94.6374C22.3237 94.7695 21.5405 94.0975 21.5405 93.218V80.3185C21.5405 79.6167 22.0481 79.0173 22.7403 78.9018L37.0687 76.512Z" fill="white"/>
</g>
<g opacity="0.4">
<path d="M95.6059 66.7441L84.8635 85.2222L74.0581 86.8709L83.9552 68.6903L95.6059 66.7441Z" fill="white"/>
</g>
<path d="M102.013 49.3488C101.958 50.5039 101.427 51.5855 100.537 52.3249C93.718 58.0033 89.249 59.9424 80.4921 63.9013C76.2979 65.7941 72.0695 67.4707 67.9182 68.9505C61.6246 71.1994 55.5228 72.9959 50.0264 74.4136C45.9328 75.4706 42.1709 76.3203 38.9226 76.9889C31.481 78.5168 26.7144 79.1022 26.7144 79.1022C26.7144 79.1022 26.5884 75.0174 26.5718 67.1854C26.5692 66.2342 27.2701 65.4187 28.2125 65.2935C33.2871 64.6145 40.0418 63.1312 47.7092 60.8455C51.7162 59.6493 55.9795 58.236 60.3803 56.5979C66.4008 54.3638 72.6891 51.7167 78.9546 48.661C84.1001 46.1583 89.2359 43.3755 94.1993 40.3198C97.0722 38.5565 99.1531 36.6926 101.887 34.7429C101.887 34.7429 102.277 43.7982 102.013 49.3488Z" fill="#B7E143"/>
<g opacity="0.4">
<path d="M94.2005 40.3198L80.4934 63.9005C76.2991 65.7932 72.0708 67.4699 67.9194 68.9505L78.9559 48.6602C84.1013 46.1574 89.2371 43.3756 94.2005 40.3198Z" fill="white"/>
</g>
<g opacity="0.4">
<path d="M60.3796 56.5977L50.0257 74.4124C45.9321 75.4695 42.1702 76.3201 38.9219 76.9886L47.7094 60.8453C51.7172 59.6482 55.9788 58.2358 60.3796 56.5977Z" fill="white"/>
</g>
<path d="M103.538 50.9799C103.207 50.9799 102.876 50.9125 102.569 50.7804C89.8742 45.3216 83.7452 35.4359 83.2797 19.6706C83.2412 18.3667 84.0357 17.1591 85.2582 16.6673C93.9538 13.1697 99.9271 8.95442 102.091 7.30403C102.941 6.65735 104.132 6.6556 104.983 7.30403C107.148 8.95442 113.121 13.1705 121.816 16.6673C123.038 17.1591 123.832 18.3667 123.795 19.6706C123.329 35.4359 117.2 45.3216 104.505 50.7804C104.198 50.9125 103.868 50.9799 103.538 50.9799ZM103.538 7.64618C103.204 7.64618 102.871 7.75206 102.593 7.96383C100.402 9.63347 94.3572 13.8995 85.568 17.4356C84.6667 17.7988 84.0795 18.6861 84.1084 19.6452C84.5625 35.05 90.5332 44.7021 102.897 50.0199C103.302 50.1932 103.77 50.1949 104.177 50.0199C116.541 44.7021 122.512 35.0509 122.966 19.647C122.994 18.687 122.408 17.7979 121.506 17.4356C112.718 13.9003 106.672 9.63347 104.481 7.96383C104.204 7.75206 103.87 7.64618 103.538 7.64618Z" fill="#1F4D9C"/>
<path d="M103.954 46.6397C113.832 42.4787 119.356 34.8612 119.834 21.6029C119.875 20.4671 119.186 19.4336 118.133 19.0048C112.032 16.5152 107.617 13.6441 105.325 11.985C104.256 11.2114 102.815 11.2114 101.747 11.985C99.4552 13.6441 95.0396 16.5152 88.9386 19.0048C87.8867 19.4336 87.1963 20.4671 87.2365 21.6029C87.7152 34.8612 93.2404 42.4787 103.118 46.6397C103.384 46.7517 103.688 46.7517 103.954 46.6397Z" fill="#24500F"/>
<path d="M108.878 27.773C108.852 27.1622 108.349 26.6792 107.739 26.6792H99.338C98.7245 26.6792 98.2223 27.1622 98.1986 27.773L97.9177 34.8646C97.8836 35.717 98.5662 36.4223 99.4185 36.4223H107.659C108.51 36.4223 109.189 35.717 109.154 34.8646L108.878 27.773ZM102.326 33.5958L103.028 30.5147C102.683 30.3344 102.45 29.9704 102.45 29.5521C102.45 28.95 102.936 28.4635 103.539 28.4635C104.14 28.4635 104.627 28.95 104.627 29.5521C104.627 29.9704 104.394 30.3344 104.049 30.5147L104.751 33.5958H102.326Z" fill="white"/>
<path d="M108.065 27.0337L106.915 27.0442L106.901 25.6484C106.894 24.748 106.536 23.9044 105.893 23.2735C105.25 22.6417 104.4 22.2978 103.5 22.3065C102.599 22.3135 101.755 22.6714 101.124 23.3146C100.493 23.956 100.149 24.8066 100.157 25.7071L100.17 27.0302L99.0179 27.0398L99.0065 25.7176C98.996 24.5091 99.4563 23.3697 100.303 22.5078C101.15 21.6459 102.282 21.1654 103.49 21.1549C104.697 21.1453 105.837 21.6047 106.699 22.4518C107.561 23.298 108.042 24.4303 108.052 25.6388L108.065 27.0337Z" fill="white"/>
<path d="M84.1782 4.95117C82.8131 4.95117 81.7026 3.8407 81.7026 2.47646C81.7026 1.11047 82.8131 0 84.1782 0C85.5442 0 86.6538 1.11047 86.6538 2.47646C86.6538 3.8407 85.5442 4.95117 84.1782 4.95117ZM84.1782 0.82782C83.2699 0.82782 82.5305 1.56813 82.5305 2.47646C82.5305 3.38479 83.2699 4.12335 84.1782 4.12335C85.0865 4.12335 85.826 3.38479 85.826 2.47646C85.826 1.56813 85.0865 0.82782 84.1782 0.82782Z" fill="#1F4D9C"/>
<path d="M133.524 27.627C132.159 27.627 131.049 26.5156 131.049 25.1505C131.049 23.7845 132.159 22.6741 133.524 22.6741C134.89 22.6741 136 23.7845 136 25.1505C136 26.5156 134.89 27.627 133.524 27.627ZM133.524 23.5028C132.616 23.5028 131.878 24.2422 131.878 25.1505C131.878 26.0589 132.616 26.7983 133.524 26.7983C134.433 26.7983 135.172 26.0589 135.172 25.1505C135.172 24.2422 134.433 23.5028 133.524 23.5028Z" fill="#1F4D9C"/>
<path d="M130.527 50.0254C129.162 50.0254 128.052 48.9149 128.052 47.5507C128.052 46.1847 129.162 45.0742 130.527 45.0742C131.893 45.0742 133.003 46.1847 133.003 47.5507C133.003 48.9149 131.893 50.0254 130.527 50.0254ZM130.527 45.902C129.619 45.902 128.88 46.6424 128.88 47.5507C128.88 48.459 129.619 49.1976 130.527 49.1976C131.436 49.1976 132.175 48.459 132.175 47.5507C132.175 46.6424 131.436 45.902 130.527 45.902Z" fill="#1F4D9C"/>
<path d="M93.4655 13.3231L84.2413 10.2236L84.2046 4.49976" stroke="#24500F" stroke-width="8.09447"/>
<path d="M117.895 39.7939H123.31L129.089 46.1015" stroke="#24500F" stroke-width="8.09447"/>
<path d="M121.358 32.5378H127.886L132.315 26.814" stroke="#24500F" stroke-width="8.09447"/>
</svg>
