<svg width="254" height="243" viewBox="0 0 254 243" fill="none" xmlns="http://www.w3.org/2000/svg">
<path d="M120.827 64.2326C103.778 73.516 89.0445 92.9687 82.4933 109.356C71.9852 135.151 73.2932 162.37 79.4622 180.636C79.8147 181.696 80.1902 182.804 80.5908 183.953C81.1421 185.532 81.741 187.187 82.3966 188.9C84.1707 193.536 86.3548 198.592 89.101 203.687C97.4028 219.092 110.839 234.862 133.592 240.501C143.322 242.912 153.832 243.564 164.22 241.774C173.338 240.204 182.362 236.751 190.686 230.956C197.796 226.006 204.395 219.346 210.102 210.687C233.175 175.372 247.717 114.692 213.635 76.6772C194.464 55.2955 170.152 48.6525 144.841 54.7636C140.385 55.8396 135.898 57.3104 131.402 59.166C127.879 60.6205 124.35 62.3112 120.827 64.2326Z" fill="#F1F5FF"/>
<path d="M109.632 233.569V234.12H58V233.569H109.632Z" fill="#9DA0B6"/>
<path d="M238.632 221.569V222.12H0V221.569H238.632Z" fill="#9DA0B6"/>
<path d="M175.921 18.8751L176.06 18.3416C174.993 18.0637 173.904 17.8028 172.824 17.5661L172.707 18.1045C173.78 18.3395 174.861 18.599 175.921 18.8751ZM166.2 16.9483C167.285 17.097 168.384 17.27 169.465 17.4618L169.561 16.9189C168.473 16.7256 167.367 16.5519 166.275 16.4027L166.2 16.9483ZM182.244 20.7959L182.426 20.2755C181.383 19.913 180.318 19.5661 179.262 19.2457L179.102 19.7717C180.151 20.0906 181.209 20.435 182.244 20.7959ZM159.622 16.3148C160.717 16.3755 161.826 16.4609 162.918 16.5659L162.97 16.0176C161.872 15.912 160.755 15.8262 159.653 15.7649L159.622 16.3148ZM188.393 23.219L188.615 22.7156C187.606 22.2704 186.574 21.8384 185.545 21.4329L185.343 21.9457C186.364 22.3487 187.391 22.7773 188.393 23.219ZM153.015 16.2143C154.109 16.187 155.221 16.1817 156.319 16.1982L156.327 15.6474C155.222 15.6304 154.102 15.6359 153 15.6636L153.015 16.2143ZM194.325 26.1313L194.587 25.6468C193.617 25.1211 192.623 24.6063 191.631 24.1196L191.388 24.6144C192.373 25.0984 193.362 25.609 194.325 26.1313ZM146.42 16.6487C147.511 16.5324 148.618 16.4373 149.712 16.3649L149.676 15.8157C148.575 15.8886 147.46 15.9842 146.362 16.1018L146.42 16.6487ZM200.001 29.514L200.302 29.0533C199.378 28.4505 198.429 27.8576 197.48 27.2922L197.198 27.7651C198.141 28.3271 199.084 28.9156 200.001 29.514ZM139.866 17.6198C140.946 17.4143 142.045 17.2294 143.132 17.0684L143.051 16.5228C141.957 16.6852 140.851 16.8718 139.763 17.0787L139.866 17.6198ZM205.373 33.336L205.71 32.9006C204.84 32.2267 203.942 31.5609 203.044 30.9218L202.726 31.3704C203.618 32.0053 204.508 32.6662 205.373 33.336ZM133.416 19.119C134.475 18.8272 135.555 18.5531 136.625 18.3045L136.501 17.768C135.423 18.018 134.336 18.2945 133.27 18.588L133.416 19.119ZM210.421 37.581L210.792 37.1744C209.978 36.433 209.137 35.6967 208.293 34.9863L207.938 35.4077C208.777 36.1127 209.613 36.8437 210.421 37.581ZM127.112 21.1321C128.144 20.7556 129.198 20.3959 130.243 20.0623L130.076 19.5378C129.023 19.8741 127.962 20.2362 126.923 20.6153L127.112 21.1321ZM215.114 42.2217L215.517 41.8457C214.763 41.0383 213.984 40.2356 213.201 39.4619L212.814 39.8537C213.592 40.6222 214.365 41.4195 215.114 42.2217ZM120.993 23.6467C121.992 23.1883 123.013 22.745 124.027 22.3286L123.817 21.8185C122.796 22.2383 121.769 22.6845 120.763 23.1455L120.993 23.6467ZM219.423 47.2262L219.854 46.884C219.167 46.0185 218.455 45.1557 217.736 44.321L217.319 44.6808C218.033 45.5102 218.741 46.3668 219.423 47.2262ZM115.097 26.6407C116.056 26.104 117.038 25.5805 118.015 25.0845L117.765 24.5934C116.782 25.093 115.794 25.6203 114.829 26.1609L115.097 26.6407ZM223.319 52.5617L223.777 52.2548C223.162 51.3385 222.521 50.4225 221.87 49.5299L221.425 49.8549C222.071 50.7413 222.709 51.6513 223.319 52.5617ZM109.463 30.0968C110.376 29.4855 111.313 28.8857 112.246 28.3128L111.957 27.8438C111.018 28.4205 110.076 29.0244 109.157 29.6395L109.463 30.0968ZM226.779 58.1941L227.259 57.9249C226.72 56.9626 226.153 55.9963 225.575 55.0541L225.105 55.3429C225.679 56.2782 226.243 57.2376 226.779 58.1941ZM104.125 33.9907C104.985 33.3095 105.87 32.6372 106.756 31.9913L106.431 31.5462C105.538 32.1966 104.648 32.8732 103.783 33.5592L104.125 33.9907ZM229.777 64.0878L230.278 63.8577C229.816 62.8529 229.328 61.8453 228.828 60.8607L228.336 61.1101C228.834 62.0881 229.319 63.0897 229.777 64.0878ZM99.1194 38.2974C99.9212 37.5505 100.749 36.8082 101.579 36.0942L101.219 35.6763C100.384 36.3954 99.5505 37.1415 98.7433 37.8944L99.1194 38.2974ZM232.293 70.2051L232.811 70.0157C232.432 68.9775 232.027 67.9327 231.606 66.9111L231.097 67.1208C231.515 68.1357 231.917 69.1736 232.293 70.2051ZM94.4762 42.9878C95.2158 42.1783 95.9801 41.3732 96.7496 40.5958L96.3588 40.209C95.5841 40.9914 94.8137 41.8014 94.0686 42.6169L94.4762 42.9878ZM234.312 76.508L234.842 76.3612C234.548 75.2956 234.228 74.2212 233.891 73.1676L233.366 73.3361C233.702 74.3831 234.02 75.4499 234.312 76.508ZM90.2284 48.0343C90.8991 47.1699 91.5954 46.306 92.3002 45.4685L91.8798 45.1142C91.1696 45.9577 90.4672 46.8264 89.7931 47.6972L90.2284 48.0343ZM235.813 82.9566L236.354 82.8541C236.147 81.7674 235.915 80.67 235.664 79.5922L235.127 79.7172C235.377 80.7875 235.608 81.8773 235.813 82.9566ZM86.404 53.4029C87.0036 52.4842 87.6283 51.5679 88.2611 50.68L87.8127 50.3606C87.1754 51.2547 86.5465 52.1762 85.9425 53.1011L86.404 53.4029ZM236.789 89.5108L237.336 89.4516C237.217 88.3524 237.075 87.2389 236.912 86.1424L236.368 86.2236C236.53 87.3129 236.672 88.4192 236.789 89.5108ZM83.0165 59.0773C83.5398 58.1144 84.0894 57.148 84.6522 56.206L84.1794 55.9232C83.6132 56.8717 83.06 57.8454 82.5333 58.8147L83.0165 59.0773ZM237.226 96.1049L237.778 96.0907C237.749 94.9875 237.697 93.869 237.624 92.7662L237.074 92.8035C237.147 93.899 237.198 95.009 237.226 96.1049ZM80.1013 65.0087C80.5457 64.0041 81.0175 62.9953 81.4999 62.0133L81.0051 61.7708C80.5191 62.7601 80.0452 63.7737 79.5982 64.7858L80.1013 65.0087ZM237.13 102.713L237.68 102.742C237.74 101.639 237.78 100.521 237.795 99.4171L237.245 99.4092C237.229 100.505 237.191 101.617 237.13 102.713ZM77.6757 71.1549C78.0362 70.1219 78.4223 69.0791 78.8263 68.0576L78.3135 67.8551C77.9078 68.8845 77.5173 69.9335 77.1552 70.9744L77.6757 71.1549ZM236.5 109.291L237.046 109.366C237.195 108.269 237.324 107.157 237.429 106.061L236.881 106.008C236.776 107.098 236.649 108.202 236.5 109.291ZM75.7511 77.4775C76.0282 76.4182 76.3292 75.3477 76.6496 74.2967L76.1226 74.1362C75.8008 75.194 75.4961 76.2719 75.2175 77.3381L75.7511 77.4775ZM235.347 115.799L235.885 115.916L235.905 115.825C236.133 114.774 236.344 113.707 236.531 112.652L235.989 112.556C235.803 113.604 235.593 114.664 235.366 115.709L235.347 115.799ZM73.7601 84.0159L74.302 84.1121C74.493 83.03 74.7075 81.9387 74.9399 80.8686L74.9785 80.6907L74.4401 80.5738L74.4017 80.7507C74.1676 81.8286 73.9516 82.9267 73.7601 84.0159ZM234.21 122.355C234.53 121.299 234.834 120.22 235.112 119.151L234.578 119.013C234.303 120.074 234.001 121.145 233.683 122.194L234.21 122.355ZM72.8686 90.6089L73.4171 90.6605C73.5206 89.5665 73.6479 88.4624 73.7944 87.3778L73.2488 87.3033C73.1006 88.3957 72.9726 89.5079 72.8686 90.6089ZM232.026 128.638C232.43 127.613 232.818 126.562 233.181 125.517L232.661 125.337C232.301 126.375 231.914 127.418 231.514 128.436L232.026 128.638ZM72.5096 97.252L73.0606 97.2591C73.0753 96.1643 73.113 95.053 73.172 93.9565L72.6218 93.9271C72.562 95.0316 72.525 96.1492 72.5096 97.252ZM229.342 134.726C229.829 133.733 230.3 132.718 230.746 131.709L230.241 131.486C229.799 132.49 229.33 133.498 228.847 134.483L229.342 134.726ZM72.6882 103.902L73.2386 103.865C73.1646 102.774 73.1111 101.663 73.0817 100.564L72.5321 100.579C72.5619 101.685 72.6138 102.804 72.6882 103.902ZM226.173 140.576C226.739 139.628 227.292 138.654 227.817 137.683L227.333 137.42C226.81 138.384 226.261 139.352 225.7 140.294L226.173 140.576ZM73.407 110.526L73.9526 110.445C73.7893 109.354 73.6457 108.249 73.5275 107.158L72.9805 107.217C73.0991 108.315 73.2432 109.428 73.407 110.526ZM222.546 146.143C223.186 145.244 223.814 144.321 224.414 143.4L223.952 143.099C223.357 144.014 222.733 144.93 222.098 145.824L222.546 146.143ZM74.6626 117.076L75.1995 116.95C74.9498 115.88 74.7168 114.79 74.5102 113.711L73.9689 113.814C74.177 114.901 74.4104 115.998 74.6626 117.076ZM218.485 151.394C219.194 150.55 219.895 149.68 220.57 148.809L220.134 148.471C219.464 149.338 218.768 150.202 218.064 151.04L218.485 151.394ZM76.4432 123.498L76.9679 123.329C76.6317 122.281 76.3119 121.214 76.0194 120.158L75.4881 120.304C75.7823 121.367 76.1043 122.443 76.4432 123.498ZM214.012 156.305C214.787 155.52 215.556 154.709 216.299 153.894L215.892 153.523C215.154 154.333 214.389 155.138 213.62 155.918L214.012 156.305ZM78.7351 129.752L79.2443 129.542C78.8246 128.525 78.4215 127.487 78.0442 126.459L77.5264 126.647C77.9062 127.684 78.3128 128.728 78.7351 129.752ZM209.156 160.842C209.992 160.122 210.823 159.375 211.629 158.622L211.253 158.219C210.453 158.967 209.627 159.709 208.796 160.425L209.156 160.842ZM81.5203 135.798L82.0114 135.549C81.5119 134.57 81.0255 133.568 80.5672 132.573L80.0667 132.804C80.5277 133.805 81.0181 134.812 81.5203 135.798ZM203.949 164.979C204.842 164.325 205.733 163.647 206.595 162.962L206.251 162.53C205.395 163.211 204.511 163.885 203.624 164.534L203.949 164.979ZM84.78 141.601L85.249 141.312C84.675 140.379 84.1106 139.421 83.5726 138.463L83.0923 138.733C83.6341 139.697 84.2021 140.662 84.78 141.601ZM198.427 168.687C199.364 168.11 200.307 167.503 201.225 166.887L200.918 166.43C200.005 167.043 199.071 167.644 198.138 168.217L198.427 168.687ZM88.491 147.122L88.9351 146.797C88.2871 145.912 87.649 145.001 87.0371 144.091L86.5803 144.399C87.196 145.315 87.8392 146.231 88.491 147.122ZM192.622 171.942C193.606 171.441 194.594 170.913 195.557 170.373L195.287 169.892C194.33 170.429 193.35 170.954 192.372 171.452L192.622 171.942ZM92.6299 152.326L93.0477 151.966C92.334 151.139 91.6233 150.283 90.9394 149.423L90.5087 149.766C91.1977 150.632 91.9112 151.493 92.6299 152.326ZM186.573 174.725C187.597 174.304 188.624 173.855 189.626 173.395L189.396 172.894C188.401 173.352 187.38 173.797 186.363 174.216L186.573 174.725ZM97.1701 157.18L97.5573 156.787C96.7795 156.019 96.0037 155.224 95.2537 154.422L94.8517 154.798C95.6065 155.606 96.3863 156.407 97.1701 157.18ZM180.318 177.013C181.374 176.674 182.434 176.311 183.469 175.932L183.28 175.414C182.252 175.79 181.199 176.152 180.15 176.488L180.318 177.013ZM102.083 161.651L102.437 161.229C101.597 160.523 100.761 159.793 99.9529 159.058L99.5822 159.465C100.397 160.205 101.237 160.942 102.083 161.651ZM173.895 178.79C174.974 178.538 176.06 178.26 177.125 177.966L176.977 177.435C175.92 177.728 174.841 178.003 173.77 178.253L173.895 178.79ZM107.337 165.709L107.655 165.26C106.762 164.626 105.871 163.965 105.006 163.297L104.669 163.733C105.54 164.406 106.438 165.07 107.337 165.709ZM167.345 180.041C168.438 179.878 169.545 179.689 170.634 179.482L170.53 178.94C169.449 179.146 168.35 179.335 167.264 179.497L167.345 180.041ZM112.905 169.333L113.187 168.859C112.245 168.298 111.301 167.712 110.381 167.113L110.08 167.574C111.006 168.177 111.956 168.769 112.905 169.333ZM160.721 180.757C161.824 180.682 162.94 180.585 164.036 180.467L163.977 179.919C162.888 180.036 161.78 180.132 160.684 180.207L160.721 180.757ZM118.757 172.497L118.999 172.003C118.013 171.52 117.025 171.012 116.062 170.49L115.799 170.974C116.769 171.499 117.764 172.011 118.757 172.497ZM154.07 180.932C155.176 180.948 156.295 180.941 157.397 180.912L157.383 180.361C156.289 180.39 155.177 180.397 154.078 180.382L154.07 180.932ZM124.847 175.178L125.048 174.665C124.03 174.265 123.003 173.839 121.997 173.396L121.775 173.899C122.788 174.345 123.821 174.776 124.847 175.178C124.847 175.178 123.821 174.776 124.847 175.178ZM147.427 180.569C148.528 180.673 149.645 180.758 150.745 180.818L150.775 180.268C149.682 180.208 148.573 180.125 147.48 180.021L147.427 180.569ZM131.131 177.359L131.291 176.832C130.241 176.515 129.184 176.171 128.148 175.811L127.967 176.332C129.01 176.693 130.074 177.039 131.131 177.359ZM140.835 179.674C141.92 179.866 143.027 180.038 144.122 180.187L144.196 179.642C143.108 179.494 142.009 179.322 140.931 179.132L140.835 179.674ZM137.571 179.031L137.689 178.492C136.619 178.26 135.536 178.001 134.473 177.725L134.334 178.259C135.405 178.537 136.493 178.797 137.571 179.031Z" fill="#9DA0B6"/>
<path d="M196.466 59.8137H195.833V25.6497C195.833 18.1157 189.631 12.0137 181.981 12.0137H104.388C96.7378 12.0137 90.5358 18.1217 90.5358 25.6497V39.8117H90.4878H90.3518C89.9058 39.8087 89.5408 40.1667 89.5358 40.6127V47.4307C89.5408 47.8767 89.9058 48.2347 90.3518 48.2317H90.5018H90.5498V55.1947H90.2998C89.8538 55.1917 89.4908 55.5497 89.4878 55.9957V69.0327C89.4908 69.4787 89.8538 69.8387 90.2998 69.8367H90.5498V74.9507H90.3348C90.1208 74.9487 89.9138 75.0317 89.7608 75.1817C89.6078 75.3317 89.5198 75.5367 89.5188 75.7517V88.9157C89.5198 89.1297 89.6078 89.3357 89.7608 89.4857C89.9138 89.6357 90.1198 89.7187 90.3348 89.7167H90.5498V209.142C90.5498 216.676 96.7528 222.778 104.403 222.778H181.978C189.629 222.778 195.83 216.67 195.83 209.142V85.3647H196.466C196.912 85.3677 197.277 85.0097 197.282 84.5637V60.6157C197.277 60.1697 196.912 59.8107 196.466 59.8137Z" fill="#C7DBFA"/>
<g opacity="0.9">
<path d="M195.884 62.1822V84.3552C195.884 85.1996 195.199 85.8852 194.354 85.8852C193.51 85.8852 192.824 85.1996 192.824 84.3552V62.1822C192.824 61.3378 193.51 60.6522 194.354 60.6522C195.199 60.6522 195.884 61.3378 195.884 62.1822Z" fill="#C5DAFA"/>
</g>
<g opacity="0.9">
<path d="M92.8035 41.7447V48.3327C92.8035 48.8071 92.4183 49.1922 91.944 49.1922C91.4696 49.1922 91.0845 48.8071 91.0845 48.3327V41.7447C91.0845 41.2703 91.4696 40.8852 91.944 40.8852C92.4183 40.8852 92.8035 41.2703 92.8035 41.7447Z" fill="#E5E7EB"/>
</g>
<g opacity="0.9">
<path d="M92.9595 57.0617V69.5817C92.9595 70.1162 92.5255 70.5502 91.991 70.5502C91.4564 70.5502 91.0225 70.1162 91.0225 69.5817V57.0617C91.0225 56.5272 91.4564 56.0932 91.991 56.0932C92.5255 56.0932 92.9595 56.5272 92.9595 57.0617Z" fill="#E5E7EB"/>
</g>
<g opacity="0.9">
<path d="M92.8972 76.5317V89.2697C92.8972 89.7785 92.4841 90.1917 91.9752 90.1917C91.4664 90.1917 91.0532 89.7785 91.0532 89.2697V76.5317C91.0532 76.0228 91.4664 75.6097 91.9752 75.6097C92.4841 75.6097 92.8972 76.0228 92.8972 76.5317Z" fill="#E5E7EB"/>
</g>
<g opacity="0.9">
<path d="M194.475 27.4342V207.587C194.475 215.314 188.201 221.587 180.475 221.587H106.056C98.3291 221.587 92.0557 215.314 92.0557 207.587V27.4342C92.0557 19.7076 98.3291 13.4342 106.056 13.4342H180.475C188.201 13.4342 194.475 19.7076 194.475 27.4342Z" fill="white"/>
</g>
<g opacity="0.9">
<path d="M147.692 21.1017C147.692 21.9028 147.042 22.5532 146.241 22.5532H134.84C134.039 22.5532 133.388 21.9028 133.388 21.1017C133.388 20.3006 134.039 19.6502 134.84 19.6502H146.241C147.042 19.6502 147.692 20.3006 147.692 21.1017Z" fill="#C5DAFA"/>
</g>
<g opacity="0.9">
<path d="M151.498 19.4542C152.407 19.4542 153.146 20.1924 153.146 21.1017C153.146 22.0109 152.407 22.7492 151.498 22.7492C150.589 22.7492 149.851 22.0109 149.851 21.1017C149.851 20.1924 150.589 19.4542 151.498 19.4542Z" fill="#C5DAFA"/>
</g>
<path d="M180.018 18.8567H168.294V20.2767C168.292 23.9757 165.294 26.9727 161.595 26.9727H124.215C120.516 26.9727 117.518 23.9757 117.516 20.2767V18.8567H106.516C102.024 18.8567 98.3828 22.4977 98.3828 26.9897V208.033C98.3828 212.525 102.024 216.166 106.516 216.166H180.018C184.51 216.166 188.152 212.525 188.152 208.033V26.9897C188.152 22.4977 184.51 18.8567 180.018 18.8567Z" fill="#B7E143"/>
<path d="M120.005 87.1037V101.618H105.491V87.1037H120.005Z" fill="#B6D0FA"/>
<path d="M161.126 88.1377V90.9017H130.717V88.1377H161.126Z" fill="#B6D0FA"/>
<path d="M180.822 92.9757V95.7397H130.718V92.9757H180.822Z" fill="#B6D0FA"/>
<path d="M180.822 97.8137V100.578H130.718V97.8137H180.822Z" fill="#B6D0FA"/>
<g opacity="0.17715">
<path d="M119.783 33.8887V48.4027H105.269V33.8887H119.783Z" fill="white"/>
</g>
<g opacity="0.17715">
<path d="M160.902 34.9257V37.6897H130.493V34.9257H160.902Z" fill="white"/>
</g>
<g opacity="0.17715">
<path d="M180.597 39.7637V42.5277H130.493V39.7637H180.597Z" fill="white"/>
</g>
<g opacity="0.17715">
<path d="M180.597 44.6017V47.3657H130.493V44.6017H180.597Z" fill="white"/>
</g>
<g opacity="0.17715">
<path d="M119.894 60.4957V75.0097H105.38V60.4957H119.894Z" fill="white"/>
</g>
<g opacity="0.17715">
<path d="M161.013 61.5327V64.2967H130.604V61.5327H161.013Z" fill="white"/>
</g>
<g opacity="0.17715">
<path d="M180.708 66.3707V69.1347H130.604V66.3707H180.708Z" fill="white"/>
</g>
<g opacity="0.17715">
<path d="M180.708 71.2057V73.9697H130.604V71.2057H180.708Z" fill="white"/>
</g>
<g opacity="0.17715">
<path d="M120.115 113.709V128.223H105.601V113.709H120.115Z" fill="white"/>
</g>
<g opacity="0.17715">
<path d="M161.238 114.746V117.51H130.829V114.746H161.238Z" fill="white"/>
</g>
<g opacity="0.17715">
<path d="M180.932 119.584V122.348H130.828V119.584H180.932Z" fill="white"/>
</g>
<g opacity="0.17715">
<path d="M180.932 124.422V127.186H130.828V124.422H180.932Z" fill="white"/>
</g>
<g opacity="0.17715">
<path d="M120.229 140.316V154.83H105.715V140.316H120.229Z" fill="white"/>
</g>
<g opacity="0.17715">
<path d="M161.347 141.353V144.117H130.938V141.353H161.347Z" fill="white"/>
</g>
<g opacity="0.17715">
<path d="M181.043 146.191V148.955H130.939V146.191H181.043Z" fill="white"/>
</g>
<g opacity="0.17715">
<path d="M181.043 151.029V153.793H130.939V151.029H181.043Z" fill="white"/>
</g>
<g opacity="0.17715">
<path d="M120.34 166.924V181.438H105.826V166.924H120.34Z" fill="white"/>
</g>
<g opacity="0.17715">
<path d="M161.458 167.961V170.725H131.049V167.961H161.458Z" fill="white"/>
</g>
<g opacity="0.17715">
<path d="M181.154 172.799V175.563H131.05V172.799H181.154Z" fill="white"/>
</g>
<g opacity="0.17715">
<path d="M181.154 177.637V180.401H131.05V177.637H181.154Z" fill="white"/>
</g>
<g opacity="0.17715">
<path d="M120.451 193.531V208.045H105.937V193.531H120.451Z" fill="white"/>
</g>
<g opacity="0.17715">
<path d="M161.57 194.568V197.332H131.161V194.568H161.57Z" fill="white"/>
</g>
<g opacity="0.17715">
<path d="M181.265 199.406V202.17H131.161V199.406H181.265Z" fill="white"/>
</g>
<g opacity="0.17715">
<path d="M181.265 204.244V207.008H131.161V204.244H181.265Z" fill="white"/>
</g>
<path d="M206.086 79.9067V109.279H83.4165V79.9067H206.086Z" fill="white"/>
<path d="M121.6 87.3357V101.85H107.086V87.3357H121.6Z" fill="#B7E143"/>
<g opacity="0.5">
<path d="M162.722 88.3727V91.1367H132.313V88.3727H162.722Z" fill="#B7E143"/>
</g>
<g opacity="0.5">
<path d="M182.417 93.2107V95.9747H132.313V93.2107H182.417Z" fill="#B7E143"/>
</g>
<g opacity="0.5">
<path d="M182.417 98.0487V100.813H132.313V98.0487H182.417Z" fill="#B7E143"/>
</g>
<path d="M43.7311 55.3887C40.7371 55.8717 37.4091 57.0207 36.2631 59.8307C35.3971 61.9507 36.0681 64.3387 36.2901 66.6157C36.3721 67.2177 36.3501 67.8307 36.2251 68.4257C35.9801 69.3837 35.2981 70.1617 34.6421 70.9057C33.7191 71.8497 32.9441 72.9277 32.3421 74.1027C31.8011 75.3027 31.6331 76.7287 32.1891 77.9357C32.3821 78.2417 32.5121 78.5827 32.5721 78.9397C32.6101 79.7067 31.8051 80.2127 31.1961 80.7077C28.9461 82.5707 29.0451 85.9597 29.0261 88.8767C28.9821 94.8407 27.6491 100.725 25.1201 106.126C27.0571 107.11 29.3991 106.806 31.0201 105.36C30.7091 106.691 30.2611 107.986 29.6821 109.224C31.5991 110.144 33.8751 108.63 34.8301 106.744C35.7851 104.858 35.8961 102.669 36.5741 100.668C37.2521 98.6667 38.4531 96.9267 38.9701 94.9177C39.1421 94.2507 39.2421 93.5377 39.6521 93.0007C39.9951 92.5997 40.3981 92.2567 40.8481 91.9817C42.8181 90.5507 44.2931 88.5397 45.0651 86.2307C47.3921 86.7447 49.7681 87.2627 52.1411 87.0437C54.5141 86.8257 56.9361 85.7557 58.1901 83.7237C58.7421 82.8307 59.0451 81.8077 59.5591 80.8837C60.1841 79.7607 61.0921 78.8327 61.8131 77.7557C63.4841 75.2027 63.7941 71.9207 63.1161 68.9387C62.4381 65.9567 60.8541 63.2617 58.9871 60.8507C55.4331 56.2047 49.4011 54.4917 43.7311 55.3887Z" fill="#3A3768"/>
<path d="M43.7311 55.3887C40.7371 55.8717 37.4091 57.0207 36.2631 59.8307C35.3971 61.9507 36.0681 64.3387 36.2901 66.6157C36.3721 67.2177 36.3501 67.8307 36.2251 68.4257C35.9801 69.3837 35.2981 70.1617 34.6421 70.9057C33.7191 71.8497 32.9441 72.9277 32.3421 74.1027C31.8011 75.3027 31.6331 76.7287 32.1891 77.9357C32.3821 78.2417 32.5121 78.5827 32.5721 78.9397C32.6101 79.7067 31.8051 80.2127 31.1961 80.7077C28.9461 82.5707 29.0451 85.9597 29.0261 88.8767C28.9821 94.8407 27.6491 100.725 25.1201 106.126C27.0571 107.11 29.3991 106.806 31.0201 105.36C30.7091 106.691 30.2611 107.986 29.6821 109.224C31.5991 110.144 33.8751 108.63 34.8301 106.744C35.7851 104.858 35.8961 102.669 36.5741 100.668C37.2521 98.6667 38.4531 96.9267 38.9701 94.9177C39.1421 94.2507 39.2421 93.5377 39.6521 93.0007C39.9951 92.5997 40.3981 92.2567 40.8481 91.9817C42.8181 90.5507 44.2931 88.5397 45.0651 86.2307C47.3921 86.7447 49.7681 87.2627 52.1411 87.0437C54.5141 86.8257 56.9361 85.7557 58.1901 83.7237C58.7421 82.8307 59.0451 81.8077 59.5591 80.8837C60.1841 79.7607 61.0921 78.8327 61.8131 77.7557C63.4841 75.2027 63.7941 71.9207 63.1161 68.9387C62.4381 65.9567 60.8541 63.2617 58.9871 60.8507C55.4331 56.2047 49.4011 54.4917 43.7311 55.3887Z" fill="#2F2E41"/>
<path d="M24.8411 92.8247C24.6721 93.8977 24.4671 94.9637 24.2271 96.0217C23.9551 97.2467 23.6101 98.4537 23.1921 99.6367C22.9491 100.155 22.8381 100.725 22.8701 101.296C22.9381 101.646 23.0681 101.981 23.2541 102.285C24.6221 104.715 26.4661 107.062 26.6231 109.845C26.6611 110.539 26.6241 111.29 27.0071 111.861C28.0701 109.581 29.2401 107.362 30.5181 105.203C31.8481 102.941 33.3281 100.66 33.7111 98.0647C33.8641 96.8457 33.8491 95.6107 33.6651 94.3957C33.4891 93.0307 33.1821 91.6317 32.3461 90.5397C31.4451 89.3557 28.9651 87.5727 27.3631 87.9407C25.4691 88.3737 25.0791 91.2917 24.8411 92.8247Z" fill="#FFAE1B"/>
<path d="M73.0671 105.897C74.8571 105.165 76.6781 104.394 78.1001 103.083C78.9671 102.223 79.7381 101.273 80.4001 100.247L84.6171 94.1627C85.6141 92.7217 86.6401 91.2027 86.8551 89.4627C89.3241 86.8627 90.8151 83.4867 91.0721 79.9107C91.0991 79.5547 91.2181 79.0867 91.5781 79.0787C91.7351 79.0897 91.8811 79.1587 91.9881 79.2737C92.5511 79.7847 92.8371 80.5347 92.7551 81.2907C93.3681 81.2637 94.0351 81.2477 94.5371 81.6047C95.0391 81.9617 95.1701 82.8537 94.6331 83.1377C95.0071 83.2487 95.2391 83.6247 95.1701 84.0087C95.8101 83.8817 96.5201 83.7787 97.0871 84.1007C97.6541 84.4227 97.8721 85.3647 97.3201 85.7137C97.9801 85.9657 98.4091 86.6067 98.3901 87.3127C98.3571 88.0037 98.1021 88.6647 97.6621 89.1987C96.0441 91.3687 93.1921 92.2457 91.3171 94.1817C90.7011 94.8637 90.1491 95.6017 89.6691 96.3857L84.1841 104.674C82.4551 107.3 80.6881 109.976 78.2271 111.931C77.5881 112.49 76.8281 112.892 76.0071 113.107C75.1701 113.318 74.2841 113.073 73.6761 112.46C73.1321 111.843 73.0521 110.957 72.9981 110.137C72.9171 108.738 73.1551 107.3 73.0671 105.897Z" fill="#FFB9B9"/>
<path d="M54.8857 220.636C55.1007 220.851 55.2947 221.085 55.4647 221.337C55.8307 221.942 55.9197 222.675 55.7097 223.35C55.4897 224.022 55.0157 224.581 54.3907 224.91C54.2457 224.976 54.1067 225.056 53.9767 225.148C53.8977 225.226 53.8127 225.297 53.7237 225.362C53.5497 225.45 53.3547 225.487 53.1607 225.466C51.7067 225.385 50.2657 225.139 48.8667 224.734C48.2227 224.577 47.5417 224.393 47.0967 223.902C46.8187 223.555 46.6127 223.156 46.4907 222.729L45.9807 221.307C45.6447 220.45 45.3817 219.566 45.1947 218.665C45.0107 217.759 45.0597 216.822 45.3367 215.94C45.4637 216.099 45.5297 216.297 45.5247 216.5C45.6757 217.455 46.0487 218.362 46.6167 219.145C46.7357 219.339 46.8807 219.517 47.0467 219.674C47.4167 219.961 47.8547 220.147 48.3187 220.214C49.2137 220.407 50.1227 220.524 51.0367 220.563C51.1667 220.578 51.2977 220.562 51.4197 220.517C51.5687 220.435 51.6797 220.297 51.7267 220.134C51.8587 219.774 51.8587 219.378 51.7267 219.018C51.4847 218.328 50.8067 217.868 50.4807 217.216C50.2427 216.729 50.5727 216.197 51.0677 216.603C51.5097 217.022 51.9277 217.465 52.3207 217.93L54.8857 220.636Z" fill="#3F3D56"/>
<path d="M50.1831 210.804C50.0371 213.104 49.9331 215.558 51.1831 217.478C51.6351 218.168 52.2371 218.746 52.7511 219.394C53.0431 219.717 53.2371 220.115 53.3111 220.544C53.3841 221.38 52.5971 222.078 51.7771 222.254C50.9571 222.43 50.1061 222.154 49.3051 221.897C48.5481 221.708 47.8361 221.372 47.2081 220.908C46.1191 219.988 45.8311 218.455 45.6131 217.048L45.1031 213.779C44.7161 212.122 44.8771 210.384 45.5601 208.826L46.3991 206.369C46.4571 206.129 46.5911 205.915 46.7821 205.759C46.9761 205.652 47.2001 205.61 47.4191 205.64C48.2241 205.678 50.2441 205.97 50.6351 206.821C50.9531 207.568 50.2371 209.926 50.1831 210.804Z" fill="#EE8E9E"/>
<path d="M50.1831 210.804C50.0371 213.104 49.9331 215.558 51.1831 217.478C51.6351 218.168 52.2371 218.746 52.7511 219.394C53.0431 219.717 53.2371 220.115 53.3111 220.544C53.3841 221.38 52.5971 222.078 51.7771 222.254C50.9571 222.43 50.1061 222.154 49.3051 221.897C48.5481 221.708 47.8361 221.372 47.2081 220.908C46.1191 219.988 45.8311 218.455 45.6131 217.048L45.1031 213.779C44.7161 212.122 44.8771 210.384 45.5601 208.826L46.3991 206.369C46.4571 206.129 46.5911 205.915 46.7821 205.759C46.9761 205.652 47.2001 205.61 47.4191 205.64C48.2241 205.678 50.2441 205.97 50.6351 206.821C50.9531 207.568 50.2371 209.926 50.1831 210.804Z" fill="#FFB9B9"/>
<path d="M68.1651 143.042C68.1651 143.042 68.1651 143.084 68.1651 143.103C68.1151 143.428 68.0091 143.742 67.8541 144.031C67.1701 145.531 66.7711 147.146 66.6771 148.792C66.6811 149.2 66.6251 149.608 66.5121 150C66.3441 150.373 66.1391 150.727 65.8991 151.058C65.1711 152.243 65.0021 153.669 64.7491 155.037C64.4351 156.811 63.9701 158.555 63.3581 160.25C62.5261 162.55 61.4021 164.927 61.7821 167.353C61.9271 167.924 62.0001 168.512 62.0011 169.101C61.8931 169.752 61.6601 170.375 61.3141 170.937C61.0331 171.494 60.7781 172.061 60.5481 172.639C60.2991 173.264 60.0841 173.897 59.8961 174.556C59.6701 175.323 59.5131 176.265 60.0381 176.894C60.1961 177.049 60.3371 177.222 60.4561 177.408C60.5581 177.693 60.5571 178.005 60.4561 178.29C60.1621 179.54 59.8461 180.782 59.5091 182.019C59.2531 182.993 58.9791 183.96 58.6851 184.921C56.5811 191.982 54.2041 198.974 52.7891 206.204C52.5861 207.243 51.2561 207.99 50.2171 208.22C49.1621 208.444 48.0631 208.151 47.2611 207.431C47.1891 207.366 47.1221 207.297 47.0581 207.224C45.9731 206.074 45.8161 204.264 45.9081 202.65C46.2911 195.21 50.0181 188.398 51.8041 181.184C52.4471 178.569 52.8331 175.897 52.9541 173.207C53.3721 164.222 53.5411 154.73 50.9991 146.097C50.4741 144.303 49.8491 142.264 50.7961 140.666C51.3981 139.65 52.5101 139.048 53.6061 138.611C58.1371 136.842 63.1891 136.972 67.6241 138.971C67.6261 139.15 67.6181 139.33 67.6011 139.508C67.5041 140.346 67.6021 141.194 67.8851 141.988C68.0411 142.32 68.1361 142.677 68.1651 143.042Z" fill="#24500F"/>
<path d="M37.4177 213.103L36.9467 214.832C36.6907 215.872 36.3527 216.89 35.9347 217.876C35.5747 218.537 35.2747 219.228 35.0377 219.942C34.9027 220.522 34.8497 221.118 34.8797 221.713C34.8747 222.282 34.9577 222.848 35.1257 223.392C35.5797 224.476 36.4687 225.319 37.5747 225.715C38.6717 226.096 39.8187 226.312 40.9787 226.355C41.2757 226.394 41.5767 226.386 41.8717 226.332C42.1867 226.239 42.4817 226.086 42.7387 225.88C44.3147 224.73 45.1267 222.587 45.2687 220.636C45.2297 220.182 45.1407 219.733 45.0037 219.298C44.8807 219.133 43.6887 219.803 44.1987 220.367C44.9657 221.199 42.7417 220.751 41.6187 220.697C41.1267 220.654 40.6387 220.574 40.1587 220.459L38.3417 220.076C37.7477 219.95 37.0577 219.746 36.8507 219.175C36.6437 218.604 37.0997 217.926 37.4597 217.37C38.4107 215.902 38.6527 214.099 38.8747 212.386C38.9167 212.045 39.3427 209.837 38.4647 210.523C38.1617 210.845 37.9507 211.242 37.8547 211.673C37.6707 212.121 37.5367 212.612 37.4177 213.103Z" fill="#3F3D56"/>
<g opacity="0.05">
<path d="M60.0338 176.89C59.5198 176.261 59.6698 175.333 59.8958 174.551C59.9798 174.26 60.0718 173.972 60.1678 173.685L53.0258 171.27C52.9988 171.91 52.9728 172.547 52.9418 173.187C52.8188 175.877 52.4328 178.549 51.7918 181.164C50.0058 188.397 46.2608 195.209 45.8968 202.63C45.8128 204.34 45.9958 206.253 47.2608 207.411C48.0638 208.133 49.1628 208.429 50.2198 208.208C51.2548 207.982 52.5898 207.231 52.7928 206.192C54.2038 198.962 56.5838 191.97 58.6878 184.909C59.3448 182.716 59.9368 180.506 60.4628 178.277C60.5608 177.993 60.5608 177.684 60.4628 177.399C60.3408 177.212 60.1968 177.042 60.0338 176.89Z" fill="black"/>
</g>
<path d="M40.3067 205.264C39.7437 206.234 38.8807 207.096 38.7467 208.208C38.6697 208.883 38.8777 209.553 38.8737 210.232C38.8467 210.792 38.7457 211.347 38.5747 211.881C37.8847 214.391 37.0847 216.868 36.1747 219.314C36.0267 219.629 35.9607 219.975 35.9827 220.322C36.0747 220.893 36.6307 221.269 37.1637 221.499C38.8657 222.227 40.7817 222.177 42.6297 222.1C43.1637 222.126 43.6957 222.003 44.1637 221.744C44.8267 221.292 44.9877 220.395 45.0337 219.594C45.1607 217.294 44.7657 214.944 45.0337 212.64C45.1257 211.801 45.3017 210.973 45.4167 210.137C45.6007 208.987 45.6927 207.76 45.3097 206.648C44.9957 205.851 44.5547 205.109 44.0057 204.452C43.5187 203.741 42.9017 203.127 42.1887 202.643C41.9737 202.513 41.3527 202.118 41.1347 202.363C41.0197 202.493 41.0697 202.831 41.0547 202.988C41.0267 203.229 40.9837 203.468 40.9277 203.704C40.7947 204.251 40.5857 204.776 40.3067 205.264Z" fill="#FFB9B9"/>
<g opacity="0.05">
<path d="M54.038 145.94C53.704 146.392 53.774 147.017 53.904 147.565C54.146 148.554 54.536 149.482 54.858 150.463C55.387 152.189 55.799 153.949 56.089 155.73C56.388 157.34 57.024 159.13 56.763 160.748C58.711 164.457 59.997 168.479 60.559 172.631C60.701 173.697 58.335 175.077 58.377 176.15C58.465 178.289 60.175 178.451 58.914 180.168C58.853 180.256 59.385 182.165 59.297 182.249C58.783 182.862 58.147 183.353 57.584 183.936C56.873 184.738 56.266 185.627 55.778 186.581C52.52 192.461 47.817 199.128 49.262 205.694C49.328 206.18 49.078 206.653 48.641 206.874C48.212 207.081 47.741 207.191 47.264 207.193H47.038C45.953 206.043 45.796 204.233 45.888 202.619C46.271 195.179 49.998 188.367 51.784 181.153C52.427 178.538 52.812 175.866 52.934 173.176C53.352 164.191 53.52 154.699 50.979 146.066C50.454 144.272 49.829 142.233 50.776 140.634C51.378 139.618 52.49 139.017 53.586 138.58C58.117 136.811 63.169 136.941 67.604 138.94C67.606 139.119 67.598 139.299 67.581 139.477C67.484 140.315 67.582 141.163 67.865 141.957C68.023 142.296 68.118 142.661 68.145 143.034C68.145 143.034 68.275 141.585 68.271 141.608C65.354 142.03 62.306 143.935 59.389 144.353C57.879 144.519 56.392 144.851 54.954 145.342C54.598 145.45 54.28 145.658 54.038 145.94Z" fill="#24500F"/>
</g>
<path d="M33.8361 130.008C33.4421 131.255 33.0981 132.515 32.8021 133.788C32.6691 134.227 32.6331 134.691 32.6981 135.145C32.7901 135.571 33.0581 135.954 33.0811 136.387C33.1501 137.062 32.6981 137.652 32.4221 138.277C31.7631 139.868 32.4681 141.665 33.1621 143.241L35.2241 147.918L36.9191 151.751C37.4211 152.901 37.9231 154.051 38.4101 155.178C40.6161 160.42 42.4171 165.822 43.7991 171.339C43.8461 171.589 43.9411 171.827 44.0791 172.041C44.3661 172.424 44.8841 172.535 45.3061 172.765C46.5751 173.463 46.7211 175.553 45.5591 176.419C45.7971 179.229 43.6921 181.942 42.6071 184.545C40.1081 190.529 40.5601 197.272 39.7051 203.712L40.6711 203.145C41.6031 203.57 41.5721 204.893 42.0741 205.786C42.8411 207.128 44.6621 207.319 46.1991 207.215C46.6761 207.213 47.1461 207.104 47.5751 206.897C48.0111 206.675 48.2581 206.202 48.1921 205.717C46.7471 199.151 51.4471 192.484 54.7091 186.604C55.2001 185.652 55.8061 184.763 56.5141 183.959C57.0661 183.376 57.7141 182.885 58.2281 182.268C59.6691 180.543 59.8491 178.112 59.7611 175.87C59.5301 170.591 58.1371 165.429 55.6791 160.752C55.9401 159.134 55.2961 157.344 55.0081 155.734C54.7161 153.953 54.3041 152.193 53.7771 150.467C53.4551 149.501 53.0611 148.55 52.8231 147.569C52.6891 147.021 52.6201 146.396 52.9531 145.944C53.2031 145.655 53.5321 145.445 53.9001 145.342C55.3441 144.85 56.8381 144.52 58.3541 144.357L68.3821 142.919C68.7041 140.857 69.0341 138.561 68.8121 136.487C68.3181 132.565 65.5371 129.311 61.7391 128.214C61.3021 128.095 60.7891 128.023 60.4321 128.303C51.5681 126.561 42.4041 127.148 33.8361 130.008Z" fill="#24500F"/>
<path d="M42.9531 75.7897C43.1011 76.7707 42.9481 77.7737 42.5121 78.6647C42.2121 79.1537 41.8211 79.5817 41.3621 79.9257C40.3911 80.7057 39.2621 81.2657 38.0541 81.5667C37.3451 81.7467 36.5441 81.8657 36.0761 82.4327C35.3741 83.2837 35.8461 84.5677 36.4591 85.4987C37.4941 87.1127 38.9441 88.5657 40.7951 89.0837C42.2711 89.4897 43.8611 89.2397 45.3601 89.5007C46.4561 89.6927 47.4911 90.1447 48.5721 90.4057C51.6981 91.1197 54.9741 90.2057 57.2781 87.9757C55.6721 86.7417 54.0011 85.4267 53.1691 83.5787C52.5771 82.2527 52.4671 80.7607 52.8581 79.3617C53.2411 77.9937 54.1111 76.6787 53.8391 75.2607C53.5671 73.8427 52.1951 72.9027 50.8301 72.4317C49.5991 72.0517 48.3331 71.7947 47.0511 71.6647C46.3461 71.5687 41.8571 70.5797 41.5771 71.0707C41.4201 71.3467 42.3431 72.9867 42.4661 73.3437C42.7461 74.1307 42.9101 74.9557 42.9531 75.7897Z" fill="#EE8E9E"/>
<path d="M42.9531 75.7897C43.1011 76.7707 42.9481 77.7737 42.5121 78.6647C42.2121 79.1537 41.8211 79.5817 41.3621 79.9257C40.3911 80.7057 39.2621 81.2657 38.0541 81.5667C37.3451 81.7467 36.5441 81.8657 36.0761 82.4327C35.3741 83.2837 35.8461 84.5677 36.4591 85.4987C37.4941 87.1127 38.9441 88.5657 40.7951 89.0837C42.2711 89.4897 43.8611 89.2397 45.3601 89.5007C46.4561 89.6927 47.4911 90.1447 48.5721 90.4057C51.6981 91.1197 54.9741 90.2057 57.2781 87.9757C55.6721 86.7417 54.0011 85.4267 53.1691 83.5787C52.5771 82.2527 52.4671 80.7607 52.8581 79.3617C53.2411 77.9937 54.1111 76.6787 53.8391 75.2607C53.5671 73.8427 52.1951 72.9027 50.8301 72.4317C49.5991 72.0517 48.3331 71.7947 47.0511 71.6647C46.3461 71.5687 41.8571 70.5797 41.5771 71.0707C41.4201 71.3467 42.3431 72.9867 42.4661 73.3437C42.7461 74.1307 42.9101 74.9557 42.9531 75.7897Z" fill="#FFB9B9"/>
<path d="M48.6031 60.8507C53.6298 60.8507 57.7111 64.932 57.7111 69.9587C57.7111 74.9854 53.6298 79.0667 48.6031 79.0667C43.5764 79.0667 39.4951 74.9854 39.4951 69.9587C39.4951 64.932 43.5764 60.8507 48.6031 60.8507Z" fill="#FFB9B9"/>
<path d="M43.7928 85.0117L49.9678 86.0507C51.4818 86.3587 53.0228 86.5147 54.5678 86.5147C55.4128 86.4307 56.2648 86.4307 57.1098 86.5147C57.6928 86.6107 58.2598 86.8327 58.8348 86.8977C59.5558 86.9857 60.2908 86.8517 61.0118 86.9437C62.3538 87.1127 63.4538 88.0407 64.4618 88.9297C65.6538 89.9687 66.9378 91.1837 67.0298 92.7627C67.0508 92.9427 67.0248 93.1247 66.9538 93.2917C66.8388 93.4827 66.6818 93.6457 66.4968 93.7707C65.3468 94.7017 64.7258 96.0707 63.9208 97.3167C63.0898 98.5817 62.0538 99.6997 60.8548 100.625C60.5828 100.456 60.0888 100.909 60.1918 101.208C60.2958 101.507 60.6018 101.714 60.6978 102.017C60.9158 102.718 60.0538 103.232 59.6968 103.872C59.3398 104.512 59.5168 105.325 59.4788 106.069C59.4368 106.889 59.0948 107.671 59.0068 108.484C58.7578 110.378 59.6928 112.378 59.0338 114.168C59.8428 114.068 60.5678 114.766 60.8088 115.552C60.9758 116.354 60.9508 117.185 60.7358 117.975C61.8048 118.616 62.4268 119.798 62.3498 121.041C62.3048 121.226 62.3328 121.422 62.4298 121.586C62.5178 121.67 62.6248 121.731 62.7408 121.766C63.9038 122.236 64.6628 123.368 64.6578 124.622C64.6328 124.824 64.6508 125.029 64.7108 125.224C64.8208 125.411 64.9758 125.569 65.1598 125.684C65.9998 126.361 66.4858 127.384 66.4818 128.463C66.4818 129.184 66.1828 129.962 65.5428 130.284C64.2358 130.951 62.8288 131.208 61.3948 131.518C60.0718 131.832 58.7318 132.07 57.3818 132.231C56.1308 132.336 54.8758 132.375 53.6208 132.346L45.3608 132.315C43.0378 132.315 40.7138 132.296 38.3988 132.139C36.2368 131.993 34.0248 131.725 31.9318 132.292C31.6668 131.847 32.0888 131.334 32.3458 130.889C32.6408 130.283 32.8028 129.62 32.8178 128.946L33.3388 123.441C33.4418 122.678 33.4558 121.907 33.3808 121.141C33.2698 120.332 32.9628 119.562 32.8058 118.761C32.5028 117.228 32.7798 115.621 32.7068 114.053C32.6008 112.666 32.3588 111.292 31.9858 109.952L30.3488 103.209C30.0838 102.128 29.9458 100.871 29.5438 99.8317C28.2818 96.6017 26.9618 93.3937 25.5838 90.2097C25.4798 89.9287 25.5048 89.6157 25.6528 89.3547L27.0218 86.9087C27.3848 86.2127 27.8028 85.5457 28.2718 84.9157C29.4228 83.4587 31.0518 82.4547 32.8718 82.0827C34.6988 81.7277 36.5928 82.0097 38.2378 82.8807C38.8738 83.2177 39.4648 83.6477 40.1088 83.9657C41.2208 84.5177 42.5628 85.0957 43.7928 85.0117Z" fill="#FFAE1B"/>
<path d="M65.7078 91.0117L67.8578 93.8787C68.0568 94.1217 68.2248 94.3887 68.3598 94.6727C68.6818 95.4397 68.5068 96.3057 68.6788 97.1107C68.8118 97.6287 69.0248 98.1227 69.3108 98.5747C70.1198 99.9967 71.0348 101.357 72.0478 102.642C72.5148 103.295 73.0888 103.864 73.7458 104.325C74.4178 104.787 75.2568 104.935 76.0458 104.731C75.7138 104.854 75.4398 105.099 75.2788 105.414C74.4628 107.036 74.4008 108.956 74.7498 110.742C74.8488 111.352 75.0508 111.94 75.3478 112.482C75.6478 113.029 76.1358 113.45 76.7208 113.667C76.6458 114.215 76.3478 114.709 75.8988 115.032C75.4498 115.355 74.8878 115.48 74.3438 115.377C73.9208 115.248 73.5208 115.049 73.1628 114.79L69.7128 112.551C69.1368 112.206 68.5978 111.802 68.1068 111.344C67.4588 110.7 67.0068 109.883 66.3818 109.224C65.3088 108.074 63.7368 107.415 62.9818 106.05C62.5108 105.199 62.4258 104.191 62.1348 103.26C61.9428 102.65 61.6628 102.071 61.4788 101.462C60.9118 99.5677 61.3228 97.4907 62.1888 95.7117C63.0548 93.9327 64.4318 92.5187 65.7078 91.0117Z" fill="#FFAE1B"/>
<path d="M57.6 64.7687C56.757 63.4607 55.668 62.3287 54.395 61.4337C52.697 60.1647 50.739 59.1107 48.619 58.9917C47.731 58.9457 46.844 59.0887 46.016 59.4127C45.978 56.8407 45.337 55.1307 43.716 55.3877C40.722 55.8707 37.394 57.0207 36.248 59.8307C35.382 61.9507 36.053 64.3387 36.275 66.6157C36.357 67.2177 36.335 67.8307 36.21 68.4257C35.965 69.3837 35.282 70.1617 34.627 70.9057C33.704 71.8497 32.928 72.9277 32.327 74.1027C31.786 75.3027 31.618 76.7287 32.174 77.9357C32.367 78.2417 32.497 78.5827 32.557 78.9397C32.595 79.7067 31.791 80.2127 31.181 80.7077C28.931 82.5707 29.03 85.9587 29.011 88.8757C28.967 94.8397 27.634 100.725 25.105 106.126C27.042 107.11 29.384 106.806 31.005 105.36C30.694 106.691 30.246 107.986 29.667 109.224C31.584 110.144 33.86 108.63 34.815 106.744C35.769 104.858 35.88 102.669 36.559 100.668C37.237 98.6667 38.437 96.9267 38.955 94.9177C39.127 94.2507 39.227 93.5377 39.637 93.0007C39.98 92.5997 40.383 92.2557 40.833 91.9807C42.796 90.5697 39.909 79.9137 40.672 77.6217C41.822 77.8747 43.912 72.3697 45.104 66.7767C45.936 67.0637 46.823 67.1527 47.695 67.0377C47.998 66.9687 48.31 66.9467 48.619 66.9727C48.908 67.0317 49.183 67.1427 49.431 67.3017C50.322 67.8307 51.252 68.2907 52.214 68.6747C54.188 69.4107 56.362 69.3147 58.466 69.2107C58.748 67.6737 58.439 66.0877 57.6 64.7687Z" fill="#3A3768"/>
<path d="M57.6 64.7687C56.757 63.4607 55.668 62.3287 54.395 61.4337C52.697 60.1647 50.739 59.1107 48.619 58.9917C47.731 58.9457 46.844 59.0887 46.016 59.4127C45.978 56.8407 45.337 55.1307 43.716 55.3877C40.722 55.8707 37.394 57.0207 36.248 59.8307C35.382 61.9507 36.053 64.3387 36.275 66.6157C36.357 67.2177 36.335 67.8307 36.21 68.4257C35.965 69.3837 35.282 70.1617 34.627 70.9057C33.704 71.8497 32.928 72.9277 32.327 74.1027C31.786 75.3027 31.618 76.7287 32.174 77.9357C32.367 78.2417 32.497 78.5827 32.557 78.9397C32.595 79.7067 31.791 80.2127 31.181 80.7077C28.931 82.5707 29.03 85.9587 29.011 88.8757C28.967 94.8397 27.634 100.725 25.105 106.126C27.042 107.11 29.384 106.806 31.005 105.36C30.694 106.691 30.246 107.986 29.667 109.224C31.584 110.144 33.86 108.63 34.815 106.744C35.769 104.858 35.88 102.669 36.559 100.668C37.237 98.6667 38.437 96.9267 38.955 94.9177C39.127 94.2507 39.227 93.5377 39.637 93.0007C39.98 92.5997 40.383 92.2557 40.833 91.9807C42.796 90.5697 39.909 79.9137 40.672 77.6217C41.822 77.8747 43.912 72.3697 45.104 66.7767C45.936 67.0637 46.823 67.1527 47.695 67.0377C47.998 66.9687 48.31 66.9467 48.619 66.9727C48.908 67.0317 49.183 67.1427 49.431 67.3017C50.322 67.8307 51.252 68.2907 52.214 68.6747C54.188 69.4107 56.362 69.3147 58.466 69.2107C58.748 67.6737 58.439 66.0877 57.6 64.7687Z" fill="#2F2E41"/>
<g opacity="0.1">
<path d="M26.2008 106.131C28.7318 100.73 30.0658 94.8456 30.1108 88.8806C30.1108 85.9636 30.0298 82.5746 32.2758 80.7116C32.8778 80.2166 33.6898 79.7226 33.6558 78.9446C33.5958 78.5876 33.4658 78.2456 33.2728 77.9396C32.7168 76.7476 32.8888 75.3216 33.4258 74.1066C34.0228 72.9336 34.7918 71.8556 35.7068 70.9096C36.3628 70.1656 37.0448 69.3766 37.2898 68.4296C37.4168 67.8346 37.4398 67.2216 37.3558 66.6196C37.1338 64.3426 36.4668 61.9546 37.3288 59.8346C38.4408 57.1166 41.5948 55.9516 44.5118 55.4416C44.2638 55.3656 44.0018 55.3486 43.7458 55.3926C40.7518 55.8756 37.4238 57.0246 36.2778 59.8346C35.4118 61.9546 36.0828 64.3426 36.3048 66.6196C36.3868 67.2216 36.3648 67.8346 36.2398 68.4296C35.9948 69.3876 35.3128 70.1656 34.6568 70.9096C33.7338 71.8536 32.9588 72.9316 32.3568 74.1066C31.8168 75.3066 31.6478 76.7316 32.2038 77.9396C32.3968 78.2456 32.5268 78.5876 32.5868 78.9446C32.6248 79.7116 31.8198 80.2176 31.2108 80.7116C28.9608 82.5746 29.0598 85.9636 29.0408 88.8806C28.9968 94.8446 27.6638 100.73 25.1348 106.131C26.0248 106.59 27.0288 106.777 28.0248 106.671C27.3878 106.61 26.7688 106.427 26.2008 106.131Z" fill="black"/>
</g>
<g opacity="0.1">
<path d="M30.7629 109.22C31.3429 107.982 31.7919 106.687 32.1039 105.356C31.7209 105.71 31.2829 106 30.8079 106.215C30.5169 107.245 30.1449 108.25 29.6929 109.22C30.2409 109.48 30.8569 109.559 31.4529 109.446C31.2139 109.4 30.9829 109.324 30.7629 109.22Z" fill="black"/>
</g>
<g opacity="0.1">
<path d="M47.089 59.4137C47.645 59.1977 48.227 59.0617 48.821 59.0077H48.618C48.104 58.9817 47.589 59.0197 47.085 59.1227L47.089 59.4137Z" fill="black"/>
</g>
<g opacity="0.1">
<path d="M53.2881 68.6747C52.3331 68.2747 51.4101 67.8017 50.5281 67.2597C50.2811 67.1007 50.0071 66.9897 49.7191 66.9307C49.4351 66.9027 49.1501 66.9197 48.8721 66.9837C49.0761 67.0557 49.2721 67.1487 49.4581 67.2597C50.3391 67.8017 51.2611 68.2757 52.2151 68.6747C53.6961 69.1647 55.2571 69.3687 56.8151 69.2767C55.6141 69.2727 54.4221 69.0687 53.2881 68.6747Z" fill="black"/>
</g>
<g opacity="0.1">
<path d="M46.2 66.7587C46.2 66.8427 46.165 66.9227 46.146 67.0037C46.595 67.0717 47.051 67.0857 47.503 67.0427C47.059 66.9987 46.622 66.9027 46.2 66.7587Z" fill="black"/>
</g>
<path d="M27.2439 108.983C27.3499 109.959 27.0209 110.931 26.3459 111.643C25.9679 112.009 25.5429 112.322 25.0809 112.574C24.6319 112.884 24.1129 113.079 23.5709 113.142C22.8489 113.118 22.1629 112.819 21.6539 112.306C20.0709 110.915 19.2739 108.856 18.5459 106.874C17.5759 104.252 16.6289 101.607 16.1959 98.8467C15.7479 95.8837 15.9389 92.8137 15.0879 89.9387C15.8549 88.4317 16.3259 86.7717 17.1809 85.3187C17.7249 84.4537 18.2059 83.5517 18.6189 82.6167C19.4169 80.6297 19.5069 78.4297 18.8749 76.3837C19.1839 76.1857 19.5859 76.2077 19.8719 76.4377C20.1439 76.6717 20.3499 76.9727 20.4699 77.3117C20.9659 78.4647 21.1709 79.7217 21.0679 80.9727C21.0069 81.2737 21.0419 81.5857 21.1679 81.8657C21.4039 82.1567 21.7679 82.3107 22.1409 82.2757C22.9059 82.2417 23.6619 82.1047 24.3909 81.8697C26.6519 81.2937 28.9929 81.0997 31.3179 81.2977C31.7859 81.3107 32.2459 81.4237 32.6679 81.6277C33.0949 81.8407 33.3629 82.2777 33.3609 82.7547L27.8339 83.5677C27.4229 83.5907 27.0259 83.7227 26.6839 83.9507C26.3389 84.2107 26.2689 84.6997 26.5269 85.0467C26.6459 85.1437 26.7739 85.2277 26.9099 85.2997C27.1879 85.5247 27.3459 85.8657 27.3369 86.2237C27.3279 86.5817 27.1529 86.9147 26.8639 87.1247C26.7199 87.1837 26.5899 87.2707 26.4809 87.3817C26.2549 87.6887 26.5529 88.0907 26.6489 88.4547C26.7369 89.0087 26.4709 89.5597 25.9819 89.8347C25.5049 90.0967 24.9869 90.2727 24.4489 90.3557C23.3609 90.6047 22.3019 90.9647 21.2869 91.4297C20.9559 91.5477 20.6679 91.7627 20.4619 92.0467C20.1899 92.5067 20.3699 93.0927 20.5579 93.5797L21.9989 97.4667C22.2249 98.0767 22.4519 98.6857 22.7319 99.2727C23.1149 100.04 23.5559 100.749 23.9319 101.508C24.2689 102.217 24.5679 102.942 24.8319 103.681C25.5329 105.694 26.9989 106.882 27.2439 108.983Z" fill="#FFB9B9"/>
</svg>
