<svg width="365" height="413" viewBox="0 0 365 413" fill="none" xmlns="http://www.w3.org/2000/svg">
<path d="M374.268 209.857C366.573 217.866 359.293 223.031 353.541 227.111C285.929 275.078 205.925 261.096 188.922 257.681C163.814 252.639 115.28 242.893 80.1915 202.094C27.1051 140.368 35.3714 43.1213 76.5489 -21.0727C84.0809 -32.8149 123.867 -97.9867 204.732 -108.438C253.671 -114.763 310.718 -102.006 352.03 -67.785C438.747 4.0487 432.574 149.165 374.268 209.857Z" fill="#F9FFE9"/>
<path d="M271.499 382.305V388.674H263.212V411.831L210.528 411.684L209.633 411.68L7.56591 411.831V388.972H0V382.305H271.499Z" fill="#EB8A4D"/>
<path d="M271.499 382.305V388.674H263.211V411.831L210.527 411.684L210.523 411.68V394.789L7.56641 395.047V388.972L210.078 389.297V382.305H271.499Z" fill="#342D38"/>
<path d="M210.523 397.288H7.56641V396.844H210.523V397.288Z" fill="#191717"/>
<path d="M171.052 280.199C171.052 280.199 167.298 277.184 169.06 272.425C170.823 267.666 169.129 266.622 168.36 265.214C167.591 263.805 167.741 262.116 168.75 260.823C169.758 259.53 173.255 255.372 178.901 257.214C184.546 259.055 184.467 259.941 189.383 259.931C194.299 259.921 201.835 260.589 200.291 272.963C200.291 272.963 201.524 284.243 194.284 290.303C187.043 296.364 195.063 296.628 195.063 296.628C195.063 296.628 191.9 298.147 190.457 296.225C190.457 296.225 189.063 298.777 187.733 298.659C186.403 298.541 171.052 280.199 171.052 280.199Z" fill="#2E2422"/>
<path d="M198.343 284.853C197.703 287.03 195.694 289.533 192.187 288.775C192.187 288.775 186.808 299.021 186.494 302.568C186.179 306.115 188.485 310.341 188.485 310.341L166.412 314.861C166.412 314.861 166.668 307.051 167.976 301.224C168.491 298.942 169.064 296.92 169.676 295.714C169.672 295.713 169.672 295.713 169.668 295.709C169.493 295.612 166.698 294.024 166.927 291.448C167.163 288.788 170.767 278.384 170.885 277.054C171.003 275.724 174.086 266.167 176.302 266.364C176.302 266.364 179.18 274.216 187.317 273.151C187.317 273.151 185.879 279.278 192.53 279.869C192.53 279.869 191.31 283.54 192.127 284.404C192.944 285.268 193.871 284.903 194.954 282.765C196.038 280.627 198.983 282.675 198.343 284.853Z" fill="#FF9168"/>
<path d="M162.9 307.53L160.23 321.772L193.166 319.992L192.796 307.53L184.265 303.969L176.698 306.64L168.616 312.87L167.352 306.64L162.9 307.53Z" fill="#FFD59B"/>
<path d="M265.276 329.573C265.276 329.573 260.578 330.699 254.882 332.202C248.971 333.761 231.957 336.934 230.248 337.22C228.539 337.507 224.505 340.47 222.737 343.585C220.969 346.701 207.048 382.529 207.048 382.529H131.919C131.919 382.529 133.466 373.85 134.35 368.509C135.234 363.168 138.327 337.353 138.327 337.353C138.327 337.353 138.184 327.637 131.31 323.721C124.436 319.804 109.53 308.476 107.323 306.664C105.115 304.851 96.6723 298.944 97.6158 296.821C97.6158 296.821 96.269 295.313 96.5583 292.837C96.8476 290.361 98.0989 283.144 98.0989 283.144C98.0989 283.144 99.311 278.207 102.931 277.971C106.551 277.736 121.788 281.61 121.788 281.61C121.788 281.61 123.435 283.208 123.009 284.339C122.584 285.47 121.52 288.298 121.52 288.298C121.52 288.298 136.663 299.25 139.258 300.887C141.852 302.524 151.143 309.759 163.517 307.533C163.517 307.533 160.866 318.216 167.937 319.551C175.008 320.886 186.166 315.99 193.622 307.533L196.221 308.868C196.221 308.868 210.805 311.984 214.782 310.203C218.76 308.423 224.126 312.603 229.774 313.128C235.422 313.654 249.471 313.655 249.471 313.655C249.471 313.655 248.949 308.731 250.658 308.445C252.367 308.158 268.884 312.46 270.972 314.468C273.06 316.475 269.738 321.16 269.738 321.16C269.738 321.16 269.169 328.33 265.276 329.573Z" fill="#24500F"/>
<path d="M264.783 249.936C264.783 249.936 259.937 250.059 260.531 255.137C261.124 260.216 265.03 264.218 265.786 267.305C266.541 270.392 266.996 272.244 264.51 278.021C262.024 283.799 253.31 306.631 253.31 306.631L271.907 310.883C271.907 310.883 277.363 276.082 277.607 273.094C277.851 270.106 278.256 265.127 279.186 263.613C280.115 262.099 284.228 253.671 276.464 252.5C276.464 252.5 275.324 249.174 273.012 250.351C273.012 250.351 272.256 247.263 269.479 249.196C269.479 249.196 266.642 246.908 264.783 249.936Z" fill="#FF9168"/>
<path d="M268.913 259.123C268.232 258.7 267.747 258.105 267.466 257.347C266.375 254.405 268.718 250.029 268.818 249.844L269.213 250.062C269.189 250.106 266.865 254.448 267.886 257.198C268.198 258.039 268.802 258.651 269.684 259.021L270.4 258.858L270.481 259.014C270.488 259.026 271.09 260.15 271.975 260.4C272.345 260.506 272.707 260.445 273.081 260.216L273.345 260.056L273.419 260.358C273.421 260.367 273.491 260.619 273.79 260.771C274.17 260.966 274.761 260.92 275.5 260.636C277.464 259.883 278.457 257.475 278.467 257.45L278.726 256.81L278.892 257.487C278.895 257.499 279.183 258.638 279.86 259.059L279.628 259.438C279.133 259.131 278.819 258.559 278.641 258.131C278.221 258.93 277.248 260.448 275.668 261.054C274.785 261.392 274.081 261.429 273.575 261.16C273.336 261.034 273.188 260.862 273.101 260.719C272.691 260.911 272.274 260.949 271.857 260.831C270.994 260.584 270.392 259.726 270.174 259.371L269.653 259.489L269.588 259.462C269.345 259.365 269.119 259.252 268.913 259.123Z" fill="#E14E3C"/>
<path d="M270.058 259.122C269.987 257.483 272.241 251.29 272.337 251.027L272.759 251.187C272.736 251.251 270.44 257.559 270.507 259.11L270.058 259.122Z" fill="#E14E3C"/>
<path d="M273.084 260.599C272.89 260.478 272.529 260.255 275.795 253.161L276.203 253.354C274.779 256.448 273.339 259.899 273.393 260.322C273.391 260.307 273.372 260.256 273.316 260.221L273.084 260.599Z" fill="#E14E3C"/>
<path d="M265.403 258.517C265.23 258.409 265.08 258.288 264.962 258.146C263.908 256.89 264.622 254.978 266.872 253.031C268.297 251.799 268.29 250.373 267.832 249.753C267.76 249.657 267.57 249.445 267.366 249.57C266.477 250.113 264.86 250.16 264.793 250.161L264.773 249.714C264.789 249.713 266.34 249.669 267.127 249.187C267.478 248.973 267.897 249.093 268.191 249.491C268.753 250.249 268.808 251.954 267.17 253.371C265.126 255.139 264.428 256.818 265.304 257.863C265.635 258.256 266.389 258.493 267.189 258.743C268.477 259.145 269.934 259.601 270.645 260.9L270.252 261.108C269.631 259.973 268.267 259.547 267.062 259.17C266.417 258.969 265.835 258.786 265.403 258.517Z" fill="#E14E3C"/>
<path d="M265.779 258.016C265.374 257.764 264.987 257.365 264.699 256.742L265.107 256.562C265.924 258.337 267.652 257.957 267.725 257.94L267.837 258.376C267.822 258.38 266.75 258.621 265.779 258.016Z" fill="#E14E3C"/>
<path d="M272.954 317.817L250.139 310.938C250.139 310.938 249.162 305.619 251.01 305.2C252.857 304.781 271.302 308.416 273.755 310.466C276.207 312.516 272.954 317.817 272.954 317.817Z" fill="#259F46"/>
<path d="M104.061 272.344C104.061 272.344 119.858 245.595 122.222 241.458C124.587 237.321 127.044 233.62 127.915 231.163C128.786 228.705 129.894 220.742 136.538 223.887C136.538 223.887 139.006 222.457 140.692 223.921C140.692 223.921 143.6 222.398 144.675 225.354C144.675 225.354 147.414 225.232 147.437 229.774C147.437 229.774 150.018 233.322 149.407 234.815C148.796 236.308 145.367 239.76 142.278 240.411C139.188 241.063 135.124 241.465 134.072 243.051C133.02 244.637 121.185 280.783 121.185 280.783L104.061 272.344Z" fill="#FF9168"/>
<path d="M142.911 234.592C141.582 234.873 140.888 234.061 140.621 233.393C140.059 233.827 139.49 234.014 138.924 233.949C138.155 233.862 137.621 233.331 137.396 233.063C136.237 233.589 135.323 233.664 134.673 233.282C134.173 232.987 133.954 232.493 133.86 232.135C133.376 232.533 132.894 232.724 132.418 232.7C131.924 232.676 131.469 232.419 131.098 231.956C130.502 231.211 131.325 227.742 131.652 226.48C131.185 226.756 130.665 228 130.418 228.916C130.386 229.036 130.263 229.106 130.142 229.076C130.022 229.045 129.95 228.923 129.982 228.804C129.99 228.774 130.186 228.055 130.507 227.354C130.981 226.321 131.488 225.867 132.012 226.001L132.23 226.057L132.172 226.272C131.644 228.229 131.071 231.201 131.452 231.677C131.653 231.928 131.989 232.232 132.443 232.255C132.885 232.276 133.36 232.036 133.854 231.538L134.217 231.173L134.239 231.683C134.239 231.692 134.283 232.534 134.909 232.9C135.451 233.217 136.277 233.111 137.368 232.584L137.545 232.499L137.654 232.66C137.659 232.668 138.176 233.417 138.983 233.507C139.5 233.565 140.04 233.341 140.585 232.841L140.876 232.575L140.958 232.957C140.972 233.02 141.301 234.477 142.82 234.156C144.314 233.841 144.231 233.2 144.227 233.173C144.209 233.055 144.287 232.941 144.404 232.916C144.406 232.916 144.408 232.915 144.41 232.915C144.53 232.893 144.646 232.967 144.67 233.085C144.68 233.129 144.875 234.178 142.911 234.592Z" fill="#E14E3C"/>
<path d="M134.059 231.911C134.02 231.919 133.979 231.918 133.939 231.904C133.822 231.865 133.759 231.738 133.801 231.622L136.414 224.249C136.455 224.133 136.586 224.072 136.702 224.111C136.819 224.151 136.881 224.277 136.84 224.394L134.227 231.766C134.199 231.843 134.133 231.895 134.059 231.911Z" fill="#E14E3C"/>
<path d="M137.512 233.006C137.47 233.014 137.426 233.012 137.384 232.996C137.268 232.953 137.211 232.823 137.256 232.709L140.571 224.279C140.617 224.163 140.748 224.107 140.863 224.15C140.979 224.193 141.036 224.323 140.991 224.438L137.676 232.867C137.647 232.94 137.584 232.99 137.512 233.006Z" fill="#E14E3C"/>
<path d="M140.783 233.222C140.735 233.232 140.683 233.227 140.637 233.204C140.525 233.15 140.48 233.017 140.535 232.906L144.122 225.784C144.178 225.673 144.315 225.627 144.425 225.682C144.536 225.736 144.581 225.869 144.526 225.98L140.939 233.102C140.906 233.167 140.848 233.208 140.783 233.222Z" fill="#E14E3C"/>
<path d="M142.104 235.763C141.823 235.822 141.537 235.844 141.253 235.817C140.85 235.779 140.34 235.578 139.751 235.344C138.172 234.72 136.208 233.942 135.018 235.736C134.949 235.839 134.809 235.869 134.705 235.802C134.602 235.736 134.573 235.598 134.641 235.495C136.035 233.394 138.282 234.281 139.922 234.93C140.479 235.151 140.96 235.341 141.299 235.373C142.606 235.497 144.088 234.346 144.286 233.365L144.324 233.178C144.353 233.035 144.376 232.923 144.375 232.893C144.264 232.723 144.069 232.407 143.783 231.035C143.214 228.295 144.783 226.468 145.785 226.257C146.808 226.041 147.477 228.858 147.658 229.727C147.683 229.847 147.605 229.966 147.483 229.992C147.361 230.017 147.241 229.94 147.216 229.82C146.853 228.08 146.228 226.618 145.875 226.692C145.149 226.845 143.711 228.475 144.224 230.942C144.494 232.239 144.669 232.519 144.743 232.639C144.856 232.822 144.841 232.889 144.765 233.263L144.727 233.448C144.53 234.425 143.384 235.493 142.104 235.763Z" fill="#E14E3C"/>
<path d="M123.404 282.589C122.702 283.646 120.948 286.289 120.948 286.289C120.948 286.289 113.263 287.002 109.11 286.968C104.956 286.934 96.7393 287.302 96.7393 287.302C96.7393 287.302 93.6498 287.954 94.5208 285.497C95.3918 283.04 98.5379 276.01 98.5379 276.01C98.5379 276.01 100.28 271.096 104.083 271.658C107.886 272.22 122.77 279.539 122.77 279.539C122.77 279.539 124.105 281.531 123.404 282.589Z" fill="#259F46"/>
<path d="M172.834 275.219C172.639 275.201 172.454 275.098 172.338 274.923C172.134 274.615 172.217 274.202 172.524 273.998C172.633 273.926 175.196 272.245 177.22 272.947C177.568 273.067 177.752 273.448 177.632 273.796C177.512 274.143 177.134 274.329 176.782 274.208C175.621 273.807 173.847 274.721 173.263 275.109C173.131 275.196 172.98 275.232 172.834 275.219Z" fill="#2E2422"/>
<path d="M184.127 278.899C183.912 278.88 183.71 278.757 183.599 278.553C183.035 277.52 181.276 276.238 180.646 275.831C180.336 275.632 180.248 275.218 180.447 274.909C180.648 274.598 181.061 274.511 181.37 274.71C181.474 274.778 183.931 276.373 184.771 277.914C184.948 278.238 184.829 278.642 184.505 278.82C184.384 278.885 184.254 278.91 184.127 278.899Z" fill="#2E2422"/>
<path d="M174.726 285.847C173.793 285.764 173.126 285.473 172.705 284.971C172.367 284.566 173.442 282.468 175.901 278.735C175.969 278.632 176.106 278.605 176.209 278.672C176.311 278.739 176.34 278.877 176.273 278.98C174.637 281.463 172.99 284.29 173.067 284.724C173.584 285.328 174.668 285.549 176.359 285.365C176.475 285.35 176.59 285.44 176.604 285.562C176.617 285.684 176.529 285.794 176.407 285.807C175.773 285.877 175.213 285.891 174.726 285.847Z" fill="#E14E3C"/>
<path d="M182.924 282.368C182.831 282.359 182.75 282.293 182.727 282.197C182.127 279.671 178.75 279.756 178.715 279.758C178.593 279.764 178.489 279.666 178.485 279.544C178.481 279.421 178.577 279.318 178.699 279.313C178.739 279.312 182.475 279.211 183.16 282.094C183.189 282.214 183.116 282.334 182.996 282.363C182.972 282.368 182.947 282.37 182.924 282.368Z" fill="#191717"/>
<path d="M174.738 278.963C174.65 278.955 174.571 278.894 174.544 278.805C173.931 276.754 171.928 277.324 171.842 277.349C171.726 277.383 171.601 277.317 171.565 277.199C171.53 277.081 171.596 276.958 171.714 276.922C171.759 276.908 172.831 276.596 173.784 277.108C174.351 277.413 174.75 277.941 174.971 278.677C175.006 278.794 174.939 278.919 174.821 278.954C174.794 278.962 174.766 278.965 174.738 278.963Z" fill="#191717"/>
<path d="M173.448 288.452C171.765 287.72 170.998 282.903 170.774 283.145C170.549 283.386 168.105 292.361 171.623 293.251C175.14 294.141 181.961 286.993 181.961 286.993C181.961 286.993 174.738 289.013 173.448 288.452Z" fill="white"/>
<path d="M188.717 292.512C182.963 301.81 167.975 301.226 167.975 301.226C168.49 298.944 169.063 296.922 169.675 295.716C182.692 300.781 188.405 292.949 188.717 292.512Z" fill="#E14E3C"/>
<path d="M87.399 347.759C75.8836 346.929 67.2198 336.92 68.0494 325.404C68.7018 316.349 75.0293 309.057 83.2992 306.761C85.5495 306.131 87.9435 305.877 90.4032 306.054C101.919 306.884 110.582 316.893 109.753 328.408C109.136 336.969 103.443 343.953 95.8326 346.634C93.2076 347.559 90.3533 347.971 87.399 347.759Z" fill="#FDE981"/>
<path d="M87.3984 347.759C75.8829 346.929 67.2183 336.921 68.0479 325.405C68.7004 316.349 75.029 309.058 83.2989 306.762L95.8323 346.636C93.2073 347.561 90.3527 347.971 87.3984 347.759Z" fill="#FFC000"/>
<path d="M90.068 310.687C99.0249 311.333 105.763 319.117 105.118 328.073C104.472 337.03 96.6886 343.769 87.7317 343.123C78.7748 342.477 72.0364 334.694 72.682 325.737C73.3276 316.78 81.1111 310.042 90.068 310.687Z" fill="#FFBF00"/>
<path d="M72.2964 325.71C72.9562 316.555 80.9413 309.643 90.097 310.302C99.2527 310.962 106.165 318.947 105.505 328.103C104.845 337.259 96.8601 344.171 87.7044 343.511C78.5486 342.851 71.6366 334.866 72.2964 325.71ZM104.733 328.047C105.362 319.317 98.7716 311.703 90.0413 311.074C81.3109 310.445 73.6971 317.036 73.0681 325.766C72.4392 334.496 79.0298 342.11 87.7601 342.739C96.4904 343.368 104.104 336.778 104.733 328.047Z" fill="#E08100"/>
<path d="M95.7623 327.39C96.0363 323.589 93.1725 320.192 89.372 319.918C85.5715 319.644 82.168 322.591 81.894 326.392C81.62 330.192 84.5729 333.512 88.3734 333.786C92.1739 334.06 95.4883 331.19 95.7623 327.39ZM85.6467 327.921L85.6917 327.294L85.0658 327.25C84.24 327.19 84.3257 325.937 85.1554 325.997L85.7824 326.042L85.9177 324.161C85.977 323.336 87.2306 323.422 87.1709 324.252L87.1256 324.878L90.8852 325.149L90.9305 324.523C90.9898 323.697 92.2422 323.783 92.1826 324.613L92.048 326.493L92.6742 326.538C93.5001 326.597 93.4136 327.851 92.5839 327.791L91.9577 327.746L91.9124 328.372C91.7967 329.98 89.8212 330.727 88.679 329.537C87.3786 330.551 85.531 329.529 85.6467 327.921Z" fill="#FDEC83"/>
<path d="M88.1523 328.102L88.2876 326.222L87.0344 326.131L86.8991 328.011C86.8396 328.839 88.0928 328.929 88.1523 328.102Z" fill="#FDE981"/>
<path d="M90.6581 328.285L90.7935 326.405L89.5403 326.315L89.4049 328.195C89.3455 329.023 90.5987 329.113 90.6581 328.285Z" fill="#FDE981"/>
<path d="M97.5606 319.879C97.6353 318.842 96.8531 317.938 95.8169 317.863C94.7807 317.789 93.8765 318.571 93.8018 319.607C93.7272 320.643 94.5093 321.548 95.5455 321.622C96.5818 321.697 97.4859 320.915 97.5606 319.879Z" fill="#FDE981"/>
<path d="M99.5204 327.661C99.6712 325.566 99.1974 323.429 98.1884 321.626C97.9243 321.976 97.5927 322.267 97.2106 322.482C98.0102 324.014 98.4015 325.817 98.2752 327.572C97.9017 332.755 93.3738 336.674 88.1908 336.301C87.0205 336.217 85.8131 335.889 84.7719 335.389C84.5707 335.781 84.2852 336.116 83.9477 336.389C85.2067 337.038 86.6681 337.443 88.102 337.546C93.9758 337.969 99.0974 333.535 99.5204 327.661Z" fill="#FDE981"/>
<path d="M80.4498 331.217C79.6502 329.684 79.2528 327.966 79.3791 326.21C79.7526 321.027 84.3704 317.03 89.5534 317.404C90.7236 317.488 91.8481 317.809 92.8893 318.309C93.0905 317.918 93.3752 317.583 93.7127 317.309C92.4537 316.66 90.9934 316.256 89.5595 316.153C83.6857 315.73 78.5577 320.247 78.1347 326.121C77.9838 328.216 78.4638 330.269 79.4729 332.073C79.7369 331.723 80.0677 331.431 80.4498 331.217Z" fill="#FDE981"/>
<path d="M83.8594 334.089C83.9341 333.053 83.1519 332.149 82.1157 332.074C81.0795 332 80.1753 332.782 80.1007 333.818C80.026 334.854 80.8081 335.759 81.8444 335.833C82.8806 335.908 83.7848 335.126 83.8594 334.089Z" fill="#FDE981"/>
<path d="M57.2333 304.412C69.6408 309.125 75.8795 323.007 71.1662 335.415C67.4597 345.172 58.0846 351.113 48.2191 350.913C45.5335 350.864 42.8136 350.354 40.1632 349.348C27.7557 344.634 21.517 330.752 26.2303 318.345C29.7344 309.12 38.3081 303.308 47.5742 302.866C50.7694 302.714 54.0499 303.202 57.2333 304.412Z" fill="#FDE981"/>
<path d="M57.2338 304.409C69.6413 309.122 75.88 323.004 71.1667 335.412C67.4602 345.169 58.0862 351.11 48.2207 350.91L47.5758 302.863C50.771 302.711 54.0504 303.2 57.2338 304.409Z" fill="#FFC000"/>
<path d="M42.0612 344.353C32.4101 340.687 27.5581 329.891 31.2244 320.24C34.8906 310.588 45.687 305.736 55.3382 309.403C64.9893 313.069 69.8413 323.865 66.175 333.516C62.5088 343.168 51.7124 348.02 42.0612 344.353Z" fill="#FFBF00"/>
<path d="M66.5901 333.674C62.8425 343.54 51.7682 348.517 41.9027 344.769C32.0372 341.021 27.0604 329.947 30.8081 320.082C34.5558 310.216 45.63 305.239 55.4955 308.987C65.361 312.735 70.3378 323.809 66.5901 333.674ZM31.6403 320.398C28.0672 329.804 32.8128 340.364 42.2189 343.937C51.625 347.51 62.1847 342.764 65.7579 333.358C69.3311 323.952 64.5855 313.392 55.1793 309.819C45.7732 306.246 35.2135 310.992 31.6403 320.398Z" fill="#E08100"/>
<path d="M41.3027 324.081C39.7472 328.176 41.7786 332.863 45.8735 334.419C49.9683 335.974 54.6902 333.852 56.2457 329.757C57.8013 325.663 55.6448 321.031 51.55 319.476C47.4551 317.92 42.8583 319.986 41.3027 324.081ZM52.6176 326.834L52.361 327.51L53.0363 327.766C53.926 328.104 53.4173 329.456 52.5236 329.116L51.8482 328.86L51.0789 330.885C50.741 331.774 49.3896 331.266 49.7291 330.372L49.9853 329.698L45.9341 328.159L45.6779 328.833C45.3399 329.723 43.9885 329.214 44.328 328.32L45.0974 326.295L44.422 326.039C43.5324 325.701 44.0411 324.349 44.9348 324.689L45.6101 324.945L45.8667 324.27C46.5251 322.537 48.9459 322.367 49.811 324.053C51.5776 323.367 53.276 325.101 52.6176 326.834Z" fill="#FDEC83"/>
<path d="M49.9158 325.807L49.1465 327.832L50.4971 328.345L51.2665 326.32C51.6053 325.428 50.2547 324.915 49.9158 325.807Z" fill="#FDE981"/>
<path d="M47.2166 324.78L46.4473 326.805L47.7979 327.318L48.5672 325.293C48.9061 324.401 47.5555 323.887 47.2166 324.78Z" fill="#FDE981"/>
<path d="M36.8416 331.76C36.4173 332.877 36.9805 334.13 38.0975 334.554C39.2144 334.979 40.4677 334.416 40.892 333.299C41.3162 332.182 40.753 330.928 39.6361 330.504C38.5192 330.08 37.2659 330.643 36.8416 331.76Z" fill="#FDE981"/>
<path d="M37.2525 322.543C36.3951 324.801 36.2114 327.311 36.7281 329.63C37.134 329.331 37.5951 329.119 38.0865 329.009C37.7109 327.057 37.8749 324.945 38.5935 323.053C40.7147 317.469 46.9956 314.646 52.5794 316.767C53.8403 317.246 55.0619 318.007 56.0442 318.9C56.3955 318.536 56.8207 318.259 57.2822 318.07C56.1093 316.94 54.6336 316.013 53.0888 315.427C46.7601 313.022 39.6567 316.215 37.2525 322.543Z" fill="#FDE981"/>
<path d="M59.4273 324.92C59.8028 326.872 59.673 328.895 58.9543 330.787C56.8332 336.371 50.4276 339.249 44.8437 337.127C43.5828 336.648 42.4518 335.923 41.4695 335.029C41.1182 335.394 40.6931 335.67 40.2315 335.859C41.4045 336.989 42.8802 337.916 44.4249 338.503C50.7536 340.907 57.8912 337.625 60.2953 331.296C61.1528 329.039 61.3024 326.618 60.7856 324.3C60.3798 324.598 59.9186 324.811 59.4273 324.92Z" fill="#FDE981"/>
<path d="M56.6209 320.631C56.1966 321.748 56.7598 323.001 57.8767 323.426C58.9937 323.85 60.247 323.287 60.6713 322.17C61.0955 321.053 60.5323 319.799 59.4154 319.375C58.2985 318.951 57.0452 319.514 56.6209 320.631Z" fill="#FDE981"/>
<path d="M57.2333 304.412C69.6408 309.125 75.8795 323.007 71.1662 335.415C67.4597 345.172 58.0846 351.113 48.2191 350.913C45.5335 350.864 42.8136 350.354 40.1632 349.348C27.7557 344.634 21.517 330.752 26.2303 318.345C29.7344 309.12 38.3081 303.308 47.5742 302.866C50.7694 302.714 54.0499 303.202 57.2333 304.412Z" fill="#FDE981"/>
<path d="M57.2338 304.409C69.6413 309.122 75.88 323.004 71.1667 335.412C67.4602 345.169 58.0862 351.11 48.2207 350.91L47.5758 302.863C50.771 302.711 54.0504 303.2 57.2338 304.409Z" fill="#FFC000"/>
<path d="M42.0612 344.353C32.4101 340.687 27.5581 329.891 31.2244 320.24C34.8906 310.588 45.687 305.736 55.3382 309.403C64.9893 313.069 69.8413 323.865 66.175 333.516C62.5088 343.168 51.7124 348.02 42.0612 344.353Z" fill="#FFBF00"/>
<path d="M66.5901 333.674C62.8425 343.54 51.7682 348.517 41.9027 344.769C32.0372 341.021 27.0604 329.947 30.8081 320.082C34.5558 310.216 45.63 305.239 55.4955 308.987C65.361 312.735 70.3378 323.809 66.5901 333.674ZM31.6403 320.398C28.0672 329.804 32.8128 340.364 42.2189 343.937C51.625 347.51 62.1847 342.764 65.7579 333.358C69.3311 323.952 64.5855 313.392 55.1793 309.819C45.7732 306.246 35.2135 310.992 31.6403 320.398Z" fill="#E08100"/>
<path d="M41.3027 324.081C39.7472 328.176 41.7786 332.863 45.8735 334.419C49.9683 335.974 54.6902 333.852 56.2457 329.757C57.8013 325.663 55.6448 321.031 51.55 319.476C47.4551 317.92 42.8583 319.986 41.3027 324.081ZM52.6176 326.834L52.361 327.51L53.0363 327.766C53.926 328.104 53.4173 329.456 52.5236 329.116L51.8482 328.86L51.0789 330.885C50.741 331.774 49.3896 331.266 49.7291 330.372L49.9853 329.698L45.9341 328.159L45.6779 328.833C45.3399 329.723 43.9885 329.214 44.328 328.32L45.0974 326.295L44.422 326.039C43.5324 325.701 44.0411 324.349 44.9348 324.689L45.6101 324.945L45.8667 324.27C46.5251 322.537 48.9459 322.367 49.811 324.053C51.5776 323.367 53.276 325.101 52.6176 326.834Z" fill="#FDEC83"/>
<path d="M49.9158 325.807L49.1465 327.832L50.4971 328.345L51.2665 326.32C51.6053 325.428 50.2547 324.915 49.9158 325.807Z" fill="#FDE981"/>
<path d="M47.2166 324.78L46.4473 326.805L47.7979 327.318L48.5672 325.293C48.9061 324.401 47.5555 323.887 47.2166 324.78Z" fill="#FDE981"/>
<path d="M36.8416 331.76C36.4173 332.877 36.9805 334.13 38.0975 334.554C39.2144 334.979 40.4677 334.416 40.892 333.299C41.3162 332.182 40.753 330.928 39.6361 330.504C38.5192 330.08 37.2659 330.643 36.8416 331.76Z" fill="#FDE981"/>
<path d="M37.2525 322.543C36.3951 324.801 36.2114 327.311 36.7281 329.63C37.134 329.331 37.5951 329.119 38.0865 329.009C37.7109 327.057 37.8749 324.945 38.5935 323.053C40.7147 317.469 46.9956 314.646 52.5794 316.767C53.8403 317.246 55.0619 318.007 56.0442 318.9C56.3955 318.536 56.8207 318.259 57.2822 318.07C56.1093 316.94 54.6336 316.013 53.0888 315.427C46.7601 313.022 39.6567 316.215 37.2525 322.543Z" fill="#FDE981"/>
<path d="M59.4273 324.92C59.8028 326.872 59.673 328.895 58.9543 330.787C56.8332 336.371 50.4276 339.249 44.8437 337.127C43.5828 336.648 42.4518 335.923 41.4695 335.029C41.1182 335.394 40.6931 335.67 40.2315 335.859C41.4045 336.989 42.8802 337.916 44.4249 338.503C50.7536 340.907 57.8912 337.625 60.2953 331.296C61.1528 329.039 61.3024 326.618 60.7856 324.3C60.3798 324.598 59.9186 324.811 59.4273 324.92Z" fill="#FDE981"/>
<path d="M56.6209 320.631C56.1966 321.748 56.7598 323.001 57.8767 323.426C58.9937 323.85 60.247 323.287 60.6713 322.17C61.0955 321.053 60.5323 319.799 59.4154 319.375C58.2985 318.951 57.0452 319.514 56.6209 320.631Z" fill="#FDE981"/>
<path d="M123.732 298.184V363.165L118.614 363.125L15.1328 362.275V298.184H123.732Z" fill="#4A3F72"/>
<path d="M123.732 298.184V363.165L118.613 363.125V298.184H123.732Z" fill="#7AC8FF"/>
<path d="M95.6929 360.497H82.3398V356.047H95.6929V360.497Z" fill="#36304C"/>
<path d="M89.0154 382.613V382.884H56.0801V315.098H74.0964L73.99 362.726H69.9444L69.8769 378.299L84.7111 378.308C87.0886 378.308 89.0154 380.235 89.0154 382.613Z" fill="#62699C"/>
<path d="M74.098 315.098L73.9907 362.725H71.6582V315.098H74.098Z" fill="#CDD7EC"/>
<path d="M84.5645 358.269C84.5645 357.778 84.9633 357.379 85.4547 357.379C85.9461 357.379 86.345 357.778 86.345 358.269C86.345 358.761 85.9461 359.159 85.4547 359.159C84.9633 359.159 84.5645 358.761 84.5645 358.269Z" fill="#62699C"/>
<path d="M88.5703 358.269C88.5703 357.778 88.9692 357.379 89.4606 357.379C89.952 357.379 90.3508 357.778 90.3508 358.269C90.3508 358.761 89.952 359.159 89.4606 359.159C88.9692 359.159 88.5703 358.761 88.5703 358.269Z" fill="#62699C"/>
<path d="M92.5762 358.269C92.5762 357.778 92.975 357.379 93.4664 357.379C93.9578 357.379 94.3567 357.778 94.3567 358.269C94.3567 358.761 93.9578 359.159 93.4664 359.159C92.975 359.159 92.5762 358.761 92.5762 358.269Z" fill="#62699C"/>
<path d="M83.5427 411.996C83.4787 411.996 83.4155 411.968 83.3714 411.915C79.9263 407.775 78.9434 402.652 80.4506 396.686C81.7786 391.428 84.7756 386.618 87.0561 383.507C90.7902 378.416 88.2336 375.836 85.5274 373.104C84.8145 372.385 84.0782 371.641 83.4968 370.866C80.775 367.237 85.0714 358.539 85.2557 358.17C85.3111 358.06 85.4443 358.015 85.5542 358.071C85.6641 358.125 85.7099 358.259 85.6546 358.369C85.6104 358.456 81.295 367.189 83.8524 370.598C84.4156 371.349 85.1095 372.049 85.844 372.791C88.4361 375.407 91.3742 378.372 87.4152 383.77C76.4578 398.713 80.3926 407.64 83.7131 411.632C83.7919 411.726 83.7789 411.866 83.6846 411.945C83.643 411.979 83.5929 411.996 83.5427 411.996Z" fill="#191717"/>
<path d="M99.4961 412.44C99.4736 412.44 99.4494 412.438 99.4269 412.43C99.3101 412.392 99.2469 412.266 99.285 412.149C100.488 408.471 98.2382 402.705 95.9463 398.886C93.4789 394.773 92.6145 391.45 95.5008 386.64C98.4025 381.804 93.536 372.88 91.9363 369.948C89.2361 364.997 93.1094 358.431 93.2755 358.154C93.3387 358.049 93.4754 358.016 93.5809 358.078C93.6865 358.141 93.7202 358.278 93.6571 358.384C93.6181 358.449 89.7491 365.009 92.3264 369.735C96.7604 377.863 97.9232 383.468 95.8823 386.869C93.4044 390.998 93.5178 393.973 96.3279 398.657C98.6681 402.558 100.957 408.468 99.7081 412.287C99.6778 412.382 99.5895 412.44 99.4961 412.44Z" fill="#191717"/>
<path d="M90.2305 411.991C90.2193 411.991 90.208 411.991 90.1968 411.989C90.0756 411.971 89.9926 411.857 90.0108 411.735C90.0298 411.611 91.8596 399.188 88.3782 393.096C87.3668 391.326 86.1945 389.788 85.1606 388.432C82.572 385.035 80.5268 382.353 83.5099 379.039C84.632 377.792 85.6313 376.909 86.512 376.13C88.7433 374.158 89.8637 373.167 89.2416 369.433L89.0521 368.306C88.2224 363.396 87.6238 359.849 89.3013 358.115C89.387 358.026 89.528 358.024 89.6162 358.11C89.7045 358.195 89.7071 358.336 89.6214 358.424C88.1005 359.996 88.7139 363.63 89.4917 368.232L89.6811 369.36C90.3438 373.337 89.0876 374.447 86.807 376.463C85.9349 377.235 84.9469 378.109 83.8412 379.337C81.1056 382.378 82.8593 384.678 85.5145 388.162C86.557 389.53 87.7388 391.079 88.7649 392.876C92.3234 399.102 90.5281 411.286 90.4503 411.802C90.4338 411.912 90.3387 411.991 90.2305 411.991Z" fill="#191717"/>
<path d="M69.8763 331.563L69.9429 362.723L69.8763 378.297L67.6035 382.881V330.711L69.8763 331.563Z" fill="#36304C"/>
<path d="M58.3047 330.676V382.884H67.6035V330.713L58.3047 330.676Z" fill="#4A3F72"/>
<path d="M139.575 334.234C139.536 334.234 139.498 334.23 139.459 334.219C139.218 334.156 139.074 333.913 139.138 333.675C139.179 333.523 143.349 318.31 153.268 310.3C153.46 310.144 153.744 310.172 153.903 310.363C154.06 310.553 154.032 310.834 153.839 310.99C144.143 318.818 140.051 333.753 140.01 333.903C139.957 334.103 139.775 334.234 139.575 334.234Z" fill="#259F46"/>
<path d="M223.902 343.582C223.864 343.582 223.824 343.577 223.785 343.567C218.745 342.228 215.185 336.854 213.202 327.596C211.743 320.786 211.727 314.272 211.727 314.207C211.727 313.962 211.928 313.762 212.177 313.762C212.426 313.762 212.629 313.962 212.629 314.207C212.629 314.462 212.762 339.717 224.019 342.708C224.259 342.772 224.403 343.016 224.338 343.253C224.284 343.452 224.101 343.582 223.902 343.582Z" fill="#259F46"/>
<path d="M170.387 324.295C169.557 324.295 168.754 324.228 167.978 324.091C164.32 323.447 161.825 321.914 160.561 319.531C158.361 315.384 160.707 310.234 160.808 310.017C160.912 309.793 161.18 309.696 161.406 309.798C161.632 309.901 161.731 310.165 161.628 310.388C161.605 310.437 159.366 315.365 161.361 319.122C162.489 321.246 164.769 322.623 168.136 323.215C179.864 325.282 195.462 309.606 195.618 309.447C195.792 309.272 196.077 309.266 196.256 309.439C196.433 309.61 196.438 309.891 196.264 310.068C196.225 310.108 192.226 314.147 186.794 317.868C180.558 322.14 175.053 324.295 170.387 324.295Z" fill="#259F46"/>
<path d="M164.15 306.863L168.66 314.429C168.66 314.429 174.63 309.755 176.493 310.423C178.356 311.091 181.9 313.761 181.9 313.761L177.228 306.863L169.336 312.871L168.886 313.316L166.631 305.305L164.15 306.863Z" fill="#EF8A3D"/>
<path d="M156.709 308.867C156.709 308.867 165.954 304.194 166.856 302.414C167.758 300.633 168.885 311.982 168.885 311.982L176.551 305.751L186.923 300.855C186.923 300.855 190.081 306.642 194.59 307.086L183.767 316.878L176.1 307.977L168.885 313.317L166.18 306.196C166.18 306.196 160.317 310.647 156.709 308.867Z" fill="#B7E143"/>
<path d="M247.543 337.68C247.807 338.232 250.776 344.806 246.782 353.276C244.356 358.42 239.998 359.162 239.57 359.223C239.285 358.898 236.459 355.497 237.967 350.013C240.45 340.984 246.984 337.928 247.543 337.68Z" fill="#80C56E"/>
<path d="M247.543 337.683L239.571 359.225C239.999 359.164 244.357 358.422 246.783 353.278C250.777 344.809 247.807 338.234 247.543 337.683Z" fill="#66AD66"/>
<path d="M220.092 339.338C219.913 339.922 217.958 346.866 223.17 354.645C226.336 359.37 230.756 359.454 231.189 359.45C231.422 359.087 233.709 355.302 231.4 350.105C227.599 341.547 220.681 339.499 220.092 339.338Z" fill="#80C56E"/>
<path d="M231.402 350.102C227.601 341.544 220.683 339.497 220.094 339.336C226.603 350.276 230.177 357.317 231.212 359.412C231.539 358.888 233.651 355.166 231.402 350.102Z" fill="#66AD66"/>
<path d="M233.859 334.487C233.175 335.206 225.293 343.875 227.219 358.958C228.389 368.12 234.75 371.449 235.381 371.757C235.985 371.398 242.053 367.561 242.472 358.335C243.161 343.145 234.598 335.148 233.859 334.487Z" fill="#80C56E"/>
<path d="M233.859 334.488L235.382 371.758C235.985 371.399 242.053 367.561 242.471 358.336C243.161 343.146 234.599 335.149 233.859 334.488Z" fill="#66AD66"/>
<path d="M252.998 357.646C254.547 352.324 254.023 347.379 254.023 347.379C254.023 347.379 251.041 348.707 243.548 353.549C237.724 357.313 235.921 363.912 235.381 365.691H242.226C247.202 365.691 251.608 362.424 252.998 357.646Z" fill="#80C56E"/>
<path d="M254.023 347.379C254.023 347.379 246.322 362.592 235.381 365.691H242.226C247.203 365.691 251.608 362.424 252.998 357.646C254.546 352.324 254.023 347.379 254.023 347.379Z" fill="#66AD66"/>
<path d="M217.656 357.888C216.035 352.588 216.492 347.636 216.492 347.636C216.492 347.636 219.491 348.923 227.049 353.663C232.924 357.347 234.817 363.921 235.381 365.692L228.536 365.786C223.561 365.853 219.111 362.647 217.656 357.888Z" fill="#80C56E"/>
<path d="M235.382 365.694C234.818 363.922 232.926 357.349 227.051 353.664C219.492 348.924 216.492 347.637 216.492 347.637C216.492 347.637 224.4 362.744 235.382 365.694Z" fill="#66AD66"/>
<path d="M240.333 381.941H230.432C227.807 381.941 225.554 380.069 225.074 377.488L222.951 366.074H247.814L245.691 377.488C245.211 380.069 242.959 381.941 240.333 381.941Z" fill="#FEC37D"/>
<path d="M243.005 366.074L240.882 377.488C240.402 380.069 238.149 381.941 235.523 381.941H240.333C242.959 381.941 245.211 380.069 245.691 377.488L247.814 366.074H243.005Z" fill="#F9AE5D"/>
<path d="M248.247 368.639H222.517C221.474 368.639 220.629 367.794 220.629 366.751C220.629 365.709 221.474 364.863 222.517 364.863H248.247C249.289 364.863 250.135 365.709 250.135 366.751C250.135 367.794 249.289 368.639 248.247 368.639Z" fill="#F2A559"/>
<path d="M248.247 364.863H245.223V368.639H248.247C249.29 368.639 250.135 367.794 250.135 366.751C250.135 365.709 249.29 364.863 248.247 364.863Z" fill="#EA8F3D"/>
<path d="M190.096 344.698L187.637 343.57L186.875 345.188L189.335 346.316C190.418 346.812 191.179 345.194 190.096 344.698Z" fill="#FDE981"/>
<path d="M188.575 347.932L186.115 346.805L185.354 348.423L187.813 349.55C188.896 350.047 189.658 348.429 188.575 347.932Z" fill="#FDE981"/>
<path d="M196.348 185.553C196.348 196.256 187.979 204.675 177.283 204.347C166.151 204.005 156.789 194.391 156.789 182.886C156.789 171.382 166.151 163.03 177.283 164.189C187.979 165.303 196.348 174.851 196.348 185.553Z" fill="url(#paint0_linear_11669_60797)"/>
<path d="M199.238 184.632C199.238 195.334 190.87 203.753 180.173 203.425C169.042 203.083 159.68 193.469 159.68 181.965C159.68 170.46 169.042 162.108 180.173 163.268C190.87 164.381 199.238 173.929 199.238 184.632Z" fill="url(#paint1_linear_11669_60797)"/>
<path d="M198.399 184.574C198.399 194.805 190.391 202.84 180.173 202.509C169.559 202.165 160.646 192.991 160.646 182.029C160.646 171.067 169.559 163.094 180.173 164.181C190.391 165.228 198.399 174.343 198.399 184.574Z" fill="url(#paint2_linear_11669_60797)"/>
<path d="M197.796 184.535C197.796 194.428 190.048 202.189 180.172 201.857C169.926 201.513 161.334 192.652 161.334 182.076C161.334 171.501 169.926 163.798 180.172 164.836C190.048 165.836 197.796 174.641 197.796 184.535Z" fill="url(#paint3_linear_11669_60797)"/>
<path d="M180.072 168.2C180.597 168.25 181.023 168.723 181.023 169.256V171.078C182.074 171.195 183.126 171.378 184.18 171.626C184.957 171.808 185.729 172.026 186.495 172.278C186.955 172.429 187.268 172.893 187.221 173.371L186.997 175.655C186.938 176.261 186.339 176.617 185.775 176.366C185.27 176.14 184.752 175.947 184.221 175.787C183.295 175.507 182.319 175.324 181.291 175.239L181.023 175.217V180.434C183.764 181.201 185.778 182.233 187.079 183.531C188.374 184.822 189.019 186.432 189.019 188.365C189.019 190.455 188.306 192.128 186.873 193.39C185.434 194.659 183.415 195.373 180.804 195.527V197.538C180.804 198.072 180.379 198.488 179.853 198.467L179.836 198.466C179.309 198.445 178.881 197.994 178.881 197.458V195.475L178.457 195.456C177.233 195.4 176.061 195.276 174.941 195.081C174.111 194.936 173.301 194.75 172.511 194.522C172.033 194.384 171.705 193.928 171.749 193.439L172.012 190.503C172.069 189.868 172.707 189.499 173.31 189.737C174.014 190.015 174.726 190.248 175.447 190.438C176.571 190.735 177.71 190.925 178.864 191.009L178.881 185.206C176.249 184.555 174.279 183.591 172.984 182.313C171.684 181.029 171.031 179.387 171.031 177.39C171.031 175.323 171.739 173.727 173.149 172.608C174.551 171.494 176.545 170.94 179.118 170.941V169.079C179.118 168.543 179.545 168.15 180.072 168.2ZM179.118 175.163C178.304 175.222 177.67 175.446 177.216 175.834C176.761 176.222 176.534 176.744 176.534 177.4C176.534 178.02 176.744 178.539 177.165 178.956C177.585 179.372 178.236 179.704 179.118 179.952V175.163ZM180.804 185.671V190.993C181.688 190.995 182.366 190.783 182.84 190.36C183.312 189.938 183.548 189.341 183.548 188.569C183.548 187.865 183.329 187.281 182.89 186.817C182.45 186.353 181.755 185.971 180.804 185.671Z" fill="url(#paint4_linear_11669_60797)"/>
<g style="mix-blend-mode:multiply" opacity="0.3">
<path style="mix-blend-mode:multiply" opacity="0.3" d="M176.983 186.958C177.578 181.077 182.983 178.588 182.278 173.178C181.843 169.844 179.316 167.034 176.497 164.84C167.946 165.737 161.334 172.817 161.334 182.077C161.334 192.653 169.926 201.514 180.172 201.858C181.167 201.892 182.139 201.84 183.083 201.716C179.014 197.667 176.471 192.011 176.983 186.958Z" fill="url(#paint5_linear_11669_60797)"/>
</g>
<path d="M114.422 210.643C114.422 221.346 106.053 229.765 95.357 229.437C84.2254 229.095 74.8633 219.481 74.8633 207.976C74.8633 196.472 84.2254 188.12 95.357 189.279C106.053 190.393 114.422 199.941 114.422 210.643Z" fill="url(#paint6_linear_11669_60797)"/>
<path d="M117.313 209.721C117.313 220.424 108.944 228.843 98.2476 228.515C87.116 228.173 77.7539 218.559 77.7539 207.054C77.7539 195.55 87.116 187.198 98.2476 188.357C108.944 189.471 117.313 199.019 117.313 209.721Z" fill="url(#paint7_linear_11669_60797)"/>
<path d="M116.473 209.664C116.473 219.895 108.466 227.93 98.2475 227.599C87.6328 227.255 78.7207 218.08 78.7207 207.119C78.7207 196.157 87.6328 188.184 98.2475 189.271C108.466 190.318 116.473 199.433 116.473 209.664Z" fill="url(#paint8_linear_11669_60797)"/>
<path d="M115.873 209.624C115.873 219.518 108.124 227.279 98.2483 226.947C88.0023 226.603 79.4102 217.741 79.4102 207.166C79.4102 196.591 88.0023 188.888 98.2483 189.926C108.124 190.926 115.873 199.731 115.873 209.624Z" fill="url(#paint9_linear_11669_60797)"/>
<path d="M98.1461 193.289C98.6717 193.339 99.097 193.813 99.097 194.346V196.168C100.148 196.285 101.2 196.468 102.254 196.716C103.031 196.898 103.803 197.116 104.569 197.368C105.029 197.519 105.342 197.982 105.295 198.461L105.071 200.745C105.012 201.351 104.413 201.707 103.849 201.455C103.344 201.23 102.826 201.037 102.296 200.877C101.37 200.597 100.393 200.414 99.3657 200.329L99.097 200.307V205.524C101.839 206.291 103.852 207.323 105.153 208.621C106.448 209.912 107.093 211.522 107.093 213.455C107.093 215.545 106.38 217.218 104.948 218.48C103.508 219.749 101.489 220.463 98.8785 220.617V222.628C98.8785 223.162 98.4528 223.578 97.9268 223.557L97.9098 223.556C97.3828 223.535 96.9548 223.084 96.9548 222.548V220.565L96.5311 220.545C95.3073 220.49 94.1351 220.365 93.0152 220.171C92.1857 220.026 91.3757 219.84 90.5854 219.612C90.1074 219.474 89.7793 219.018 89.8231 218.529L90.0863 215.593C90.1432 214.958 90.7808 214.589 91.3844 214.827C92.088 215.104 92.8003 215.338 93.5214 215.528C94.6451 215.825 95.784 216.015 96.9379 216.099L96.9548 210.296C94.3232 209.645 92.353 208.68 91.0585 207.403C89.758 206.119 89.1055 204.477 89.1055 202.48C89.1055 200.413 89.8131 198.817 91.2229 197.698C92.6255 196.584 94.6194 196.029 97.1918 196.031V194.168C97.1918 193.633 97.6195 193.239 98.1461 193.289ZM97.1918 200.253C96.3785 200.312 95.7443 200.536 95.2903 200.924C94.8356 201.312 94.608 201.834 94.608 202.489C94.608 203.11 94.8186 203.629 95.2392 204.046C95.6592 204.462 96.3105 204.794 97.1918 205.042V200.253ZM98.8785 210.761V216.083C99.7626 216.084 100.441 215.873 100.914 215.45C101.386 215.027 101.622 214.431 101.622 213.659C101.622 212.955 101.403 212.371 100.964 211.907C100.524 211.442 99.8296 211.06 98.8785 210.761Z" fill="url(#paint10_linear_11669_60797)"/>
<g style="mix-blend-mode:multiply" opacity="0.3">
<path style="mix-blend-mode:multiply" opacity="0.3" d="M95.059 212.048C95.6545 206.167 101.06 203.677 100.354 198.268C99.9195 194.934 97.3922 192.124 94.5732 189.93C86.0224 190.826 79.4102 197.907 79.4102 207.167C79.4102 217.743 88.0023 226.604 98.2483 226.948C99.2432 226.981 100.215 226.93 101.16 226.806C97.0904 222.757 94.5475 217.101 95.059 212.048Z" fill="url(#paint11_linear_11669_60797)"/>
</g>
<path d="M299.11 192.987C299.11 203.69 290.741 212.109 280.044 211.78C268.913 211.438 259.551 201.825 259.551 190.32C259.551 178.815 268.913 170.464 280.044 171.623C290.741 172.737 299.11 182.284 299.11 192.987Z" fill="url(#paint12_linear_11669_60797)"/>
<path d="M302 192.065C302 202.768 293.631 211.187 282.935 210.858C271.803 210.517 262.441 200.903 262.441 189.398C262.441 177.894 271.803 169.542 282.935 170.701C293.631 171.815 302 181.363 302 192.065Z" fill="url(#paint13_linear_11669_60797)"/>
<path d="M301.16 192.008C301.16 202.239 293.153 210.274 282.935 209.943C272.32 209.599 263.408 200.424 263.408 189.462C263.408 178.501 272.32 170.527 282.935 171.615C293.153 172.662 301.16 181.776 301.16 192.008Z" fill="url(#paint14_linear_11669_60797)"/>
<path d="M300.558 191.968C300.558 201.862 292.81 209.622 282.934 209.291C272.688 208.947 264.096 200.085 264.096 189.51C264.096 178.935 272.688 171.232 282.934 172.269C292.81 173.269 300.558 182.074 300.558 191.968Z" fill="url(#paint15_linear_11669_60797)"/>
<path d="M282.834 175.633C283.359 175.683 283.784 176.156 283.784 176.69V178.512C284.835 178.629 285.888 178.812 286.942 179.059C287.719 179.242 288.49 179.459 289.257 179.711C289.716 179.862 290.029 180.326 289.983 180.804L289.759 183.089C289.699 183.695 289.1 184.051 288.536 183.799C288.031 183.574 287.514 183.381 286.983 183.22C286.057 182.94 285.081 182.758 284.053 182.673L283.784 182.651V187.868C286.526 188.635 288.539 189.667 289.841 190.964C291.136 192.256 291.781 193.866 291.781 195.799C291.781 197.888 291.067 199.562 289.635 200.824C288.195 202.093 286.177 202.806 283.566 202.961V204.971C283.566 205.505 283.14 205.921 282.614 205.9L282.597 205.9C282.07 205.879 281.642 205.427 281.642 204.892V202.908L281.219 202.889C279.995 202.834 278.823 202.709 277.703 202.514C276.873 202.37 276.063 202.184 275.273 201.956C274.795 201.817 274.467 201.362 274.511 200.873L274.774 197.937C274.831 197.302 275.468 196.932 276.072 197.171C276.776 197.448 277.488 197.682 278.209 197.872C279.333 198.168 280.471 198.358 281.625 198.443L281.642 192.64C279.011 191.989 277.04 191.024 275.746 189.747C274.446 188.463 273.793 186.82 273.793 184.823C273.793 182.756 274.501 181.161 275.91 180.041C277.313 178.927 279.307 178.373 281.879 178.375V176.512C281.879 175.977 282.307 175.583 282.834 175.633ZM281.879 182.597C281.066 182.656 280.432 182.879 279.978 183.267C279.523 183.656 279.296 184.178 279.296 184.833C279.296 185.454 279.506 185.973 279.927 186.389C280.347 186.805 280.998 187.137 281.879 187.386V182.597ZM283.566 193.105V198.426C284.45 198.428 285.128 198.217 285.601 197.794C286.074 197.371 286.31 196.774 286.31 196.002C286.31 195.299 286.09 194.715 285.651 194.251C285.212 193.786 284.517 193.404 283.566 193.105Z" fill="url(#paint16_linear_11669_60797)"/>
<g style="mix-blend-mode:multiply" opacity="0.3">
<path style="mix-blend-mode:multiply" opacity="0.3" d="M279.745 194.392C280.34 188.511 285.745 186.021 285.04 180.612C284.605 177.277 282.078 174.467 279.259 172.273C270.708 173.17 264.096 180.25 264.096 189.511C264.096 200.086 272.688 208.948 282.934 209.292C283.929 209.325 284.9 209.273 285.845 209.15C281.776 205.1 279.233 199.445 279.745 194.392Z" fill="url(#paint17_linear_11669_60797)"/>
</g>
<path d="M226.719 116.358C226.719 127.061 218.35 135.48 207.654 135.151C196.522 134.81 187.16 125.196 187.16 113.691C187.16 102.186 196.522 93.8351 207.654 94.9942C218.35 96.1079 226.719 105.655 226.719 116.358Z" fill="url(#paint18_linear_11669_60797)"/>
<path d="M229.61 115.436C229.61 126.139 221.241 134.558 210.544 134.23C199.413 133.888 190.051 124.274 190.051 112.769C190.051 101.265 199.413 92.9132 210.544 94.0723C221.241 95.1861 229.61 104.734 229.61 115.436Z" fill="url(#paint19_linear_11669_60797)"/>
<path d="M228.77 115.379C228.77 125.61 220.762 133.645 210.544 133.314C199.93 132.97 191.018 123.795 191.018 112.834C191.018 101.872 199.93 93.8985 210.544 94.986C220.762 96.0328 228.77 105.147 228.77 115.379Z" fill="url(#paint20_linear_11669_60797)"/>
<path d="M228.167 115.339C228.167 125.233 220.419 132.993 210.543 132.662C200.297 132.318 191.705 123.456 191.705 112.881C191.705 102.306 200.297 94.603 210.543 95.6405C220.419 96.6406 228.167 105.446 228.167 115.339Z" fill="url(#paint21_linear_11669_60797)"/>
<path d="M210.443 99.0043C210.969 99.0543 211.394 99.5274 211.394 100.061V101.883C212.445 102 213.497 102.183 214.551 102.43C215.328 102.613 216.1 102.83 216.866 103.082C217.326 103.233 217.639 103.697 217.592 104.176L217.368 106.46C217.309 107.066 216.71 107.422 216.146 107.17C215.641 106.945 215.123 106.752 214.592 106.592C213.667 106.311 212.69 106.129 211.663 106.044L211.394 106.022V111.239C214.135 112.006 216.149 113.038 217.45 114.336C218.745 115.627 219.39 117.237 219.39 119.17C219.39 121.26 218.677 122.933 217.244 124.195C215.805 125.464 213.786 126.178 211.175 126.332V128.343C211.175 128.876 210.75 129.292 210.224 129.272L210.207 129.271C209.68 129.25 209.252 128.799 209.252 128.263V126.279L208.828 126.26C207.604 126.205 206.432 126.08 205.312 125.885C204.483 125.741 203.673 125.555 202.882 125.327C202.404 125.189 202.076 124.733 202.12 124.244L202.383 121.308C202.44 120.673 203.078 120.304 203.681 120.542C204.385 120.819 205.097 121.053 205.818 121.243C206.942 121.539 208.081 121.73 209.235 121.814L209.252 116.011C206.62 115.36 204.65 114.395 203.355 113.118C202.055 111.834 201.402 110.192 201.402 108.194C201.402 106.128 202.11 104.532 203.52 103.412C204.922 102.298 206.916 101.744 209.489 101.746V99.8833C209.489 99.3477 209.916 98.9543 210.443 99.0043ZM209.489 105.968C208.675 106.027 208.041 106.251 207.587 106.638C207.133 107.027 206.905 107.549 206.905 108.204C206.905 108.825 207.115 109.344 207.536 109.761C207.956 110.176 208.607 110.509 209.489 110.757V105.968ZM211.175 116.476V121.798C212.059 121.799 212.737 121.588 213.211 121.165C213.683 120.742 213.919 120.145 213.919 119.374C213.919 118.67 213.7 118.086 213.261 117.622C212.821 117.157 212.126 116.775 211.175 116.476Z" fill="url(#paint22_linear_11669_60797)"/>
<g style="mix-blend-mode:multiply" opacity="0.3">
<path style="mix-blend-mode:multiply" opacity="0.3" d="M207.354 117.763C207.949 111.882 213.354 109.392 212.649 103.983C212.214 100.648 209.687 97.8385 206.868 95.6445C198.317 96.5413 191.705 103.622 191.705 112.882C191.705 123.457 200.297 132.319 210.543 132.663C211.538 132.696 212.51 132.645 213.454 132.521C209.385 128.472 206.842 122.816 207.354 117.763Z" fill="url(#paint23_linear_11669_60797)"/>
</g>
<defs>
<linearGradient id="paint0_linear_11669_60797" x1="169.744" y1="186.39" x2="146.674" y2="193.794" gradientUnits="userSpaceOnUse">
<stop stop-color="#FCB148"/>
<stop offset="0.06" stop-color="#FDBA46"/>
<stop offset="0.32" stop-color="#FFC444"/>
<stop offset="0.64" stop-color="#FBAB49"/>
<stop offset="0.87" stop-color="#F8924F"/>
<stop offset="0.93" stop-color="#F8924F"/>
<stop offset="1" stop-color="#F8924F"/>
</linearGradient>
<linearGradient id="paint1_linear_11669_60797" x1="188.396" y1="163.392" x2="167.8" y2="208.83" gradientUnits="userSpaceOnUse">
<stop stop-color="#FFDB44"/>
<stop offset="0.5" stop-color="#FEE525"/>
<stop offset="1" stop-color="#FEEF06"/>
</linearGradient>
<linearGradient id="paint2_linear_11669_60797" x1="184.615" y1="211.343" x2="180.641" y2="189.633" gradientUnits="userSpaceOnUse">
<stop stop-color="#FCB148"/>
<stop offset="0.06" stop-color="#FDBA46"/>
<stop offset="0.32" stop-color="#FFC444"/>
<stop offset="0.64" stop-color="#FBAB49"/>
<stop offset="0.87" stop-color="#F8924F"/>
<stop offset="0.93" stop-color="#F8924F"/>
<stop offset="1" stop-color="#F8924F"/>
</linearGradient>
<linearGradient id="paint3_linear_11669_60797" x1="176.233" y1="176.246" x2="192.611" y2="211.012" gradientUnits="userSpaceOnUse">
<stop stop-color="#FCB148"/>
<stop offset="0.06" stop-color="#FDBA46"/>
<stop offset="0.32" stop-color="#FFC444"/>
<stop offset="0.64" stop-color="#FBAB49"/>
<stop offset="0.87" stop-color="#F8924F"/>
<stop offset="0.93" stop-color="#F8924F"/>
<stop offset="1" stop-color="#F8924F"/>
</linearGradient>
<linearGradient id="paint4_linear_11669_60797" x1="175.541" y1="168.746" x2="183.776" y2="199.61" gradientUnits="userSpaceOnUse">
<stop stop-color="#FFDB44"/>
<stop offset="0.5" stop-color="#FEE525"/>
<stop offset="1" stop-color="#FEEF06"/>
</linearGradient>
<linearGradient id="paint5_linear_11669_60797" x1="171.381" y1="178.516" x2="187.726" y2="213.212" gradientUnits="userSpaceOnUse">
<stop stop-color="#FCB148"/>
<stop offset="0.06" stop-color="#FDBA46"/>
<stop offset="0.32" stop-color="#FFC444"/>
<stop offset="0.64" stop-color="#FBAB49"/>
<stop offset="0.87" stop-color="#F8924F"/>
<stop offset="0.93" stop-color="#F8924F"/>
<stop offset="1" stop-color="#FBAB49"/>
</linearGradient>
<linearGradient id="paint6_linear_11669_60797" x1="87.8182" y1="211.48" x2="64.7479" y2="218.884" gradientUnits="userSpaceOnUse">
<stop stop-color="#FCB148"/>
<stop offset="0.06" stop-color="#FDBA46"/>
<stop offset="0.32" stop-color="#FFC444"/>
<stop offset="0.64" stop-color="#FBAB49"/>
<stop offset="0.87" stop-color="#F8924F"/>
<stop offset="0.93" stop-color="#F8924F"/>
<stop offset="1" stop-color="#F8924F"/>
</linearGradient>
<linearGradient id="paint7_linear_11669_60797" x1="106.47" y1="188.482" x2="85.8742" y2="233.92" gradientUnits="userSpaceOnUse">
<stop stop-color="#FFDB44"/>
<stop offset="0.5" stop-color="#FEE525"/>
<stop offset="1" stop-color="#FEEF06"/>
</linearGradient>
<linearGradient id="paint8_linear_11669_60797" x1="102.689" y1="236.433" x2="98.7151" y2="214.723" gradientUnits="userSpaceOnUse">
<stop stop-color="#FCB148"/>
<stop offset="0.06" stop-color="#FDBA46"/>
<stop offset="0.32" stop-color="#FFC444"/>
<stop offset="0.64" stop-color="#FBAB49"/>
<stop offset="0.87" stop-color="#F8924F"/>
<stop offset="0.93" stop-color="#F8924F"/>
<stop offset="1" stop-color="#F8924F"/>
</linearGradient>
<linearGradient id="paint9_linear_11669_60797" x1="94.3094" y1="201.336" x2="110.687" y2="236.102" gradientUnits="userSpaceOnUse">
<stop stop-color="#FCB148"/>
<stop offset="0.06" stop-color="#FDBA46"/>
<stop offset="0.32" stop-color="#FFC444"/>
<stop offset="0.64" stop-color="#FBAB49"/>
<stop offset="0.87" stop-color="#F8924F"/>
<stop offset="0.93" stop-color="#F8924F"/>
<stop offset="1" stop-color="#F8924F"/>
</linearGradient>
<linearGradient id="paint10_linear_11669_60797" x1="93.6151" y1="193.836" x2="101.85" y2="224.7" gradientUnits="userSpaceOnUse">
<stop stop-color="#FFDB44"/>
<stop offset="0.5" stop-color="#FEE525"/>
<stop offset="1" stop-color="#FEEF06"/>
</linearGradient>
<linearGradient id="paint11_linear_11669_60797" x1="89.4575" y1="203.606" x2="105.802" y2="238.302" gradientUnits="userSpaceOnUse">
<stop stop-color="#FCB148"/>
<stop offset="0.06" stop-color="#FDBA46"/>
<stop offset="0.32" stop-color="#FFC444"/>
<stop offset="0.64" stop-color="#FBAB49"/>
<stop offset="0.87" stop-color="#F8924F"/>
<stop offset="0.93" stop-color="#F8924F"/>
<stop offset="1" stop-color="#FBAB49"/>
</linearGradient>
<linearGradient id="paint12_linear_11669_60797" x1="272.506" y1="193.824" x2="249.435" y2="201.228" gradientUnits="userSpaceOnUse">
<stop stop-color="#FCB148"/>
<stop offset="0.06" stop-color="#FDBA46"/>
<stop offset="0.32" stop-color="#FFC444"/>
<stop offset="0.64" stop-color="#FBAB49"/>
<stop offset="0.87" stop-color="#F8924F"/>
<stop offset="0.93" stop-color="#F8924F"/>
<stop offset="1" stop-color="#F8924F"/>
</linearGradient>
<linearGradient id="paint13_linear_11669_60797" x1="291.157" y1="170.825" x2="270.562" y2="216.263" gradientUnits="userSpaceOnUse">
<stop stop-color="#FFDB44"/>
<stop offset="0.5" stop-color="#FEE525"/>
<stop offset="1" stop-color="#FEEF06"/>
</linearGradient>
<linearGradient id="paint14_linear_11669_60797" x1="287.377" y1="218.776" x2="283.403" y2="197.067" gradientUnits="userSpaceOnUse">
<stop stop-color="#FCB148"/>
<stop offset="0.06" stop-color="#FDBA46"/>
<stop offset="0.32" stop-color="#FFC444"/>
<stop offset="0.64" stop-color="#FBAB49"/>
<stop offset="0.87" stop-color="#F8924F"/>
<stop offset="0.93" stop-color="#F8924F"/>
<stop offset="1" stop-color="#F8924F"/>
</linearGradient>
<linearGradient id="paint15_linear_11669_60797" x1="278.995" y1="183.68" x2="295.372" y2="218.446" gradientUnits="userSpaceOnUse">
<stop stop-color="#FCB148"/>
<stop offset="0.06" stop-color="#FDBA46"/>
<stop offset="0.32" stop-color="#FFC444"/>
<stop offset="0.64" stop-color="#FBAB49"/>
<stop offset="0.87" stop-color="#F8924F"/>
<stop offset="0.93" stop-color="#F8924F"/>
<stop offset="1" stop-color="#F8924F"/>
</linearGradient>
<linearGradient id="paint16_linear_11669_60797" x1="278.303" y1="176.18" x2="286.538" y2="207.043" gradientUnits="userSpaceOnUse">
<stop stop-color="#FFDB44"/>
<stop offset="0.5" stop-color="#FEE525"/>
<stop offset="1" stop-color="#FEEF06"/>
</linearGradient>
<linearGradient id="paint17_linear_11669_60797" x1="274.143" y1="185.949" x2="290.487" y2="220.645" gradientUnits="userSpaceOnUse">
<stop stop-color="#FCB148"/>
<stop offset="0.06" stop-color="#FDBA46"/>
<stop offset="0.32" stop-color="#FFC444"/>
<stop offset="0.64" stop-color="#FBAB49"/>
<stop offset="0.87" stop-color="#F8924F"/>
<stop offset="0.93" stop-color="#F8924F"/>
<stop offset="1" stop-color="#FBAB49"/>
</linearGradient>
<linearGradient id="paint18_linear_11669_60797" x1="200.115" y1="117.195" x2="177.045" y2="124.599" gradientUnits="userSpaceOnUse">
<stop stop-color="#FCB148"/>
<stop offset="0.06" stop-color="#FDBA46"/>
<stop offset="0.32" stop-color="#FFC444"/>
<stop offset="0.64" stop-color="#FBAB49"/>
<stop offset="0.87" stop-color="#F8924F"/>
<stop offset="0.93" stop-color="#F8924F"/>
<stop offset="1" stop-color="#F8924F"/>
</linearGradient>
<linearGradient id="paint19_linear_11669_60797" x1="218.767" y1="94.1965" x2="198.171" y2="139.635" gradientUnits="userSpaceOnUse">
<stop stop-color="#FFDB44"/>
<stop offset="0.5" stop-color="#FEE525"/>
<stop offset="1" stop-color="#FEEF06"/>
</linearGradient>
<linearGradient id="paint20_linear_11669_60797" x1="214.986" y1="142.147" x2="211.012" y2="120.438" gradientUnits="userSpaceOnUse">
<stop stop-color="#FCB148"/>
<stop offset="0.06" stop-color="#FDBA46"/>
<stop offset="0.32" stop-color="#FFC444"/>
<stop offset="0.64" stop-color="#FBAB49"/>
<stop offset="0.87" stop-color="#F8924F"/>
<stop offset="0.93" stop-color="#F8924F"/>
<stop offset="1" stop-color="#F8924F"/>
</linearGradient>
<linearGradient id="paint21_linear_11669_60797" x1="206.604" y1="107.051" x2="222.982" y2="141.817" gradientUnits="userSpaceOnUse">
<stop stop-color="#FCB148"/>
<stop offset="0.06" stop-color="#FDBA46"/>
<stop offset="0.32" stop-color="#FFC444"/>
<stop offset="0.64" stop-color="#FBAB49"/>
<stop offset="0.87" stop-color="#F8924F"/>
<stop offset="0.93" stop-color="#F8924F"/>
<stop offset="1" stop-color="#F8924F"/>
</linearGradient>
<linearGradient id="paint22_linear_11669_60797" x1="205.912" y1="99.5507" x2="214.147" y2="130.414" gradientUnits="userSpaceOnUse">
<stop stop-color="#FFDB44"/>
<stop offset="0.5" stop-color="#FEE525"/>
<stop offset="1" stop-color="#FEEF06"/>
</linearGradient>
<linearGradient id="paint23_linear_11669_60797" x1="201.752" y1="109.321" x2="218.097" y2="144.016" gradientUnits="userSpaceOnUse">
<stop stop-color="#FCB148"/>
<stop offset="0.06" stop-color="#FDBA46"/>
<stop offset="0.32" stop-color="#FFC444"/>
<stop offset="0.64" stop-color="#FBAB49"/>
<stop offset="0.87" stop-color="#F8924F"/>
<stop offset="0.93" stop-color="#F8924F"/>
<stop offset="1" stop-color="#FBAB49"/>
</linearGradient>
</defs>
</svg>
