<svg width="362" height="387" viewBox="0 0 362 387" fill="none" xmlns="http://www.w3.org/2000/svg">
<path d="M253.268 319.857C245.573 327.866 238.293 333.031 232.541 337.111C164.929 385.078 84.9251 371.096 67.922 367.681C42.8139 362.639 -5.71974 352.893 -40.8085 312.094C-93.8949 250.368 -85.6286 153.121 -44.4511 88.9273C-36.9191 77.1851 2.86706 12.0133 83.7324 1.56174C132.671 -4.76336 189.718 7.99365 231.03 42.215C317.747 114.049 311.574 259.165 253.268 319.857Z" fill="#F1F5FF"/>
<path d="M287.363 361.65L287.463 364.14V364.153V386.525L318.582 387L319.182 384.623L319.77 386.525H332L353.453 384.623L353.428 368.194L353.453 366.893L348.811 359.786L348.574 359.423L347.41 357.621L287.363 361.65Z" fill="#24500F"/>
<path d="M309.935 247.611C309.935 247.611 305.906 262.126 305.093 262.126C304.292 262.126 312.75 273.399 312.75 273.399L325.25 280.243L329.667 261.725C329.667 261.725 325.65 251.653 326.439 246.41L309.935 247.611Z" fill="#FAA8B0"/>
<path d="M316.379 223.453C324.612 223.453 331.281 230.122 331.281 238.343C331.281 246.588 324.612 253.257 316.379 253.257C308.146 253.257 301.477 246.588 301.477 238.343C301.477 230.122 308.146 223.453 316.379 223.453Z" fill="#FAA8B0"/>
<path d="M318.381 269.384L306.482 259.036L299.437 262.54L284.135 272.212C284.135 272.212 288.164 359.235 286.149 362.451C286.149 362.451 290.591 372.536 316.779 366.492C342.968 360.436 349.824 359.636 349.824 359.636L344.181 306.458L351.026 273.013L328.028 256.922L320.808 269.384H318.381Z" fill="#170C42"/>
<path d="M274.063 303.23C274.063 303.23 268.019 322.174 272.449 324.189C276.891 326.203 280.507 325.39 280.507 325.39L287.363 308.874L274.063 303.23Z" fill="#FAA8B0"/>
<path d="M357.869 299.988L361.51 316.917V351.176C361.51 351.176 356.28 372.935 352.251 367.292C348.222 361.649 348.285 359.86 348.285 359.86L353.44 351.977L351.038 319.733L344.594 304.38L357.869 299.988Z" fill="#FAA8B0"/>
<path d="M330.468 223.439C330.468 223.439 325.638 212.978 316.367 215.393C307.108 217.808 301.877 221.424 301.477 225.053C301.064 228.669 301.665 234.137 301.665 234.137C301.665 234.137 302.678 226.679 309.135 228.281C315.578 229.895 325.638 228.669 325.638 228.669L327.252 243.196C327.252 243.196 329.079 240.58 331.094 242.195C333.108 243.796 336.924 226.667 330.468 223.439Z" fill="#1C1528"/>
<path d="M344.707 303.316L346.158 310.899L360.448 307.108L357.82 300.113L344.707 303.316Z" fill="#291E3B"/>
<path d="M273.801 303.094L271.523 310.464L285.913 313.829L286.889 306.435L273.801 303.094Z" fill="#291E3B"/>
<path d="M341.767 272.199L351.026 273C351.026 273 361.499 301.616 360.285 302.416C359.084 303.217 344.582 308.06 342.555 306.858C340.553 305.645 341.767 272.199 341.767 272.199Z" fill="#170C42"/>
<path d="M287.363 273.013L284.147 272.199C284.147 272.199 278.104 279.857 276.09 288.728C274.075 297.587 271.26 306.445 272.874 306.445C274.488 306.445 288.977 312.089 288.977 312.089L287.363 273.013Z" fill="#170C42"/>
<path d="M319.945 269.234C321.546 269.234 322.835 270.536 322.835 272.15C322.835 273.751 321.546 275.065 319.945 275.065C318.331 275.065 317.029 273.751 317.029 272.15C317.029 270.536 318.331 269.234 319.945 269.234Z" fill="black"/>
<path d="M342.429 323.662L311.311 333.484L298.611 293.169C310.598 291.505 320.971 288.227 329.729 283.359C331.356 297.11 335.498 310.549 342.429 323.662Z" fill="#E8E7E2"/>
<path d="M339.527 328.053L308.396 337.863L295.684 297.548C307.683 295.871 318.056 292.606 326.814 287.738C328.441 301.489 332.582 314.94 339.527 328.053Z" fill="#FEFEFE"/>
<path d="M276.089 312.487C276.089 312.487 271.247 321.359 272.461 324.186C273.675 326.989 283.734 328.603 284.948 328.603C286.162 328.603 300.664 325.388 300.664 325.388C300.664 325.388 322.823 314.902 316.379 309.672C309.935 304.43 297.836 316.917 297.836 316.917H288.176L282.934 313.288L276.089 312.487Z" fill="#FAA8B0"/>
<path d="M229.094 274.465H238.278V282.573H229.094V274.465Z" fill="#291E3B"/>
<path d="M210.725 274.465H219.909V282.573H210.725V274.465Z" fill="#291E3B"/>
<path d="M247.461 256.648H256.645V265.832H247.461V256.648Z" fill="#5153F1"/>
<path d="M238.289 265.816H247.473V274.475H238.289V265.816Z" fill="#291E3B"/>
<path d="M219.91 265.816H229.094V274.475H219.91V265.816Z" fill="#291E3B"/>
<path d="M111.09 282.023H120.274V290.131H111.09V282.023Z" fill="#5153F1"/>
<path d="M193.709 273.375H202.893V282.009H193.709V273.375Z" fill="#291E3B"/>
<path d="M138.629 273.375H147.813V282.009H138.629V273.375Z" fill="#291E3B"/>
<path d="M129.445 264.203H138.629V273.387H129.445V264.203Z" fill="#291E3B"/>
<path d="M175.354 273.375H184.538V282.009H175.354V273.375Z" fill="#291E3B"/>
<path d="M166.168 264.203H175.352V273.387H166.168V264.203Z" fill="#291E3B"/>
<path d="M156.984 273.375H166.168V282.009H156.984V273.375Z" fill="#291E3B"/>
<path d="M120.262 273.375H129.446V282.009H120.262V273.375Z" fill="#291E3B"/>
<path d="M184.537 264.203H193.721V273.387H184.537V264.203Z" fill="#5153F1"/>
<path d="M226.052 250.029L221.285 244.912L226.415 240.145L231.17 245.25L226.052 250.029ZM222.048 244.937L226.09 249.266L230.419 245.225L226.378 240.895L222.048 244.937Z" fill="#291E3B"/>
<path d="M161.476 228.982H154.494V222H161.476V228.982ZM155.032 228.444H160.938V222.538H155.032V228.444Z" fill="#291E3B"/>
<path d="M291.392 215.47H284.41V208.488H291.392V215.47ZM284.948 214.957H290.854V209.026H284.948V214.957Z" fill="#291E3B"/>
<path d="M262.426 256.461H287.851V257.037H262.426V256.461Z" fill="#291E3B"/>
<path d="M262.426 260.512H287.851V261.087H262.426V260.512Z" fill="#291E3B"/>
<path d="M262.426 264.566H287.851V265.142H262.426V264.566Z" fill="#291E3B"/>
<path d="M102.818 296.973H128.243V297.548H102.818V296.973Z" fill="#291E3B"/>
<path d="M102.818 301.016H128.243V301.591H102.818V301.016Z" fill="#291E3B"/>
<path d="M102.818 305.082H128.243V305.658H102.818V305.082Z" fill="#291E3B"/>
<path d="M83.7617 194.881C88.1535 185.034 94.7726 178.552 103.431 175.625C109.862 173.447 117.295 173.247 125.54 175.011C131.621 176.325 137.452 178.59 142.807 181.718C171.398 198.309 189.078 198.46 198.875 195.657C209.611 192.591 213.552 185.397 213.577 185.322L214.065 185.572C214.027 185.647 209.999 193.042 199.038 196.182C192.719 197.984 185.349 198.059 177.104 196.407C166.856 194.33 155.22 189.551 142.545 182.181C137.214 179.09 131.446 176.851 125.428 175.537C111.914 172.634 93.8091 173.673 84.2622 195.106L83.7617 194.881Z" fill="#1C1528"/>
<path d="M202.742 170.219H228.167V170.794H202.742V170.219Z" fill="#291E3B"/>
<path d="M202.742 174.285H228.167V174.861H202.742V174.285Z" fill="#291E3B"/>
<path d="M202.742 178.328H228.167V178.904H202.742V178.328Z" fill="#291E3B"/>
<path d="M115.25 286.865L114.838 286.488C116.739 284.448 118.178 282.078 119.079 279.495C120.481 275.51 121.169 269.225 116.452 261.867C111.634 254.344 111.409 248.236 112.085 244.427C112.811 240.3 114.662 237.977 114.737 237.883L115.2 238.213C115.175 238.237 113.349 240.536 112.648 244.557C111.997 248.259 112.235 254.214 116.952 261.584C121.769 269.13 121.069 275.592 119.617 279.696C118.041 284.141 115.363 286.747 115.25 286.865Z" fill="#291E3B"/>
<path d="M188.171 268.56L187.77 268.183C189.66 266.143 191.099 263.773 192 261.191C193.401 257.217 194.089 250.92 189.384 243.562C184.555 236.039 184.342 229.931 185.005 226.122C185.743 221.995 187.583 219.672 187.658 219.578L188.121 219.908C188.108 219.932 186.269 222.243 185.568 226.252C184.93 229.955 185.155 235.909 189.872 243.279C194.702 250.826 193.989 257.288 192.538 261.391C190.974 265.836 188.296 268.442 188.171 268.56Z" fill="#291E3B"/>
<path d="M251.64 261.51L251.214 261.132C253.116 259.104 254.568 256.722 255.469 254.152C256.87 250.166 257.558 243.869 252.853 236.511C248.024 229 247.786 222.88 248.462 219.083C249.187 214.945 251.052 212.622 251.127 212.527L251.59 212.869C251.565 212.881 249.725 215.192 249.025 219.201C248.387 222.916 248.624 228.87 253.341 236.228C258.171 243.775 257.458 250.249 256.007 254.352C254.443 258.786 251.765 261.403 251.64 261.51Z" fill="#291E3B"/>
<path d="M115.682 219.289C121.05 219.289 125.391 223.643 125.391 229.011C125.391 234.379 121.05 238.733 115.682 238.733C110.302 238.733 105.947 234.379 105.947 229.011C105.947 223.643 110.302 219.289 115.682 219.289Z" fill="#B7E143"/>
<path d="M189.116 202.273C194.496 202.273 198.85 206.628 198.85 211.996C198.85 217.363 194.496 221.718 189.116 221.718C183.748 221.718 179.406 217.363 179.406 211.996C179.406 206.628 183.748 202.273 189.116 202.273Z" fill="#B7E143"/>
<path d="M252.592 193.629C257.973 193.629 262.327 197.983 262.327 203.351C262.327 208.719 257.973 213.073 252.592 213.073C247.225 213.073 242.883 208.719 242.883 203.351C242.883 197.983 247.225 193.629 252.592 193.629Z" fill="#B7E143"/>
<path d="M46.8145 201.41H99.4913V224.958H46.8145V201.41Z" fill="#C0D2FB"/>
<path d="M60.416 208.844H85.8411V209.419H60.416V208.844Z" fill="#291E3B"/>
<path d="M60.416 212.895H85.8411V213.47H60.416V212.895Z" fill="#291E3B"/>
<path d="M60.416 216.949H85.8411V217.525H60.416V216.949Z" fill="#291E3B"/>
<path d="M122.689 181.152H175.366V204.701H122.689V181.152Z" fill="#C0D2FB"/>
<path d="M136.303 188.586H161.728V189.162H136.303V188.586Z" fill="#291E3B"/>
<path d="M136.303 192.641H161.728V193.216H136.303V192.641Z" fill="#291E3B"/>
<path d="M135.502 195.879H160.927V196.454H135.502V195.879Z" fill="#291E3B"/>
<path d="M182.635 204.964H122.426V174.184H182.635V204.964ZM122.964 204.426H182.122V174.722H122.964V204.426Z" fill="#291E3B"/>
<path d="M258.523 171.969H311.2V195.517H258.523V171.969Z" fill="#C0D2FB"/>
<path d="M272.148 179.402H297.573V179.978H272.148V179.402Z" fill="#291E3B"/>
<path d="M272.148 183.457H297.573V184.033H272.148V183.457Z" fill="#291E3B"/>
<path d="M272.148 187.508H297.573V188.083H272.148V187.508Z" fill="#291E3B"/>
<path d="M318.494 195.78H258.285V165H318.494V195.78ZM258.798 195.242H317.956V165.538H258.798V195.242Z" fill="#291E3B"/>
</svg>
