<svg width="339" height="356" viewBox="0 0 339 356" fill="none" xmlns="http://www.w3.org/2000/svg">
<path d="M376.51 305.608C369.159 313.26 362.203 318.195 356.707 322.094C292.107 367.923 215.667 354.564 199.421 351.302C175.432 346.484 129.06 337.172 95.5347 298.191C44.8131 239.215 52.7112 146.3 92.0543 84.9658C99.2508 73.7467 137.265 11.4781 214.528 1.49217C261.286 -4.55116 315.792 7.63755 355.263 40.3344C438.118 108.968 432.219 247.62 376.51 305.608Z" fill="#F5FCF2"/>
<path d="M10.5566 152.502C10.1075 152.696 9.57342 152.527 9.32633 152.096C8.78555 151.154 8.27844 150.175 7.81864 149.186C7.59491 148.704 7.80798 148.135 8.29464 147.914C8.30048 147.911 8.30623 147.909 8.31199 147.906C8.79485 147.698 9.35982 147.909 9.58087 148.385C10.0176 149.324 10.4995 150.255 11.013 151.149C11.2773 151.61 11.1141 152.195 10.6481 152.457C10.6182 152.474 10.5876 152.489 10.5566 152.502ZM7.23299 144.822C7.19823 144.837 7.16209 144.85 7.12488 144.862C6.61233 145.015 6.07075 144.729 5.91558 144.222C5.59688 143.181 5.32002 142.116 5.09287 141.057C4.9817 140.539 5.31472 140.032 5.8402 139.92C6.36413 139.81 6.87892 140.141 6.98996 140.659C7.20599 141.665 7.46899 142.677 7.77209 143.666C7.91603 144.136 7.67716 144.63 7.23299 144.822ZM5.70204 136.61C5.6032 136.653 5.49517 136.68 5.38128 136.688C4.84705 136.724 4.38372 136.326 4.34645 135.798C4.26999 134.715 4.24042 133.615 4.25853 132.529C4.2677 132 4.70909 131.578 5.24406 131.586C5.77951 131.595 6.20655 132.031 6.19778 132.561C6.18063 133.592 6.20871 134.636 6.28121 135.664C6.31056 136.08 6.0673 136.452 5.70204 136.61ZM6.06702 128.264C5.90347 128.334 5.71831 128.361 5.52904 128.332C5 128.25 4.63854 127.759 4.72171 127.236C4.89253 126.163 5.11226 125.084 5.37481 124.03C5.50314 123.516 6.02827 123.202 6.54833 123.328C7.06827 123.455 7.386 123.974 7.25807 124.489C7.00862 125.49 6.79979 126.514 6.63781 127.534C6.5842 127.87 6.36048 128.137 6.06702 128.264ZM8.30504 120.208C8.07575 120.307 7.8081 120.319 7.55747 120.22C7.0599 120.023 6.81765 119.465 7.01629 118.974C7.42258 117.967 7.87813 116.964 8.37063 115.992C8.61007 115.518 9.19269 115.326 9.67181 115.564C10.1507 115.801 10.3445 116.377 10.1048 116.851C9.63663 117.774 9.20363 118.728 8.81753 119.684C8.71903 119.928 8.53072 120.11 8.30504 120.208ZM12.2895 112.842C11.9925 112.971 11.6374 112.949 11.3507 112.754C10.9096 112.454 10.798 111.857 11.1016 111.421C11.7238 110.527 12.3927 109.648 13.0897 108.809C13.43 108.4 14.0408 108.34 14.4547 108.677C14.8685 109.013 14.9283 109.617 14.5885 110.026C13.9261 110.823 13.2907 111.658 12.6994 112.508C12.593 112.661 12.4497 112.773 12.2895 112.842ZM43.931 96.689C43.8079 96.7421 43.6719 96.7706 43.529 96.7686C42.4873 96.7533 41.4306 96.7828 40.389 96.8565C39.8549 96.8943 39.3907 96.4968 39.3527 95.9689C39.3143 95.4406 39.7163 94.9817 40.2506 94.944C41.3477 94.8663 42.4604 94.8349 43.5575 94.8509C44.0931 94.8587 44.5208 95.2944 44.5128 95.8238C44.5072 96.2121 44.2687 96.5431 43.931 96.689ZM17.8222 106.537C17.4534 106.697 17.0079 106.617 16.7203 106.308C16.3576 105.918 16.3832 105.311 16.7773 104.953C17.5851 104.218 18.4351 103.509 19.3036 102.845C19.7288 102.523 20.3365 102.598 20.664 103.017C20.9915 103.436 20.9134 104.039 20.4896 104.363C19.6646 104.993 18.8575 105.666 18.0904 106.364C18.0089 106.438 17.9181 106.496 17.8222 106.537ZM35.5239 97.508C35.4652 97.5334 35.4033 97.5536 35.3382 97.5673C34.3188 97.7831 33.2953 98.0457 32.2961 98.3468C31.7837 98.501 31.2418 98.2155 31.0856 97.7091C30.9298 97.2026 31.217 96.6645 31.7306 96.5123C32.782 96.1957 33.859 95.9195 34.9316 95.6921C35.4553 95.5812 35.971 95.9111 36.0831 96.4288C36.1814 96.882 35.9376 97.3293 35.5239 97.508ZM24.6405 101.612C24.192 101.806 23.6587 101.638 23.4111 101.208C23.1458 100.748 23.3081 100.163 23.7732 99.8999C24.726 99.3631 25.715 98.8596 26.7129 98.4042C26.719 98.4011 26.7255 98.3984 26.7317 98.3957C27.2138 98.1875 27.778 98.398 27.9998 98.8723C28.2244 99.3533 28.0124 99.9229 27.5259 100.145C26.5782 100.578 25.6389 101.056 24.7337 101.566C24.7031 101.583 24.672 101.599 24.6405 101.612Z" fill="#259F46"/>
<path d="M50.7029 97.3964C50.5279 97.4719 50.3286 97.4976 50.127 97.4579C49.6366 97.3616 49.136 97.274 48.6389 97.1968C48.1099 97.115 47.7479 96.6244 47.8308 96.1014C47.9135 95.5782 48.4097 95.2197 48.939 95.3025C49.4618 95.3833 49.9883 95.4756 50.5044 95.5769C51.0297 95.6799 51.3712 96.1846 51.2669 96.7037C51.2027 97.024 50.9841 97.275 50.7029 97.3964Z" fill="#259F46"/>
<path d="M75.1531 113.832C74.7241 114.017 74.2108 113.873 73.9498 113.471C73.6799 113.055 73.3965 112.637 73.1076 112.23C72.8 111.797 72.9061 111.199 73.3444 110.895C73.7848 110.589 74.3878 110.696 74.6953 111.129C74.9992 111.558 75.2978 111.997 75.5822 112.435C75.8714 112.881 75.7405 113.474 75.2899 113.76C75.2456 113.788 75.1998 113.812 75.1531 113.832Z" fill="#259F46"/>
<path d="M58.5336 168.235C58.1246 168.412 57.7111 168.582 57.2932 168.746C56.7954 168.942 56.2315 168.701 56.0339 168.209C55.8362 167.717 56.081 167.157 56.577 166.964C57.5416 166.585 58.4885 166.168 59.4017 165.72C59.8824 165.485 60.4634 165.678 60.7016 166.152C60.9399 166.627 60.744 167.202 60.2642 167.438C59.6993 167.715 59.117 167.983 58.5336 168.235ZM52.4169 170.289C52.3672 170.311 52.3149 170.328 52.2604 170.342C51.2101 170.598 50.1369 170.814 49.0712 170.983C48.5424 171.066 48.0451 170.71 47.9606 170.187C47.8761 169.664 48.2367 169.171 48.7652 169.089C49.7775 168.929 50.7968 168.724 51.795 168.48C52.3149 168.353 52.8406 168.667 52.969 169.181C53.0841 169.641 52.8419 170.106 52.4169 170.289ZM64.6668 164.886C64.2478 165.067 63.7449 164.934 63.4782 164.547C63.1767 164.109 63.2913 163.513 63.734 163.214C64.5809 162.644 65.4145 162.031 66.2119 161.39C66.628 161.056 67.2383 161.118 67.576 161.529C67.9139 161.94 67.8508 162.544 67.4351 162.878C66.5954 163.553 65.7173 164.199 64.8256 164.8C64.7745 164.834 64.7213 164.863 64.6668 164.886ZM44.1737 171.372C44.0608 171.421 43.9367 171.449 43.8061 171.452C42.7254 171.474 41.6306 171.451 40.5523 171.383C40.018 171.35 39.6123 170.894 39.6463 170.366C39.6803 169.837 40.1407 169.436 40.6757 169.47C41.6994 169.534 42.739 169.556 43.7654 169.534C44.3009 169.523 44.7441 169.944 44.7553 170.473C44.7638 170.873 44.5231 171.221 44.1737 171.372ZM70.9743 159.539C70.6306 159.687 70.2156 159.63 69.9239 159.361C69.5324 158.999 69.5114 158.393 69.8769 158.006C70.5758 157.266 71.2524 156.485 71.8883 155.687C72.2195 155.271 72.8293 155.199 73.2502 155.527C73.6708 155.854 73.7433 156.457 73.412 156.873C72.7428 157.714 72.0304 158.535 71.2945 159.314C71.2014 159.413 71.0919 159.488 70.9743 159.539ZM75.9424 152.952C75.6677 153.071 75.3412 153.062 75.0628 152.901C74.6009 152.633 74.4462 152.045 74.7174 151.589C75.2372 150.713 75.7257 149.805 76.1695 148.891C76.4006 148.413 76.9796 148.211 77.4632 148.441C77.9462 148.67 78.1497 149.243 77.9181 149.72C77.4511 150.682 76.9371 151.638 76.3898 152.559C76.2822 152.741 76.1237 152.874 75.9424 152.952ZM79.34 145.452C79.1311 145.542 78.8894 145.56 78.6551 145.485C78.1454 145.323 77.8651 144.783 78.0292 144.279C78.3441 143.311 78.6213 142.32 78.8526 141.333C78.9736 140.817 79.4939 140.496 80.0164 140.615C80.538 140.735 80.8629 141.25 80.742 141.766C80.4983 142.805 80.2068 143.848 79.8754 144.867C79.7867 145.139 79.5862 145.345 79.34 145.452ZM81.0022 137.397C80.8575 137.46 80.6953 137.488 80.5269 137.473C79.9935 137.425 79.6007 136.959 79.6493 136.431C79.7426 135.42 79.7932 134.393 79.7996 133.379C79.8031 132.849 80.2405 132.423 80.7753 132.426C81.311 132.429 81.7424 132.861 81.739 133.391C81.7322 134.459 81.679 135.54 81.5807 136.605C81.5474 136.966 81.3159 137.262 81.0022 137.397ZM80.8355 129.176C80.7542 129.211 80.6664 129.235 80.5739 129.247C80.0431 129.317 79.5557 128.947 79.4856 128.422C79.3514 127.418 79.172 126.406 78.952 125.414C78.8374 124.896 79.1702 124.385 79.6918 124.272C80.2149 124.158 80.732 124.486 80.8467 125.003C81.0781 126.048 81.2671 127.113 81.4083 128.171C81.4662 128.605 81.2216 129.009 80.8355 129.176ZM78.8475 121.196C78.8293 121.204 78.8106 121.212 78.7917 121.219C78.2888 121.4 77.7318 121.145 77.548 120.648C77.2881 119.946 77.0034 119.243 76.7014 118.56C76.5921 118.312 76.4799 118.066 76.3659 117.823C76.141 117.342 76.3526 116.772 76.8388 116.55C77.3264 116.315 77.9011 116.537 78.1259 117.017C78.2461 117.274 78.3637 117.532 78.4788 117.792C78.7964 118.511 79.096 119.25 79.3691 119.989C79.5463 120.467 79.3135 120.995 78.8475 121.196Z" fill="#259F46"/>
<path d="M35.8692 170.629C35.6925 170.705 35.4914 170.73 35.2885 170.69C34.774 170.586 34.2521 170.47 33.737 170.344C33.2169 170.217 32.8995 169.697 33.0281 169.183C33.1566 168.669 33.6816 168.355 34.2019 168.482C34.6911 168.602 35.1869 168.712 35.6754 168.81C36.2 168.916 36.5388 169.422 36.432 169.941C36.3664 170.259 36.1486 170.508 35.8692 170.629Z" fill="#259F46"/>
<path d="M32.567 159.919C32.739 160.007 32.9482 159.976 33.0877 159.844L37.0705 156.07C39.5701 156.687 42.187 156.914 44.8295 156.703L48.1344 161.065C48.2503 161.218 48.4516 161.282 48.6357 161.223L54.9357 159.223C55.1198 159.164 55.2461 158.997 55.2502 158.806L55.3674 153.356C57.6402 152.006 59.634 150.315 61.3028 148.374L66.7633 149.149C66.9547 149.176 67.1424 149.081 67.2307 148.911L70.2546 143.091C70.343 142.921 70.3125 142.714 70.1787 142.576L66.3619 138.639C66.9856 136.167 67.2151 133.58 67.0014 130.967L71.4139 127.699C71.5687 127.585 71.6329 127.386 71.5737 127.203L69.5502 120.974C69.4911 120.792 69.3217 120.668 69.1283 120.664L63.6166 120.548C62.2516 118.3 60.5411 116.329 58.5784 114.679L59.3621 109.28C59.3896 109.091 59.2926 108.905 59.1206 108.818L53.2351 105.828C53.063 105.741 52.8539 105.771 52.7144 105.903L48.7317 109.677C46.2321 109.06 43.6151 108.833 40.9726 109.045L37.6676 104.682C37.5517 104.529 37.3504 104.465 37.1663 104.524L30.8663 106.525C30.6822 106.583 30.556 106.751 30.5519 106.942L30.4348 112.391C28.1619 113.741 26.168 115.432 24.4993 117.373L19.0388 116.598C18.8475 116.571 18.6597 116.667 18.5714 116.837L15.5475 122.656C15.4591 122.826 15.4896 123.033 15.6234 123.171L19.4402 127.109C18.8164 129.58 18.587 132.168 18.8006 134.78L14.3882 138.048C14.2334 138.163 14.1692 138.362 14.2284 138.544L16.2519 144.773C16.3111 144.955 16.4805 145.08 16.6739 145.084L22.1854 145.2C23.5505 147.447 25.261 149.418 27.2236 151.068L26.44 156.467C26.4125 156.656 26.5095 156.842 26.6815 156.929L32.567 159.919Z" fill="#259F46"/>
<path d="M45.5583 138.903C42.587 140.186 39.0253 139.155 37.2583 136.356C35.3162 133.28 36.2673 129.216 39.3782 127.295C40.8853 126.365 42.6686 126.071 44.3991 126.467C46.13 126.862 47.6015 127.901 48.5422 129.391C50.4844 132.468 49.5332 136.532 46.4224 138.452C46.1419 138.625 45.8529 138.776 45.5583 138.903ZM40.8689 128.248C40.6395 128.347 40.416 128.463 40.1997 128.597C37.8145 130.069 37.0855 133.186 38.5743 135.544C40.0634 137.902 43.2153 138.625 45.6007 137.151C47.986 135.679 48.715 132.562 47.2263 130.204C46.5047 129.061 45.3768 128.265 44.0496 127.961C42.971 127.715 41.8654 127.818 40.8689 128.248Z" fill="#E1FAE7"/>
<path d="M49.5275 147.553C49.0172 147.774 48.4929 147.97 47.9555 148.14C47.7864 148.194 47.6163 148.245 47.4454 148.294C46.6031 148.532 45.7429 148.704 44.8781 148.806C44.8663 148.807 44.8545 148.809 44.8427 148.81C44.8093 148.814 44.7757 148.818 44.7421 148.821C44.677 148.829 44.6117 148.835 44.5466 148.842C44.375 148.858 44.2186 148.762 44.153 148.614C44.137 148.578 44.1265 148.539 44.1223 148.498C44.1012 148.287 44.2575 148.1 44.4703 148.078C45.5674 147.971 46.66 147.746 47.718 147.41C52.9741 145.742 56.7168 141.556 58.024 136.631C58.7515 133.892 58.7252 130.925 57.7861 128.035C57.6216 127.528 57.4322 127.033 57.2195 126.552C55.7886 123.313 53.2956 120.681 50.0733 119.045C46.3721 117.165 42.1518 116.822 38.1901 118.08C30.0084 120.679 25.4952 129.37 28.1221 137.456C28.284 137.954 28.4708 138.443 28.6815 138.919C29.5944 140.985 30.9543 142.831 32.6702 144.318C32.7145 144.357 32.7479 144.403 32.7699 144.453C32.8281 144.585 32.8085 144.744 32.7061 144.859C32.5643 145.018 32.3199 145.035 32.1585 144.895C30.3571 143.333 28.9292 141.396 27.9708 139.227C27.7496 138.726 27.5535 138.214 27.3834 137.69C24.6254 129.201 29.3696 120.076 37.9527 117.35C42.1118 116.029 46.542 116.389 50.4276 118.362C53.8106 120.081 56.4277 122.843 57.9299 126.243C58.1532 126.749 58.3518 127.268 58.5248 127.8C59.8607 131.912 59.497 136.293 57.5007 140.135C55.7624 143.48 52.9671 146.068 49.5275 147.553Z" fill="#E1FAE7"/>
<path d="M59.7674 94.0239C59.5122 94.0684 59.2478 93.945 59.1268 93.7036C58.9008 93.2533 58.6855 92.7899 58.4871 92.3266C58.3582 92.0255 58.5004 91.6783 58.8051 91.5504C59.1097 91.4214 59.4612 91.5638 59.5902 91.8648C59.7793 92.3063 59.9845 92.7479 60.2 93.1778C60.347 93.4703 60.2258 93.8257 59.9297 93.9715C59.8769 93.9971 59.8224 94.0143 59.7674 94.0239Z" fill="#271051"/>
<path d="M58.108 89.7743C57.809 89.8266 57.5127 89.6475 57.4282 89.3528C57.189 88.5201 56.9906 87.6656 56.8382 86.8137C56.8062 86.6342 56.7761 86.454 56.7475 86.2728C56.6971 85.9493 56.9405 85.6559 57.2476 85.5964C57.5745 85.5463 57.8806 85.7676 57.9314 86.0905C57.9586 86.2638 57.9872 86.4362 58.0179 86.6076C58.1631 87.4203 58.3526 88.2352 58.5803 89.0292C58.6708 89.3441 58.486 89.6712 58.1679 89.7609C58.1478 89.7661 58.1279 89.7708 58.108 89.7743ZM57.1553 83.6979C57.1274 83.7027 57.0986 83.7061 57.0697 83.707C56.7388 83.7172 56.4622 83.4609 56.4515 83.1338C56.4174 82.085 56.4488 81.0246 56.545 79.983C56.5749 79.6571 56.8681 79.418 57.1958 79.447C57.5255 79.4769 57.7678 79.7647 57.7379 80.0905C57.6462 81.0844 57.6164 82.0957 57.6488 83.0961C57.6584 83.3939 57.4439 83.6474 57.1553 83.6979ZM57.7214 77.5745C57.6466 77.5876 57.568 77.5867 57.4892 77.5699C57.1661 77.5002 56.9617 77.184 57.0323 76.8646C57.2592 75.8412 57.5531 74.8201 57.9066 73.831C58.0169 73.5222 58.3581 73.361 58.6711 73.4701C58.9828 73.5789 59.1463 73.9174 59.0363 74.2256C58.6991 75.169 58.4187 76.1419 58.2026 77.1181C58.149 77.3594 57.9533 77.534 57.7214 77.5745ZM59.7928 71.7759C59.6707 71.7973 59.5411 71.7813 59.4216 71.7228C59.1258 71.5766 59.0054 71.2206 59.1533 70.928C59.6278 69.9888 60.1652 69.071 60.7513 68.1992C60.9346 67.927 61.3067 67.8537 61.5815 68.0342C61.8571 68.215 61.932 68.5825 61.7488 68.8553C61.1902 69.6859 60.6774 70.5619 60.225 71.4573C60.1369 71.6318 59.9734 71.7443 59.7928 71.7759ZM63.2338 66.6536C63.0633 66.6834 62.8808 66.6401 62.739 66.5198C62.4882 66.3071 62.4593 65.9333 62.6745 65.6848C63.365 64.8893 64.1116 64.1281 64.8937 63.4229C65.1381 63.2017 65.517 63.2194 65.7399 63.4613C65.9628 63.703 65.9454 64.0778 65.7011 64.2979C64.9548 64.971 64.2426 65.6968 63.584 66.4562C63.49 66.5642 63.3653 66.6306 63.2338 66.6536ZM67.8271 62.5128C67.6063 62.5513 67.3722 62.4647 67.2337 62.2716C67.0426 62.0049 67.1067 61.6356 67.3764 61.4463C68.2416 60.8406 69.1534 60.2824 70.086 59.7881C70.379 59.6342 70.7408 59.7425 70.8971 60.0305C71.0534 60.3185 70.9436 60.6777 70.6522 60.8321C69.7627 61.3035 68.8937 61.8353 68.0689 62.4129C67.9941 62.4653 67.9115 62.498 67.8271 62.5128ZM73.3036 59.6088C73.0272 59.6571 72.7458 59.5072 72.6412 59.2389C72.5222 58.9338 72.6759 58.5909 72.9844 58.473C73.9703 58.0969 74.9931 57.7772 76.0244 57.5224C76.3473 57.4483 76.6709 57.6366 76.7508 57.9538C76.8309 58.2711 76.6356 58.5924 76.3148 58.6719C75.3308 58.9144 74.3555 59.2194 73.4155 59.578C73.3785 59.5921 73.3411 59.6022 73.3036 59.6088ZM82.4477 57.9344C82.4137 57.9403 82.3784 57.9436 82.3424 57.9434C81.4691 57.9428 80.5806 57.9894 79.7011 58.082C79.5678 58.0954 79.4371 58.1098 79.3069 58.1262C78.9784 58.1659 78.6794 57.9358 78.6389 57.6111C78.5977 57.2858 78.8318 56.9806 79.1596 56.9503C79.2986 56.9337 79.4374 56.9176 79.5772 56.9037C80.4961 56.8072 81.4276 56.7583 82.3433 56.7592C82.6743 56.7595 82.9421 57.0246 82.9417 57.3517C82.9415 57.6431 82.7285 57.8854 82.4477 57.9344Z" fill="#271051"/>
<path d="M87.1575 107.462C86.8356 107.518 86.5265 107.308 86.4651 106.989C86.4033 106.668 86.6165 106.358 86.9415 106.297C87.9199 106.113 88.8951 105.869 89.8402 105.57C90.1542 105.474 90.4926 105.642 90.5932 105.954C90.6939 106.266 90.5196 106.599 90.2047 106.699C89.2134 107.011 88.1911 107.268 87.1656 107.461C87.1629 107.461 87.1601 107.461 87.1575 107.462ZM84.1182 107.848C84.0969 107.852 84.0757 107.854 84.0537 107.856C83.0134 107.926 81.9581 107.934 80.9174 107.881C80.587 107.863 80.3334 107.585 80.3507 107.258C80.3677 106.931 80.6513 106.681 80.9797 106.698C81.9728 106.749 82.9798 106.741 83.9726 106.674C84.3024 106.652 84.5881 106.898 84.6105 107.225C84.6316 107.53 84.4155 107.796 84.1182 107.848ZM92.9831 105.622C92.7216 105.667 92.4517 105.536 92.3351 105.286C92.1968 104.99 92.3278 104.638 92.6283 104.501C93.533 104.088 94.4199 103.617 95.2643 103.102C95.5471 102.931 95.9149 103.016 96.0886 103.295C96.2623 103.573 96.175 103.938 95.8936 104.11C95.0083 104.65 94.0784 105.144 93.1299 105.576C93.0818 105.598 93.0327 105.613 92.9831 105.622ZM78.0075 107.529C77.9404 107.54 77.8702 107.541 77.7991 107.529C76.7716 107.35 75.7448 107.106 74.7478 106.803C74.4315 106.708 74.2537 106.377 74.3504 106.064C74.4473 105.752 74.7824 105.576 75.0985 105.671C76.0493 105.959 77.0277 106.191 78.0075 106.362C78.3331 106.419 78.5508 106.727 78.4931 107.049C78.4481 107.3 78.2482 107.487 78.0075 107.529ZM98.1855 102.444C97.9767 102.48 97.7545 102.406 97.6131 102.231C97.4061 101.975 97.4481 101.602 97.7063 101.398C98.4825 100.784 99.2287 100.117 99.9242 99.4142C100.156 99.1799 100.535 99.1765 100.771 99.4054C101.008 99.6342 101.012 100.009 100.78 100.243C100.051 100.98 99.2687 101.679 98.4551 102.323C98.3739 102.387 98.2809 102.427 98.1855 102.444ZM102.465 98.1245C102.305 98.1524 102.135 98.1164 101.996 98.0114C101.734 97.8124 101.684 97.4406 101.885 97.1811C102.491 96.3991 103.055 95.5742 103.56 94.7295C103.729 94.4475 104.096 94.3544 104.381 94.5209C104.665 94.6872 104.76 95.0501 104.591 95.3315C104.062 96.2174 103.471 97.0824 102.836 97.9017C102.741 98.0239 102.608 98.0997 102.465 98.1245ZM105.575 92.9154C105.463 92.9351 105.344 92.9236 105.232 92.8746C104.928 92.7437 104.79 92.3943 104.923 92.0946C105.323 91.1925 105.669 90.258 105.954 89.3174C106.049 89.0048 106.382 88.8261 106.699 88.92C107.016 89.0137 107.196 89.3434 107.101 89.6571C106.803 90.6431 106.439 91.6233 106.021 92.5698C105.937 92.7583 105.766 92.8821 105.575 92.9154Z" fill="#271051"/>
<path d="M106.937 73.5378C107.038 73.8451 106.87 74.1771 106.559 74.2815C106.246 74.3867 105.906 74.2212 105.8 73.9114C105.479 72.979 105.099 72.0582 104.668 71.1744C104.529 70.8803 104.65 70.5255 104.948 70.3836C105.247 70.2417 105.604 70.366 105.748 70.6605C106.199 71.5876 106.598 72.5528 106.934 73.5301C106.935 73.5326 106.936 73.5352 106.937 73.5378ZM107.746 76.4598C107.753 76.4802 107.758 76.5006 107.763 76.5219C107.978 77.5307 108.133 78.5629 108.224 79.5893C108.253 79.9152 108.01 80.2022 107.68 80.2307C107.35 80.2596 107.06 80.0167 107.031 79.6929C106.944 78.7134 106.796 77.7286 106.591 76.7658C106.523 76.446 106.73 76.1319 107.053 76.0646C107.356 76.0015 107.653 76.176 107.746 76.4598ZM104.283 68.0899C104.365 68.3396 104.271 68.6222 104.037 68.7711C103.759 68.9478 103.389 68.8685 103.209 68.5934C102.67 67.765 102.075 66.9621 101.441 66.2071C101.231 65.9541 101.265 65.582 101.52 65.3732C101.774 65.1644 102.152 65.199 102.363 65.4507C103.028 66.2422 103.651 67.0841 104.216 67.9526C104.245 67.9966 104.267 68.0426 104.283 68.0899ZM108.277 82.4874C108.298 82.5514 108.308 82.6201 108.306 82.6914C108.269 83.7224 108.168 84.7617 108.004 85.7799C107.952 86.103 107.645 86.3232 107.318 86.272C106.993 86.2205 106.77 85.9169 106.821 85.5942C106.977 84.6232 107.074 83.6328 107.109 82.6497C107.12 82.323 107.398 82.0671 107.728 82.0787C107.987 82.0878 108.201 82.2575 108.277 82.4874ZM100.376 63.4385C100.441 63.6378 100.398 63.8657 100.242 64.0286C100.015 64.2668 99.6358 64.2776 99.3952 64.0532C98.6725 63.3786 97.9005 62.7409 97.0996 62.1577C96.8327 61.9635 96.7765 61.5927 96.9728 61.3295C97.1691 61.0662 97.5443 61.0099 97.8106 61.204C98.6497 61.8158 99.4596 62.4843 100.218 63.1913C100.293 63.2619 100.346 63.3474 100.376 63.4385ZM95.4542 59.8493C95.5044 60.0019 95.4921 60.1738 95.4063 60.3243C95.2435 60.609 94.878 60.7094 94.5901 60.5485C93.7225 60.0637 92.8179 59.6268 91.9015 59.2498C91.5957 59.124 91.4513 58.777 91.5785 58.4755C91.7054 58.1735 92.0557 58.0307 92.361 58.1563C93.322 58.5514 94.2704 59.0092 95.1794 59.5171C95.315 59.593 95.4095 59.7134 95.4542 59.8493ZM89.8042 57.529C89.8396 57.6363 89.8447 57.7544 89.8112 57.8713C89.7222 58.1863 89.3916 58.3702 89.0729 58.2821C88.1138 58.0162 87.1296 57.8068 86.148 57.6594C85.8217 57.6099 85.5962 57.3082 85.6462 56.9849C85.696 56.6616 86.0011 56.4393 86.3285 56.4885C87.3575 56.6433 88.3899 56.8628 89.3962 57.1412C89.5966 57.1969 89.7443 57.3471 89.8042 57.529Z" fill="#271051"/>
<path d="M72.1302 105.748C72.0164 105.768 71.8957 105.756 71.7822 105.706C71.3141 105.499 70.8501 105.278 70.4028 105.048C70.1095 104.898 69.9947 104.54 70.1471 104.25C70.3001 103.96 70.6611 103.847 70.955 103.997C71.3814 104.216 71.8242 104.427 72.2708 104.624C72.5729 104.758 72.7084 105.108 72.5735 105.406C72.4892 105.593 72.3194 105.715 72.1302 105.748Z" fill="#271051"/>
<path d="M71.2747 98.129C71.3726 98.2125 71.5135 98.2254 71.6253 98.161L74.8152 96.3243C76.3431 97.1134 78.0094 97.6672 79.7618 97.9399L81.219 101.291C81.2701 101.408 81.3909 101.481 81.5199 101.471L85.9356 101.148C86.0647 101.138 86.1733 101.049 86.2064 100.925L87.1479 97.3985C88.8405 96.8733 90.406 96.0827 91.7996 95.0794L95.2285 96.4309C95.3487 96.4783 95.486 96.4451 95.5706 96.3481L98.4613 93.0322C98.5458 92.9352 98.5588 92.7961 98.4937 92.6856L96.6361 89.5316C97.4343 88.0208 97.9944 86.3732 98.2702 84.6406L101.659 83.1999C101.778 83.1493 101.851 83.0299 101.842 82.9023L101.515 78.5363C101.505 78.4087 101.415 78.3012 101.29 78.2686L97.7226 77.3377C97.1915 75.6641 96.3918 74.1164 95.3771 72.7385L96.744 69.348C96.7919 69.2293 96.7583 69.0935 96.6604 69.01L93.3066 66.1517C93.2086 66.0682 93.0678 66.0554 92.956 66.1197L89.7661 67.9564C88.2382 67.1673 86.5719 66.6134 84.8194 66.3407L83.3622 62.9899C83.3111 62.8724 83.1902 62.7998 83.0612 62.8092L78.6456 63.1329C78.5165 63.1423 78.4078 63.2317 78.3748 63.3554L77.4334 66.882C75.7407 67.4071 74.1752 68.198 72.7816 69.2012L69.3528 67.8496C69.2326 67.8022 69.0952 67.8355 69.0107 67.9324L66.1199 71.2484C66.0355 71.3453 66.0223 71.4846 66.0874 71.5951L67.945 74.7491C67.1469 76.2598 66.5869 77.9073 66.3111 79.64L62.922 81.0807C62.8032 81.1312 62.7298 81.2508 62.7394 81.3784L63.0667 85.7442C63.0763 85.8719 63.1666 85.9793 63.2918 86.012L66.8586 86.9428C67.3898 88.6164 68.1894 90.1642 69.2041 91.5422L67.8372 94.9325C67.7893 95.0513 67.8229 95.187 67.9209 95.2706L71.2747 98.129Z" fill="#271051"/>
<path d="M83.0693 86.5538C82.1178 86.7201 81.1414 86.5812 80.2618 86.1459C79.1797 85.6103 78.3733 84.6899 77.9913 83.5546C77.2024 81.2117 78.4888 78.6705 80.859 77.8899C83.234 77.1131 85.7999 78.3825 86.5886 80.7259C86.9709 81.8613 86.8831 83.0759 86.3413 84.1455C85.7996 85.2156 84.8689 86.0131 83.7202 86.3907C83.5056 86.4611 83.2879 86.5156 83.0693 86.5538ZM81.7117 78.8949C81.5529 78.9226 81.3947 78.9621 81.2373 79.0136C79.4938 79.5879 78.5476 81.457 79.1278 83.1809C79.4089 84.0156 80.0019 84.6931 80.7978 85.0867C81.5941 85.4807 82.4973 85.5437 83.3423 85.2669C84.1868 84.989 84.8717 84.4023 85.2701 83.6157C85.6686 82.8283 85.7333 81.935 85.4521 81.0995C84.9243 79.5315 83.3115 78.6152 81.7117 78.8949Z" fill="#E1FAE7"/>
<path d="M84.3182 93.0499C83.9449 93.1151 83.5654 93.162 83.1797 93.1907C82.4138 93.247 81.6412 93.2264 80.8816 93.129C80.8475 93.1243 80.8134 93.1197 80.7793 93.115C80.5157 93.0789 80.3161 92.8783 80.2719 92.6323C80.2612 92.5725 80.2598 92.5099 80.2687 92.4467C80.3142 92.1228 80.6173 91.8983 80.9445 91.9422C81.6527 92.0398 82.3748 92.0622 83.0907 92.0094L83.0909 92.0093C83.1302 92.0066 83.1697 92.0031 83.2086 91.9999C84.9017 91.8596 86.4952 91.3075 87.8778 90.4081C88.6284 89.9198 89.3168 89.3285 89.9247 88.6438C89.9297 88.6382 89.9346 88.6326 89.9396 88.6271C89.9546 88.6097 89.9697 88.593 89.9845 88.5758C91.743 86.5582 92.6022 83.9843 92.403 81.3282C92.3775 80.9844 92.3343 80.6448 92.2745 80.31C91.8714 78.0571 90.7065 76.0266 88.9301 74.5124C86.8896 72.7735 84.2865 71.9246 81.6003 72.1215C78.9158 72.3193 76.4659 73.538 74.7068 75.5551C72.9481 77.5726 72.089 80.1465 72.2883 82.8026C72.3134 83.1406 72.3561 83.4762 72.4154 83.8076C72.6726 85.245 73.2448 86.6103 74.0961 87.8041C74.1485 87.8777 74.1818 87.9588 74.1964 88.042C74.2355 88.2607 74.1478 88.4927 73.9518 88.6291C73.6809 88.8168 73.3079 88.754 73.1169 88.4861C72.1644 87.1503 71.5239 85.6225 71.236 84.0149C71.1695 83.6436 71.1218 83.2685 71.0935 82.8904C70.8707 79.9184 71.8317 77.0389 73.7996 74.7816C75.7674 72.5249 78.5043 71.1585 81.5115 70.9402C84.5172 70.7197 87.4293 71.6696 89.7122 73.6156C91.6997 75.3092 93.0027 77.581 93.4537 80.1016C93.5205 80.4757 93.5689 80.856 93.5978 81.2404C94.0288 86.9939 89.945 92.0665 84.3182 93.0499Z" fill="#E1FAE7"/>
<path d="M100.173 350.322C98.8767 336.338 99.7133 312.994 115.27 294.461C115.27 294.461 134.471 329.995 147.964 335.298L154.009 335.573V310.222C154.009 310.222 148.883 278.928 116.462 255.559L106.367 246.563C106.367 246.563 70.8716 239.487 46.7334 281.353C32.5604 305.935 31.8766 332.616 33.7277 350.456C40.8532 350.208 88.7026 350.208 100.173 350.322Z" fill="#24500F"/>
<path d="M162.493 262.006C162.984 260.282 163.472 256.194 159.635 250.828C154.503 243.65 146.862 246.427 146.862 246.427C140.041 249.467 136.258 260.989 136.258 260.989L143.453 257.952C144.232 261.033 154.103 265.133 154.103 265.133L154.161 265.117C153.686 271.629 151.856 290.584 146.028 303.375C143.745 308.385 139.182 317.668 150.005 335.181L156.792 335.49C156.792 335.49 174.186 311.362 162.493 262.006Z" fill="#FEABA8"/>
<path d="M121.543 223.009L102.641 249.399C101.412 251.114 101.58 253.44 103.033 254.974C105.58 257.662 109.875 261.45 114.504 262.315C115.942 262.583 117.404 261.987 118.203 260.775L128.256 245.517C128.256 245.517 130.18 221.55 121.543 223.009Z" fill="#FEABA8"/>
<path d="M134.147 205.877C134.462 206.293 144.647 239.09 144.647 239.09L125.583 244.442L111.259 214.775C111.259 214.775 128.883 198.922 134.147 205.877Z" fill="#FEABA8"/>
<path d="M118.817 219.651L124.862 235.189C124.994 235.528 125.176 235.841 125.404 236.125C126.421 237.39 129.378 240.37 132.661 237.189C135.148 234.779 137.493 232.564 139.725 231.458C141.692 230.484 144.071 231.552 144.696 233.637C145.631 236.764 147.104 242.132 147.87 247.248C148.146 249.097 146.919 250.843 145.069 251.224C141.188 252.021 134.417 253.184 128.487 253.04C127.171 253.008 125.992 252.24 125.411 251.073C123.221 246.684 117.722 235.787 115.651 232.884C113.748 230.215 109.441 230.225 107.246 230.427C106.226 230.52 105.221 230.182 104.475 229.488C102.727 227.861 100.385 224.582 103.731 220.517C104.894 219.104 104.8 217.091 103.523 215.777C101.676 213.877 100.148 210.846 103.073 207.044C106.172 203.016 110.353 203.24 113.171 204.043C114.545 204.435 115.948 203.842 116.852 202.746C117.116 202.427 117.489 202.183 118.018 202.099C119.74 201.827 121.066 200.518 121.117 198.794C121.193 196.246 122.31 193.286 126.564 191.847C134.878 189.034 140.334 196.902 141.021 202.865C141.707 208.829 132.518 211.371 127.065 211.118C123.286 210.943 120.494 214.366 119.136 216.484C118.529 217.433 118.409 218.604 118.817 219.651Z" fill="black"/>
<path d="M118.006 238.761C118.006 238.761 116.358 228.42 111.978 228.032C107.597 227.644 103.447 231.309 107.952 237.014C113.556 244.111 118.006 238.761 118.006 238.761Z" fill="#FEABA8"/>
<path d="M70.9288 252.931C70.9288 252.931 35.0801 280.137 29.219 308.643C23.3579 337.149 42.438 341.015 60.3627 341.951L59.8255 320.616C59.8255 320.616 47.4206 321.685 54.3117 309.403C61.2029 297.122 81.7865 287.558 81.7865 287.558C81.7865 287.558 131.237 232.652 70.9288 252.931Z" fill="#24500F"/>
<path d="M59.8673 321.099C59.6501 321.118 54.52 321.523 52.5083 318.457C51.1353 316.365 51.5973 313.24 53.8821 309.168C60.7711 296.891 80.7308 287.512 81.5774 287.119C81.8227 287.005 82.1151 287.109 82.2298 287.352C82.3449 287.594 82.2395 287.883 81.9947 287.997C81.79 288.092 61.4742 297.638 54.7402 309.639C52.6464 313.371 52.1721 316.159 53.3302 317.927C55.0191 320.505 59.7349 320.137 59.7826 320.133C60.0524 320.11 60.29 320.308 60.3136 320.575C60.3367 320.841 60.137 321.076 59.8673 321.099Z" fill="#122807"/>
<path d="M60.0175 342.044C60.0175 342.044 53.9795 333.247 60.7272 322.016L110.292 327.524C110.292 327.524 133.606 322.375 134.735 322.397C135.864 322.419 151.709 330.976 151.709 330.976C151.709 330.976 151.251 332.087 147.587 332.075C143.923 332.064 146.355 332.577 146.355 332.577L146.319 334.408C146.319 334.408 143.806 335.116 141.653 333.076C139.5 331.035 133.775 330.289 133.775 330.289C133.775 330.289 122.187 339.716 110.123 336.067L60.0175 342.044Z" fill="#FEABA8"/>
<path d="M238.203 348.673C238.33 348.552 238.157 348.427 237.729 348.331C237.302 348.236 236.666 348.181 235.994 348.181H8.54084C7.65778 348.181 6.83569 348.264 6.36001 348.4C5.88423 348.537 5.82056 348.71 6.19081 348.857L8.65569 349.839C9.22002 350.064 10.443 350.208 11.7887 350.208H234.434C235.685 350.208 236.761 350.045 236.999 349.819L238.203 348.673Z" fill="#132B08"/>
<path d="M169.519 164.59C148.726 174.405 135.065 194.831 151.211 193.877C181.525 192.087 161.065 208.781 177.008 208.29C192.95 207.799 217.628 204.437 233.775 187.893C249.922 171.35 234.227 167.396 227.682 168.036C206.133 170.145 234.649 133.846 169.519 164.59Z" fill="#E9FFEE"/>
<path d="M162.474 216.418C162.517 218.746 164.25 222.567 168.14 222.496C172.031 222.425 176.606 218.489 176.563 216.161C176.519 213.833 173.33 212.003 169.44 212.074C165.549 212.145 162.431 214.09 162.474 216.418Z" fill="#C0D2FB"/>
<path d="M176.593 193.869C176.664 197.639 179.47 203.827 185.77 203.713C192.071 203.598 199.481 197.223 199.41 193.453C199.34 189.683 194.176 186.719 187.875 186.834C181.574 186.949 176.523 190.098 176.593 193.869Z" fill="#C0D2FB"/>
<path d="M190.714 162.235C190.83 168.453 195.457 178.659 205.848 178.47C216.239 178.28 228.46 167.767 228.343 161.549C228.228 155.332 219.71 150.445 209.319 150.634C198.928 150.824 190.598 156.017 190.714 162.235Z" fill="#C0D2FB"/>
<path d="M156.633 225.801C156.654 226.928 157.657 227.824 158.873 227.802C160.089 227.78 162.494 226.581 162.473 225.454C162.452 224.327 160.944 223.2 159.728 223.222C158.511 223.244 156.612 224.674 156.633 225.801Z" fill="#C0D2FB"/>
<path d="M211.59 269.847C208.641 261.736 197.708 237.041 175.729 243.359C175.406 243.452 175.418 243.912 175.746 243.989C180.46 245.107 197.865 250.422 211.007 270.133C211.221 270.454 211.722 270.209 211.59 269.847Z" fill="#259F46"/>
<path d="M211.38 270.334C206.765 265.561 193.239 247.319 173.627 254.324C173.411 254.401 173.437 254.712 173.664 254.748C178.38 255.488 201.772 259.652 211.267 270.713C211.519 271.006 211.648 270.612 211.38 270.334Z" fill="#259F46"/>
<path d="M211.028 268.325C210.883 262.318 209.371 239.59 194.903 234.171C194.798 234.132 194.7 234.248 194.76 234.342C196.402 236.905 208.337 255.836 210.796 268.349C210.823 268.489 211.031 268.467 211.028 268.325Z" fill="#259F46"/>
<path d="M212.131 275.256C212.257 275.332 212.392 275.173 212.293 275.065C209.829 272.37 199.564 262.407 185.657 266.335C169.902 270.784 197.315 266.289 212.131 275.256Z" fill="#259F46"/>
<path d="M212.022 270.55C211.967 270.996 211.321 271.016 211.243 270.573C209.986 263.393 207.56 243.648 217.89 239.19C230.117 233.914 214.865 247.431 212.022 270.55Z" fill="#259F46"/>
<path d="M211.329 270.465C213.25 266.195 220.484 253.002 233.667 261.013C233.889 261.148 233.797 261.488 233.536 261.491C230.473 261.523 220.254 262.302 211.753 270.745C211.549 270.948 211.211 270.726 211.329 270.465Z" fill="#259F46"/>
<path d="M211.637 271.577C212.403 268.918 215.934 263.689 232.189 269.485C232.287 269.519 232.253 269.665 232.15 269.649C228.922 269.148 217.995 267.846 212.381 272.081C212.021 272.353 211.513 272.008 211.637 271.577Z" fill="#259F46"/>
<path d="M212.504 345.466L212.539 344.915L212.57 344.323L212.624 343.137L212.733 340.764L212.914 336.017C213.038 332.852 213.141 329.687 213.24 326.523C213.429 320.194 213.579 313.865 213.62 307.538C213.667 301.211 213.605 294.885 213.322 288.571C213.173 285.415 212.959 282.263 212.612 279.126C212.274 275.99 211.79 272.862 210.895 269.837L211.186 269.736C211.735 271.235 212.203 272.768 212.535 274.326L212.796 275.493C212.877 275.883 212.944 276.276 213.018 276.667L213.236 277.842L213.422 279.021C213.896 282.169 214.223 285.336 214.444 288.506C214.674 291.676 214.801 294.85 214.895 298.024C214.972 301.199 214.989 304.373 214.981 307.547C214.953 310.72 214.889 313.893 214.797 317.064C214.68 320.234 214.561 323.404 214.377 326.571C214.206 329.738 213.991 332.902 213.743 336.064L213.322 340.804L213.092 343.172L212.957 344.355L212.886 344.947C212.858 345.146 212.843 345.33 212.791 345.577L212.504 345.466Z" fill="#259F46"/>
<path d="M223.016 289.86C225.734 284.75 235.306 269.37 249.294 275.58C249.5 275.671 249.448 275.974 249.224 275.996C245.991 276.305 233.946 278.233 223.375 290.103C223.203 290.297 222.894 290.088 223.016 289.86Z" fill="#259F46"/>
<path d="M223.11 290.203C226.62 287.46 237.307 276.599 249.66 283.048C249.796 283.118 249.749 283.322 249.596 283.325C246.397 283.383 230.488 283.998 223.149 290.465C222.955 290.636 222.906 290.363 223.11 290.203Z" fill="#259F46"/>
<path d="M223.531 288.902C224.192 284.93 227.329 269.99 237.436 267.724C237.509 267.707 237.564 267.793 237.515 267.85C236.185 269.4 226.489 280.864 223.683 288.939C223.652 289.029 223.516 288.996 223.531 288.902Z" fill="#259F46"/>
<path d="M222.15 293.399C222.059 293.438 221.985 293.32 222.06 293.257C223.948 291.696 231.693 286.029 240.551 289.911C250.586 294.309 232.822 288.81 222.15 293.399Z" fill="#259F46"/>
<path d="M222.664 290.288C222.658 290.589 223.085 290.661 223.178 290.375C224.686 285.727 228.15 272.85 221.715 268.944C214.099 264.322 222.948 274.689 222.664 290.288Z" fill="#259F46"/>
<path d="M223.132 290.294C222.258 287.285 218.697 277.868 209.199 281.972C209.039 282.041 209.069 282.276 209.242 282.302C211.271 282.604 217.977 284.059 222.824 290.441C222.94 290.594 223.185 290.478 223.132 290.294Z" fill="#259F46"/>
<path d="M222.822 291.004C222.564 289.17 220.713 285.377 209.384 287.73C209.316 287.744 209.325 287.843 209.394 287.842C211.583 287.806 218.955 287.945 222.281 291.27C222.495 291.484 222.864 291.302 222.822 291.004Z" fill="#259F46"/>
<path d="M215.874 345.556C215.859 345.354 215.87 345.22 215.87 345.069L215.88 344.623L215.908 343.733C215.926 343.14 215.957 342.548 215.986 341.955L216.179 338.403C216.309 336.034 216.511 333.671 216.704 331.306C216.907 328.943 217.111 326.579 217.365 324.22C217.623 321.861 217.889 319.502 218.201 317.149C218.516 314.796 218.851 312.444 219.227 310.098C219.619 307.754 220.039 305.414 220.541 303.087L220.927 301.344L221.353 299.609C221.648 298.455 221.953 297.303 222.313 296.164C222.482 295.592 222.666 295.024 222.866 294.461C222.965 294.179 223.06 293.896 223.164 293.616L223.491 292.78C223.916 291.663 224.43 290.575 225.015 289.529L225.289 289.668C224.828 290.754 224.401 291.849 224.061 292.978L223.8 293.821C223.718 294.104 223.645 294.39 223.568 294.674L223.332 295.526L223.117 296.383C222.974 296.955 222.831 297.527 222.707 298.104C222.579 298.68 222.435 299.251 222.321 299.83C222.076 300.985 221.848 302.143 221.622 303.301C220.754 307.944 220.009 312.615 219.36 317.302C218.713 321.989 218.139 326.688 217.601 331.392C217.33 333.745 217.105 336.102 216.847 338.456L216.491 341.991L216.324 343.759L216.243 344.643L216.174 345.485L215.874 345.556Z" fill="#259F46"/>
<path d="M197.927 300.561C194.642 296.167 183.581 283.156 172.971 291.136C172.814 291.254 172.917 291.532 173.111 291.518C175.9 291.315 186.446 291.289 197.67 300.844C197.853 301 198.074 300.757 197.927 300.561Z" fill="#259F46"/>
<path d="M197.913 300.897C194.418 298.852 183.291 290.264 174.107 298.22C174.007 298.307 174.085 298.492 174.215 298.471C176.928 298.037 190.482 296.185 197.931 301.15C198.128 301.281 198.117 301.016 197.913 300.897Z" fill="#259F46"/>
<path d="M197.306 299.738C195.979 296.101 190.437 282.521 181.463 281.932C181.398 281.928 181.368 282.017 181.421 282.063C182.844 283.318 193.251 292.625 197.185 299.796C197.229 299.876 197.337 299.824 197.306 299.738Z" fill="#259F46"/>
<path d="M199.343 303.759C199.427 303.782 199.468 303.659 199.391 303.612C197.495 302.431 189.857 298.281 183.129 303.288C175.507 308.96 189.443 301.071 199.343 303.759Z" fill="#259F46"/>
<path d="M198.307 300.909C198.37 301.191 198.023 301.324 197.889 301.069C195.716 296.925 190.297 285.337 194.975 280.678C200.511 275.164 195.046 286.273 198.307 300.909Z" fill="#259F46"/>
<path d="M197.913 300.987C198.068 298.021 199.251 288.616 208.067 291.027C208.215 291.068 208.236 291.293 208.095 291.343C206.44 291.938 201.058 294.332 198.201 301.078C198.133 301.24 197.903 301.168 197.913 300.987Z" fill="#259F46"/>
<path d="M198.311 301.608C198.174 299.842 199.003 295.99 209.025 296.473C209.085 296.476 209.097 296.571 209.038 296.58C207.183 296.881 200.985 298.138 198.82 301.775C198.68 302.009 198.333 301.894 198.311 301.608Z" fill="#259F46"/>
<path d="M214.068 346.52L213.66 345.088L213.23 343.621L212.356 340.692L210.568 334.845C209.963 332.899 209.345 330.958 208.713 329.021C208.094 327.08 207.459 325.144 206.809 323.214C205.504 319.355 204.115 315.526 202.642 311.735L202.082 310.316L201.507 308.905C201.122 307.965 200.732 307.025 200.31 306.102C199.464 304.258 198.594 302.42 197.491 300.716L197.741 300.537C198.376 301.351 198.958 302.207 199.478 303.095C199.745 303.536 200.009 303.978 200.245 304.434C200.491 304.886 200.729 305.341 200.955 305.801C201.879 307.635 202.722 309.505 203.496 311.401C205.048 315.191 206.382 319.056 207.667 322.934C208.305 324.874 208.927 326.819 209.533 328.769C210.123 330.723 210.699 332.681 211.261 334.643C211.823 336.605 212.378 338.569 212.892 340.544L213.66 343.506L214.03 344.992L214.207 345.737L214.293 346.111C214.32 346.238 214.352 346.348 214.376 346.523L214.068 346.52Z" fill="#259F46"/>
<path d="M206.909 326.681H220.074C220.937 326.681 221.575 327.966 221.381 329.313C220.539 335.158 219.53 341.088 217.464 347.108C217.083 348.22 216.356 348.917 215.564 348.917H211.268C210.488 348.917 209.772 348.23 209.403 347.13C207.748 342.205 206.156 336.334 205.37 329.67C205.187 328.119 205.924 326.681 206.909 326.681Z" fill="#132A08"/>
<path d="M272.542 120.381C272.542 122.586 269.165 124.374 265 124.374C260.835 124.374 257.458 122.586 257.458 120.381C257.458 118.175 260.835 116.388 265 116.388C269.165 116.388 272.542 118.175 272.542 120.381Z" fill="url(#paint0_linear_9801_6784)"/>
<path d="M254.979 113.247V117.325C254.979 118.704 255.765 119.968 257.01 120.562C258.739 121.387 261.613 122.292 265.79 122.185C269.179 122.098 271.389 121.544 272.794 120.963C274.151 120.401 275.021 119.059 275.021 117.59V115.334L254.979 113.247Z" fill="url(#paint1_linear_9801_6784)"/>
<g style="mix-blend-mode:multiply" opacity="0.3">
<path style="mix-blend-mode:multiply" opacity="0.3" d="M254.979 116.819C255.285 117.116 255.639 117.368 256.036 117.557C257.975 118.482 270.679 120.549 273.744 119.397C274.142 119.248 274.5 119.048 274.813 118.806C274.947 118.421 275.021 118.011 275.021 117.59V115.334L254.979 113.247V116.819Z" fill="url(#paint2_linear_9801_6784)"/>
</g>
<path d="M255.869 110.473C254.74 110.356 253.758 111.241 253.758 112.376V112.492C253.758 114.039 254.639 115.457 256.036 116.124C257.975 117.049 270.679 119.115 273.743 117.964C275.286 117.384 276.242 116.06 276.242 114.412V114.319C276.242 113.339 275.501 112.518 274.527 112.416L255.869 110.473Z" fill="url(#paint3_linear_9801_6784)"/>
<g style="mix-blend-mode:multiply" opacity="0.3">
<path style="mix-blend-mode:multiply" opacity="0.3" d="M274.527 112.416L255.869 110.473C255.133 110.397 254.461 110.748 254.081 111.315C254.456 112.199 255.138 112.937 256.036 113.365C257.975 114.29 271.22 116.626 273.743 115.437C274.725 114.974 275.496 114.193 275.908 113.243C275.601 112.792 275.106 112.477 274.527 112.416Z" fill="url(#paint4_linear_9801_6784)"/>
</g>
<path d="M255.139 103.866C254.376 103.866 253.758 104.485 253.758 105.247V108.441C253.758 109.989 254.639 111.407 256.036 112.073C257.975 112.998 271.22 115.334 273.743 114.145C275.234 113.443 276.242 112.009 276.242 110.361V105.247C276.242 104.485 275.624 103.866 274.861 103.866H255.139Z" fill="url(#paint5_linear_9801_6784)"/>
<path d="M275.964 104.861C275.964 106.292 271.055 107.453 265 107.453C258.945 107.453 254.036 106.292 254.036 104.861C254.036 103.429 258.945 102.269 265 102.269C271.055 102.269 275.964 103.429 275.964 104.861Z" fill="url(#paint6_linear_9801_6784)"/>
<g opacity="0.9">
<g style="mix-blend-mode:multiply">
<path style="mix-blend-mode:multiply" d="M299 56.3741C299 38.4944 283.778 24 265 24C246.222 24 231 38.4944 231 56.3741C231 67.2249 236.607 76.8285 245.212 82.7025C248.863 85.1945 251.077 89.3018 251.077 93.722V96.1994C251.077 101.582 255.44 105.946 260.823 105.946H269.177C274.56 105.946 278.923 101.582 278.923 96.1994V93.722C278.923 89.3018 281.137 85.1945 284.788 82.7025C293.393 76.8285 299 67.2249 299 56.3741Z" fill="url(#paint7_linear_9801_6784)"/>
</g>
<g style="mix-blend-mode:soft-light" opacity="0.5">
<g style="mix-blend-mode:soft-light" opacity="0.5">
<path d="M273.023 102.817C273.023 103.864 269.431 104.713 265 104.713C260.569 104.713 256.978 103.864 256.978 102.817C256.978 101.769 260.569 100.92 265 100.92C269.431 100.92 273.023 101.769 273.023 102.817Z" fill="#F4F7FA"/>
</g>
</g>
</g>
<g style="mix-blend-mode:multiply" opacity="0.3">
<g style="mix-blend-mode:multiply">
<path style="mix-blend-mode:multiply" d="M265.617 81.9096C266.345 69.4315 287.381 66.5113 287.291 55.3676C287.236 48.5043 278.876 43.4073 277.091 42.3864C263.939 34.8639 247.75 43.5508 244.407 37.4026C243.574 35.8718 243.965 34.2055 244.187 33.2565C244.523 31.8223 245.283 30.4865 246.412 29.2646C237.132 35.0453 231 45.027 231 56.3739C231 67.2247 236.607 76.8282 245.212 82.7022C248.863 85.1942 251.077 89.3016 251.077 93.7217V96.1992C251.077 101.582 255.441 105.946 260.823 105.946H269.177C274.559 105.946 278.923 101.582 278.923 96.1992V94.2184C277.774 95.0994 276.453 95.714 275.005 95.7021C269.981 95.6608 265.255 88.119 265.617 81.9096Z" fill="url(#paint8_linear_9801_6784)"/>
</g>
</g>
<g style="mix-blend-mode:soft-light" opacity="0.2">
<g style="mix-blend-mode:soft-light">
<g style="mix-blend-mode:soft-light">
<path d="M294.801 57.6367C294.801 73.2199 281.702 85.8525 265.544 85.8525C249.385 85.8525 236.286 73.2199 236.286 57.6367C236.286 42.0535 249.385 29.4209 265.544 29.4209C281.702 29.4209 294.801 42.0535 294.801 57.6367Z" fill="#F4F7FA"/>
</g>
</g>
</g>
<path d="M271.475 57.4603C271.324 57.4603 271.176 57.3869 271.087 57.2518L269.459 54.7807C269.442 54.7553 269.416 54.7406 269.392 54.7435C269.352 54.7445 269.335 54.7731 269.329 54.7824L268.254 56.5837C268.076 56.8821 267.763 57.0654 267.418 57.074C267.075 57.0851 266.751 56.9149 266.558 56.6251L265.081 54.4112C265.065 54.3872 265.043 54.3748 265.017 54.3745C264.986 54.3804 264.971 54.3856 264.955 54.4083L263.658 56.2833C263.471 56.5543 263.164 56.7164 262.836 56.7171C262.836 56.7171 262.835 56.7171 262.834 56.7171C262.507 56.7171 262.199 56.5559 262.011 56.2854L260.141 53.6062C260.124 53.582 260.1 53.5736 260.075 53.5712C260.048 53.5723 260.027 53.5859 260.012 53.6112L258.305 56.5579C258.177 56.7793 257.893 56.8549 257.672 56.7266C257.45 56.5982 257.375 56.3146 257.503 56.0929L259.21 53.1462C259.384 52.8467 259.692 52.6593 260.036 52.6448C260.376 52.6274 260.703 52.7915 260.901 53.0756L262.771 55.7547C262.787 55.7778 262.809 55.7898 262.834 55.7898H262.834C262.859 55.7896 262.88 55.7783 262.896 55.7559L264.193 53.8808C264.383 53.6067 264.695 53.4435 265.025 53.4473C265.357 53.4502 265.667 53.6182 265.852 53.8969L267.329 56.1106C267.346 56.1354 267.371 56.1563 267.395 56.1471C267.435 56.1462 267.452 56.1176 267.458 56.1083L268.533 54.3071C268.712 54.0076 269.026 53.8242 269.372 53.8165C269.715 53.8089 270.04 53.9786 270.233 54.2704L271.862 56.7415C272.002 56.9552 271.943 57.2427 271.73 57.3837C271.651 57.4355 271.562 57.4603 271.475 57.4603Z" fill="url(#paint9_linear_9801_6784)"/>
<path d="M263.255 103.876C263.025 103.876 262.825 103.705 262.795 103.472L256.893 57.5737C256.861 57.3198 257.04 57.0875 257.294 57.0549C257.549 57.0208 257.781 57.2016 257.813 57.4556L263.715 103.353C263.748 103.607 263.568 103.84 263.314 103.872C263.294 103.875 263.274 103.876 263.255 103.876Z" fill="url(#paint10_linear_9801_6784)"/>
<path d="M266.92 103.876C266.901 103.876 266.881 103.875 266.861 103.872C266.607 103.84 266.427 103.607 266.46 103.353L272.362 57.4557C272.395 57.2017 272.627 57.0206 272.881 57.055C273.135 57.0876 273.314 57.3199 273.282 57.5738L267.38 103.472C267.35 103.706 267.15 103.876 266.92 103.876Z" fill="url(#paint11_linear_9801_6784)"/>
<defs>
<linearGradient id="paint0_linear_9801_6784" x1="264.251" y1="126.043" x2="264.855" y2="121.212" gradientUnits="userSpaceOnUse">
<stop stop-color="#26264F"/>
<stop offset="0.5" stop-color="#35396D"/>
<stop offset="1" stop-color="#444B8C"/>
</linearGradient>
<linearGradient id="paint1_linear_9801_6784" x1="261.769" y1="121.61" x2="267.808" y2="110.74" gradientUnits="userSpaceOnUse">
<stop stop-color="#26264F"/>
<stop offset="0.5" stop-color="#35396D"/>
<stop offset="1" stop-color="#444B8C"/>
</linearGradient>
<linearGradient id="paint2_linear_9801_6784" x1="254.943" y1="116.468" x2="274.985" y2="116.468" gradientUnits="userSpaceOnUse">
<stop stop-color="#26264F"/>
<stop offset="0.5" stop-color="#35396D"/>
<stop offset="1" stop-color="#444B8C"/>
</linearGradient>
<linearGradient id="paint3_linear_9801_6784" x1="262.345" y1="118.641" x2="268.308" y2="107.168" gradientUnits="userSpaceOnUse">
<stop stop-color="#26264F"/>
<stop offset="0.5" stop-color="#35396D"/>
<stop offset="1" stop-color="#444B8C"/>
</linearGradient>
<linearGradient id="paint4_linear_9801_6784" x1="254.056" y1="113.1" x2="275.884" y2="113.1" gradientUnits="userSpaceOnUse">
<stop stop-color="#26264F"/>
<stop offset="0.5" stop-color="#35396D"/>
<stop offset="1" stop-color="#444B8C"/>
</linearGradient>
<linearGradient id="paint5_linear_9801_6784" x1="253.746" y1="109.155" x2="276.23" y2="109.155" gradientUnits="userSpaceOnUse">
<stop stop-color="#26264F"/>
<stop offset="0.5" stop-color="#35396D"/>
<stop offset="1" stop-color="#444B8C"/>
</linearGradient>
<linearGradient id="paint6_linear_9801_6784" x1="264.428" y1="107.471" x2="266.643" y2="97.1046" gradientUnits="userSpaceOnUse">
<stop stop-color="#26264F"/>
<stop offset="0.5" stop-color="#35396D"/>
<stop offset="1" stop-color="#444B8C"/>
</linearGradient>
<linearGradient id="paint7_linear_9801_6784" x1="255.386" y1="36.8618" x2="304.101" y2="119.368" gradientUnits="userSpaceOnUse">
<stop stop-color="#B7E143"/>
<stop offset="0.06" stop-color="#B7E143"/>
<stop offset="0.32" stop-color="#B7E143"/>
<stop offset="0.64" stop-color="#B7E143"/>
<stop offset="0.87" stop-color="#8CB51D"/>
<stop offset="0.93" stop-color="#B7E143"/>
<stop offset="1" stop-color="#271051"/>
</linearGradient>
<linearGradient id="paint8_linear_9801_6784" x1="261.725" y1="33.8918" x2="252.969" y2="106.051" gradientUnits="userSpaceOnUse">
<stop stop-color="#B7E143"/>
<stop offset="0.06" stop-color="#B7E143"/>
<stop offset="0.32" stop-color="#B7E143"/>
<stop offset="0.64" stop-color="#B7E143"/>
<stop offset="0.87" stop-color="#B7E143"/>
<stop offset="0.93" stop-color="#B7E143"/>
<stop offset="1" stop-color="#75951E"/>
</linearGradient>
<linearGradient id="paint9_linear_9801_6784" x1="249.097" y1="102.064" x2="258.054" y2="75.8975" gradientUnits="userSpaceOnUse">
<stop offset="0.49" stop-color="#EBEFF2"/>
<stop offset="0.75" stop-color="#F5F7F9"/>
<stop offset="1" stop-color="white"/>
</linearGradient>
<linearGradient id="paint10_linear_9801_6784" x1="252.496" y1="103.204" x2="261.453" y2="77.0377" gradientUnits="userSpaceOnUse">
<stop offset="0.49" stop-color="#EBEFF2"/>
<stop offset="0.75" stop-color="#F5F7F9"/>
<stop offset="1" stop-color="white"/>
</linearGradient>
<linearGradient id="paint11_linear_9801_6784" x1="261.05" y1="106.13" x2="270.007" y2="79.9632" gradientUnits="userSpaceOnUse">
<stop offset="0.49" stop-color="#EBEFF2"/>
<stop offset="0.75" stop-color="#F5F7F9"/>
<stop offset="1" stop-color="white"/>
</linearGradient>
</defs>
</svg>
