<svg width="380" height="926" viewBox="0 0 380 926" fill="none" xmlns="http://www.w3.org/2000/svg">
<path d="M250.225 -1L222.182 41.0023C195.852 80.4377 201.839 133.119 236.345 165.642V165.642C263.512 191.247 273.603 230.155 262.306 265.737L229.422 369.304C225.948 380.244 220.617 390.505 213.662 399.636L171.291 455.263C151.107 481.762 145.443 516.571 156.184 548.102L157.805 552.861C169.408 586.922 198.415 612.123 233.763 618.852L290.342 629.622C324.825 636.187 353.342 660.351 365.476 693.29L386 749" stroke="#259F46" stroke-opacity="0.2"/>
<path d="M257 -24L163.11 49.6745C151.167 59.0464 136.746 64.7254 121.619 66.014L68.5984 70.5305C42.9612 72.7143 26.691 99.0094 36.1781 122.927V122.927C38.8991 129.786 39.5849 137.285 38.1534 144.524L6.11641 306.545C2.13541 326.678 4.44537 347.549 12.7328 366.324L62.2532 478.514C73.9644 505.046 73.5802 535.355 61.2002 561.582L40.1848 606.102C26.4639 635.17 33.1799 669.778 56.7769 691.603V691.603C83.304 716.139 88.1116 756.296 68.1258 786.4L11.6312 871.496C4.45176 882.311 3.69606 896.166 9.65681 907.697V907.697C14.4066 916.886 22.9022 923.567 32.9511 926.018L57.4796 932" stroke="#259F46" stroke-opacity="0.2"/>
<path d="M244 -1L124.936 85.014C110.887 95.1636 99.7167 108.79 92.5211 124.558L52.1625 212.996C48.0765 221.95 45.3347 231.457 44.0257 241.212L34.3266 313.486C31.8262 332.117 34.6282 351.076 42.4112 368.188L88.3935 469.286C98.1499 490.737 100.017 514.944 93.6667 537.638L92.1694 542.988C77.5938 595.072 107.07 649.306 158.703 665.405L183.731 673.208C220.549 684.688 247.484 716.316 252.954 754.493L264.799 837.168C267.226 854.106 265.266 871.383 259.106 887.347L244 926.5" stroke="#259F46" stroke-opacity="0.2"/>
<path d="M249.5 1L201.835 52.9427C183.069 73.393 176.662 102.313 185.037 128.776V128.776C192.268 151.628 209.66 169.852 232.149 178.143L265.479 190.43C290.751 199.747 311.196 218.865 322.186 243.456L352.119 310.435C354.369 315.47 356.199 320.682 357.59 326.018L377 400.5" stroke="#259F46" stroke-opacity="0.2"/>
</svg>
