<svg width="204" height="252" viewBox="0 0 204 252" fill="none" xmlns="http://www.w3.org/2000/svg">
<path d="M177.242 101.952C177.242 143.535 143.532 177.244 101.949 177.244C60.3662 177.244 26.6562 143.535 26.6562 101.952C26.6562 60.3692 60.3662 26.6602 101.949 26.6602C143.532 26.6602 177.242 60.3692 177.242 101.952Z" fill="#F1F5FF"/>
<path d="M0.753118 103.167C0.434118 75.5413 11.3231 47.8833 33.1401 27.6733C54.9571 7.46432 83.3661 -1.28168 110.888 1.14632L111.623 0.464319C109.707 0.284319 107.78 0.15032 105.841 0.0763188C78.6301 -0.963682 52.6431 8.65432 32.6661 27.1603C12.6881 45.6663 1.11112 70.8443 0.071119 98.0563C-0.00288232 99.9943 -0.0158828 101.925 0.0171181 103.85L0.753118 103.167Z" fill="white"/>
<path d="M189.349 50.829L189.893 50.324C186.198 44.055 181.804 38.136 176.74 32.67C169.537 24.893 161.319 18.397 152.369 13.293L151.799 13.82C160.675 18.834 168.937 25.276 176.227 33.145C181.333 38.658 185.702 44.595 189.349 50.829Z" fill="white"/>
<path d="M202.367 89.3381C206.252 120.599 195.575 153.235 170.753 176.23C129.796 214.17 65.6093 211.714 27.6693 170.756C20.3793 162.887 14.5873 154.159 10.2663 144.926L9.69727 145.454C14.1023 154.768 19.9513 163.458 27.1543 171.233C45.6603 191.213 70.8383 202.786 98.0503 203.825C125.262 204.867 151.252 195.25 171.229 176.743C191.207 158.238 202.781 133.059 203.821 105.847C204.043 100.062 203.778 94.3331 203.052 88.7031L202.367 89.3381Z" fill="white"/>
<path d="M28.3554 61.6115C31.4495 55.9675 35.2395 50.5935 39.7454 45.6185C70.1715 12.0215 121.812 8.81349 156.148 37.8895L156.6 37.3915C140.167 23.4585 119.387 16.3945 97.7645 17.4655C75.1974 18.5825 54.4165 28.4215 39.2495 45.1695C34.6595 50.2365 30.7545 55.7565 27.5645 61.6115H28.3554Z" fill="white"/>
<path d="M18.2065 97.1133H17.4915C17.3255 100.097 17.3115 103.107 17.4615 106.134C18.5315 127.756 27.6135 147.736 43.1025 162.711L43.5525 162.213C25.4275 144.666 16.8685 120.704 18.2065 97.1133Z" fill="white"/>
<path d="M176.344 61.6102C175.493 60.0442 174.591 58.5042 173.64 56.9922L173.148 57.5352C173.984 58.8742 174.774 60.2352 175.527 61.6102H176.344Z" fill="white"/>
<path d="M186.398 97.1133H185.682C186.937 118.797 179.849 140.95 164.152 158.284C138.431 186.684 97.554 193.363 64.783 177.19L64.291 177.733C77.114 184.13 91.426 187.165 106.131 186.437C128.698 185.32 149.48 175.481 164.649 158.735C179.815 141.988 187.553 120.335 186.436 97.7683C186.425 97.5493 186.41 97.3313 186.398 97.1133Z" fill="white"/>
<path d="M136.193 186.021C137.426 185.504 138.665 184.957 139.874 184.387L139.588 183.781C138.388 184.346 137.159 184.893 135.934 185.404L136.193 186.021Z" fill="white"/>
<path d="M28.5136 155.961L27.9766 156.36C28.7756 157.433 29.6086 158.5 30.4506 159.531L30.9706 159.108C30.1336 158.084 29.3066 157.024 28.5136 155.961Z" fill="white"/>
<path d="M24.0329 149.355L23.4629 149.708C24.1619 150.842 24.8949 151.979 25.6449 153.083L26.1989 152.707C25.4549 151.61 24.7269 150.482 24.0329 149.355Z" fill="white"/>
<path d="M14.3188 127.512L13.6758 127.699C14.0528 128.986 14.4618 130.277 14.8938 131.539L15.5278 131.324C15.0998 130.07 14.6928 128.786 14.3188 127.512Z" fill="white"/>
<path d="M39.1406 167.863L38.6836 168.351C39.6556 169.263 40.6626 170.169 41.6776 171.041L42.1136 170.535C41.1066 169.668 40.1066 168.769 39.1406 167.863Z" fill="white"/>
<path d="M20.1527 142.379L19.5527 142.678C20.1497 143.873 20.7817 145.072 21.4317 146.24L22.0167 145.915C21.3717 144.756 20.7447 143.566 20.1527 142.379Z" fill="white"/>
<path d="M16.9052 135.074L16.2812 135.319C16.7702 136.564 17.2932 137.814 17.8352 139.034L18.4472 138.762C17.9093 137.552 17.3902 136.31 16.9052 135.074Z" fill="white"/>
<path d="M128.63 188.791C129.905 188.388 131.188 187.951 132.442 187.491L132.211 186.863C130.967 187.318 129.692 187.754 128.428 188.152L128.63 188.791Z" fill="white"/>
<path d="M112.836 191.61L112.922 192.274C114.248 192.1 115.587 191.894 116.902 191.662L116.788 191.004C115.482 191.234 114.151 191.438 112.836 191.61Z" fill="white"/>
<path d="M120.709 190.223L120.854 190.877C122.159 190.587 123.476 190.265 124.765 189.919L124.593 189.273C123.312 189.615 122.005 189.936 120.709 190.223Z" fill="white"/>
<path d="M45.203 173.07L44.791 173.597C45.842 174.424 46.926 175.237 48.011 176.014L48.401 175.469C47.324 174.698 46.248 173.889 45.203 173.07Z" fill="white"/>
<path d="M51.7019 177.73L51.3359 178.291C52.4559 179.022 53.6079 179.737 54.7599 180.418L55.0999 179.84C53.9579 179.165 52.8149 178.456 51.7019 177.73Z" fill="white"/>
<path d="M68.3149 186.263C67.4739 185.936 66.6339 185.6 65.8089 185.25L65.5469 185.867C66.4909 186.268 67.4529 186.65 68.4129 187.02L68.3149 186.263Z" fill="white"/>
<path d="M58.5884 181.801L58.2734 182.392C59.4544 183.021 60.6644 183.633 61.8724 184.209L62.1594 183.605C60.9614 183.032 59.7604 182.425 58.5884 181.801Z" fill="white"/>
<path d="M33.5645 162.145L33.0645 162.591C33.9535 163.586 34.8775 164.577 35.8105 165.533L36.2905 165.065C35.3635 164.117 34.4475 163.133 33.5645 162.145Z" fill="white"/>
<path d="M31.1915 44.6359L30.6745 44.2109C29.8245 45.2449 28.9875 46.3119 28.1875 47.3789L28.7245 47.7809C29.5175 46.7209 30.3485 45.6629 31.1915 44.6359Z" fill="white"/>
<path d="M41.9316 32.7227C40.9176 33.5887 39.9086 34.4927 38.9316 35.4057L39.3886 35.8947C40.3586 34.9887 41.3596 34.0917 42.3656 33.2317L41.9316 32.7227Z" fill="white"/>
<path d="M36.0509 38.2188C35.1169 39.1718 34.1899 40.1588 33.2969 41.1558L33.7949 41.6028C34.6819 40.6147 35.6019 39.6337 36.5289 38.6877L36.0509 38.2188Z" fill="white"/>
<path d="M47.6959 28.1914C46.8019 28.8384 45.9119 29.5024 45.0449 30.1794L45.4569 30.7074C46.2229 30.1084 47.0069 29.5234 47.7949 28.9484L47.6959 28.1914Z" fill="white"/>
<path d="M85.2074 13.0077L85.0904 12.3477C83.9034 12.5577 82.7064 12.7987 81.5234 13.0567L81.6104 13.7237C82.8024 13.4627 84.0104 13.2197 85.2074 13.0077Z" fill="white"/>
<path d="M104.906 192.306L104.992 192.973C106.298 192.913 107.618 192.828 108.918 192.714L108.86 192.047C107.551 192.161 106.219 192.249 104.906 192.306Z" fill="white"/>
<path d="M25.8426 50.6523C25.0886 51.7563 24.3486 52.8933 23.6426 54.0293L24.2116 54.3823C24.9106 53.2553 25.6456 52.1273 26.3946 51.0303L25.8426 50.6523Z" fill="white"/>
<path d="M21.5932 57.5C20.9402 58.665 20.3022 59.862 19.6992 61.058L20.2972 61.36C20.8962 60.172 21.5292 58.984 22.1772 57.828L21.5932 57.5Z" fill="white"/>
<path d="M12.6791 79.9258C12.3541 81.2248 12.0541 82.5508 11.7871 83.8638L12.4441 83.9978C12.7091 82.6938 13.0061 81.3788 13.3291 80.0898L12.6791 79.9258Z" fill="white"/>
<path d="M17.9636 64.6992C17.4146 65.9202 16.8846 67.1702 16.3906 68.4132L17.0126 68.6612C17.5046 67.4272 18.0296 66.1852 18.5746 64.9742L17.9636 64.6992Z" fill="white"/>
<path d="M14.9831 72.1914C14.5451 73.4564 14.1261 74.7484 13.7441 76.0314L14.3861 76.2234C14.7661 74.9494 15.1801 73.6664 15.6161 72.4104L14.9831 72.1914Z" fill="white"/>
<path d="M188.317 128.058C188.702 126.773 189.062 125.463 189.388 124.166L188.737 124.004C188.414 125.291 188.055 126.591 187.674 127.868L188.317 128.058Z" fill="white"/>
<path d="M183.681 65.3222L184.293 65.0522C183.752 63.8312 183.176 62.6052 182.579 61.4062L181.98 61.7042C182.572 62.8932 183.144 64.1112 183.681 65.3222Z" fill="white"/>
<path d="M171.183 44.9626L171.703 44.5396C170.858 43.5036 169.98 42.4736 169.092 41.4766L168.592 41.9226C169.473 42.9116 170.345 43.9346 171.183 44.9626Z" fill="white"/>
<path d="M143.48 182.591C144.659 181.972 145.839 181.314 146.99 180.641L146.653 180.062C145.51 180.732 144.338 181.383 143.168 181.999L143.48 182.591Z" fill="white"/>
<path d="M175.946 51.3688L176.501 50.9938C175.753 49.8888 174.969 48.7858 174.174 47.7148L173.635 48.1148C174.425 49.1778 175.203 50.2718 175.946 51.3688Z" fill="white"/>
<path d="M101.316 11.5999L101.317 10.9299C99.9831 10.9269 98.6271 10.9549 97.2891 11.0119L97.3181 11.6809C98.6451 11.6249 99.9911 11.5979 101.316 11.5999Z" fill="white"/>
<path d="M89.1583 12.3974L89.3533 12.3714C90.6723 12.1994 92.0103 12.0544 93.3283 11.9404L93.2703 11.2734C91.9433 11.3884 90.5963 11.5344 89.2653 11.7074L89.0723 11.7324L89.1583 12.3974Z" fill="white"/>
<path d="M109.3 11.9693L109.361 11.3013C108.029 11.1803 106.677 11.0883 105.343 11.0273L105.311 11.6973C106.637 11.7583 107.979 11.8493 109.3 11.9693Z" fill="white"/>
<path d="M132.655 17.2978L132.889 16.6708C131.631 16.1998 130.35 15.7518 129.08 15.3398L128.873 15.9788C130.134 16.3868 131.406 16.8308 132.655 17.2978Z" fill="white"/>
<path d="M125.034 14.8273L125.212 14.1813C123.924 13.8263 122.606 13.4943 121.297 13.1953L121.148 13.8483C122.447 14.1443 123.755 14.4743 125.034 14.8273Z" fill="white"/>
<path d="M117.221 13.0439L117.341 12.3859C116.024 12.1459 114.686 11.9339 113.363 11.7539L113.273 12.4179C114.586 12.5959 115.914 12.8069 117.221 13.0439Z" fill="white"/>
<path d="M180.12 58.1671L180.704 57.8411C180.057 56.6741 179.375 55.5051 178.679 54.3711L178.107 54.7231C178.799 55.8491 179.476 57.0081 180.12 58.1671Z" fill="white"/>
<path d="M168.727 162.914C169.62 161.919 170.504 160.893 171.353 159.861L170.834 159.434C169.993 160.459 169.116 161.479 168.227 162.466L168.727 162.914Z" fill="white"/>
<path d="M173.843 156.695C174.644 155.628 175.436 154.527 176.191 153.423L175.639 153.043C174.888 154.14 174.103 155.233 173.307 156.293L173.843 156.695Z" fill="white"/>
<path d="M178.394 150.046C179.101 148.91 179.789 147.744 180.447 146.579L179.862 146.25C179.211 147.407 178.526 148.567 177.826 149.693L178.394 150.046Z" fill="white"/>
<path d="M150.414 178.532C151.533 177.808 152.653 177.051 153.742 176.277L153.354 175.73C152.272 176.5 151.161 177.253 150.051 177.97L150.414 178.532Z" fill="white"/>
<path d="M182.346 143.025C182.95 141.831 183.535 140.607 184.086 139.388L183.475 139.113C182.929 140.323 182.348 141.538 181.748 142.724L182.346 143.025Z" fill="white"/>
<path d="M156.967 173.878C158.018 173.059 159.067 172.203 160.085 171.334L159.65 170.824C158.64 171.688 157.598 172.536 156.555 173.35L156.967 173.878Z" fill="white"/>
<path d="M163.088 168.657C164.066 167.744 165.035 166.799 165.971 165.847L165.492 165.379C164.565 166.324 163.602 167.261 162.631 168.166L163.088 168.657Z" fill="white"/>
<path d="M190.385 88.2828L191.047 88.1808C190.844 86.8538 190.61 85.5188 190.352 84.2148L189.695 84.3448C189.951 85.6398 190.183 86.9648 190.385 88.2828Z" fill="white"/>
<path d="M185.661 135.676C186.158 134.433 186.633 133.161 187.073 131.896L186.44 131.676C186.003 132.931 185.531 134.194 185.039 135.427L185.661 135.676Z" fill="white"/>
<path d="M186.593 72.7675L187.228 72.5525C186.796 71.2875 186.33 70.0135 185.844 68.7695L185.221 69.0135C185.703 70.2485 186.165 71.5105 186.593 72.7675Z" fill="white"/>
<path d="M188.833 80.4406L189.483 80.2816C189.167 78.9856 188.816 77.6756 188.442 76.3906L187.799 76.5786C188.172 77.8536 188.519 79.1536 188.833 80.4406Z" fill="white"/>
<path d="M191.918 96.1878C191.833 94.8608 191.715 93.5108 191.569 92.1758L190.904 92.2488C191.048 93.5738 191.164 94.9148 191.25 96.2318L191.918 96.1878Z" fill="white"/>
<path d="M190.283 120.226C190.55 118.917 190.792 117.583 191 116.263L190.339 116.16C190.132 117.47 189.891 118.792 189.627 120.093L190.283 120.226Z" fill="white"/>
<path d="M191.54 112.273C191.69 110.946 191.812 109.596 191.903 108.262L191.234 108.215C191.144 109.54 191.024 110.88 190.875 112.199L191.54 112.273Z" fill="white"/>
<path d="M192.088 104.239C192.119 102.902 192.12 101.546 192.093 100.211L191.423 100.226C191.45 101.551 191.448 102.896 191.418 104.224L192.088 104.239Z" fill="white"/>
<path d="M127.485 150.247C124.186 144.613 114.94 143.395 119.822 139.827C119.684 139.927 121.69 138.166 122.177 137.615C122.383 137.383 122.532 137.224 122.654 137.098C122.724 136.964 122.809 136.807 122.932 136.59C123.138 136.23 123.92 134.231 123.678 135.067C123.884 134.416 124.08 133.762 124.211 133.089C124.27 132.75 124.315 132.51 124.346 132.354C124.381 131.966 124.423 131.579 124.448 131.19C124.505 130.142 124.554 129.096 124.566 128.044C124.593 125.737 124.574 123.429 124.57 121.122C124.564 118.073 125.571 115.68 127.149 113.928C124.297 112.088 121.204 111.844 120.089 113.425L119.692 113.988L117.952 116.454L117.85 116.6L116.548 115.681L118.273 113.238L120.023 110.755L121.434 108.755C122.604 107.096 121.155 104.059 118.206 101.979C115.253 99.8955 111.91 99.5515 110.739 101.21L109.329 103.212L107.577 105.693L105.853 108.137L104.552 107.219L112.423 96.0605L112.412 96.0515C112.475 95.9635 112.545 95.8875 112.608 95.7975L122.958 81.1255C124.851 78.4405 123.988 74.5765 121.039 72.4965C118.085 70.4125 114.157 70.8985 112.264 73.5825L101.915 88.2545C101.852 88.3445 101.8 88.4335 101.745 88.5285L101.729 88.5175L78.9438 120.82L72.9278 132.607L71.2388 99.9925C72.1518 96.1495 72.7208 92.4225 69.5428 90.1815C66.3708 87.9435 61.9758 88.6995 59.7348 91.8775L57.8728 119.192C57.8728 119.192 54.7238 126.651 56.9128 138.314L62.0398 148.63C62.2628 208.087 65.7038 187.717 62.2628 192.499L105.744 197.423C106.975 192.499 105.994 168.451 105.994 168.451C107.752 167.893 112.7 166.398 115.194 165.085C116.383 164.459 118.343 163.206 120.718 160.277C125.024 154.385 128.566 152.093 127.485 150.247Z" fill="#ECBCA9"/>
<path d="M142.372 63.0622C139.417 60.9792 135.489 61.4652 133.597 64.1482L123.247 78.8212C123.184 78.9112 123.134 79.0002 123.078 79.0942L123.061 79.0832L100.275 111.387L100.178 111.318C100.198 111.446 100.217 111.575 100.238 111.705C101.008 116.475 101.354 122.021 103.03 126.638C103.035 126.644 103.042 126.65 103.047 126.654C103.068 126.664 103.088 126.675 103.111 126.687C103.141 126.484 103.41 126.728 103.56 126.925C103.591 126.941 103.623 126.959 103.649 126.974C103.736 126.999 103.812 127.021 103.92 127.054C104.55 127.26 105.185 127.444 105.826 127.611C105.872 127.622 105.918 127.632 105.964 127.643C105.968 127.639 105.974 127.631 105.976 127.627C106.678 126.668 107.375 125.708 108.058 124.735C112.299 118.695 116.218 112.447 119.937 106.075C121.778 102.92 124.58 101.26 127.534 100.82C127.436 99.9692 127.43 99.0992 127.517 98.2342L127.186 98.7032L125.885 97.7842L129.113 93.2082C129.445 92.6322 129.821 92.0962 130.24 91.6102L133.756 86.6262L133.745 86.6182C133.808 86.5302 133.877 86.4542 133.94 86.3632L144.29 71.6912C146.184 69.0072 145.32 65.1432 142.372 63.0622Z" fill="#ECBCA9"/>
<path d="M132.806 150.877C132.806 152.774 131.225 154.327 129.29 154.327H74.6068C72.6748 154.327 71.0918 152.774 71.0918 150.877V41.075C71.0918 39.177 72.6748 37.625 74.6068 37.625H129.29C131.225 37.625 132.806 39.177 132.806 41.075V150.877Z" fill="#24500F"/>
<path d="M127.181 50.5117H125.702H122.877H119.663H116.982H116.799H113.204H104.166H101.032H97.8169H94.8079H90.2989H87.4999H78.6639H78.3449H75.5389H73.9279V62.9577L73.9219 62.9537V66.3067L73.9279 66.3097L73.9259 75.5597V86.7597H73.9219V89.5277H73.9259L73.9239 117.318H73.9219V119.835H73.9239V132.679H73.9219V136.033H73.9239L73.9219 144.396H74.1219H77.0169H83.4369H87.0919H87.4999H89.8659H90.2989H93.0749H93.4839H95.9239H104.474H104.614H107.664H115.243H118.359H119.045H122.769H129.976V136.727V131.597V130.378V128.827V125.811V124.497V121.083V89.5267V86.7587V79.4457V75.5597V58.9927V55.9077V50.5117H127.181Z" fill="white"/>
<path d="M116.279 178.75H46.3633V251.95H116.279V178.75Z" fill="#E1FAE7"/>
<path d="M102.9 188.297C104.656 188.394 106.168 187.054 106.265 185.295C106.364 183.534 105.019 182.031 103.263 181.935C101.51 181.832 99.9929 183.177 99.8959 184.935C99.7959 186.692 101.142 188.196 102.9 188.297Z" fill="#24500F"/>
<path d="M119.232 191.906H42.0742V251.952H119.232V191.906Z" fill="#24500F"/>
<path d="M92.3517 156.158C92.5667 155.283 92.7567 154.408 92.9057 153.539C92.7487 153.068 93.2297 143.753 82.3597 136.138C77.3287 132.614 71.3967 133.401 68.6797 133.65V156.158H92.3517Z" fill="#ECBCA9"/>
<path d="M140.321 124.291C141.022 126.933 139.522 129.621 136.974 130.297L125.263 133.4C122.716 134.075 120.083 132.482 119.383 129.842C118.683 127.201 120.18 124.512 122.728 123.837L134.439 120.733C136.986 120.059 139.622 121.651 140.321 124.291Z" fill="#ECBCA9"/>
<path d="M140.065 112.714C140.744 115.461 139.217 118.198 136.658 118.831L124.896 121.733C122.336 122.364 119.711 120.651 119.036 117.903C118.358 115.157 119.883 112.419 122.441 111.787L134.204 108.885C136.763 108.254 139.389 109.968 140.065 112.714Z" fill="#ECBCA9"/>
<path d="M139.05 97.2698C140.459 100.258 139.441 103.701 136.778 104.957L124.532 110.729C121.867 111.984 118.566 110.579 117.157 107.59C115.749 104.602 116.766 101.159 119.429 99.9028L131.675 94.1318C134.339 92.8758 137.642 94.2808 139.05 97.2698Z" fill="#ECBCA9"/>
<path d="M122.387 100.551C122.387 100.551 123.759 102.371 124.699 104.215C125.501 105.788 125.891 107.424 125.891 107.424L122.08 109.366C122.08 109.366 120.451 108.634 119.35 106.309C118.297 104.079 118.576 102.494 118.576 102.494L122.387 100.551Z" fill="#E1FAE7"/>
<path d="M63.5254 93.5766C63.5254 93.5766 62.2374 92.1346 59.7724 92.0276C59.7504 92.0266 59.7314 92.0286 59.7094 92.0276C59.6244 93.4986 59.2624 98.8116 59.1504 100.551C59.1754 100.552 59.2004 100.553 59.2254 100.553C61.2934 100.549 63.5384 99.9536 63.5384 99.9536L63.5254 93.5766Z" fill="#E1FAE7"/>
<path d="M125.561 112.535C125.561 112.535 126.548 114.459 127.091 116.336C127.555 117.938 127.588 119.536 127.588 119.536L123.308 120.775C123.308 120.775 121.824 119.836 121.222 117.48C120.65 115.222 121.282 113.774 121.282 113.774L125.561 112.535Z" fill="#E1FAE7"/>
<path d="M125.007 124.719C125.007 124.719 125.912 126.53 126.422 128.291C126.858 129.794 126.909 131.286 126.909 131.286L123.123 132.383C123.123 132.383 121.789 131.485 121.222 129.276C120.68 127.158 121.221 125.816 121.221 125.816L125.007 124.719Z" fill="#E1FAE7"/>
<path d="M186.023 91.6888C186.023 94.0895 184.077 96.036 181.675 96.036H87.6754C85.2746 96.036 83.3281 94.0895 83.3281 91.6888V46.1442C83.3281 43.7423 85.2746 41.7969 87.6754 41.7969H181.675C184.077 41.7969 186.023 43.7423 186.023 46.1442V91.6888Z" fill="#B7E143"/>
<path d="M107.335 73.0724C102.509 73.0724 98.5801 69.4112 98.5801 64.9114V58.3639C98.5801 53.8631 102.509 51.5312 107.335 51.5312C112.161 51.5312 116.088 53.8631 116.088 58.3639V64.9114C116.088 69.4112 112.161 73.0724 107.335 73.0724ZM107.335 54.1889C103.861 54.1889 101.033 55.582 101.033 58.7628V64.6462C101.033 67.827 103.861 70.4147 107.335 70.4147C110.808 70.4147 113.634 67.827 113.634 64.6462V58.7628C113.634 55.582 110.808 54.1889 107.335 54.1889Z" fill="#123544"/>
<path d="M118.771 63.8828H95.5456C95.4547 63.8828 95.367 63.8891 95.2793 63.8964V80.66H118.771V63.8828Z" fill="#F75F30"/>
<path d="M95.2793 81.7525H118.771V80.6602H95.2793V81.7525Z" fill="#123544"/>
<path d="M106.131 69.5959H107.917V67.9062H106.131V69.5959Z" fill="white"/>
<path d="M102.557 69.5959H104.347V67.9062H102.557V69.5959Z" fill="white"/>
<path d="M109.707 69.5959H111.495V67.9062H109.707V69.5959Z" fill="white"/>
<path d="M106.131 72.967H107.917V71.2773H106.131V72.967Z" fill="white"/>
<path d="M102.557 72.967H104.347V71.2773H102.557V72.967Z" fill="white"/>
<path d="M109.707 72.967H111.495V71.2773H109.707V72.967Z" fill="white"/>
<path d="M106.131 76.342H107.917V74.6523H106.131V76.342Z" fill="white"/>
<path d="M102.557 76.342H104.347V74.6523H102.557V76.342Z" fill="white"/>
<path d="M109.707 76.342H111.495V74.6523H109.707V76.342Z" fill="white"/>
<path d="M92.9395 107.849V94.3086H107.659L92.9395 107.849Z" fill="#B7E143"/>
<path d="M174.001 81.7508H126.957V68.9961H174.001V81.7508Z" fill="white"/>
<path d="M174.001 66.6101H126.957V53.8555H174.001V66.6101Z" fill="white"/>
<path d="M139.828 75.7198C139.828 76.478 139.213 77.092 138.456 77.092C137.698 77.092 137.084 76.478 137.084 75.7198C137.084 74.9617 137.698 74.3477 138.456 74.3477C139.213 74.3477 139.828 74.9617 139.828 75.7198Z" fill="#123544"/>
<path d="M144.795 75.7198C144.795 76.478 144.18 77.092 143.424 77.092C142.665 77.092 142.051 76.478 142.051 75.7198C142.051 74.9617 142.665 74.3477 143.424 74.3477C144.18 74.3477 144.795 74.9617 144.795 75.7198Z" fill="#123544"/>
<path d="M149.762 75.7198C149.762 76.478 149.148 77.092 148.391 77.092C147.633 77.092 147.018 76.478 147.018 75.7198C147.018 74.9617 147.633 74.3477 148.391 74.3477C149.148 74.3477 149.762 74.9617 149.762 75.7198Z" fill="#123544"/>
<path d="M154.727 75.7198C154.727 76.478 154.113 77.092 153.355 77.092C152.596 77.092 151.982 76.478 151.982 75.7198C151.982 74.9617 152.596 74.3477 153.355 74.3477C154.113 74.3477 154.727 74.9617 154.727 75.7198Z" fill="#123544"/>
<path d="M159.696 75.7198C159.696 76.478 159.081 77.092 158.324 77.092C157.566 77.092 156.951 76.478 156.951 75.7198C156.951 74.9617 157.566 74.3477 158.324 74.3477C159.081 74.3477 159.696 74.9617 159.696 75.7198Z" fill="#123544"/>
<path d="M164.662 75.7198C164.662 76.478 164.048 77.092 163.29 77.092C162.533 77.092 161.918 76.478 161.918 75.7198C161.918 74.9617 162.533 74.3477 163.29 74.3477C164.048 74.3477 164.662 74.9617 164.662 75.7198Z" fill="#123544"/>
</svg>
