<svg width="138" height="226" viewBox="0 0 138 226" fill="none" xmlns="http://www.w3.org/2000/svg">
<path d="M50.3864 159.638C47.0161 162.341 44.8471 163.475 44.8471 163.475H1C1 163.475 9.80946 149.36 11.7449 144.455C13.7137 139.55 15.4155 136.38 14.6814 134.911C13.9472 133.443 12.479 125.601 12.7126 121.697C12.9462 117.793 12.212 102.143 11.9785 100.408C11.7449 98.7057 10.577 93.4 11.6448 90.0297C12.7126 86.6594 15.0151 78.0835 15.549 75.0136C16.0829 71.9436 16.6501 67.9393 16.6501 65.8704C16.6501 63.8015 18.1851 61.399 18.8191 60.5314C19.4865 59.6638 21.7556 56.9609 22.1894 55.1923C22.2895 54.8586 22.4564 54.0244 22.7233 52.9566C23.691 48.7187 25.6265 40.3096 26.3272 39.5422C27.1948 38.5744 32.4338 40.2429 32.4338 43.0459V105.78C32.4338 110.387 36.1687 114.122 40.7761 114.122H79.818C79.818 114.122 74.7125 125.835 69.0731 135.512C63.4337 145.189 53.7567 156.935 50.3864 159.638Z" fill="#FBFBFF"/>
<path d="M44.8471 163.475C44.8471 163.475 47.0161 162.341 50.3864 159.638C53.7567 156.935 63.4337 145.189 69.0731 135.512C74.7125 125.835 79.818 114.122 79.818 114.122H40.7761C36.1687 114.122 32.4338 110.387 32.4338 105.78V43.0459C32.4338 40.2429 27.1948 38.5744 26.3272 39.5422C25.6265 40.3096 23.691 48.7187 22.7233 52.9566C22.4564 54.0244 22.2895 54.8586 22.1894 55.1923C21.7556 56.9609 19.4865 59.6638 18.8191 60.5314C18.1851 61.399 16.6501 63.8015 16.6501 65.8704C16.6501 67.9393 16.0829 71.9436 15.549 75.0136C15.0151 78.0835 12.7126 86.6594 11.6448 90.0297C10.577 93.4 11.7449 98.7057 11.9785 100.408C12.212 102.143 12.9462 117.793 12.7126 121.697C12.479 125.601 13.9472 133.443 14.6814 134.911C15.4155 136.379 13.7137 139.55 11.7449 144.455C9.80946 149.36 1 163.475 1 163.475" stroke="#24500F" stroke-width="0.667384" stroke-miterlimit="10" stroke-linecap="round"/>
<path d="M44.8477 114.391C44.8477 114.391 48.7519 126.17 45.9488 134.646" stroke="#24500F" stroke-width="0.333692" stroke-miterlimit="10" stroke-linecap="round"/>
<path d="M32.4335 79.7539C32.3223 81.8117 32.0999 89.431 31.2656 92.601" stroke="#24500F" stroke-width="0.333692" stroke-linecap="round"/>
<path d="M87.1585 8.34229C87.1585 3.91926 83.5729 0.333692 79.1499 0.333692H40.4416C36.0186 0.333692 32.433 3.91927 32.433 8.34229V106.114C32.433 110.537 36.0186 114.123 40.4416 114.123H79.1499C83.5729 114.123 87.1585 110.537 87.1585 106.114V8.34229Z" fill="#FBFBFF" stroke="#24500F" stroke-width="0.667384"/>
<path d="M34.9373 8.67442V105.445C34.9373 108.67 37.5518 111.285 40.7769 111.285H78.8178C82.0429 111.285 84.6574 108.67 84.6574 105.445V8.67443C84.6574 5.4493 82.0429 2.83481 78.8178 2.83481H74.4798C73.8348 2.83481 73.3119 3.35771 73.3119 4.00274V4.33643C73.3119 5.71862 72.1914 6.83912 70.8092 6.83912H48.7855C47.4033 6.83912 46.2828 5.71863 46.2828 4.33643V4.00274C46.2828 3.35771 45.7599 2.83481 45.1149 2.83481H40.7769C37.5518 2.83481 34.9373 5.4493 34.9373 8.67442Z" stroke="#24500F" stroke-width="0.333692"/>
<path d="M87.16 42.3789C87.16 42.3789 94.7014 42.3789 96.8036 43.5135C98.9393 44.648 100.241 45.6491 100.241 46.7836C100.241 47.9182 101.042 51.9892 92.3989 54.9257L89.7794 55.6598C89.7794 55.6598 92.6325 56.3606 93.8004 57.7955C94.9683 59.197 95.8359 60.0646 96.0028 62.2336C96.0028 63.8687 96.3698 71.043 95.8359 72.2443L97.0039 73.7459C98.105 75.2142 98.3386 78.7847 98.0049 80.5866C97.8514 81.431 97.2176 83.4338 96.5356 85.4251C96.5356 85.4251 97.3376 86.4262 98.105 87.6609C98.8725 88.8955 99.3731 90.8309 98.8392 92.9666C98.3053 95.1022 96.7035 98.3724 95.1018 100.675C93.4667 102.944 92.4657 103.878 91.3978 103.978C90.5302 104.079 87.9608 102.744 86.5593 101.409C85.4915 100.441 85.2579 99.6404 86.0254 97.705C86.3949 96.7887 86.7644 95.8331 87.16 94.9368V88.8057C86.1268 87.3833 85.8896 85.4031 86.3925 83.423C86.5518 82.799 86.8167 82.0167 87.16 81.2082V71.7438V64.0689V56.394V42.3789Z" fill="#FBFBFF"/>
<path d="M87.16 56.394L92.3989 54.9257C101.042 51.9892 100.241 47.9182 100.241 46.7836C100.241 45.6491 98.9393 44.648 96.8036 43.5135C94.7014 42.3789 87.16 42.3789 87.16 42.3789V56.394ZM87.16 56.394V64.0689V71.7438M89.7794 55.6598C89.7794 55.6598 92.6325 56.3606 93.8004 57.7955C94.9683 59.197 95.8359 60.0646 96.0028 62.2336C96.0028 63.8687 96.3698 71.043 95.8359 72.2443M95.8359 72.2443C95.302 73.4456 93.9005 74.1797 90.8306 73.5457C87.794 72.8783 87.16 71.7438 87.16 71.7438M95.8359 72.2443L97.0039 73.7459C98.105 75.2142 98.3386 78.7847 98.0049 80.5866C97.6712 82.4219 95.0685 89.7298 94.6347 90.4973C94.2009 91.2648 93.6002 92.2992 91.6648 91.8988C89.963 91.5317 88.6616 90.4973 87.3602 89.0624C87.2904 88.979 87.2237 88.8934 87.16 88.8057M87.16 71.7438V81.2082M90.1966 77.3832C89.696 77.2831 89.1621 77.817 89.1621 77.817C87.8607 79.2852 86.7929 81.8546 86.3925 83.423C85.8896 85.4031 86.1268 87.3833 87.16 88.8057M96.5356 85.4251C96.5356 85.4251 97.3376 86.4262 98.105 87.6609C98.8725 88.8955 99.3731 90.8309 98.8392 92.9666C98.3053 95.1022 96.7035 98.3724 95.1018 100.675C93.4667 102.944 92.4657 103.878 91.3978 103.978C90.5302 104.079 87.9608 102.744 86.5593 101.409C85.4915 100.441 85.2579 99.6404 86.0254 97.705C86.3949 96.7887 86.7644 95.8331 87.16 94.9368M88.8284 92.0322C88.1964 92.7758 87.6575 93.8094 87.16 94.9368M87.16 88.8057V94.9368" stroke="#24500F" stroke-width="0.667384" stroke-miterlimit="10"/>
<path d="M27.7949 39.4102C28.9629 39.7438 30.2643 40.9785 29.9639 43.7148C29.7637 45.5501 27.4946 51.957 26.9607 52.7245C26.4268 53.4919 24.9252 53.4586 24.2244 53.492L22.6895 53.4252" stroke="#24500F" stroke-width="0.333692" stroke-miterlimit="10"/>
<path d="M90.3963 102.078C91.0636 102.512 91.9646 102.278 92.365 101.577C92.9657 100.51 94.3338 98.6744 94.8677 97.6733C95.7687 95.9714 94.3004 94.7368 93.2326 94.1028C92.1648 93.4354 90.7967 93.8024 90.2294 94.2029C89.829 94.4698 88.2272 97.2061 87.4264 98.641C87.0593 99.3084 87.2929 100.109 87.9269 100.51L90.3963 102.078Z" stroke="#24500F" stroke-width="0.333692" stroke-miterlimit="10"/>
<path d="M90.5629 80.7207C90.5629 80.7207 88.8945 83.5905 88.8277 84.2245C88.761 84.8919 88.0603 86.26 91.0301 88.2288C91.7642 88.696 92.3315 89.063 92.7319 89.2966C93.1991 89.5636 93.8331 89.3967 94.0667 88.8962C94.634 87.6949 95.8353 84.6917 95.8353 84.6917C95.8353 84.6917 96.9365 81.8553 94.9009 80.4538C91.9645 78.4183 91.0301 79.5528 90.5629 80.7207Z" stroke="#24500F" stroke-width="0.333692" stroke-miterlimit="10"/>
<path d="M93.3653 62.5697C92.531 62.0024 90.5956 61.1682 90.2953 62.5697C89.995 63.9712 89.8281 65.4061 89.8281 65.7064C89.8281 66.0067 93.699 68.8765 94.3663 69.7107C94.6333 70.0444 94.8669 70.4115 95.0337 70.7452C95.1338 70.9454 95.4341 70.8786 95.4341 70.6451C95.4675 69.5105 95.5009 67.6085 95.4008 66.7075C95.2673 65.3727 94.9002 63.5708 93.3653 62.5697Z" stroke="#24500F" stroke-width="0.333692" stroke-miterlimit="10"/>
<path d="M32.1002 15.8504C32.008 15.8504 31.9333 15.9251 31.9333 16.0173V19.6879C31.9333 19.78 32.008 19.8547 32.1002 19.8547H32.6007V15.8504H32.1002Z" fill="#FBFBFF" stroke="#24500F" stroke-width="0.333692"/>
<path d="M32.1002 24.1942C32.008 24.1942 31.9333 24.2689 31.9333 24.361V31.7023C31.9333 31.7944 32.008 31.8691 32.1002 31.8691H32.6007V24.1942H32.1002Z" fill="#FBFBFF" stroke="#24500F" stroke-width="0.333692"/>
<path d="M87.4925 26.5301H86.9919V39.8778H87.4925C87.5846 39.8778 87.6593 39.8031 87.6593 39.711V26.697C87.6593 26.6048 87.5846 26.5301 87.4925 26.5301Z" fill="#FBFBFF" stroke="#24500F" stroke-width="0.333692"/>
<path d="M32.6007 41.9287V34.5379H32.1002C32.008 34.5379 31.9333 34.6126 31.9333 34.7048V41.0883C31.9333 41.1282 31.9476 41.1667 31.9735 41.1969L32.6007 41.9287Z" fill="#FBFBFF" stroke="#24500F" stroke-width="0.333692"/>
<rect x="56.2918" y="3.17075" width="7.00753" height="1.00108" rx="0.500538" stroke="#24500F" stroke-width="0.333692"/>
<circle cx="65.8021" cy="3.67129" r="0.500538" stroke="#24500F" stroke-width="0.333692"/>
<path d="M68.9648 82.3045C67.7462 80.5139 66.5275 75.0113 66.6115 73.1771C66.7796 71.7796 69.0489 71.1682 70.0154 70.9499C71.8644 70.6005 75.1002 70.5568 75.7306 71.9107C76.613 73.8759 77.0753 80.0772 76.445 82.2171C75.8146 84.4007 70.2255 84.1387 68.9648 82.3045Z" fill="#FBFBFF" stroke="#24500F" stroke-width="0.667384" stroke-miterlimit="10"/>
<path d="M63.2066 128.857C62.7023 126.324 61.3155 125.625 60.0969 125.625C59.2984 125.625 58.7941 125.8 58.458 125.974C58.1218 126.149 58.8782 137.547 59.0883 137.766C59.3124 138.013 60.3658 138.368 61.6097 137.984C62.24 137.722 63.2486 137.373 63.5007 136.499C63.7529 135.669 63.5848 130.604 63.2066 128.857Z" fill="#FBFBFF" stroke="#24500F" stroke-width="0.667384" stroke-miterlimit="10"/>
<path d="M94.7242 213.012C99.9771 217.991 104.474 222.27 107.205 225.24L137.546 193.666C136.271 190.417 135.841 178.339 135.548 170.089L135.529 169.559C135.445 167.113 135.361 164.973 135.277 163.488C134.898 155.977 132.965 143.138 131.831 141.303C130.696 133.879 129.099 131.215 128.217 129.774L128.091 129.599C124.687 123.878 119.261 124.228 119.261 124.228C119.211 123.974 119.162 123.724 119.114 123.481L119.113 123.477L119.098 123.398C118.845 122.132 118.593 120.909 118.383 120.035C117.627 116.891 115.021 114.882 110.861 114.183C107.793 113.659 105.25 113.965 105.25 113.965C104.992 112.705 104.681 111.682 104.305 111.083C103.087 109.117 100.607 107.807 97.5397 107.545C94.1779 107.24 92.2028 108.2 90.5639 110.035C89.9335 110.777 87.6643 116.367 87.2193 124.009C86.9398 122.73 86.6365 121.256 86.2775 119.468C85.8993 117.721 85.2269 114.183 84.7227 109.991C84.4285 107.676 83.9242 105.449 83.546 103.789C83.3779 103.003 83.2098 102.348 83.1678 101.955C82.1172 95.0115 78.9655 79.8138 77.8309 75.927C77.4526 74.5732 76.7383 73.7871 76.1079 73.3504C75.4776 72.9137 74.427 72.2586 71.2752 72.477C68.3336 72.6808 67.199 73.3504 66.5266 73.9181C65.8543 74.4859 65.1819 75.403 64.9297 76.4074C64.3834 78.5036 65.2239 86.0151 65.9383 92.6096C66.3585 96.3216 66.7367 99.8154 66.8208 101.737C66.9469 105.405 68.4597 118.376 69.5523 127.853C69.8339 130.267 70.0892 132.49 70.2892 134.272C69.9109 132.787 68.7538 129.643 67.7873 127.852C66.5266 125.538 62.7445 124.664 60.6014 124.927C59.7189 125.014 59.2146 125.32 59.0885 125.8C58.8784 126.586 59.0465 130.036 59.2986 134.796C59.4247 136.805 59.5087 138.508 59.5087 139.251C59.5087 140.648 58.5002 142.963 57.5757 144.972C57.1555 145.933 56.7772 146.806 56.4831 147.548C55.5165 150.081 56.7352 154.055 57.4496 155.191C57.7404 155.666 58.5653 158.19 59.315 160.484L59.3407 160.562C60.1391 162.921 60.9375 165.41 61.4418 166.545C62.4504 168.86 67.4511 183.097 67.4932 183.272C69.9305 189.473 83.6721 202.531 94.7242 213.012Z" fill="#FBFBFF"/>
<path d="M107.205 225.24C104.474 222.27 99.9771 217.991 94.7242 213.012C83.6721 202.531 69.9305 189.473 67.4932 183.272C67.4511 183.097 62.4504 168.86 61.4418 166.545C60.9375 165.41 60.1391 162.921 59.3407 160.562C58.5842 158.248 57.7438 155.671 57.4496 155.191C56.7352 154.055 55.5165 150.081 56.4831 147.548C56.7772 146.806 57.1555 145.933 57.5757 144.972C58.5002 142.963 59.5087 140.648 59.5087 139.251C59.5087 138.508 59.4247 136.805 59.2986 134.796C59.0465 130.036 58.8784 126.586 59.0885 125.8C59.2146 125.32 59.7189 125.014 60.6014 124.927C62.7445 124.664 66.5266 125.538 67.7873 127.852C68.7538 129.643 69.9109 132.787 70.2892 134.272M90.5639 120.996C91.3623 121.957 90.69 127.241 90.3117 130.123C90.1857 130.953 90.1016 131.652 90.0596 132.22C90.0176 132.656 89.9756 133.049 89.9335 133.399C88.6749 129.9 88.0524 127.821 87.2193 124.009M87.2193 124.009C86.9398 122.73 86.6365 121.256 86.2775 119.468C85.8993 117.721 85.2269 114.183 84.7227 109.991C84.4285 107.676 83.9242 105.449 83.546 103.789C83.3779 103.003 83.2098 102.348 83.1678 101.955C82.1172 95.0115 78.9655 79.8138 77.8309 75.927C77.4526 74.5732 76.7383 73.7871 76.1079 73.3504C75.4776 72.9137 74.427 72.2586 71.2752 72.477C68.3336 72.6808 67.199 73.3504 66.5266 73.9181C65.8543 74.4859 65.1819 75.403 64.9297 76.4074C64.3834 78.5036 65.2239 86.0151 65.9383 92.6096C66.3585 96.3216 66.7367 99.8154 66.8208 101.737C66.9469 105.405 68.4597 118.376 69.5523 127.853C70.0566 132.176 70.4768 135.888 70.6449 137.548C70.9391 140.648 70.6869 142.963 70.3928 145.19C70.2247 146.719 70.0145 148.203 70.0145 149.863C70.0145 154.012 71.0231 158.204 71.0651 158.379M87.2193 124.009C87.6643 116.367 89.9335 110.777 90.5639 110.035C92.2028 108.2 94.1779 107.24 97.5397 107.545C100.607 107.807 103.087 109.117 104.305 111.083C104.681 111.682 104.992 112.705 105.25 113.965M105.25 113.965C106.119 118.209 106.384 125.142 106.449 127.634C106.533 131.084 107.415 134.665 107.415 134.709M105.25 113.965C105.25 113.965 107.793 113.659 110.861 114.183C115.021 114.882 117.627 116.891 118.383 120.035C118.593 120.909 118.845 122.132 119.098 123.398L119.113 123.477C119.161 123.722 119.211 123.973 119.261 124.228M119.261 124.228C119.957 127.738 120.86 132.058 121.871 133.311C122.081 133.53 122.796 133.923 123.552 134.36C125.065 135.189 127.124 136.368 128.259 137.853M119.261 124.228C119.261 124.228 124.687 123.878 128.091 129.599L128.217 129.774C129.099 131.215 130.696 133.879 131.831 141.303C132.965 143.138 134.898 155.977 135.277 163.488C135.361 164.973 135.445 167.113 135.529 169.559L135.548 170.089C135.841 178.339 136.271 190.417 137.546 193.666" stroke="#24500F" stroke-width="0.667384" stroke-linecap="round"/>
<path d="M70.5605 88.0705C70.5605 88.0705 73.5442 87.3281 75.9815 87.3281" stroke="#24500F" stroke-width="0.333692" stroke-miterlimit="10" stroke-linecap="round"/>
<path d="M70.6445 89.817C70.6445 89.817 73.4181 90.1227 76.906 89.293" stroke="#24500F" stroke-width="0.333692" stroke-miterlimit="10" stroke-linecap="round"/>
<path d="M101.322 140.871C101.322 140.871 102.793 145.413 102.499 151.134" stroke="#24500F" stroke-width="0.333692" stroke-miterlimit="10" stroke-linecap="round"/>
<path d="M117.838 139.734C117.838 139.734 119.813 144.844 119.435 149.255" stroke="#24500F" stroke-width="0.333692" stroke-miterlimit="10" stroke-linecap="round"/>
<path d="M68.9629 82.3045C67.7442 80.5139 66.5255 75.0113 66.6096 73.1771C66.7777 71.7796 69.0469 71.1682 70.0135 70.9499C71.8625 70.6005 75.0983 70.5568 75.7286 71.9107C76.6111 73.8759 77.0734 80.0772 76.443 82.2171C75.8127 84.4007 70.2236 84.1387 68.9629 82.3045Z" fill="#FBFBFF" stroke="#24500F" stroke-width="0.333692" stroke-miterlimit="10"/>
<path d="M63.2066 128.857C62.7023 126.324 61.3155 125.625 60.0969 125.625C59.2984 125.625 58.7941 125.8 58.458 125.974C58.1218 126.149 58.8782 137.547 59.0883 137.766C59.3124 138.013 60.3658 138.368 61.6097 137.984C62.24 137.722 63.2486 137.373 63.5007 136.499C63.7529 135.669 63.5848 130.604 63.2066 128.857Z" fill="#FBFBFF" stroke="#24500F" stroke-width="0.333692" stroke-miterlimit="10"/>
</svg>
