<!-- This SVG was generated using https://composables.com -->
<svg id="vector" xmlns="http://www.w3.org/2000/svg" width="24" height="24" viewBox="0 0 24 24">
    <path fill="#D91D1D" d="M12,12m-12,0a12,12 0,1 1,24 0a12,12 0,1 1,-24 0" id="path_0"/>
    <path fill="#ffffff" d="M17.869,7.486L12.469,13.064C12.242,13.299 11.875,13.299 11.647,13.064L6.247,7.486C5.918,7.147 5.918,6.595 6.247,6.255C6.576,5.916 7.109,5.916 7.438,6.255L12.058,11.026L16.677,6.255C17.007,5.916 17.541,5.916 17.869,6.255C18.198,6.595 18.198,7.147 17.869,7.486Z" fill-rule="evenodd" id="path_1"/>
    <path fill="#ffffff" d="M6.247,16.514L11.647,10.936C11.874,10.701 12.241,10.701 12.469,10.936L17.87,16.514C18.198,16.853 18.198,17.405 17.87,17.745C17.541,18.084 17.007,18.084 16.678,17.745L12.058,12.974L7.439,17.745C7.109,18.084 6.576,18.084 6.247,17.745C5.918,17.405 5.918,16.853 6.247,16.514Z" fill-rule="evenodd" id="path_2"/>
</svg>