<svg width="40" height="40" viewBox="0 0 40 40" fill="none" xmlns="http://www.w3.org/2000/svg">
<path d="M13.75 30H26.25V32.5H13.75V30Z" fill="#24500F"/>
<path d="M16.25 35H23.75V37.5H16.25V35Z" fill="#24500F"/>
<path d="M13.5188 22.675C12.3481 21.7821 11.4149 20.6151 10.8013 19.2768C10.1877 17.9384 9.91252 16.4697 10 15C10.0033 12.3489 11.058 9.80723 12.9326 7.93259C14.8073 6.05794 17.3489 5.00331 20 5V2.5C16.6859 2.50364 13.5086 3.82177 11.1652 6.16518C8.82179 8.5086 7.50367 11.6859 7.50003 15C7.41528 16.816 7.76321 18.6261 8.51516 20.2813C9.2671 21.9364 10.4015 23.3892 11.825 24.52C13.09 25.6887 13.75 26.3512 13.75 27.5H16.25C16.25 25.2 14.8625 23.9175 13.5188 22.675Z" fill="#24500F"/>
<path d="M28.8 20C28.1629 21.0046 27.3783 21.9076 26.4725 22.6787C25.1337 23.9187 23.75 25.2 23.75 27.5H26.25C26.25 26.35 26.9075 25.6875 28.1688 24.5175C29.6418 23.2943 30.8137 21.7486 31.5938 20H28.8Z" fill="#24500F"/>
<path d="M37.5 10C37.5 8.51664 37.0601 7.0666 36.236 5.83323C35.4119 4.59986 34.2406 3.63856 32.8701 3.07091C31.4997 2.50325 29.9917 2.35472 28.5368 2.64411C27.082 2.9335 25.7456 3.64781 24.6967 4.6967C23.6478 5.7456 22.9335 7.08197 22.6441 8.53683C22.3547 9.99168 22.5032 11.4997 23.0709 12.8701C23.6386 14.2406 24.5999 15.4119 25.8332 16.236C27.0666 17.0601 28.5166 17.5 30 17.5C31.9884 17.4977 33.8947 16.7068 35.3007 15.3007C36.7068 13.8947 37.4977 11.9884 37.5 10ZM35 10C34.9953 10.8897 34.7505 11.7617 34.2913 12.5238L27.4763 5.70875C28.2384 5.2496 29.1103 5.00473 30 5C31.3256 5.00166 32.5964 5.52897 33.5337 6.4663C34.471 7.40362 34.9984 8.67443 35 10ZM25 10C25.0047 9.11028 25.2495 8.23833 25.7088 7.47625L32.5238 14.2913C31.7617 14.7504 30.8897 14.9953 30 15C28.6744 14.9983 27.4036 14.471 26.4663 13.5337C25.529 12.5964 25.0017 11.3256 25 10Z" fill="#24500F"/>
</svg>
