<svg width="44" height="42" viewBox="0 0 44 42" fill="none" xmlns="http://www.w3.org/2000/svg">
<path d="M27.9132 2.77313H22.4353V0H27.9132C28.0043 0 28.0488 0.111808 27.9828 0.174768L27.2421 0.886141C27.1083 1.01713 27.0316 1.1966 27.0316 1.38837C27.0316 1.57617 27.1083 1.75636 27.2421 1.88735L27.9828 2.59872C28.0488 2.66168 28.0043 2.77313 27.9132 2.77313Z" fill="#F7BE31"/>
<path d="M21.9489 7.53419H21.2366V0H21.9489V7.53419Z" fill="#1F2C9E"/>
<path d="M12.7349 37.65H3.18579V35.8441C3.18579 35.2391 3.67182 34.7488 4.27119 34.7488H11.6495C12.2488 34.7488 12.7349 35.2391 12.7349 35.8441V37.65Z" fill="#F7BE31"/>
<path d="M3.75171 18.3328H12.1695V19.9256C12.1695 20.4589 11.7405 20.891 11.2125 20.891H4.70834C4.17963 20.891 3.75171 20.4589 3.75171 19.9256V18.3328Z" fill="#F7BE31"/>
<path d="M10.1541 35.7113H5.76733V20.4468H10.1541V35.7113Z" fill="#F7BE31"/>
<path d="M10.1541 35.7109H5.76733V34.7354H10.1541V35.7109Z" fill="#1F2C9E"/>
<path d="M26.3423 37.65H16.7932V35.8441C16.7932 35.2391 17.2789 34.7488 17.8786 34.7488H25.2569C25.8563 34.7488 26.3423 35.2391 26.3423 35.8441V37.65Z" fill="#F7BE31"/>
<path d="M17.3586 18.3328H25.7764V19.9256C25.7764 20.4589 25.3478 20.891 24.8194 20.891H18.3153C17.7866 20.891 17.3586 20.4589 17.3586 19.9256V18.3328Z" fill="#F7BE31"/>
<path d="M23.7611 35.7113H19.3743V20.4468H23.7611V35.7113Z" fill="#F7BE31"/>
<path d="M23.7611 35.7109H19.3743V34.7354H23.7611V35.7109Z" fill="#1F2C9E"/>
<path d="M39.949 37.65H30.3999V35.8441C30.3999 35.2391 30.8856 34.7488 31.4853 34.7488H38.8636C39.4633 34.7488 39.949 35.2391 39.949 35.8441V37.65Z" fill="#F7BE31"/>
<path d="M30.9658 18.3328H39.3836V19.9256C39.3836 20.4589 38.955 20.891 38.4266 20.891H31.9225C31.3937 20.891 30.9658 20.4589 30.9658 19.9256V18.3328Z" fill="#F7BE31"/>
<path d="M37.3685 35.7113H32.981V20.4468H37.3685V35.7113Z" fill="#F7BE31"/>
<path d="M37.3685 35.7109H32.981V34.7354H37.3685V35.7109Z" fill="#1F2C9E"/>
<path d="M14.5062 42H0V38.9934C0 37.9741 0.819251 37.1477 1.82968 37.1477H14.5062V42Z" fill="#1F2C9E"/>
<path d="M28.6292 42H43.1346V38.9934C43.1346 37.9741 42.3157 37.1477 41.3053 37.1477H28.6292V42Z" fill="#1F2C9E"/>
<path d="M30.5664 38.1464H12.7939V37.1477H30.5664V38.1464Z" fill="#1F2C9E"/>
<path d="M30.5664 40.0717H12.7939V39.073H30.5664V40.0717Z" fill="#1F2C9E"/>
<path d="M30.5664 41.9994H12.7939V41.0007H30.5664V41.9994Z" fill="#1F2C9E"/>
<path d="M21.565 6.85962L4.99487 16.3694H38.1394L21.565 6.85962ZM21.5693 9.95587L27.3478 13.2732H15.7904L21.5693 9.95587Z" fill="#F7BE31"/>
<path d="M41.7891 18.7175H1.34595V17.8331C1.34595 16.6673 2.28285 15.7222 3.43855 15.7222H39.6969C40.8526 15.7222 41.7891 16.6673 41.7891 17.8331V18.7175Z" fill="#1F2C9E"/>
</svg>
