<svg id="vector" xmlns="http://www.w3.org/2000/svg" width="48" height="48" viewBox="0 0 48 48"><path fill="#000000" d="M24,32C28.418,32 32,28.418 32,24C32,19.582 28.418,16 24,16C19.582,16 16,19.582 16,24C16,28.418 19.582,32 24,32Z" id="path_0"/><path fill="#000000" d="M26,8.138V4H22V8.138C18.481,8.587 15.21,10.192 12.701,12.701C10.192,15.21 8.587,18.481 8.138,22H4V26H8.138C8.587,29.52 10.191,32.791 12.7,35.3C15.209,37.808 18.48,39.413 22,39.862V44H26V39.862C29.52,39.414 32.791,37.809 35.3,35.3C37.809,32.791 39.414,29.52 39.862,26H44V22H39.862C39.413,18.48 37.808,15.209 35.3,12.7C32.791,10.191 29.52,8.587 26,8.138ZM24,36C17.382,36 12,30.618 12,24C12,17.382 17.382,12 24,12C30.618,12 36,17.382 36,24C36,30.618 30.618,36 24,36Z" id="path_1"/></svg>