<svg id="vector" xmlns="http://www.w3.org/2000/svg" width="24" height="24" viewBox="0 0 20 20"><path fill="#00000000" d="M16.6666,5.8334H3.3333C2.4128,5.8334 1.6666,6.5796 1.6666,7.5V15.8334C1.6666,16.7538 2.4128,17.5 3.3333,17.5H16.6666C17.5871,17.5 18.3333,16.7538 18.3333,15.8334V7.5C18.3333,6.5796 17.5871,5.8334 16.6666,5.8334Z" stroke-linejoin="round" stroke-width="2" stroke="#259F46" stroke-linecap="round" id="path_0"/><path fill="#00000000" d="M13.3333,17.5V4.1667C13.3333,3.7246 13.1577,3.3007 12.8451,2.9882C12.5326,2.6756 12.1087,2.5 11.6666,2.5H8.3333C7.8913,2.5 7.4673,2.6756 7.1548,2.9882C6.8422,3.3007 6.6666,3.7246 6.6666,4.1667V17.5" stroke-linejoin="round" stroke-width="2" stroke="#259F46" stroke-linecap="round" id="path_1"/></svg>