<svg id="vector" xmlns="http://www.w3.org/2000/svg" width="24" height="24" viewBox="0 0 8 9">
    <defs>
        <clipPath id="clip_path_0">
            <path d="M0,0.5h8v8h-8z" />
        </clipPath>
    </defs>
    <g id="g_0">
        <path fill="#00000000" stroke-width="0.5"
            d="M6.6667,3.5H3.6667C3.2985,3.5 3,3.7985 3,4.1667V7.1667C3,7.5349 3.2985,7.8333 3.6667,7.8333H6.6667C7.0349,7.8333 7.3333,7.5349 7.3333,7.1667V4.1667C7.3333,3.7985 7.0349,3.5 6.6667,3.5Z"
            stroke-linejoin="round" stroke="#000000" stroke-linecap="round"
            clip-path="url(#clip_path_0)" />
        <path fill="#00000000" stroke-width="0.5"
            d="M1.666,5.5H1.3327C0.9645,5.5 0.666,5.2016 0.666,4.8334V1.8333C0.666,1.4652 0.9645,1.1667 1.3327,1.1667H4.3327C4.7009,1.1667 4.9994,1.4652 4.9994,1.8333V2.1667"
            stroke-linejoin="round" stroke="#000000" stroke-linecap="round" />
    </g>
</svg>