<svg width="51" height="32" viewBox="0 0 51 32" fill="none" xmlns="http://www.w3.org/2000/svg">
<path d="M50.4716 6.32056L48.1546 30.187C48.0851 30.9029 47.4475 31.4277 46.7316 31.3582L1.65768 26.9823C0.941814 26.9128 0.417014 26.2752 0.486512 25.5593L2.80352 1.69284C2.87302 0.976979 3.51067 0.452179 4.22653 0.521676L49.3005 4.89755C50.0163 4.96704 50.5411 5.6047 50.4716 6.32056Z" fill="#002A6F"/>
<path d="M50.1462 5.92481L47.8292 29.7913C47.7597 30.5072 47.122 31.032 46.4062 30.9625L1.33224 26.5866C0.616375 26.5171 0.0915745 25.8794 0.161072 25.1636L2.47808 1.29709C2.54758 0.581227 3.18523 0.0564267 3.9011 0.125924L48.975 4.50179C49.6909 4.57129 50.2157 5.20895 50.1462 5.92481Z" fill="#2161CA"/>
<g style="mix-blend-mode:luminosity">
<path style="mix-blend-mode:luminosity" d="M50.1865 5.51263L49.2867 14.7807C49.2439 15.2217 48.3373 15.495 47.2635 15.3908L3.48669 11.1408C2.41289 11.0366 1.57581 10.5939 1.61862 10.153L2.51838 0.88491C2.56119 0.443957 3.46779 0.170577 4.54158 0.274824L48.3184 4.52477C49.3922 4.62902 50.2293 5.07168 50.1865 5.51263Z" fill="url(#paint0_linear_11668_66430)"/>
</g>
<path d="M41.222 6.10271C42.5026 6.22703 43.4414 7.36772 43.3171 8.64832C43.1927 9.92892 42.052 10.8677 40.7714 10.7434C39.4908 10.6191 38.552 9.4784 38.6763 8.19779C38.8007 6.91719 39.9414 5.97838 41.222 6.10271Z" fill="#FF1E36"/>
<path d="M44.825 6.45232C46.1056 6.57664 47.0444 7.71733 46.9201 8.99793C46.7958 10.2785 45.6551 11.2173 44.3745 11.093C43.0939 10.9687 42.1551 9.82801 42.2794 8.5474C42.4037 7.2668 43.5444 6.32799 44.825 6.45232Z" fill="#FFB85B"/>
<path d="M12.8182 13.2672L12.559 15.9371C12.4837 16.7126 11.7929 17.2811 11.0174 17.2058L5.81822 16.7011C5.0427 16.6258 4.47417 15.935 4.54946 15.1595L4.80865 12.4897C4.88394 11.7141 5.57473 11.1456 6.35025 11.2209L11.5494 11.7256C12.3249 11.8009 12.8935 12.4917 12.8182 13.2672Z" fill="url(#paint1_linear_11668_66430)"/>
<g opacity="0.75">
<path d="M4.90799 12.4697L12.7504 13.1705L4.90799 12.4697Z" fill="#247B60"/>
</g>
<g opacity="0.75">
<path d="M4.67483 14.8713L12.5173 15.5721L4.67483 14.8713Z" fill="#247B60"/>
</g>
<g opacity="0.75">
<path d="M4.79129 13.6731L12.6337 14.3738L4.79129 13.6731Z" fill="#247B60"/>
<path d="M10.0367 13.293L9.88601 14.8453C9.86831 15.0276 9.70595 15.1612 9.52367 15.1435L7.64108 14.9607C7.4588 14.943 7.32517 14.7807 7.34287 14.5984L7.49357 13.0461C7.51127 12.8638 7.67363 12.7302 7.85591 12.7479L9.7385 12.9306C9.92078 12.9483 10.0544 13.1107 10.0367 13.293Z" fill="#F7F241"/>
</g>
<path d="M5.2377 19.2316L4.94788 19.6757C4.91303 19.7287 4.88376 19.7804 4.86139 19.8297L4.85479 19.8291C4.84632 19.7852 4.82857 19.7308 4.8028 19.6652L4.60897 19.1706L4.00786 19.1122L4.4598 20.0077L3.8104 20.7903L4.4061 20.8481L4.69559 20.4137C4.72888 20.3642 4.75648 20.3172 4.77718 20.2725L4.78379 20.2732C4.80446 20.3413 4.82352 20.3946 4.83984 20.4326L5.03843 20.9095L5.63653 20.9676L5.16885 20.0469L5.80277 19.2865L5.2377 19.2316ZM7.09506 19.4119L6.80464 19.8559C6.76979 19.9089 6.74112 19.9607 6.71875 20.01L6.71215 20.0094C6.70308 19.9655 6.68533 19.911 6.66017 19.8455L6.46573 19.3508L5.86522 19.2925L6.31656 20.188L5.66716 20.9706L6.26346 21.0284L6.55235 20.594C6.58624 20.5445 6.61324 20.4975 6.63395 20.4528L6.64055 20.4534C6.66182 20.5216 6.68028 20.5749 6.6966 20.6128L6.89579 21.0898L7.4933 21.1478L7.02561 20.2271L7.65953 19.4667L7.09506 19.4119ZM8.95182 19.5922L8.662 20.0362C8.62655 20.0892 8.59789 20.1409 8.57552 20.1903L8.56891 20.1897C8.55984 20.1457 8.54269 20.0913 8.51693 20.0258L8.32309 19.5311L7.72199 19.4728L8.17393 20.3683L7.52452 21.1509L8.12022 21.2087L8.40971 20.7743C8.44301 20.7248 8.47001 20.6777 8.49131 20.6331L8.49791 20.6338C8.51858 20.7018 8.53705 20.7551 8.55337 20.7931L8.75255 21.2701L9.35006 21.3281L8.88238 20.4074L9.5169 19.647L8.95182 19.5922ZM10.8086 19.7724L10.5188 20.2165C10.4839 20.2695 10.4546 20.3212 10.4323 20.3706L10.4257 20.3699C10.4166 20.326 10.3995 20.2716 10.3737 20.2061L10.1799 19.7114L9.57875 19.653L10.0307 20.5486L9.38128 21.3311L9.97698 21.389L10.2665 20.9546C10.2998 20.9051 10.3274 20.858 10.3481 20.8134L10.3547 20.814C10.3753 20.8821 10.3944 20.9355 10.4101 20.9734L10.6093 21.4504L11.2068 21.5084L10.7397 20.5877L11.3737 19.8273L10.8086 19.7724ZM13.5937 20.0428L13.3033 20.4868C13.2685 20.5398 13.2398 20.5916 13.2174 20.6409L13.2108 20.6403C13.2017 20.5964 13.184 20.5419 13.1588 20.4764L12.9644 19.9817L12.3639 19.9234L12.8152 20.8189L12.1658 21.6015L12.7621 21.6594L13.051 21.2249C13.0849 21.1754 13.1119 21.1284 13.1326 21.0837L13.1392 21.0843C13.1605 21.1525 13.179 21.2058 13.1953 21.2437L13.3945 21.7207L13.992 21.7787L13.5243 20.858L14.1582 20.0976L13.5937 20.0428ZM15.4505 20.2231L15.1607 20.6671C15.1252 20.7201 15.0966 20.7719 15.0742 20.8212L15.0676 20.8206C15.0585 20.7766 15.0414 20.7222 15.0156 20.6567L14.8218 20.162L14.2207 20.1037L14.6726 20.9992L14.0232 21.7818L14.6189 21.8396L14.9084 21.4052C14.9417 21.3557 14.9687 21.3086 14.99 21.264L14.9966 21.2647C15.0172 21.3327 15.0357 21.3861 15.052 21.424L15.2512 21.901L15.8487 21.959L15.381 21.0383L16.0156 20.2779L15.4505 20.2231ZM17.3072 20.4033L17.0174 20.8474C16.9826 20.9004 16.9533 20.9521 16.9309 21.0015L16.9243 21.0008C16.9153 20.9569 16.8981 20.9025 16.8724 20.837L16.6785 20.3423L16.0774 20.2839L16.5294 21.1795L15.88 21.962L16.4757 22.0199L16.7651 21.5855C16.7984 21.536 16.826 21.4889 16.8467 21.4443L16.8533 21.4449C16.874 21.513 16.8931 21.5664 16.9088 21.6043L17.108 22.0813L17.7055 22.1393L17.2384 21.2186L17.8723 20.4582L17.3072 20.4033ZM19.1646 20.5837L18.8742 21.0277C18.8393 21.0807 18.8107 21.1324 18.7883 21.1818L18.7817 21.1811C18.7726 21.1372 18.7549 21.0828 18.7297 21.0173L18.5353 20.5226L17.9348 20.4643L18.3861 21.3597L17.7367 22.1423L18.333 22.2002L18.6219 21.7657C18.6558 21.7163 18.6828 21.6692 18.7035 21.6245L18.7101 21.6252C18.7314 21.6933 18.7498 21.7466 18.7662 21.7846L18.9647 22.2615L19.5628 22.3196L19.0952 21.3989L19.7291 20.6385L19.1646 20.5837ZM21.9492 20.854L21.6593 21.2981C21.6239 21.351 21.5952 21.4028 21.5728 21.4521L21.5662 21.4515C21.5572 21.4076 21.54 21.3531 21.5143 21.2876L21.3204 20.7929L20.7193 20.7346L21.1713 21.6301L20.5219 22.4127L21.1176 22.4705L21.407 22.0361C21.4403 21.9866 21.4673 21.9395 21.4886 21.8949L21.4952 21.8956C21.5159 21.9636 21.5344 22.017 21.5507 22.0549L21.7499 22.5319L22.3474 22.5899L21.8797 21.6692L22.5142 20.9088L21.9492 20.854ZM23.8059 21.0342L23.5161 21.4783C23.4812 21.5313 23.452 21.583 23.4296 21.6324L23.423 21.6317C23.4139 21.5878 23.3968 21.5334 23.371 21.4679L23.1772 20.9732L22.5761 20.9149L23.028 21.8104L22.3786 22.5929L22.9743 22.6508L23.2638 22.2164C23.2971 22.1669 23.3247 22.1198 23.3454 22.0752L23.352 22.0758C23.3727 22.1439 23.3917 22.1973 23.4075 22.2352L23.6066 22.7122L24.2042 22.7702L23.7371 21.8495L24.371 21.0891L23.8059 21.0342ZM25.6633 21.2146L25.3729 21.6586C25.338 21.7116 25.3093 21.7633 25.287 21.8127L25.2804 21.812C25.2713 21.7681 25.2535 21.7137 25.2284 21.6482L25.0339 21.1535L24.4334 21.0952L24.8848 21.9906L24.2354 22.7732L24.8317 22.8311L25.1206 22.3966C25.1545 22.3472 25.1815 22.3001 25.2022 22.2554L25.2088 22.2561C25.23 22.3242 25.2485 22.3775 25.2648 22.4155L25.4634 22.8924L26.0615 22.9505L25.5938 22.0298L26.2278 21.2694L25.6633 21.2146ZM27.52 21.3948L27.2302 21.8389C27.1948 21.8918 27.1661 21.9436 27.1437 21.9929L27.1371 21.9923C27.1281 21.9484 27.1109 21.894 27.0851 21.8284L26.8913 21.3338L26.2902 21.2754L26.7421 22.171L26.0921 22.9535L26.6884 23.0113L26.9773 22.5769C27.0112 22.5274 27.0382 22.4804 27.0595 22.4358L27.0661 22.4364C27.0868 22.5045 27.1053 22.5578 27.1216 22.5957L27.3208 23.0727L27.9183 23.1307L27.4506 22.21L28.0851 21.4497L27.52 21.3948ZM30.3046 21.6652L30.0148 22.1092C29.9799 22.1622 29.9506 22.2139 29.9283 22.2633L29.9217 22.2626C29.9126 22.2187 29.8955 22.1643 29.8697 22.0988L29.6759 21.6041L29.0747 21.5458L29.5267 22.4413L28.8773 23.2238L29.473 23.2817L29.7625 22.8473C29.7958 22.7978 29.8234 22.7507 29.8441 22.7061L29.8507 22.7067C29.8713 22.7748 29.8904 22.8282 29.9061 22.8661L30.1053 23.3431L30.7028 23.4011L30.2357 22.4804L30.8697 21.72L30.3046 21.6652ZM32.1619 21.8455L31.8715 22.2895C31.8367 22.3425 31.808 22.3942 31.7856 22.4436L31.779 22.4429C31.77 22.399 31.7522 22.3446 31.7271 22.2791L31.5326 21.7844L30.9321 21.7261L31.3834 22.6216L30.734 23.4041L31.3303 23.462L31.6192 23.0275C31.6531 22.9781 31.6801 22.931 31.7008 22.8863L31.7074 22.887C31.7287 22.9551 31.7472 23.0084 31.7635 23.0464L31.9621 23.5233L32.5602 23.5814L32.0925 22.6607L32.7264 21.9003L32.1619 21.8455ZM34.0187 22.0257L33.7289 22.4698C33.6934 22.5227 33.6648 22.5745 33.6424 22.6238L33.6358 22.6232C33.6267 22.5793 33.6096 22.5249 33.5838 22.4593L33.39 21.9647L32.7889 21.9063L33.2408 22.8019L32.5908 23.5844L33.1871 23.6423L33.476 23.2078C33.5099 23.1583 33.5369 23.1113 33.5582 23.0667L33.5648 23.0673C33.5855 23.1354 33.6039 23.1887 33.6202 23.2266L33.8194 23.7036L34.4169 23.7616L33.9493 22.8409L34.5838 22.0806L34.0187 22.0257ZM35.8755 22.206L35.5856 22.65C35.5508 22.703 35.5215 22.7548 35.4992 22.8041L35.4926 22.8035C35.4835 22.7595 35.4663 22.7051 35.4406 22.6396L35.2467 22.1449L34.6456 22.0866L35.0976 22.9821L34.4482 23.7647L35.0439 23.8225L35.3334 23.3881C35.3667 23.3386 35.3943 23.2916 35.415 23.2469L35.4216 23.2476C35.4422 23.3156 35.4613 23.369 35.477 23.4069L35.6762 23.8839L36.2737 23.9419L35.8066 23.0213L36.4405 22.2608L35.8755 22.206Z" fill="white"/>
<path d="M40.5298 21.8089L40.25 24.6914L31.1279 23.8058L31.4077 20.9233L40.5298 21.8089Z" fill="#2162CB"/>
<path d="M6.2634 6.2377C6.64292 6.27454 6.95738 6.19475 7.20686 5.99772C7.45687 5.80135 7.59941 5.51938 7.63503 5.15247C7.70931 4.38743 7.32789 3.96427 6.49199 3.88312L5.65729 3.80208L5.4287 6.15667L6.2634 6.2377ZM6.40563 4.31057C6.63983 4.3333 6.81555 4.41522 6.93278 4.55632C7.04995 4.69802 7.09767 4.88087 7.07592 5.10486C7.05284 5.34266 6.96919 5.52366 6.82487 5.64907C6.68056 5.77448 6.4937 5.82604 6.26371 5.80372L6.00129 5.77824L6.14622 4.28538L6.40563 4.31057ZM9.36231 6.10453L8.48077 6.01895L8.53307 5.4803L9.30291 5.55504L9.34471 5.12448L8.57486 5.04974L8.6257 4.5261L9.4532 4.60643L9.49511 4.17467L8.13677 4.0428L7.90818 6.39738L9.32057 6.5345L9.36231 6.10453ZM10.6026 6.65896C10.8699 6.68491 11.0868 6.64232 11.2534 6.53059C11.42 6.41947 11.5141 6.25584 11.535 6.04026C11.5493 5.89254 11.5111 5.76214 11.4208 5.64971C11.3311 5.53675 11.2032 5.4619 11.0376 5.42522L11.0383 5.41861C11.1752 5.39432 11.2916 5.33833 11.3866 5.25179C11.4818 5.16465 11.5358 5.05775 11.5481 4.93104C11.5651 4.7557 11.5074 4.6131 11.3757 4.50332C11.2439 4.39294 11.0468 4.32531 10.7838 4.29978L9.92688 4.21659L9.69829 6.57117L10.6026 6.65896ZM10.6179 4.67829C10.8762 4.70336 10.9969 4.80236 10.9801 4.97531C10.971 5.06839 10.9328 5.13802 10.8645 5.18534C10.7963 5.23206 10.7073 5.25009 10.598 5.23948L10.365 5.21686L10.4192 4.65899L10.6179 4.67829ZM10.6174 5.63961C10.7399 5.6515 10.8328 5.68719 10.896 5.74789C10.9593 5.80798 10.9863 5.88516 10.9772 5.97944C10.9676 6.07792 10.9252 6.15201 10.85 6.20229C10.7749 6.25258 10.676 6.27147 10.5535 6.25958L10.2665 6.23171L10.3267 5.61139L10.6174 5.63961ZM11.8857 4.40675L11.8459 4.8169L12.0429 4.83602L11.894 6.36971L11.697 6.35059L11.6571 6.76134L12.5813 6.85106L12.6212 6.44031L12.4242 6.42119L12.5731 4.8875L12.7701 4.90662L12.8099 4.49648L11.8857 4.40675ZM14.8018 4.68985L12.93 4.50814L12.8881 4.9399L13.5564 5.00478L13.3698 6.9276L13.9018 6.97925L14.0885 5.05644L14.7599 5.12161L14.8018 4.68985ZM17.5606 6.76102C17.3791 6.84524 17.1851 6.87671 16.9779 6.8566C16.7611 6.83556 16.5953 6.75157 16.4805 6.60404C16.3657 6.4565 16.3191 6.26891 16.3412 6.04072C16.3643 5.80352 16.4504 5.62155 16.5996 5.49601C16.7488 5.36987 16.9339 5.31752 17.1555 5.33904C17.3567 5.35857 17.5316 5.42344 17.6798 5.53299L17.7294 5.02196C17.5777 4.94904 17.3866 4.90078 17.1566 4.87846C16.7861 4.84249 16.4727 4.93026 16.2169 5.14184C15.9617 5.35407 15.8156 5.64782 15.7791 6.02434C15.7447 6.37803 15.8212 6.67096 16.0071 6.90359C16.1936 7.13628 16.4674 7.26955 16.8283 7.30458C17.1058 7.33152 17.3338 7.31183 17.5136 7.24563L17.5606 6.76102ZM19.3776 5.13408L18.7489 5.07305L17.6634 7.34443L18.2381 7.40023L18.4546 6.89268L19.2924 6.974L19.4085 7.51385L19.9867 7.56999L19.3776 5.13408ZM18.6077 6.49655L18.941 5.72332C18.9698 5.65762 18.9902 5.5905 19.0023 5.52197L19.0149 5.52319C19.0148 5.60622 19.0212 5.67776 19.034 5.73902L19.21 6.55503L18.6077 6.49655ZM21.8786 7.05112C21.8588 7.01221 21.8371 6.97313 21.8132 6.93262C21.7886 6.89205 21.7626 6.85376 21.7352 6.81836C21.7077 6.78236 21.6787 6.75044 21.6487 6.72268C21.618 6.69485 21.5855 6.67411 21.5518 6.65932L21.5524 6.65271C21.6345 6.63765 21.7102 6.61288 21.779 6.57894C21.8484 6.54446 21.9083 6.50178 21.96 6.45042C22.0117 6.39907 22.0532 6.34005 22.0851 6.27284C22.1171 6.20563 22.1371 6.13119 22.1451 6.04892C22.1865 5.62196 21.9214 5.38104 21.3497 5.32554L20.509 5.24392L20.2804 7.5985L20.8106 7.64998L20.8981 6.74862L21.0411 6.76249C21.0741 6.7657 21.1041 6.77528 21.1304 6.79177C21.1572 6.80832 21.1817 6.8307 21.2051 6.85843C21.2284 6.88676 21.2506 6.92044 21.2723 6.95891C21.2941 6.99739 21.3165 7.04079 21.3397 7.08971L21.6465 7.73113L22.2561 7.7903L21.8786 7.05112ZM21.2408 5.71625C21.487 5.74015 21.6002 5.85479 21.5802 6.06076C21.5706 6.15924 21.5278 6.23813 21.451 6.29857C21.3756 6.35732 21.2811 6.38149 21.167 6.37041L20.937 6.34808L21.0006 5.69293L21.2408 5.71625ZM23.3099 7.89261C23.6901 7.92952 24.0045 7.84972 24.254 7.65269C24.5034 7.45626 24.646 7.17429 24.6816 6.80738C24.7558 6.04234 24.375 5.61924 23.5385 5.53803L22.7044 5.45706L22.4758 7.81164L23.3099 7.89261ZM23.4522 5.96548C23.6864 5.98822 23.8621 6.07014 23.9793 6.21124C24.0965 6.35294 24.1442 6.53578 24.1225 6.75977C24.0994 6.99757 24.0157 7.17857 23.872 7.30404C23.7277 7.42945 23.5402 7.48096 23.3108 7.45869L23.0478 7.43315L23.1928 5.9403L23.4522 5.96548Z" fill="white"/>
<defs>
<linearGradient id="paint0_linear_11668_66430" x1="34.8227" y1="15.8515" x2="38.7981" y2="2.49764" gradientUnits="userSpaceOnUse">
<stop offset="0.01" stop-color="#2162CB"/>
<stop offset="0.23" stop-color="#2162CB"/>
<stop offset="0.44" stop-color="#2162CB"/>
<stop offset="0.58" stop-color="#1153BE"/>
<stop offset="0.72" stop-color="#0144B1"/>
<stop offset="0.85" stop-color="#013D9E"/>
<stop offset="0.99" stop-color="#00358B"/>
</linearGradient>
<linearGradient id="paint1_linear_11668_66430" x1="8.68382" y1="14.2134" x2="15.7097" y2="14.8955" gradientUnits="userSpaceOnUse">
<stop offset="0.01" stop-color="#F4ED0A"/>
<stop offset="0.12" stop-color="#F6F138"/>
<stop offset="0.23" stop-color="#F9F565"/>
<stop offset="0.35" stop-color="#FCF97D"/>
<stop offset="0.47" stop-color="#FFFC95"/>
<stop offset="0.74" stop-color="#F9F550"/>
<stop offset="1" stop-color="#F3ED0A"/>
</linearGradient>
</defs>
</svg>
