<svg width="26" height="26" viewBox="0 0 26 26" fill="none" xmlns="http://www.w3.org/2000/svg">
<path d="M0.5 4.25C0.5 3.25544 0.895088 2.30161 1.59835 1.59835C2.30161 0.895088 3.25544 0.5 4.25 0.5H16.75C17.7446 0.5 18.6984 0.895088 19.4017 1.59835C20.1049 2.30161 20.5 3.25544 20.5 4.25V5.5H21.75C22.7446 5.5 23.6984 5.89509 24.4017 6.59835C25.1049 7.30161 25.5 8.25544 25.5 9.25V16.75C25.5 17.7446 25.1049 18.6984 24.4017 19.4017C23.6984 20.1049 22.7446 20.5 21.75 20.5H20.5V24.25C20.4999 24.4972 20.4266 24.7388 20.2893 24.9443C20.1519 25.1498 19.9567 25.31 19.7283 25.4046C19.4999 25.4992 19.2487 25.5239 19.0062 25.4757C18.7638 25.4275 18.5411 25.3085 18.3662 25.1338L13.7325 20.5H6.75C6.41848 20.5 6.10054 20.3683 5.86612 20.1339C5.6317 19.8995 5.5 19.5815 5.5 19.25V15.5H4.25C3.25544 15.5 2.30161 15.1049 1.59835 14.4017C0.895088 13.6984 0.5 12.7446 0.5 11.75V4.25ZM20.5 8V11.75C20.5 12.7446 20.1049 13.6984 19.4017 14.4017C18.6984 15.1049 17.7446 15.5 16.75 15.5H12.2675L9.7675 18H14.25C14.5815 18.0001 14.8994 18.1318 15.1337 18.3662L18 21.2325V19.25C18 18.9185 18.1317 18.6005 18.3661 18.3661C18.6005 18.1317 18.9185 18 19.25 18H21.75C22.0815 18 22.3995 17.8683 22.6339 17.6339C22.8683 17.3995 23 17.0815 23 16.75V9.25C23 8.91848 22.8683 8.60054 22.6339 8.36612C22.3995 8.1317 22.0815 8 21.75 8H20.5ZM8 16.2325L10.8663 13.3663C11.1006 13.1318 11.4185 13.0001 11.75 13H16.75C17.0815 13 17.3995 12.8683 17.6339 12.6339C17.8683 12.3995 18 12.0815 18 11.75V4.25C18 3.91848 17.8683 3.60054 17.6339 3.36612C17.3995 3.1317 17.0815 3 16.75 3H4.25C3.91848 3 3.60054 3.1317 3.36612 3.36612C3.1317 3.60054 3 3.91848 3 4.25V11.75C3 12.0815 3.1317 12.3995 3.36612 12.6339C3.60054 12.8683 3.91848 13 4.25 13H6.75C7.08152 13 7.39946 13.1317 7.63388 13.3661C7.8683 13.6005 8 13.9185 8 14.25V16.2325Z" fill="#C4C4C4"/>
</svg>
