<svg width="46" height="43" viewBox="0 0 46 43" fill="none" xmlns="http://www.w3.org/2000/svg">
<path d="M2.86722 34.1957C12.1531 47.1174 40.7282 35.8641 40.7153 32.3897C40.7101 30.9715 35.943 31.2144 34.446 27.8231C32.0474 22.3892 41.9473 16.4648 40.5218 11.1604C38.7159 4.43995 18.4497 -2.33307 7.13517 8.05485C-0.136608 14.7311 -2.21545 27.1229 2.86722 34.1957Z" fill="#F4F7FA"/>
<path d="M36.8875 25.1492C37.9455 24.9832 38.6576 23.9199 38.4779 22.7742C38.2982 21.6286 37.2948 20.8343 36.2367 21.0003C36.1819 21.0089 36.1286 21.0214 36.0757 21.0346C35.8846 20.4669 35.6555 19.9211 35.3905 19.4008C35.4348 19.3687 35.4788 19.3358 35.5211 19.2991C36.3476 18.5825 36.4625 17.2646 35.7778 16.3554C35.0932 15.4461 33.8682 15.29 33.0417 16.0065C32.9985 16.044 32.9584 16.084 32.9191 16.1246C32.4967 15.734 32.0478 15.3787 31.5762 15.0616C31.5996 15.0085 31.6223 14.9547 31.6418 14.8986C32.0152 13.8234 31.5023 12.6039 30.4961 12.1748C29.49 11.7457 28.3716 12.2694 27.9981 13.3446C27.979 13.3997 27.9638 13.4553 27.9492 13.5111C27.4125 13.3966 26.8643 13.3272 26.3086 13.3039C26.304 13.2451 26.2985 13.1861 26.2892 13.1268C26.1095 11.9811 26.0044 10.6637 24.9491 10.8462C22.5077 11.2684 22.2779 12.5821 22.4575 13.7278C22.4669 13.7871 22.4797 13.8449 22.4933 13.9023C21.9714 14.0947 21.4709 14.3286 20.9949 14.6019C20.964 14.5533 20.9324 14.505 20.8973 14.4584C20.2127 13.5492 20.1259 12.8523 19.2268 13.4753C17.2662 14.8339 17.2198 16.1441 17.9044 17.0533C17.9402 17.1009 17.9783 17.1451 18.0169 17.1885C17.665 17.6347 17.3464 18.1104 17.0639 18.6116C17.0141 18.585 16.9637 18.5591 16.9111 18.5367C15.9049 18.1076 14.7865 18.6313 14.4131 19.7065C14.0397 20.7817 14.5527 22.0011 15.5588 22.4302C15.6104 22.4522 15.6623 22.4701 15.7143 22.4871C15.6214 23.0635 15.5703 23.6533 15.5622 24.2523C15.5079 24.2558 15.4533 24.2603 15.3985 24.2689C14.3404 24.4348 13.6283 25.4981 13.808 26.6438C13.9877 27.7895 14.9912 28.5837 16.0492 28.4178C16.104 28.4092 16.1573 28.3967 16.2102 28.3834C16.4013 28.9512 16.6305 29.497 16.8955 30.0172C16.8512 30.0494 16.8072 30.0823 16.7648 30.1189C15.9384 30.8356 15.8234 32.1535 16.5081 33.0627C17.1928 33.9719 18.4178 34.1281 19.2442 33.4115C19.2874 33.374 19.3275 33.3341 19.3668 33.2934C19.7892 33.6841 20.2381 34.0394 20.7097 34.3564C20.6863 34.4096 20.6636 34.4633 20.6441 34.5195C20.2707 35.5947 20.7836 36.8141 21.7898 37.2432C22.796 37.6723 24.566 36.9311 24.9394 35.856C24.9586 35.8009 24.3222 35.9628 24.3367 35.907C24.8735 36.0215 25.4216 36.0908 25.9774 36.1142C25.9819 36.173 25.9874 36.232 25.9968 36.2913C26.1765 37.437 27.1799 38.2312 28.238 38.0652C29.296 37.8993 30.0081 36.836 29.8284 35.6903C29.8191 35.6309 29.8062 35.5731 29.7926 35.5157C30.3145 35.3234 30.8151 35.0895 31.291 34.8162C31.3219 34.8648 31.3535 34.913 31.3886 34.9597C32.0733 35.8688 33.2983 36.025 34.1247 35.3084C34.9512 34.5919 35.0662 33.2739 34.3815 32.3647C34.3457 32.3172 34.3076 32.273 34.2691 32.2296C34.6209 31.7834 34.9395 31.3077 35.222 30.8065C35.2719 30.8331 35.3223 30.8589 35.3749 30.8813C36.381 31.3104 37.4994 30.7868 37.8728 29.7115C38.2462 28.6364 37.7333 27.4169 36.7271 26.9878C36.6756 26.9658 36.6236 26.948 36.5716 26.9309C36.6646 26.3546 36.7156 25.7648 36.7237 25.1658C36.7781 25.1622 36.8327 25.1578 36.8875 25.1492ZM27.3243 32.2408C23.4827 32.8434 19.8395 29.9598 19.1871 25.8001C18.5346 21.6404 21.1199 17.7798 24.9616 17.1772C28.8032 16.5746 32.4464 19.4582 33.0989 23.618C33.7513 27.7777 31.166 31.6383 27.3243 32.2408Z" fill="white"/>
<path d="M35.5212 19.299C36.3477 18.5824 36.4626 17.2645 35.778 16.3552C35.0933 15.446 33.8682 15.2898 33.0418 16.0064C32.9986 16.0439 32.9585 16.0839 32.9192 16.1245C32.4968 15.7339 32.0479 15.3786 31.5763 15.0615C31.5997 15.0084 31.6224 14.9546 31.6419 14.8984C32.0153 13.8233 32.0266 11.8689 30.9817 11.5452C28.9986 10.931 28.3717 12.2694 27.9982 13.3445C27.9791 13.3996 27.9638 13.4552 27.9493 13.5109C27.4125 13.3965 26.8644 13.3271 26.3086 13.3038C26.3041 13.245 26.2986 13.186 26.2893 13.1267C26.1915 12.5031 25.8487 11.9853 25.3869 11.6682C25.5847 13.48 25.7961 15.2901 26.0256 17.0979C29.4548 17.1219 32.5071 19.8448 33.099 23.6179C33.6005 26.8152 32.1879 29.8339 29.7634 31.3342C29.8532 31.6751 29.9458 32.0162 30.0264 32.3599C30.2452 33.2925 30.4126 34.2398 30.579 35.1864C30.8219 35.0723 31.0595 34.949 31.2911 34.816C31.322 34.8647 31.3536 34.9129 31.3887 34.9595C32.0734 35.8687 33.1995 36.2481 34.739 35.0072C35.5907 34.3208 35.0663 33.2738 34.3816 32.3646C34.3458 32.3171 34.3077 32.2729 34.2692 32.2295C34.621 31.7832 34.9396 31.3075 35.2221 30.8064C35.272 30.833 35.3224 30.8588 35.375 30.8812C36.3811 31.3104 38.2019 30.4866 38.5753 29.4114C38.9488 28.3362 37.7334 27.4168 36.7272 26.9877C36.6757 26.9657 36.6237 26.9479 36.5717 26.9308C36.6647 26.3544 36.7157 25.7647 36.7238 25.1657C36.7782 25.1622 36.8328 25.1577 36.8876 25.1491C37.9457 24.9831 38.6577 23.9198 38.478 22.7741C38.2983 21.6285 37.2948 20.8342 36.2368 21.0002C36.182 21.0088 36.1287 21.0212 36.0758 21.0345C35.8847 20.4668 35.6555 19.9209 35.3906 19.4008C35.4349 19.3686 35.4789 19.3357 35.5212 19.299Z" fill="white"/>
<path d="M37.7885 24.6434C38.8465 24.4774 39.5586 23.4141 39.3789 22.2684C39.1992 21.1228 38.1957 20.3285 37.1377 20.4945C37.0828 20.5031 37.0296 20.5155 36.9767 20.5288C36.7856 19.9611 36.5564 19.4152 36.2914 18.895C36.3357 18.8629 36.3797 18.83 36.4221 18.7933C37.2485 18.0767 37.3635 16.7588 36.6788 15.8495C35.9942 14.9403 34.7691 14.7841 33.9427 15.5007C33.8995 15.5382 33.8594 15.5782 33.8201 15.6188C33.3977 15.2282 32.9488 14.8729 32.4771 14.5558C32.5006 14.5027 32.5233 14.4489 32.5428 14.3927C32.9162 13.3176 32.4033 12.0981 31.3971 11.669C30.3909 11.2399 29.2725 11.7637 28.8991 12.8388C28.88 12.8939 28.8647 12.9495 28.8502 13.0052C28.3134 12.8908 27.7653 12.8214 27.2095 12.7981C27.2049 12.7393 27.1995 12.6803 27.1902 12.621C27.0105 11.4753 26.007 10.6811 24.949 10.847C23.8909 11.013 23.1788 12.0763 23.3585 13.222C23.3678 13.2813 23.3807 13.3391 23.3943 13.3965C22.8724 13.5889 22.3718 13.8228 21.8959 14.0961C21.865 14.0474 21.8334 13.9992 21.7983 13.9526C21.1137 13.0434 19.8886 12.8872 19.0622 13.6038C18.2357 14.3204 18.1208 15.6384 18.8054 16.5475C18.8412 16.5951 18.8793 16.6393 18.9179 16.6826C18.566 17.1289 18.2474 17.6046 17.9649 18.1058C17.9151 18.0792 17.8646 18.0534 17.812 18.0309C16.8058 17.6018 15.6875 18.1255 15.3141 19.2007C14.9407 20.2759 15.4536 21.4953 16.4598 21.9244C16.5113 21.9464 16.5633 21.9643 16.6153 21.9813C16.5223 22.5577 16.4713 23.1475 16.4632 23.7464C16.4088 23.75 16.3543 23.7545 16.2995 23.7631C15.2414 23.929 14.5293 24.9923 14.709 26.138C14.8887 27.2837 15.8921 28.0779 16.9502 27.912C17.005 27.9034 17.0583 27.8909 17.1112 27.8776C17.3023 28.4454 17.5315 28.9912 17.7964 29.5114C17.7522 29.5436 17.7082 29.5765 17.6658 29.6132C16.8393 30.3298 16.7244 31.6477 17.4091 32.5569C18.0937 33.4661 19.3188 33.6223 20.1452 32.9057C20.1884 32.8682 20.2285 32.8282 20.2678 32.7876C20.6902 33.1782 21.1391 33.5335 21.6107 33.8506C21.5873 33.9037 21.5646 33.9575 21.5451 34.0137C21.1717 35.0889 21.6846 36.3083 22.6908 36.7374C23.697 37.1665 24.8153 36.6428 25.1887 35.5677C25.2079 35.5125 25.2231 35.4569 25.2377 35.4012C25.7744 35.5156 26.3226 35.585 26.8784 35.6084C26.8829 35.6672 26.8884 35.7261 26.8977 35.7855C27.0774 36.9312 28.0809 37.7254 29.1389 37.5594C30.197 37.3934 30.9091 36.3302 30.7294 35.1845C30.7201 35.1251 30.7072 35.0673 30.6936 35.0099C31.2155 34.8176 31.7161 34.5837 32.192 34.3104C32.2229 34.359 32.2545 34.4073 32.2896 34.4539C32.9742 35.363 34.1993 35.5192 35.0257 34.8026C35.8522 34.0861 35.9672 32.7681 35.2825 31.8589C35.2467 31.8114 35.2086 31.7672 35.17 31.7238C35.5219 31.2775 35.8405 30.8018 36.123 30.3007C36.1728 30.3273 36.2233 30.3531 36.2758 30.3755C37.282 30.8046 38.4004 30.2809 38.7738 29.2058C39.1472 28.1306 38.6343 26.9111 37.6281 26.482C37.5766 26.46 37.5246 26.4422 37.4726 26.4251C37.5656 25.8488 37.6166 25.259 37.6247 24.66C37.6791 24.6565 37.7336 24.652 37.7885 24.6434ZM28.2253 31.735C24.3837 32.3376 20.7405 29.454 20.0881 25.2943C19.4356 21.1346 22.0209 17.274 25.8625 16.6714C29.7042 16.0688 33.3474 18.9524 33.9998 23.1122C34.6523 27.2719 32.067 31.1324 28.2253 31.735Z" fill="#D8DEE8"/>
<path d="M4.39142 9.23024C3.62963 7.7511 4.31042 5.8834 5.912 5.05853C7.51359 4.23368 9.42945 4.76408 10.1912 6.24317C10.953 7.72229 10.2722 9.59002 8.67066 10.4149C7.06908 11.2397 5.1532 10.7093 4.39142 9.23024Z" fill="white"/>
<path d="M8.99815 12.2087C9.20797 12.6161 9.73566 12.7622 10.1768 12.535C10.6179 12.3078 10.8054 11.7934 10.5956 11.386C10.5847 11.3649 10.5725 11.345 10.56 11.3253C10.7648 11.1712 10.9557 11.0047 11.1313 10.8271C11.1503 10.8407 11.1696 10.8542 11.1902 10.8664C11.5924 11.1056 12.1432 10.9749 12.4203 10.5745C12.6974 10.1741 12.5959 9.6555 12.1937 9.41631C12.1726 9.4038 12.151 9.3929 12.1292 9.3824C12.231 9.15828 12.3149 8.92816 12.3802 8.69394C12.4049 8.69631 12.4298 8.6983 12.4553 8.69865C12.9422 8.7056 13.3684 8.33313 13.4072 7.86675C13.4461 7.40037 13.0829 7.01664 12.596 7.00969C12.571 7.00935 12.5464 7.01062 12.5218 7.01222C12.496 6.77883 12.4504 6.54686 12.3851 6.31801C12.4083 6.30823 12.4316 6.29807 12.4544 6.2863C12.8955 6.05912 13.083 5.54469 12.8732 5.13732C12.6634 4.72994 12.1357 4.58387 11.6946 4.81105C11.6718 4.8228 11.65 4.83581 11.6285 4.84907C11.4802 4.66299 11.3178 4.49116 11.1428 4.33466C11.1583 4.31558 11.1737 4.29625 11.1879 4.27574C11.465 3.87532 11.3635 3.35676 10.9613 3.11754C10.559 2.87833 10.0083 3.00903 9.73117 3.40947C9.71671 3.43039 9.70386 3.45181 9.69143 3.47333C9.46283 3.39048 9.22675 3.32513 8.9852 3.27784C8.98931 3.25402 8.99299 3.23006 8.99505 3.20568C9.0339 2.73927 8.67067 2.35556 8.18373 2.34863C7.6968 2.34169 7.2706 2.71414 7.23175 3.18052C7.22974 3.20442 7.22949 3.22792 7.22957 3.25134C6.98297 3.29116 6.7366 3.34982 6.49221 3.42715C6.48346 3.40553 6.47431 3.38399 6.46344 3.36287C6.25362 2.9555 5.72593 2.80942 5.28484 3.03661C4.84372 3.26378 4.65621 3.7782 4.86603 4.18557C4.87689 4.20668 4.88913 4.22665 4.90163 4.24634C4.69676 4.40039 4.50594 4.56691 4.33035 4.74454C4.3113 4.73089 4.29201 4.71743 4.27142 4.70519C3.86914 4.46598 3.31844 4.59668 3.04132 4.99711C2.7642 5.39755 2.86567 5.91609 3.26793 6.15528C3.28896 6.16778 3.31058 6.17872 3.33237 6.1892C3.23058 6.41333 3.1467 6.64344 3.08141 6.87767C3.05668 6.87529 3.03178 6.87332 3.00633 6.87296C2.51943 6.866 2.09319 7.23847 2.05435 7.70486C2.01548 8.17124 2.37872 8.55497 2.86564 8.56193C2.89059 8.56226 2.91523 8.56099 2.93982 8.55938C2.96559 8.79278 3.01122 9.02476 3.07652 9.25359C3.05325 9.26338 3.03005 9.27354 3.00719 9.28531C2.56609 9.5125 2.37857 10.0269 2.58838 10.4343C2.7982 10.8417 3.32587 10.9878 3.76698 10.7606C3.78982 10.7488 3.81157 10.7358 3.83305 10.7225C3.98141 10.9086 4.14379 11.0804 4.31884 11.2369C4.30324 11.2561 4.28792 11.2754 4.27372 11.2959C3.99661 11.6963 4.09806 12.2148 4.50031 12.4541C4.90258 12.6933 5.45333 12.5626 5.73041 12.1621C5.7449 12.1412 5.75773 12.1198 5.77016 12.0983C5.99877 12.1811 6.23484 12.2465 6.4764 12.2938C6.47229 12.3176 6.46861 12.3416 6.46657 12.3659C6.42771 12.8323 6.79092 13.216 7.27786 13.223C7.76479 13.2299 8.19098 12.8575 8.22986 12.3911C8.23184 12.3672 8.2321 12.3437 8.23202 12.3203C8.47862 12.2804 8.72501 12.2218 8.96938 12.1445C8.97813 12.1661 8.9873 12.1876 8.99815 12.2087ZM4.8309 9.27932C4.06909 7.80021 4.74987 5.9325 6.35147 5.10764C7.95304 4.28277 9.86893 4.81316 10.6307 6.29228C11.3925 7.7714 10.7117 9.6391 9.11013 10.464C7.50854 11.2888 5.59266 10.7584 4.8309 9.27932Z" fill="#D8DEE8"/>
<path d="M17.7032 38.4248C18.4865 37.668 19.6286 36.3203 20.1374 34.3758C20.3272 33.6502 20.7174 32.0742 19.9615 30.8119C19.7314 30.4277 19.3955 30.0731 19.2516 30.1357C19.1113 30.1966 19.227 30.622 19.0252 31.3223C18.9673 31.5232 18.9015 31.7518 18.8264 31.7494C18.6943 31.7453 18.6807 31.0306 18.5044 30.1863C18.2821 29.1216 17.7787 27.7428 17.3946 27.7777C17.2162 27.7939 17.1109 28.1109 17.0855 28.1874C16.9486 28.5996 17.1377 29.0252 17.2825 29.3512C17.4615 29.7544 17.614 29.8832 17.5799 30.1589C17.5589 30.3284 17.4691 30.5403 17.3626 30.5456C17.2422 30.5515 17.1168 30.293 16.8884 29.5022C16.4531 27.9954 16.541 27.6618 16.1718 27.0212C16.0988 26.8945 15.5495 25.9603 15.119 26.0633C14.7825 26.1439 14.6171 26.8342 14.6266 27.3535C14.6411 28.1377 15.0519 28.3774 15.4188 29.7663C15.5814 30.3818 15.5812 30.6396 15.4685 30.7075C15.3635 30.7707 15.1709 30.6632 15.0562 30.5633C14.7 30.2531 14.8561 29.8072 14.6191 28.9446C14.5105 28.5493 14.3876 28.1022 14.1765 28.0811C13.9226 28.0558 13.5994 28.6524 13.5174 29.1972C13.4578 29.5931 13.4853 30.2289 13.8487 30.7797C14.1097 31.1753 14.44 31.3697 14.5391 31.8795C14.5565 31.9692 14.5985 32.1974 14.4994 32.261C14.4005 32.3245 14.2032 32.1973 14.0961 32.1057C13.7151 31.7804 13.8581 31.3802 13.5326 31.0907C13.3786 30.9536 13.096 30.8204 12.9303 30.8953C12.4322 31.1203 12.6561 33.3784 13.4949 34.9993C14.5511 37.0404 16.5459 38.0012 17.7032 38.4248Z" fill="url(#paint0_linear_11668_67064)"/>
<path d="M17.6805 38.416C17.6823 38.4167 17.6841 38.4174 17.6859 38.418C17.6855 38.4224 17.6851 38.4268 17.6847 38.4311C17.6827 38.4273 17.6808 38.4235 17.6789 38.4197C17.6795 38.4185 17.68 38.4172 17.6805 38.416Z" fill="url(#paint1_linear_11668_67064)"/>
<path d="M17.6788 38.4188C17.6763 38.4245 17.6737 38.4303 17.6712 38.436C17.6562 38.4225 17.6413 38.4089 17.6262 38.395C17.6431 38.4013 17.6597 38.4075 17.6762 38.4136C17.6771 38.4153 17.678 38.4171 17.6788 38.4188Z" fill="url(#paint2_linear_11668_67064)"/>
<path d="M17.6846 38.429C17.6841 38.4345 17.6836 38.44 17.6831 38.4454C17.6791 38.4419 17.6751 38.4383 17.6712 38.4347C17.6737 38.429 17.6763 38.4233 17.6788 38.4176C17.6807 38.4214 17.6827 38.4252 17.6846 38.429Z" fill="url(#paint3_linear_11668_67064)"/>
<path d="M17.701 38.4625C17.6951 38.4572 17.6891 38.4517 17.6832 38.4464C17.6837 38.4409 17.6842 38.4354 17.6847 38.4299C17.6902 38.4408 17.6954 38.4516 17.701 38.4625Z" fill="url(#paint4_linear_11668_67064)"/>
<path d="M17.6791 38.4185C17.6783 38.4168 17.6774 38.4151 17.6765 38.4133C17.6779 38.4138 17.6793 38.4144 17.6807 38.4149C17.6802 38.4161 17.6797 38.4173 17.6791 38.4185Z" fill="url(#paint5_linear_11668_67064)"/>
<path d="M17.6861 38.4157C17.6845 38.415 17.6828 38.4143 17.6812 38.4135C17.6834 38.4088 17.6855 38.404 17.6876 38.3992C17.6871 38.4047 17.6866 38.4102 17.6861 38.4157Z" fill="url(#paint6_linear_11668_67064)"/>
<path d="M17.6806 38.4161C17.6792 38.4156 17.6778 38.4151 17.6764 38.4146C17.6759 38.4137 17.6755 38.4128 17.675 38.4119C17.6771 38.4128 17.6792 38.4137 17.6812 38.4146C17.681 38.4151 17.6808 38.4156 17.6806 38.4161Z" fill="url(#paint7_linear_11668_67064)"/>
<g style="mix-blend-mode:soft-light" opacity="0.5">
<g style="mix-blend-mode:soft-light" opacity="0.5">
<path d="M17.6875 38.3994C17.996 37.7124 18.3235 37.1914 18.612 36.7992C18.9573 36.3296 19.4418 35.7791 19.4016 35.0263C19.3718 34.4668 19.0811 34.337 19.1342 33.7845C19.1982 33.1193 19.6488 33.0016 19.7397 32.3099C19.7997 31.8534 19.6366 31.6516 19.521 31.1283C19.4649 30.8741 19.4237 30.5606 19.4336 30.1862C19.595 30.2963 19.8033 30.5465 19.9615 30.8107C20.7175 32.073 20.3273 33.649 20.1374 34.3746C19.6286 36.3191 18.4865 37.6668 17.7032 38.4236C17.6976 38.4211 17.6916 38.4184 17.686 38.4159C17.6865 38.4104 17.687 38.4049 17.6875 38.3994Z" fill="white"/>
</g>
</g>
<g style="mix-blend-mode:soft-light" opacity="0.5">
<g style="mix-blend-mode:soft-light" opacity="0.5">
<path d="M18.2346 30.629C18.3856 31.6885 17.8233 31.8269 17.9478 32.8723C18.0736 33.9283 18.6797 34.0568 18.6665 35.0093C18.6578 35.6306 18.3959 35.8711 18.1025 36.6235C17.935 37.053 17.7611 37.64 17.6875 38.3993C17.6853 38.404 17.6832 38.4088 17.6811 38.4136C17.6791 38.4127 17.677 38.4117 17.6749 38.4108C17.3028 37.6627 17.2001 37.0317 17.1907 36.5484C17.174 35.6875 17.4554 35.4634 17.3546 34.5778C17.219 33.3874 16.6594 33.3433 16.3476 32.0518C16.0246 30.7143 16.5641 30.5105 16.1771 29.2384C15.8764 28.2502 15.4711 28.1113 15.3086 27.2183C15.234 26.8083 15.2437 26.4207 15.2961 26.0722C15.6876 26.1941 16.1085 26.91 16.1718 27.0198C16.541 27.6604 16.4531 27.994 16.8884 29.5008C17.1168 30.2916 17.2422 30.5502 17.3626 30.5442C17.4691 30.539 17.5589 30.3271 17.5799 30.1576C17.614 29.8818 17.4615 29.753 17.2825 29.3499C17.1376 29.0238 16.9486 28.5982 17.0855 28.1861C17.1109 28.1096 17.2162 27.7926 17.3946 27.7764C17.4508 27.7713 17.5097 27.7972 17.5697 27.8473C17.5387 28.1213 17.5354 28.4261 17.5853 28.7514C17.7213 29.6383 18.1139 29.7819 18.2346 30.629Z" fill="white"/>
</g>
</g>
<g style="mix-blend-mode:soft-light" opacity="0.5">
<g style="mix-blend-mode:soft-light" opacity="0.5">
<path d="M14.7429 31.3121C15.2184 32.1769 15.4162 32.0665 15.6368 32.6342C15.9903 33.5441 15.5194 33.9238 15.6823 35.0804C15.8201 36.058 16.2914 36.7444 16.6567 37.2764C16.9647 37.7251 17.2973 38.0897 17.6141 38.3826C16.8216 38.0272 15.4003 37.3533 14.8868 36.0635C14.5086 35.1135 14.9955 34.7338 14.4508 33.9479C14.1209 33.472 13.8023 33.4064 13.4768 32.7491C13.2459 32.2829 13.1534 31.8055 13.1102 31.5751C13.0605 31.3104 13.0367 31.0728 13.0259 30.8721C13.1903 30.8647 13.4053 30.975 13.5327 31.0883C13.8582 31.3779 13.7152 31.778 14.0961 32.1034C14.2033 32.1949 14.4005 32.3221 14.4994 32.2587C14.5986 32.1951 14.5565 31.9669 14.5391 31.8772C14.4401 31.3673 14.1097 31.173 13.8488 30.7774C13.4854 30.2265 13.4579 29.5907 13.5174 29.1949C13.5995 28.65 13.9227 28.0535 14.1766 28.0788C14.1861 28.0798 14.1955 28.0819 14.2047 28.0846C14.0607 28.6393 14.0638 29.0958 14.087 29.3847C14.1547 30.2275 14.4883 30.849 14.7429 31.3121Z" fill="white"/>
</g>
</g>
<path d="M17.6749 38.411C17.6754 38.412 17.6758 38.4128 17.6763 38.4138C17.6598 38.4077 17.6431 38.4015 17.6263 38.3951C17.6222 38.3914 17.6181 38.3876 17.614 38.3838C17.6348 38.3931 17.655 38.4021 17.6749 38.411Z" fill="url(#paint8_linear_11668_67064)"/>
<path d="M17.7031 38.4237C17.6974 38.4216 17.6915 38.4194 17.6858 38.4173C17.6858 38.4169 17.6859 38.4164 17.6859 38.416C17.6916 38.4185 17.6975 38.4212 17.7031 38.4237Z" fill="url(#paint9_linear_11668_67064)"/>
<path d="M17.6813 38.4133C17.6829 38.4141 17.6845 38.4148 17.6861 38.4155C17.6861 38.4159 17.686 38.4164 17.686 38.4168C17.6842 38.4161 17.6824 38.4155 17.6806 38.4148C17.6809 38.4143 17.6811 38.4138 17.6813 38.4133Z" fill="url(#paint10_linear_11668_67064)"/>
<path d="M15.6336 39.2528C15.8935 38.4802 16.3563 36.7455 15.8588 34.662C15.487 33.105 14.7649 32.1318 13.9317 31.0088C13.6556 30.6367 12.8129 29.5008 12.4857 29.6564C12.2843 29.7522 12.3539 30.3015 12.3583 30.3338C12.4359 30.9103 12.8341 31.0671 12.9651 31.7388C12.9999 31.9177 13.0338 32.2253 12.9563 32.2525C12.847 32.291 12.5493 31.7593 12.3691 31.357C12.0823 30.7167 12.1268 30.4794 11.8791 29.5828C11.6457 28.7376 11.5216 28.3076 11.1597 27.9395C10.7996 27.5733 10.2125 27.2525 9.96486 27.4329C9.77453 27.5716 9.84306 27.9637 9.89537 28.263C9.97906 28.7417 10.1594 29.1808 10.7031 30.089C11.1921 30.9058 11.5026 31.313 11.3419 31.5591C11.3352 31.5694 11.2652 31.6734 11.152 31.6859C10.8492 31.7194 10.5824 31.0588 10.0557 29.963C9.32838 28.4497 9.06426 28.1013 8.73423 27.8089C8.40831 27.5202 7.76663 27.0633 7.50154 27.2493C7.21627 27.4494 7.49822 28.3023 7.61013 28.6407C7.76879 29.1207 8.08816 30.0868 8.93595 30.9721C9.15434 31.2001 9.5399 31.5608 9.6346 32.1204C9.64449 32.1789 9.70442 32.5329 9.58119 32.5929C9.4152 32.6737 9.01636 32.1725 8.83912 31.9498C8.25107 31.2108 8.21252 30.8575 7.6764 30.0894C7.25348 29.4835 6.93313 29.0358 6.58242 29.0846C6.26647 29.1286 6.03068 29.5609 5.97647 29.918C5.87276 30.6015 6.40728 31.1863 6.78348 31.5979C7.46742 32.3463 7.85317 32.3073 8.68231 33.1917C8.80379 33.3213 9.5207 34.0859 9.38086 34.2691C9.3005 34.3744 8.95758 34.2607 8.74253 34.149C8.2744 33.9059 8.23101 33.5778 7.76212 33.1304C7.66869 33.0412 7.04655 32.4476 6.79862 32.59C6.54031 32.7384 6.76014 33.6445 6.98102 34.226C7.10976 34.565 7.54712 35.6054 8.73451 36.595C11.0692 38.5408 14.9339 39.1489 15.6336 39.2528Z" fill="url(#paint11_linear_11668_67064)"/>
<path d="M15.6413 39.2642C15.6483 39.2742 15.6553 39.2839 15.6623 39.2939C15.6364 39.2821 15.611 39.2704 15.5855 39.2587C15.5857 39.2568 15.586 39.2548 15.5863 39.2529C15.6047 39.2567 15.6228 39.2605 15.6413 39.2642Z" fill="url(#paint12_linear_11668_67064)"/>
<path d="M15.5873 39.2469C15.587 39.2491 15.5867 39.2514 15.5863 39.2536C15.5782 39.2519 15.57 39.2502 15.5619 39.2485C15.5559 39.2458 15.5497 39.243 15.5437 39.2402C15.5591 39.2426 15.5736 39.2448 15.5873 39.2469Z" fill="url(#paint13_linear_11668_67064)"/>
<path d="M15.5856 39.2593C15.5778 39.2558 15.5698 39.2521 15.562 39.2485C15.5701 39.2502 15.5783 39.2519 15.5865 39.2536C15.5862 39.2555 15.5859 39.2574 15.5856 39.2593Z" fill="url(#paint14_linear_11668_67064)"/>
<path d="M15.6349 39.2485C15.6666 39.2594 15.6982 39.2703 15.7303 39.2812C15.7005 39.2754 15.6707 39.2697 15.6414 39.2638C15.6388 39.2601 15.6362 39.2565 15.6336 39.2527C15.634 39.2514 15.6345 39.2499 15.6349 39.2485Z" fill="url(#paint15_linear_11668_67064)"/>
<path d="M15.5874 39.2458C15.6039 39.2483 15.6196 39.2507 15.6336 39.2528C15.6362 39.2565 15.6388 39.2601 15.6414 39.2638C15.6229 39.2601 15.6048 39.2563 15.5864 39.2525C15.5868 39.2503 15.5871 39.2481 15.5874 39.2458Z" fill="url(#paint16_linear_11668_67064)"/>
<path d="M15.5618 39.2486C15.528 39.2417 15.4945 39.2346 15.4614 39.2275C15.4911 39.2322 15.5183 39.2365 15.5436 39.2403C15.5496 39.2431 15.5558 39.2459 15.5618 39.2486Z" fill="url(#paint17_linear_11668_67064)"/>
<g style="mix-blend-mode:soft-light" opacity="0.26">
<g style="mix-blend-mode:soft-light" opacity="0.26">
<path d="M11.4214 29.671C11.7528 30.3346 11.654 30.7522 11.761 31.4011C11.9519 32.5598 12.5264 32.7716 13.3931 34.2297C14.6458 36.3371 14.2269 37.2086 15.5945 39.1945C15.5927 39.2069 15.5911 39.2191 15.5893 39.2315C15.511 39.2043 15.434 39.1771 15.3584 39.1498C13.3458 38.1763 12.6606 37.1562 12.4452 36.3365C12.2806 35.71 12.3019 34.8644 11.6469 33.8392C11.1142 33.0053 10.813 33.1152 10.2928 32.247C9.64491 31.1658 9.94942 30.7241 9.26104 29.773C8.76497 29.0877 8.47281 29.132 8.11532 28.5584C7.84736 28.1284 7.7348 27.6592 7.70776 27.208C8.01811 27.2435 8.47565 27.5783 8.73435 27.8075C9.06439 28.0999 9.32851 28.4483 10.0558 29.9616C10.5825 31.0574 10.8493 31.718 11.1521 31.6845C11.2653 31.672 11.3353 31.568 11.342 31.5577C11.5027 31.3115 11.1922 30.9044 10.7033 30.0876C10.1595 29.1794 9.97918 28.7403 9.8955 28.2616C9.84319 27.9623 9.77466 27.5702 9.96498 27.4315C10.0512 27.3687 10.1787 27.3667 10.3234 27.4062C10.2936 27.6789 10.3186 27.9253 10.3872 28.1484C10.5851 28.7923 11.0448 28.9167 11.4214 29.671Z" fill="white"/>
</g>
</g>
<path d="M15.5872 39.2467C15.5735 39.2446 15.559 39.2424 15.5436 39.2401C15.4804 39.2108 15.4189 39.1815 15.3582 39.1521C15.4338 39.1794 15.5108 39.2066 15.589 39.2338C15.5884 39.2381 15.5878 39.2424 15.5872 39.2467Z" fill="url(#paint18_linear_11668_67064)"/>
<path d="M15.5944 39.1955C15.606 39.2124 15.6175 39.2292 15.6293 39.2462C15.616 39.2417 15.6024 39.2371 15.5892 39.2325C15.591 39.2201 15.5926 39.2079 15.5944 39.1955Z" fill="url(#paint19_linear_11668_67064)"/>
<path d="M15.6292 39.2469C15.6306 39.249 15.632 39.251 15.6334 39.253C15.6194 39.2509 15.6037 39.2486 15.5872 39.2461C15.5878 39.2417 15.5884 39.2375 15.589 39.2332C15.6022 39.2378 15.6159 39.2423 15.6292 39.2469Z" fill="url(#paint20_linear_11668_67064)"/>
<g style="mix-blend-mode:soft-light" opacity="0.26">
<g style="mix-blend-mode:soft-light" opacity="0.26">
<path d="M6.67187 30.1828C6.97798 30.7288 7.31057 31.0789 7.96324 31.7568C9.32942 33.1759 9.46197 32.9392 9.81642 33.5837C10.2429 34.3592 10.1824 34.9407 10.8289 35.4173C11.1115 35.6257 11.248 35.6067 11.474 35.8529C11.9077 36.3253 11.7695 36.7924 12.0088 37.2993C12.1421 37.5817 12.3756 37.8407 13.5706 38.4074C14.0433 38.6315 14.6417 38.892 15.3583 39.1504C15.419 39.1798 15.4806 39.2091 15.5437 39.2384C15.5184 39.2345 15.4912 39.2303 15.4615 39.2256C14.3383 38.9845 13.5758 38.6706 13.053 38.394C12.7903 38.255 12.3829 38.0169 11.5234 37.5673C10.3381 36.9472 10.3112 36.9807 10.0714 36.7856C9.33682 36.1885 9.5233 35.8221 8.68504 34.9121C8.0741 34.2489 7.83646 34.2931 7.40168 33.7031C7.11433 33.3131 6.94005 32.9163 6.83124 32.5757C7.09702 32.4952 7.67249 33.0441 7.76207 33.1295C8.23096 33.577 8.27437 33.9051 8.7425 34.1482C8.95754 34.2599 9.30046 34.3735 9.38083 34.2683C9.52067 34.0851 8.80376 33.3204 8.68228 33.1909C7.85314 32.3065 7.46739 32.3455 6.78345 31.5971C6.40725 31.1855 5.87273 30.6006 5.97644 29.9172C6.01053 29.6925 6.11654 29.4382 6.2691 29.2694C6.36374 29.5536 6.49289 29.8635 6.67187 30.1828Z" fill="white"/>
</g>
</g>
<path d="M15.6294 39.2458C15.6313 39.2465 15.6331 39.2471 15.635 39.2478C15.6346 39.2491 15.6341 39.2506 15.6336 39.252C15.6322 39.2499 15.6308 39.2479 15.6294 39.2458Z" fill="url(#paint21_linear_11668_67064)"/>
<g style="mix-blend-mode:soft-light" opacity="0.26">
<g style="mix-blend-mode:soft-light" opacity="0.26">
<path d="M15.5942 39.195C15.8925 37.0706 15.5305 35.971 15.0864 35.3535C14.9154 35.1158 14.5545 34.7023 14.321 33.9992C13.9943 33.0157 14.3403 32.7402 14.0181 31.9849C13.6302 31.0758 12.9402 31.0323 12.775 30.2434C12.7368 30.0612 12.7365 29.8835 12.7592 29.7151C13.1507 29.9555 13.7152 30.7162 13.9316 31.0078C14.7648 32.1308 15.4869 33.104 15.8587 34.6611C16.3553 36.7409 15.895 38.473 15.6348 39.2476C15.633 39.247 15.6311 39.2463 15.6292 39.2457C15.6173 39.2286 15.6058 39.2118 15.5942 39.195Z" fill="white"/>
</g>
</g>
<path d="M13.9985 33.2688L15.311 39.1684C15.311 39.5492 16.4786 39.8578 17.9188 39.8578C19.359 39.8578 20.5265 39.5492 20.5265 39.1684L21.839 33.2688H13.9985Z" fill="url(#paint22_linear_11668_67064)"/>
<g style="mix-blend-mode:multiply" opacity="0.3">
<path style="mix-blend-mode:multiply" opacity="0.3" d="M19.1762 38.6796C18.6281 37.9386 18.9281 37.4239 18.3091 36.592C17.3771 35.3396 16.0656 35.6573 15.4186 34.7614C15.1932 34.4492 15.0465 33.9856 15.1377 33.2688H13.9985L15.3111 39.1684C15.3111 39.5492 16.4786 39.8578 17.9188 39.8578C18.9115 39.8578 19.7743 39.7111 20.2149 39.4953C19.7025 39.2577 19.3843 38.9609 19.1762 38.6796Z" fill="url(#paint23_linear_11668_67064)"/>
</g>
<path d="M21.839 33.2695C21.839 33.6503 20.0839 33.959 17.9188 33.959C15.7537 33.959 13.9985 33.6503 13.9985 33.2695C13.9985 32.8888 15.7537 32.5801 17.9188 32.5801C20.0839 32.5801 21.839 32.8888 21.839 33.2695Z" fill="url(#paint24_linear_11668_67064)"/>
<g style="mix-blend-mode:multiply" opacity="0.69">
<path style="mix-blend-mode:multiply" opacity="0.69" d="M21.5712 33.2411C21.5712 33.5426 19.9361 33.787 17.9189 33.787C15.9018 33.787 14.2666 33.5426 14.2666 33.2411C14.2666 32.9395 15.9018 32.6951 17.9189 32.6951C19.9361 32.6951 21.5712 32.9395 21.5712 33.2411Z" fill="url(#paint25_linear_11668_67064)"/>
</g>
<path d="M14.4604 33.4157C14.9494 33.6311 16.3126 33.7862 17.919 33.7862C19.5254 33.7862 20.8886 33.6311 21.3775 33.4157C20.7176 33.1984 19.4171 33.0505 17.919 33.0505C16.4208 33.0505 15.1203 33.1984 14.4604 33.4157Z" fill="url(#paint26_linear_11668_67064)"/>
<path d="M17.9174 33.4383C17.811 33.4397 17.7236 33.3546 17.7221 33.2482L17.5414 19.9835C17.54 19.8771 17.6251 19.7896 17.7315 19.7881C17.838 19.7867 17.9254 19.8718 17.9268 19.9782L18.1075 33.243C18.1089 33.3494 18.0239 33.4368 17.9174 33.4383Z" fill="url(#paint27_linear_11668_67064)"/>
<path d="M12.8133 6.28678C12.7095 7.21798 12.9666 7.49239 12.751 7.99129C12.3552 8.9077 11.1536 8.75582 9.8328 9.40233C8.15492 10.2236 6.6072 12.1753 6.63985 13.9425C6.66971 15.5587 7.99919 15.8277 8.0631 17.8204C8.10633 19.1675 7.50809 19.3396 7.62942 20.5671C7.76171 21.9055 8.63599 23.3507 9.94661 24.0473C11.6468 24.951 13.5735 24.325 14.9509 23.8774C16.9398 23.2312 17.1626 22.4997 18.3209 22.6056C19.9512 22.7546 20.062 24.2541 21.7749 24.6571C23.6156 25.0901 26.0518 23.9618 26.7537 22.3195C27.3265 20.9795 26.3906 20.1261 27.1568 18.7038C27.7449 17.6121 28.4411 17.8463 29.1435 16.7604C30.0758 15.3192 29.8647 13.3371 29.2657 11.9968C28.454 10.1802 26.8346 9.32917 26.5993 9.20973C25.3776 8.58932 24.7272 8.85995 24.0333 8.09547C23.2413 7.22302 23.7502 6.49798 22.9735 5.75445C22.1282 4.94509 21.233 5.52421 20.2892 4.66312C19.5484 3.98716 19.886 3.43496 19.2736 2.87443C18.051 1.75542 14.8933 2.29691 13.634 4.06652C13.2952 4.54257 12.9171 5.35586 12.8133 6.28678Z" fill="url(#paint28_linear_11668_67064)"/>
<g style="mix-blend-mode:multiply" opacity="0.3">
<path style="mix-blend-mode:multiply" opacity="0.3" d="M22.833 23.7447C21.9311 22.7326 22.229 21.8379 21.1888 20.9405C20.1523 20.0463 18.7849 20.0103 17.7341 19.9826C15.3561 19.92 14.8481 20.8391 13.6021 20.4657C12.0338 19.9957 10.5714 17.8598 10.8442 16.0708C11.3079 13.0308 16.5067 12.7971 16.7994 9.95119C16.9889 8.10895 14.8949 7.3863 14.9363 5.22287C14.9559 4.19828 15.4467 3.27288 16.1517 2.46185C15.1606 2.71988 14.2032 3.26785 13.6339 4.06788C13.2951 4.54393 12.9169 5.35722 12.8132 6.28814C12.7094 7.21934 12.9664 7.49375 12.7509 7.99265C12.3551 8.90906 11.1535 8.75717 9.83267 9.40369C8.1548 10.225 6.60708 12.1767 6.63973 13.9439C6.66959 15.56 7.99907 15.8291 8.06298 17.8217C8.10621 19.1689 7.50797 19.341 7.6293 20.5685C7.76159 21.9068 8.63586 23.352 9.94649 24.0487C11.6467 24.9523 13.5734 24.3263 14.9508 23.8788C16.9397 23.2326 17.1624 22.5011 18.3208 22.607C19.9511 22.756 20.0619 24.2554 21.7748 24.6584C22.4457 24.8163 23.1955 24.7659 23.9118 24.5596C23.4284 24.3155 23.084 24.0263 22.833 23.7447Z" fill="url(#paint29_linear_11668_67064)"/>
</g>
<g style="mix-blend-mode:soft-light">
<g style="mix-blend-mode:soft-light">
<g style="mix-blend-mode:soft-light">
<path d="M17.7206 23.6238C17.3417 19.4377 16.123 16.7168 14.0984 15.5368C13.3431 15.0966 12.5425 14.9029 11.7683 14.7156C10.5918 14.431 9.48043 14.1622 8.53381 13.1015C7.72409 12.1942 7.2727 10.9624 7.19217 9.44048L7.24935 9.43745C7.32916 10.9461 7.77573 12.166 8.57654 13.0633C9.51124 14.1107 10.6141 14.3775 11.7817 14.6599C12.5599 14.8482 13.3646 15.0429 14.1272 15.4873C16.1688 16.6772 17.397 19.413 17.7777 23.6187L17.7206 23.6238Z" fill="#F4F7FA"/>
</g>
</g>
<g style="mix-blend-mode:soft-light">
<g style="mix-blend-mode:soft-light">
<path d="M16.5633 24.0394L16.5193 24.0026C18.4519 21.6954 19.2431 19.6395 18.8709 17.8921C18.7347 17.2529 18.4976 16.8889 18.2467 16.5035C17.9668 16.0738 17.6774 15.6294 17.4793 14.7638C17.1789 13.451 17.4252 12.6113 17.6635 11.7993C17.8923 11.0195 18.1083 10.2828 17.8528 9.16992C17.6172 8.14357 17.1579 7.58571 16.7137 7.0463C16.2618 6.49742 15.835 5.97901 15.6761 5.0223C15.4492 3.65566 15.9063 2.17254 17.0347 0.614069L17.081 0.647702C15.962 2.19325 15.5084 3.66193 15.7326 5.01293C15.889 5.95444 16.3111 6.46712 16.7579 7.00987C17.2063 7.55445 17.6699 8.11757 17.9087 9.15706C18.1675 10.2846 17.9494 11.0282 17.7184 11.8155C17.4822 12.6204 17.238 13.4528 17.5352 14.751C17.731 15.6067 18.0175 16.0467 18.2947 16.4723C18.5486 16.8623 18.7885 17.2306 18.9268 17.8802C19.3029 19.6457 18.5077 21.718 16.5633 24.0394Z" fill="#F4F7FA"/>
</g>
</g>
<g style="mix-blend-mode:soft-light">
<g style="mix-blend-mode:soft-light">
<path d="M9.38311 21.9072C8.4478 21.9199 7.36667 20.8697 6.16685 18.7817L6.21655 18.7532C7.45998 20.9171 8.56669 21.9566 9.5067 21.8415C10.1893 21.7582 10.5941 21.1152 11.0627 20.3705C11.5643 19.5736 12.1328 18.6704 13.1791 18.3238C14.21 17.982 15.4511 18.2623 16.868 19.1565L16.8374 19.2049C15.4357 18.3203 14.2109 18.042 13.1971 18.3781C12.1703 18.7184 11.6076 19.6123 11.1112 20.4011C10.6347 21.158 10.2233 21.8117 9.51362 21.8983C9.47049 21.9036 9.42689 21.9066 9.38311 21.9072Z" fill="#F4F7FA"/>
</g>
</g>
<g style="mix-blend-mode:soft-light">
<g style="mix-blend-mode:soft-light">
<path d="M18.5055 20.9888L18.5015 20.9316C20.6919 20.7783 22.0335 20.209 22.4888 19.2396C22.8411 18.4895 22.5586 17.7084 22.2854 16.953C22.001 16.1667 21.7069 15.3536 22.1041 14.5548C22.4988 13.7612 23.2884 13.5396 24.1245 13.305C24.9188 13.0821 25.7403 12.8516 26.3138 12.1158C27.1911 10.9903 27.1203 9.07701 26.1033 6.42924L26.1568 6.40869C27.1815 9.0765 27.2495 11.0086 26.359 12.1511C25.7739 12.9017 24.9432 13.1347 24.1399 13.3601C23.3165 13.5912 22.5387 13.8095 22.1554 14.5803C21.7691 15.3571 22.059 16.1585 22.3393 16.9335C22.6164 17.6999 22.9031 18.4924 22.5407 19.264C22.0758 20.2536 20.7182 20.8339 18.5055 20.9888Z" fill="#F4F7FA"/>
</g>
</g>
<g style="mix-blend-mode:soft-light">
<g style="mix-blend-mode:soft-light">
<path d="M22.839 13.8422L22.7868 13.8185C23.3837 12.5068 23.5019 11.3525 23.138 10.3877C22.7723 9.41813 22.0407 8.93247 21.3332 8.46279C20.7069 8.04698 20.1153 7.65423 19.8791 6.96235C19.4429 5.68482 20.4369 3.88891 22.8334 1.62452L22.8728 1.66617C20.494 3.91378 19.505 5.68943 19.9333 6.94384C20.1632 7.61725 20.7469 8.00479 21.3649 8.41506C22.0799 8.88976 22.8193 9.38062 23.1916 10.3675C23.561 11.347 23.4424 12.5161 22.839 13.8422Z" fill="#F4F7FA"/>
</g>
</g>
</g>
<path d="M13.8355 20.1325C13.7873 21.1213 12.9762 21.8616 11.9894 21.7831C10.9625 21.7014 10.1407 20.7711 10.1925 19.7081C10.2443 18.6452 11.1468 17.9157 12.1701 18.0728C13.1534 18.2238 13.8836 19.1436 13.8355 20.1325Z" fill="url(#paint30_linear_11668_67064)"/>
<path d="M14.1067 20.0583C14.0586 21.0471 13.2475 21.7874 12.2607 21.7089C11.2337 21.6272 10.412 20.6968 10.4637 19.6339C10.5155 18.5709 11.4181 17.8414 12.4413 17.9986C13.4246 18.1496 14.1549 19.0694 14.1067 20.0583Z" fill="url(#paint31_linear_11668_67064)"/>
<path d="M14.0294 20.0507C13.9834 20.996 13.2074 21.7024 12.2648 21.6258C11.2857 21.5463 10.5035 20.6585 10.5528 19.6457C10.6021 18.6329 11.4614 17.9363 12.4373 18.0846C13.3766 18.2273 14.0755 19.1054 14.0294 20.0507Z" fill="url(#paint32_linear_11668_67064)"/>
<path d="M13.974 20.0433C13.9295 20.9574 13.1787 21.6395 12.2677 21.5645C11.3225 21.4866 10.5685 20.6292 10.6161 19.6521C10.6637 18.675 11.4922 18.002 12.4342 18.1439C13.3422 18.2808 14.0185 19.1292 13.974 20.0433Z" fill="url(#paint33_linear_11668_67064)"/>
<path d="M12.4097 18.4542C12.4581 18.4611 12.4952 18.5068 12.4928 18.5561L12.4846 18.7244C12.5812 18.7399 12.6776 18.7616 12.7739 18.7892C12.8449 18.8095 12.9152 18.8331 12.9849 18.8598C13.0266 18.8759 13.0535 18.9201 13.047 18.9641L13.016 19.1742C13.0078 19.2299 12.9509 19.2601 12.8999 19.2343C12.8543 19.2112 12.8073 19.191 12.759 19.1738C12.6747 19.1438 12.5853 19.1225 12.4907 19.1101L12.466 19.1068L12.4425 19.5888C12.6924 19.672 12.8738 19.7764 12.9882 19.9022C13.102 20.0274 13.1544 20.179 13.1457 20.3575C13.1363 20.5506 13.0628 20.7021 12.9248 20.8122C12.7861 20.923 12.5964 20.9798 12.3545 20.9824L12.3454 21.1681C12.343 21.2175 12.3018 21.254 12.2533 21.2497L12.2518 21.2495C12.2032 21.2452 12.1656 21.2016 12.168 21.1521L12.177 20.9688L12.1379 20.9652C12.0251 20.9546 11.9173 20.9378 11.8147 20.9147C11.7387 20.8977 11.6647 20.8768 11.5927 20.8522C11.5492 20.8372 11.5209 20.7937 11.5272 20.7487L11.5647 20.4786C11.5728 20.4202 11.6334 20.3889 11.6881 20.4137C11.7519 20.4425 11.8166 20.4673 11.8824 20.4881C11.9849 20.5205 12.0893 20.5432 12.1955 20.5562L12.2232 20.0201C11.983 19.9481 11.8052 19.8501 11.6914 19.7263C11.577 19.6018 11.5241 19.4471 11.5331 19.2626C11.5424 19.0716 11.615 18.9274 11.7502 18.8303C11.8849 18.7337 12.0716 18.6914 12.3092 18.7031L12.3176 18.5311C12.32 18.4816 12.3613 18.4471 12.4097 18.4542ZM12.2902 19.0933C12.2148 19.0951 12.1552 19.1129 12.1115 19.1466C12.0678 19.1805 12.0444 19.2277 12.0415 19.2883C12.0387 19.3456 12.0558 19.3945 12.0928 19.4349C12.1297 19.4752 12.1884 19.5088 12.2687 19.5357L12.2902 19.0933ZM12.3988 20.0717L12.3749 20.5634C12.4565 20.5675 12.5201 20.5511 12.5658 20.5141C12.6113 20.4772 12.6358 20.4231 12.6393 20.3518C12.6424 20.2868 12.6248 20.2318 12.5863 20.187C12.5478 20.1421 12.4853 20.1037 12.3988 20.0717Z" fill="url(#paint34_linear_11668_67064)"/>
<g style="mix-blend-mode:multiply" opacity="0.3">
<path style="mix-blend-mode:multiply" opacity="0.3" d="M12.04 20.1743C12.1214 19.6336 12.632 19.4279 12.5912 18.9249C12.566 18.6149 12.3452 18.3439 12.0946 18.1285C11.3005 18.1729 10.6577 18.7974 10.6161 19.653C10.5685 20.6301 11.3225 21.4874 12.2676 21.5653C12.3594 21.5729 12.4494 21.5725 12.5372 21.5653C12.1795 21.1729 11.97 20.6389 12.04 20.1743Z" fill="url(#paint35_linear_11668_67064)"/>
</g>
<path d="M19.2019 14.9845C19.1538 15.9734 18.3427 16.7136 17.3559 16.6352C16.3289 16.5535 15.5072 15.6231 15.559 14.5602C15.6107 13.4972 16.5133 12.7677 17.5366 12.9249C18.5198 13.0759 19.2501 13.9957 19.2019 14.9845Z" fill="url(#paint36_linear_11668_67064)"/>
<path d="M19.4732 14.9103C19.425 15.8992 18.6139 16.6394 17.6272 16.5609C16.6002 16.4793 15.7784 15.5489 15.8302 14.4859C15.882 13.423 16.7845 12.6935 17.8078 12.8507C18.7911 13.0017 19.5213 13.9215 19.4732 14.9103Z" fill="url(#paint37_linear_11668_67064)"/>
<path d="M19.3959 14.9028C19.3499 15.8481 18.5739 16.5544 17.6313 16.4779C16.6521 16.3984 15.8699 15.5106 15.9193 14.4978C15.9686 13.485 16.8279 12.7884 17.8037 12.9366C18.7431 13.0793 19.4419 13.9575 19.3959 14.9028Z" fill="url(#paint38_linear_11668_67064)"/>
<path d="M19.3404 14.8953C19.2959 15.8094 18.5451 16.4916 17.6341 16.4165C16.689 16.3387 15.935 15.4812 15.9826 14.5042C16.0301 13.5271 16.8587 12.854 17.8007 12.996C18.7086 13.1328 19.3849 13.9812 19.3404 14.8953Z" fill="url(#paint39_linear_11668_67064)"/>
<path d="M17.7762 13.3062C17.8245 13.3132 17.8617 13.3588 17.8593 13.4081L17.8511 13.5764C17.9477 13.592 18.0441 13.6136 18.1403 13.6412C18.2113 13.6616 18.2816 13.6852 18.3513 13.7119C18.3931 13.7279 18.4199 13.7722 18.4134 13.8162L18.3825 14.0262C18.3743 14.0819 18.3173 14.1121 18.2664 14.0863C18.2207 14.0633 18.1738 14.0431 18.1254 14.0259C18.0412 13.9958 17.9518 13.9746 17.8572 13.9621L17.8325 13.9589L17.809 14.4409C18.0589 14.5241 18.2402 14.6285 18.3546 14.7542C18.4685 14.8794 18.5208 15.031 18.5121 15.2096C18.5027 15.4027 18.4293 15.5541 18.2913 15.6643C18.1526 15.775 17.9628 15.8319 17.7209 15.8344L17.7119 16.0202C17.7095 16.0695 17.6683 16.106 17.6198 16.1017L17.6182 16.1016C17.5696 16.0973 17.5321 16.0536 17.5345 16.0041L17.5434 15.8209L17.5044 15.8172C17.3915 15.8066 17.2838 15.7898 17.1812 15.7668C17.1052 15.7497 17.0312 15.7289 16.9592 15.7042C16.9157 15.6893 16.8874 15.6457 16.8936 15.6008L16.9312 15.3306C16.9393 15.2722 16.9999 15.241 17.0546 15.2657C17.1183 15.2945 17.1831 15.3193 17.2489 15.3401C17.3513 15.3726 17.4557 15.3952 17.5619 15.4082L17.5896 14.8721C17.3494 14.8001 17.1717 14.7022 17.0578 14.5783C16.9435 14.4539 16.8906 14.2992 16.8996 14.1146C16.9089 13.9237 16.9814 13.7794 17.1167 13.6823C17.2513 13.5857 17.438 13.5435 17.6757 13.5552L17.6841 13.3831C17.6865 13.3336 17.7278 13.2992 17.7762 13.3062ZM17.6567 13.9453C17.5813 13.9471 17.5217 13.9649 17.478 13.9987C17.4342 14.0325 17.4109 14.0797 17.4079 14.1403C17.4051 14.1977 17.4222 14.2465 17.4592 14.2869C17.4962 14.3273 17.5549 14.3609 17.6352 14.3877L17.6567 13.9453ZM17.7653 14.9238L17.7413 15.4155C17.823 15.4196 17.8866 15.4031 17.9322 15.3661C17.9778 15.3292 18.0023 15.2751 18.0057 15.2038C18.0089 15.1388 17.9913 15.0839 17.9528 15.039C17.9143 14.9941 17.8518 14.9557 17.7653 14.9238Z" fill="url(#paint40_linear_11668_67064)"/>
<g style="mix-blend-mode:multiply" opacity="0.3">
<path style="mix-blend-mode:multiply" opacity="0.3" d="M17.4064 15.0264C17.4879 14.4857 17.9985 14.28 17.9577 13.777C17.9325 13.467 17.7116 13.196 17.461 12.9806C16.667 13.025 16.0242 13.6494 15.9825 14.505C15.9349 15.4821 16.6889 16.3395 17.6341 16.4174C17.7258 16.4249 17.8158 16.4245 17.9037 16.4173C17.5459 16.0249 17.3364 15.4909 17.4064 15.0264Z" fill="url(#paint41_linear_11668_67064)"/>
</g>
<path d="M23.2454 20.5917C23.1973 21.5806 22.3862 22.3208 21.3994 22.2423C20.3724 22.1607 19.5507 21.2303 19.6024 20.1674C19.6542 19.1044 20.5567 18.3749 21.58 18.5321C22.5633 18.6831 23.2935 19.6029 23.2454 20.5917Z" fill="url(#paint42_linear_11668_67064)"/>
<path d="M23.5166 20.5175C23.4685 21.5064 22.6574 22.2466 21.6706 22.1681C20.6437 22.0865 19.8219 21.1561 19.8737 20.0931C19.9254 19.0302 20.828 18.3007 21.8513 18.4578C22.8345 18.6089 23.5648 19.5286 23.5166 20.5175Z" fill="url(#paint43_linear_11668_67064)"/>
<path d="M23.4394 20.5099C23.3933 21.4553 22.6174 22.1616 21.6747 22.0851C20.6956 22.0055 19.9134 21.1178 19.9627 20.105C20.012 19.0921 20.8713 18.3956 21.8472 18.5438C22.7866 18.6865 23.4854 19.5646 23.4394 20.5099Z" fill="url(#paint44_linear_11668_67064)"/>
<path d="M23.3839 20.5025C23.3393 21.4166 22.5886 22.0988 21.6776 22.0237C20.7324 21.9458 19.9784 21.0884 20.026 20.1113C20.0736 19.1343 20.9021 18.4612 21.8441 18.6032C22.7521 18.74 23.4284 19.5884 23.3839 20.5025Z" fill="url(#paint45_linear_11668_67064)"/>
<path d="M21.8196 18.9134C21.868 18.9204 21.9051 18.966 21.9027 19.0153L21.8946 19.1836C21.9911 19.1992 22.0875 19.2208 22.1838 19.2484C22.2548 19.2688 22.3251 19.2923 22.3948 19.3191C22.4366 19.3351 22.4634 19.3793 22.4569 19.4233L22.426 19.6334C22.4177 19.6891 22.3608 19.7193 22.3098 19.6935C22.2642 19.6704 22.2172 19.6503 22.1689 19.6331C22.0846 19.603 21.9952 19.5817 21.9007 19.5693L21.8759 19.566L21.8525 20.048C22.1023 20.1312 22.2837 20.2356 22.3981 20.3614C22.5119 20.4866 22.5643 20.6382 22.5556 20.8168C22.5462 21.0099 22.4728 21.1613 22.3348 21.2714C22.196 21.3822 22.0063 21.439 21.7644 21.4416L21.7553 21.6273C21.7529 21.6767 21.7117 21.7132 21.6632 21.7089L21.6617 21.7088C21.6131 21.7044 21.5756 21.6608 21.578 21.6113L21.5869 21.4281L21.5478 21.4244C21.435 21.4138 21.3272 21.397 21.2247 21.3739C21.1487 21.3569 21.0747 21.336 21.0027 21.3114C20.9591 21.2965 20.9309 21.2529 20.9371 21.2079L20.9746 20.9378C20.9828 20.8794 21.0433 20.8482 21.098 20.8729C21.1618 20.9017 21.2266 20.9265 21.2923 20.9473C21.3948 20.9797 21.4992 21.0024 21.6054 21.0154L21.6331 20.4793C21.3929 20.4073 21.2152 20.3093 21.1013 20.1855C20.9869 20.061 20.934 19.9063 20.943 19.7218C20.9523 19.5309 21.0249 19.3866 21.1602 19.2895C21.2948 19.1929 21.4815 19.1507 21.7191 19.1624L21.7275 18.9903C21.7299 18.9408 21.7712 18.9064 21.8196 18.9134ZM21.7002 19.5525C21.6247 19.5543 21.5651 19.5721 21.5214 19.6059C21.4777 19.6397 21.4543 19.6869 21.4514 19.7475C21.4486 19.8048 21.4657 19.8537 21.5027 19.8941C21.5396 19.9344 21.5983 19.9681 21.6786 19.9949L21.7002 19.5525ZM21.8087 20.531L21.7848 21.0226C21.8665 21.0268 21.93 21.0103 21.9757 20.9733C22.0212 20.9364 22.0457 20.8823 22.0492 20.811C22.0523 20.746 22.0347 20.6911 21.9962 20.6462C21.9577 20.6013 21.8952 20.5629 21.8087 20.531Z" fill="url(#paint46_linear_11668_67064)"/>
<g style="mix-blend-mode:multiply" opacity="0.3">
<path style="mix-blend-mode:multiply" opacity="0.3" d="M21.4499 20.6336C21.5314 20.0929 22.0419 19.8872 22.0011 19.3842C21.9759 19.0741 21.7551 18.8031 21.5045 18.5877C20.7104 18.6321 20.0676 19.2566 20.026 20.1122C19.9784 21.0893 20.7324 21.9467 21.6775 22.0246C21.7693 22.0321 21.8593 22.0317 21.9471 22.0245C21.5894 21.6321 21.3799 21.0981 21.4499 20.6336Z" fill="url(#paint47_linear_11668_67064)"/>
</g>
<path d="M18.6914 7.88005C18.6433 8.8689 17.8322 9.60913 16.8454 9.53067C15.8184 9.449 14.9967 8.51863 15.0485 7.45568C15.1002 6.39272 16.0028 5.66322 17.0261 5.82038C18.0093 5.97142 18.7396 6.89119 18.6914 7.88005Z" fill="url(#paint48_linear_11668_67064)"/>
<path d="M18.9627 7.80583C18.9145 8.79468 18.1034 9.53492 17.1167 9.45645C16.0897 9.37479 15.2679 8.44442 15.3197 7.38146C15.3715 6.31851 16.274 5.58899 17.2973 5.74616C18.2806 5.89719 19.0108 6.81698 18.9627 7.80583Z" fill="url(#paint49_linear_11668_67064)"/>
<path d="M18.8854 7.79827C18.8394 8.74357 18.0634 9.44993 17.1208 9.37339C16.1416 9.29388 15.3595 8.40609 15.4088 7.39327C15.4581 6.38047 16.3174 5.6839 17.2932 5.83212C18.2326 5.97483 18.9314 6.85296 18.8854 7.79827Z" fill="url(#paint50_linear_11668_67064)"/>
<path d="M18.8299 7.79083C18.7854 8.70495 18.0346 9.3871 17.1236 9.31203C16.1785 9.23415 15.4245 8.37676 15.4721 7.39966C15.5196 6.42259 16.3482 5.74954 17.2902 5.89149C18.1982 6.02833 18.8744 6.87671 18.8299 7.79083Z" fill="url(#paint51_linear_11668_67064)"/>
<path d="M17.2657 6.20171C17.314 6.2087 17.3512 6.25432 17.3488 6.30363L17.3406 6.47194C17.4372 6.48751 17.5336 6.50912 17.6298 6.53674C17.7008 6.55712 17.7711 6.58066 17.8408 6.6074C17.8826 6.62343 17.9094 6.66768 17.9029 6.71166L17.872 6.92171C17.8638 6.97744 17.8068 7.00762 17.7559 6.98185C17.7102 6.95877 17.6632 6.93862 17.6149 6.9214C17.5307 6.89135 17.4413 6.87007 17.3467 6.85763L17.322 6.85438L17.2985 7.33638C17.5484 7.41958 17.7298 7.52398 17.8441 7.64975C17.958 7.77491 18.0103 7.92655 18.0016 8.1051C17.9922 8.29819 17.9188 8.44961 17.7808 8.55978C17.642 8.67054 17.4523 8.72739 17.2104 8.72993L17.2014 8.91569C17.199 8.96503 17.1578 9.00153 17.1093 8.99723L17.1077 8.99709C17.0591 8.99279 17.0216 8.94916 17.024 8.89965L17.0329 8.71641L16.9939 8.71274C16.881 8.70213 16.7733 8.68533 16.6707 8.66229C16.5947 8.64523 16.5207 8.62437 16.4487 8.59972C16.4052 8.5848 16.3769 8.54127 16.3831 8.49627L16.4207 8.22616C16.4288 8.16778 16.4894 8.13651 16.5441 8.16122C16.6078 8.19003 16.6726 8.21482 16.7384 8.23563C16.8408 8.26807 16.9452 8.29075 17.0515 8.30375L17.0791 7.76766C16.8389 7.69565 16.6612 7.59767 16.5473 7.47382C16.433 7.34938 16.3801 7.19467 16.3891 7.01014C16.3984 6.81919 16.4709 6.67496 16.6062 6.57786C16.7408 6.48124 16.9275 6.439 17.1652 6.45071L17.1736 6.27863C17.176 6.22915 17.2173 6.19471 17.2657 6.20171ZM17.1462 6.84081C17.0708 6.84263 17.0112 6.86041 16.9675 6.8942C16.9237 6.92805 16.9004 6.97527 16.8974 7.03581C16.8946 7.09318 16.9117 7.14208 16.9487 7.18245C16.9857 7.22277 17.0444 7.25637 17.1247 7.28327L17.1462 6.84081ZM17.2548 7.81928L17.2308 8.31096C17.3125 8.3151 17.3761 8.29865 17.4217 8.26167C17.4673 8.22474 17.4918 8.17065 17.4952 8.09935C17.4984 8.03433 17.4808 7.97941 17.4423 7.93456C17.4038 7.88963 17.3413 7.8512 17.2548 7.81928Z" fill="url(#paint52_linear_11668_67064)"/>
<g style="mix-blend-mode:multiply" opacity="0.3">
<path style="mix-blend-mode:multiply" opacity="0.3" d="M16.8959 7.9219C16.9774 7.3812 17.488 7.17549 17.4471 6.67248C17.422 6.36246 17.2011 6.09147 16.9505 5.87607C16.1564 5.92047 15.5137 6.5449 15.472 7.40052C15.4244 8.37763 16.1784 9.23501 17.1236 9.31289C17.2153 9.32045 17.3053 9.32003 17.3932 9.31285C17.0354 8.92042 16.8259 8.38643 16.8959 7.9219Z" fill="url(#paint53_linear_11668_67064)"/>
</g>
<path d="M13.3025 13.6245C13.268 14.3334 12.6865 14.8641 11.979 14.8078C11.2428 14.7493 10.6537 14.0823 10.6908 13.3203C10.7279 12.5582 11.375 12.0352 12.1086 12.1479C12.8135 12.2562 13.337 12.9156 13.3025 13.6245Z" fill="url(#paint54_linear_11668_67064)"/>
<path d="M13.4968 13.5727C13.4623 14.2817 12.8808 14.8123 12.1734 14.7561C11.4372 14.6975 10.848 14.0306 10.8852 13.2685C10.9223 12.5065 11.5693 11.9835 12.3029 12.0962C13.0078 12.2044 13.5313 12.8638 13.4968 13.5727Z" fill="url(#paint55_linear_11668_67064)"/>
<path d="M13.4414 13.5665C13.4084 14.2442 12.8521 14.7506 12.1763 14.6957C11.4743 14.6387 10.9136 14.0022 10.949 13.2762C10.9843 12.5501 11.6003 12.0507 12.2999 12.157C12.9734 12.2592 13.4744 12.8888 13.4414 13.5665Z" fill="url(#paint56_linear_11668_67064)"/>
<path d="M13.4019 13.5621C13.37 14.2175 12.8317 14.7065 12.1786 14.6527C11.5011 14.5969 10.9605 13.9822 10.9946 13.2817C11.0287 12.5813 11.6227 12.0987 12.298 12.2005C12.949 12.2986 13.4338 12.9068 13.4019 13.5621Z" fill="url(#paint57_linear_11668_67064)"/>
<path d="M12.2804 12.4235C12.3151 12.4285 12.3417 12.4612 12.34 12.4965L12.3341 12.6172C12.4034 12.6284 12.4725 12.6439 12.5415 12.6637C12.5924 12.6783 12.6428 12.6952 12.6928 12.7143C12.7227 12.7258 12.7419 12.7575 12.7373 12.7891L12.7151 12.9397C12.7092 12.9796 12.6684 13.0013 12.6319 12.9828C12.5991 12.9662 12.5654 12.9518 12.5308 12.9394C12.4704 12.9179 12.4063 12.9026 12.3385 12.8937L12.3208 12.8914L12.304 13.2369C12.4831 13.2966 12.6131 13.3714 12.6951 13.4616C12.7767 13.5513 12.8143 13.66 12.808 13.788C12.8013 13.9265 12.7487 14.035 12.6497 14.114C12.5503 14.1934 12.4142 14.2342 12.2408 14.236L12.2343 14.3691C12.2326 14.4045 12.2031 14.4307 12.1683 14.4276L12.1672 14.4275C12.1323 14.4244 12.1055 14.3931 12.1072 14.3576L12.1136 14.2263L12.0856 14.2237C12.0047 14.2161 11.9275 14.204 11.8539 14.1875C11.7994 14.1752 11.7464 14.1603 11.6948 14.1426C11.6635 14.1319 11.6433 14.1007 11.6477 14.0685L11.6747 13.8748C11.6805 13.833 11.7239 13.8105 11.7631 13.8283C11.8088 13.8489 11.8552 13.8667 11.9024 13.8816C11.9759 13.9049 12.0507 13.9211 12.1269 13.9304L12.1467 13.5461C11.9745 13.4945 11.8471 13.4243 11.7655 13.3355C11.6835 13.2463 11.6455 13.1353 11.652 13.0031C11.6587 12.8662 11.7107 12.7628 11.8077 12.6931C11.9042 12.6239 12.038 12.5936 12.2084 12.602L12.2144 12.4786C12.2161 12.4432 12.2457 12.4185 12.2804 12.4235ZM12.1948 12.8817C12.1407 12.883 12.098 12.8957 12.0667 12.9199C12.0353 12.9442 12.0185 12.9781 12.0164 13.0215C12.0144 13.0626 12.0267 13.0976 12.0532 13.1266C12.0797 13.1555 12.1218 13.1796 12.1793 13.1989L12.1948 12.8817ZM12.2726 13.5831L12.2555 13.9356C12.314 13.9386 12.3596 13.9268 12.3923 13.9003C12.425 13.8738 12.4425 13.835 12.445 13.7839C12.4473 13.7373 12.4346 13.6979 12.407 13.6658C12.3794 13.6336 12.3347 13.606 12.2726 13.5831Z" fill="url(#paint58_linear_11668_67064)"/>
<g style="mix-blend-mode:multiply" opacity="0.3">
<path style="mix-blend-mode:multiply" opacity="0.3" d="M12.0153 13.6562C12.0737 13.2685 12.4397 13.1211 12.4104 12.7605C12.3924 12.5382 12.2341 12.3439 12.0544 12.1895C11.4851 12.2213 11.0243 12.669 10.9945 13.2824C10.9603 13.9829 11.5009 14.5975 12.1785 14.6534C12.2442 14.6588 12.3088 14.6585 12.3718 14.6534C12.1153 14.372 11.9651 13.9892 12.0153 13.6562Z" fill="url(#paint59_linear_11668_67064)"/>
</g>
<path d="M31.7239 22.4644C31.7239 22.4644 31.3846 24.6949 33.7128 26.3123L31.1956 26.8665C31.1956 26.8665 30.4195 25.3522 31.0437 22.8774L31.7239 22.4644Z" fill="url(#paint60_linear_11668_67064)"/>
<path d="M31.2755 22.8813C31.2755 22.8813 31.1462 22.5455 31.1706 22.3957C31.195 22.246 31.5559 22.0519 31.8031 21.8492C32.0503 21.6466 31.7903 22.0572 31.732 22.1506C31.6738 22.244 31.4725 22.3821 31.4955 22.7036L31.2755 22.8813Z" fill="url(#paint61_linear_11668_67064)"/>
<path d="M34.3847 21.1801C34.3847 21.1801 34.2983 21.641 34.3598 22.0157C34.4153 22.3544 35.0427 22.7063 35.163 22.8072C35.2832 22.908 34.844 23.0175 34.4411 22.9648C34.0383 22.9121 32.9352 22.5591 32.7675 22.3623C32.5999 22.1656 32.9627 22.2625 33.2678 22.2253C33.573 22.188 33.8643 21.6767 33.8732 21.4157C33.8821 21.1546 34.3847 21.1801 34.3847 21.1801Z" fill="url(#paint62_linear_11668_67064)"/>
<path d="M33.8346 20.9821C33.636 20.7964 33.5887 20.8151 33.5165 20.7051C33.352 20.4546 33.3925 20.0456 33.5325 19.9892C33.6228 19.9528 33.6821 20.0921 33.9562 20.2432C34.2919 20.4282 34.4228 20.3403 34.648 20.525C34.7007 20.5682 34.9378 20.7627 34.9149 20.9806C34.8856 21.2588 34.4448 21.4616 34.1885 21.3485C34.067 21.2949 34.0793 21.211 33.8346 20.9821Z" fill="url(#paint63_linear_11668_67064)"/>
<path d="M34.2589 21.474C34.2589 21.474 34.0154 21.7067 33.684 21.5949C33.3872 21.4948 33.5235 20.8058 33.7547 20.7135C33.8318 20.6827 33.966 20.6971 34.063 20.7544C34.1203 20.7882 34.1343 20.8196 34.229 20.873C34.3163 20.9224 34.3456 20.919 34.3675 20.9504C34.395 20.9896 34.4014 21.0696 34.2896 21.2519C34.3627 21.2089 34.4378 21.2049 34.4807 21.2411C34.4875 21.2469 34.5045 21.2665 34.5104 21.291C34.532 21.3796 34.4351 21.4595 34.2589 21.474Z" fill="url(#paint64_linear_11668_67064)"/>
<path d="M34.3835 39.6489C34.4796 39.8449 34.4527 39.9291 34.4287 39.9662C34.3586 40.0749 34.1897 39.9723 33.7489 40.0245C33.6972 40.0306 33.5986 40.0439 33.4754 40.0149C33.3699 39.9901 33.2456 39.9339 33.2509 39.9057C33.2528 39.8954 33.2716 39.8913 33.2787 39.8898C33.401 39.8637 34.1668 39.6287 34.1668 39.6287L34.3835 39.6489Z" fill="url(#paint65_linear_11668_67064)"/>
<path d="M34.4422 39.2186L34.3738 39.6568C34.3738 39.6568 34.1856 39.7898 34.1362 39.6283C34.1006 39.5121 34.1016 39.199 34.1016 39.199L34.4422 39.2186Z" fill="url(#paint66_linear_11668_67064)"/>
<path d="M35.8791 28.7351C35.8294 29.7544 35.6835 30.6245 35.5175 31.3338C35.3389 32.0968 35.2416 32.2273 35.1796 32.7562C35.0449 33.9073 35.4131 34.0803 35.4534 35.3855C35.4979 36.8266 35.0905 37.9625 34.9307 38.3957C34.791 38.7744 34.6466 39.0796 34.5385 39.2914C34.404 39.4036 34.2032 39.3551 33.9913 39.3073C33.9409 37.9999 33.8696 36.769 33.8192 35.4617C33.6086 33.492 33.3979 31.5224 33.1873 29.5528C34.0846 29.2802 34.9818 29.0077 35.8791 28.7351Z" fill="url(#paint67_linear_11668_67064)"/>
<g style="mix-blend-mode:multiply" opacity="0.3">
<path style="mix-blend-mode:multiply" opacity="0.3" d="M33.9913 39.3073C33.9409 37.9999 33.8696 36.769 33.8192 35.4617C33.6086 33.492 33.3979 31.5224 33.1873 29.5528C34.0846 29.2802 34.9818 29.0077 35.8791 28.7351C35.8758 28.8026 35.871 28.8677 35.8669 28.9339C34.5935 29.9927 34.3304 30.8475 34.3301 31.4343C34.3296 32.1461 34.7111 32.5071 34.613 33.537C34.5428 34.2734 34.3183 34.3986 34.3041 35.0642C34.2858 35.9212 34.6433 36.411 34.8119 36.9101C34.9747 37.3924 35.0218 38.0717 34.6666 39.0288C34.6206 39.1275 34.5772 39.2157 34.5385 39.2914C34.404 39.4036 34.2032 39.3551 33.9913 39.3073Z" fill="url(#paint68_linear_11668_67064)"/>
</g>
<path d="M32.2961 39.2461L32.4809 39.7507L32.7495 39.7079L32.6872 39.2407L32.2961 39.2461Z" fill="url(#paint69_linear_11668_67064)"/>
<path d="M32.5647 40.0302C32.6947 39.8759 32.8107 39.8899 32.8341 39.7839C32.8525 39.7007 32.8015 39.5985 32.7246 39.5597C32.6164 39.5052 32.4855 39.5903 32.4558 39.6096C32.2548 39.7403 32.3096 39.9446 32.12 40.0332C32.0819 40.0511 32.0214 40.07 31.9577 40.1297C31.9306 40.1551 31.8636 40.2179 31.8793 40.2611C31.8975 40.3112 32.017 40.3094 32.1306 40.3078C32.267 40.3058 32.3351 40.3049 32.4007 40.264C32.4916 40.2073 32.4644 40.1492 32.5647 40.0302Z" fill="url(#paint70_linear_11668_67064)"/>
<path d="M34.357 29.4978C33.5496 30.4866 33.089 31.411 32.8233 32.0586C32.5035 32.8378 32.2718 33.4217 32.3444 34.178C32.4244 35.0104 32.8019 35.3096 33.0526 36.0192C33.2957 36.7074 33.4142 37.7664 32.7798 39.3422C32.6202 39.3975 32.4606 39.4528 32.301 39.508C32.1949 39.0822 32.0234 38.4452 31.7669 37.6866C31.2586 36.1833 30.7519 35.1941 30.6149 34.8868C30.1323 33.8048 30.0836 31.873 32.0921 28.1458C32.847 28.5964 33.602 29.0471 34.357 29.4978Z" fill="url(#paint71_linear_11668_67064)"/>
<path d="M36.3867 25.4264C36.1188 23.7202 36.0614 23.5401 35.9 23.3023C35.2861 22.3974 34.179 22.1518 33.5439 22.0199C32.7024 21.8451 32.0248 21.8905 31.4451 21.9866C31.4111 21.9922 31.3783 22.0005 31.3463 22.0109C30.6644 22.1362 30.1477 22.7336 30.1477 23.4517C30.1477 23.9655 30.4122 24.4174 30.8124 24.6789C30.8471 24.713 30.885 24.7393 30.9264 24.756C31.1431 24.8435 31.3171 24.9757 31.4286 25.1985C31.5565 25.454 31.498 25.605 31.0398 27.938C30.8085 29.1157 30.7925 29.4101 30.943 29.7322C31.2629 30.4166 32.0679 30.6551 32.5859 30.8085C32.8663 30.8916 35.1027 31.5227 36.1549 30.2987C36.5512 29.8377 36.6047 29.3169 36.6931 28.4575C36.7414 27.9879 36.7292 27.6073 36.3867 25.4264Z" fill="url(#paint72_linear_11668_67064)"/>
<g style="mix-blend-mode:multiply" opacity="0.3">
<path style="mix-blend-mode:multiply" opacity="0.3" d="M33.6341 30.4939C33.4086 30.0314 33.7116 29.6053 33.3791 29.0494C32.9554 28.3409 32.1931 28.5814 31.9062 28.058C31.612 27.5212 32.1886 26.8573 32.6128 26.1045C32.896 25.6019 31.1013 24.6366 31.4288 25.1955C31.5566 25.451 31.4981 25.602 31.0399 27.935C30.8086 29.1127 30.7926 29.4071 30.9431 29.7292C31.263 30.4136 32.068 30.6521 32.586 30.8055C32.7395 30.851 33.4792 31.0601 34.2898 31.0398C33.9281 30.8929 33.7335 30.698 33.6341 30.4939Z" fill="url(#paint73_linear_11668_67064)"/>
</g>
<path d="M28.2682 24.7108C28.2682 24.7108 28.0844 24.7534 28.011 24.3995C27.9534 24.1221 27.8874 24.0467 27.8435 24.1166C27.7997 24.1866 27.8489 24.3408 27.8489 24.3408C27.8489 24.3408 27.5505 24.2354 27.3615 24.0197C27.1725 23.804 27.1942 24.0384 27.2226 24.1716C27.251 24.3048 27.5528 24.6365 27.6666 24.6762C27.7805 24.7159 28.0292 24.9882 28.0292 24.9882L28.2682 24.7108Z" fill="url(#paint74_linear_11668_67064)"/>
<path d="M30.2191 23.2288C30.1551 24.3134 30.5163 25.2621 29.805 26.0076C29.3972 26.4869 29.7082 27.2935 30.3414 27.3638C30.8975 27.4171 31.5173 26.9164 31.8038 26.621C32.5198 25.8466 32.5311 24.8527 32.8775 24.2744C34.0962 22.2152 30.7321 20.8589 30.2191 23.2288Z" fill="url(#paint75_linear_11668_67064)"/>
<path d="M30.489 25.6987C30.488 25.6974 30.487 25.6965 30.486 25.6965C29.9264 25.6813 29.1518 25.4032 28.1836 24.2989C28.0823 24.5377 27.9809 24.7765 27.8796 25.0153C28.6572 26.1963 29.3719 26.8604 29.9946 27.2232C30.262 27.4109 30.6265 27.432 30.921 27.248C31.3137 27.0026 31.4331 26.4853 31.1877 26.0926C31.0312 25.8421 30.7639 25.703 30.489 25.6987Z" fill="url(#paint76_linear_11668_67064)"/>
<defs>
<linearGradient id="paint0_linear_11668_67064" x1="-8.88147" y1="59.6471" x2="-14.8456" y2="61.1458" gradientUnits="userSpaceOnUse">
<stop stop-color="#E38DDD"/>
<stop offset="0.5" stop-color="#BC7FEA"/>
<stop offset="1" stop-color="#9571F6"/>
</linearGradient>
<linearGradient id="paint1_linear_11668_67064" x1="-9.94634" y1="59.8708" x2="-15.9097" y2="61.3692" gradientUnits="userSpaceOnUse">
<stop stop-color="#E38DDD"/>
<stop offset="0.5" stop-color="#BC7FEA"/>
<stop offset="1" stop-color="#9571F6"/>
</linearGradient>
<linearGradient id="paint2_linear_11668_67064" x1="-9.99509" y1="59.9162" x2="-15.9588" y2="61.4148" gradientUnits="userSpaceOnUse">
<stop stop-color="#E38DDD"/>
<stop offset="0.5" stop-color="#BC7FEA"/>
<stop offset="1" stop-color="#9571F6"/>
</linearGradient>
<linearGradient id="paint3_linear_11668_67064" x1="-9.95214" y1="59.8846" x2="-15.9161" y2="61.3831" gradientUnits="userSpaceOnUse">
<stop stop-color="#E38DDD"/>
<stop offset="0.5" stop-color="#BC7FEA"/>
<stop offset="1" stop-color="#9571F6"/>
</linearGradient>
<linearGradient id="paint4_linear_11668_67064" x1="-9.94049" y1="59.868" x2="-15.9042" y2="61.3665" gradientUnits="userSpaceOnUse">
<stop stop-color="#E38DDD"/>
<stop offset="0.5" stop-color="#BC7FEA"/>
<stop offset="1" stop-color="#9571F6"/>
</linearGradient>
<linearGradient id="paint5_linear_11668_67064" x1="-9.9501" y1="59.8707" x2="-15.9142" y2="61.3693" gradientUnits="userSpaceOnUse">
<stop stop-color="#E38DDD"/>
<stop offset="0.5" stop-color="#BC7FEA"/>
<stop offset="1" stop-color="#9571F6"/>
</linearGradient>
<linearGradient id="paint6_linear_11668_67064" x1="-9.93473" y1="59.8665" x2="-15.9" y2="61.3654" gradientUnits="userSpaceOnUse">
<stop stop-color="#E38DDD"/>
<stop offset="0.5" stop-color="#BC7FEA"/>
<stop offset="1" stop-color="#9571F6"/>
</linearGradient>
<linearGradient id="paint7_linear_11668_67064" x1="-9.94921" y1="59.8717" x2="-15.9157" y2="61.3709" gradientUnits="userSpaceOnUse">
<stop stop-color="#E38DDD"/>
<stop offset="0.5" stop-color="#BC7FEA"/>
<stop offset="1" stop-color="#9571F6"/>
</linearGradient>
<linearGradient id="paint8_linear_11668_67064" x1="-10.012" y1="59.9253" x2="-15.9761" y2="61.4239" gradientUnits="userSpaceOnUse">
<stop stop-color="#E38DDD"/>
<stop offset="0.5" stop-color="#BC7FEA"/>
<stop offset="1" stop-color="#9571F6"/>
</linearGradient>
<linearGradient id="paint9_linear_11668_67064" x1="-9.91005" y1="59.8557" x2="-15.8722" y2="61.3538" gradientUnits="userSpaceOnUse">
<stop stop-color="#E38DDD"/>
<stop offset="0.5" stop-color="#BC7FEA"/>
<stop offset="1" stop-color="#9571F6"/>
</linearGradient>
<linearGradient id="paint10_linear_11668_67064" x1="-9.94075" y1="59.868" x2="-15.9085" y2="61.3676" gradientUnits="userSpaceOnUse">
<stop stop-color="#E38DDD"/>
<stop offset="0.5" stop-color="#BC7FEA"/>
<stop offset="1" stop-color="#9571F6"/>
</linearGradient>
<linearGradient id="paint11_linear_11668_67064" x1="-37.694" y1="49.0789" x2="-30.9789" y2="45.3724" gradientUnits="userSpaceOnUse">
<stop stop-color="#AA80F9"/>
<stop offset="0.5" stop-color="#8672E8"/>
<stop offset="1" stop-color="#6165D7"/>
</linearGradient>
<linearGradient id="paint12_linear_11668_67064" x1="-29.795" y1="46.9396" x2="-23.08" y2="43.2332" gradientUnits="userSpaceOnUse">
<stop stop-color="#AA80F9"/>
<stop offset="0.5" stop-color="#8672E8"/>
<stop offset="1" stop-color="#6165D7"/>
</linearGradient>
<linearGradient id="paint13_linear_11668_67064" x1="-29.921" y1="46.9912" x2="-23.2057" y2="43.2846" gradientUnits="userSpaceOnUse">
<stop stop-color="#AA80F9"/>
<stop offset="0.5" stop-color="#8672E8"/>
<stop offset="1" stop-color="#6165D7"/>
</linearGradient>
<linearGradient id="paint14_linear_11668_67064" x1="-29.8923" y1="46.985" x2="-23.1792" y2="43.2797" gradientUnits="userSpaceOnUse">
<stop stop-color="#AA80F9"/>
<stop offset="0.5" stop-color="#8672E8"/>
<stop offset="1" stop-color="#6165D7"/>
</linearGradient>
<linearGradient id="paint15_linear_11668_67064" x1="-29.6498" y1="46.8691" x2="-22.935" y2="43.1628" gradientUnits="userSpaceOnUse">
<stop stop-color="#AA80F9"/>
<stop offset="0.5" stop-color="#8672E8"/>
<stop offset="1" stop-color="#6165D7"/>
</linearGradient>
<linearGradient id="paint16_linear_11668_67064" x1="-29.8094" y1="46.9413" x2="-23.0939" y2="43.2346" gradientUnits="userSpaceOnUse">
<stop stop-color="#AA80F9"/>
<stop offset="0.5" stop-color="#8672E8"/>
<stop offset="1" stop-color="#6165D7"/>
</linearGradient>
<linearGradient id="paint17_linear_11668_67064" x1="-30.0435" y1="47.0417" x2="-23.3282" y2="43.3351" gradientUnits="userSpaceOnUse">
<stop stop-color="#AA80F9"/>
<stop offset="0.5" stop-color="#8672E8"/>
<stop offset="1" stop-color="#6165D7"/>
</linearGradient>
<linearGradient id="paint18_linear_11668_67064" x1="-30.103" y1="47.0644" x2="-23.3881" y2="43.358" gradientUnits="userSpaceOnUse">
<stop stop-color="#AA80F9"/>
<stop offset="0.5" stop-color="#8672E8"/>
<stop offset="1" stop-color="#6165D7"/>
</linearGradient>
<linearGradient id="paint19_linear_11668_67064" x1="-29.8091" y1="46.9409" x2="-23.0944" y2="43.2346" gradientUnits="userSpaceOnUse">
<stop stop-color="#AA80F9"/>
<stop offset="0.5" stop-color="#8672E8"/>
<stop offset="1" stop-color="#6165D7"/>
</linearGradient>
<linearGradient id="paint20_linear_11668_67064" x1="-29.8129" y1="46.9421" x2="-23.0985" y2="43.2359" gradientUnits="userSpaceOnUse">
<stop stop-color="#AA80F9"/>
<stop offset="0.5" stop-color="#8672E8"/>
<stop offset="1" stop-color="#6165D7"/>
</linearGradient>
<linearGradient id="paint21_linear_11668_67064" x1="-29.7624" y1="46.9174" x2="-23.0474" y2="43.211" gradientUnits="userSpaceOnUse">
<stop stop-color="#AA80F9"/>
<stop offset="0.5" stop-color="#8672E8"/>
<stop offset="1" stop-color="#6165D7"/>
</linearGradient>
<linearGradient id="paint22_linear_11668_67064" x1="17.7387" y1="35.8217" x2="17.46" y2="40.0026" gradientUnits="userSpaceOnUse">
<stop stop-color="#FF9085"/>
<stop offset="0.5" stop-color="#FD80A0"/>
<stop offset="1" stop-color="#FB6FBB"/>
</linearGradient>
<linearGradient id="paint23_linear_11668_67064" x1="17.1372" y1="35.7787" x2="16.8584" y2="39.9597" gradientUnits="userSpaceOnUse">
<stop stop-color="#FF9085"/>
<stop offset="0.5" stop-color="#FD80A0"/>
<stop offset="1" stop-color="#FB6FBB"/>
</linearGradient>
<linearGradient id="paint24_linear_11668_67064" x1="13.9861" y1="33.2587" x2="21.8266" y2="33.2587" gradientUnits="userSpaceOnUse">
<stop stop-color="#FF9085"/>
<stop offset="0.5" stop-color="#FD80A0"/>
<stop offset="1" stop-color="#FB6FBB"/>
</linearGradient>
<linearGradient id="paint25_linear_11668_67064" x1="17.7675" y1="35.1055" x2="17.8639" y2="33.8047" gradientUnits="userSpaceOnUse">
<stop stop-color="#FF9085"/>
<stop offset="0.5" stop-color="#FD80A0"/>
<stop offset="1" stop-color="#FB6FBB"/>
</linearGradient>
<linearGradient id="paint26_linear_11668_67064" x1="18.4837" y1="32.1255" x2="17.2312" y2="34.9197" gradientUnits="userSpaceOnUse">
<stop stop-color="#FCB148"/>
<stop offset="0.06" stop-color="#FDBA46"/>
<stop offset="0.32" stop-color="#FFC444"/>
<stop offset="0.64" stop-color="#FBAB49"/>
<stop offset="0.87" stop-color="#F8924F"/>
<stop offset="0.93" stop-color="#F8924F"/>
<stop offset="1" stop-color="#F8924F"/>
</linearGradient>
<linearGradient id="paint27_linear_11668_67064" x1="19.2354" y1="37.2089" x2="17.5543" y2="24.5839" gradientUnits="userSpaceOnUse">
<stop stop-color="#FF9085"/>
<stop offset="0.5" stop-color="#FD80A0"/>
<stop offset="1" stop-color="#FB6FBB"/>
</linearGradient>
<linearGradient id="paint28_linear_11668_67064" x1="18.692" y1="5.71788" x2="16.6649" y2="40.8183" gradientUnits="userSpaceOnUse">
<stop stop-color="#E38DDD"/>
<stop offset="0.5" stop-color="#BC7FEA"/>
<stop offset="1" stop-color="#9571F6"/>
</linearGradient>
<linearGradient id="paint29_linear_11668_67064" x1="16.0542" y1="5.56894" x2="14.0271" y2="40.6693" gradientUnits="userSpaceOnUse">
<stop stop-color="#E38DDD"/>
<stop offset="0.5" stop-color="#BC7FEA"/>
<stop offset="1" stop-color="#9571F6"/>
</linearGradient>
<linearGradient id="paint30_linear_11668_67064" x1="11.3654" y1="20.0787" x2="9.20057" y2="20.659" gradientUnits="userSpaceOnUse">
<stop stop-color="#FCB148"/>
<stop offset="0.06" stop-color="#FDBA46"/>
<stop offset="0.32" stop-color="#FFC444"/>
<stop offset="0.64" stop-color="#FBAB49"/>
<stop offset="0.87" stop-color="#F8924F"/>
<stop offset="0.93" stop-color="#F8924F"/>
<stop offset="1" stop-color="#F8924F"/>
</linearGradient>
<linearGradient id="paint31_linear_11668_67064" x1="13.1996" y1="18.0437" x2="11.0922" y2="22.1493" gradientUnits="userSpaceOnUse">
<stop stop-color="#FFDB44"/>
<stop offset="0.5" stop-color="#FEE525"/>
<stop offset="1" stop-color="#FEEF06"/>
</linearGradient>
<linearGradient id="paint32_linear_11668_67064" x1="12.626" y1="22.4626" x2="12.3565" y2="20.4389" gradientUnits="userSpaceOnUse">
<stop stop-color="#FCB148"/>
<stop offset="0.06" stop-color="#FDBA46"/>
<stop offset="0.32" stop-color="#FFC444"/>
<stop offset="0.64" stop-color="#FBAB49"/>
<stop offset="0.87" stop-color="#F8924F"/>
<stop offset="0.93" stop-color="#F8924F"/>
<stop offset="1" stop-color="#F8924F"/>
</linearGradient>
<linearGradient id="paint33_linear_11668_67064" x1="12.0115" y1="19.1765" x2="13.3683" y2="22.4624" gradientUnits="userSpaceOnUse">
<stop stop-color="#FCB148"/>
<stop offset="0.06" stop-color="#FDBA46"/>
<stop offset="0.32" stop-color="#FFC444"/>
<stop offset="0.64" stop-color="#FBAB49"/>
<stop offset="0.87" stop-color="#F8924F"/>
<stop offset="0.93" stop-color="#F8924F"/>
<stop offset="1" stop-color="#F8924F"/>
</linearGradient>
<linearGradient id="paint34_linear_11668_67064" x1="11.9877" y1="18.4868" x2="12.6097" y2="21.3754" gradientUnits="userSpaceOnUse">
<stop stop-color="#FFDB44"/>
<stop offset="0.5" stop-color="#FEE525"/>
<stop offset="1" stop-color="#FEEF06"/>
</linearGradient>
<linearGradient id="paint35_linear_11668_67064" x1="11.5582" y1="19.3561" x2="12.9123" y2="22.6353" gradientUnits="userSpaceOnUse">
<stop stop-color="#FCB148"/>
<stop offset="0.06" stop-color="#FDBA46"/>
<stop offset="0.32" stop-color="#FFC444"/>
<stop offset="0.64" stop-color="#FBAB49"/>
<stop offset="0.87" stop-color="#F8924F"/>
<stop offset="0.93" stop-color="#F8924F"/>
<stop offset="1" stop-color="#F8924F"/>
</linearGradient>
<linearGradient id="paint36_linear_11668_67064" x1="16.7348" y1="14.9339" x2="14.5699" y2="15.5142" gradientUnits="userSpaceOnUse">
<stop stop-color="#FCB148"/>
<stop offset="0.06" stop-color="#FDBA46"/>
<stop offset="0.32" stop-color="#FFC444"/>
<stop offset="0.64" stop-color="#FBAB49"/>
<stop offset="0.87" stop-color="#F8924F"/>
<stop offset="0.93" stop-color="#F8924F"/>
<stop offset="1" stop-color="#F8924F"/>
</linearGradient>
<linearGradient id="paint37_linear_11668_67064" x1="18.5689" y1="12.899" x2="16.4616" y2="17.0045" gradientUnits="userSpaceOnUse">
<stop stop-color="#FFDB44"/>
<stop offset="0.5" stop-color="#FEE525"/>
<stop offset="1" stop-color="#FEEF06"/>
</linearGradient>
<linearGradient id="paint38_linear_11668_67064" x1="17.9954" y1="17.3178" x2="17.7259" y2="15.2941" gradientUnits="userSpaceOnUse">
<stop stop-color="#FCB148"/>
<stop offset="0.06" stop-color="#FDBA46"/>
<stop offset="0.32" stop-color="#FFC444"/>
<stop offset="0.64" stop-color="#FBAB49"/>
<stop offset="0.87" stop-color="#F8924F"/>
<stop offset="0.93" stop-color="#F8924F"/>
<stop offset="1" stop-color="#F8924F"/>
</linearGradient>
<linearGradient id="paint39_linear_11668_67064" x1="17.3809" y1="14.0318" x2="18.7376" y2="17.3176" gradientUnits="userSpaceOnUse">
<stop stop-color="#FCB148"/>
<stop offset="0.06" stop-color="#FDBA46"/>
<stop offset="0.32" stop-color="#FFC444"/>
<stop offset="0.64" stop-color="#FBAB49"/>
<stop offset="0.87" stop-color="#F8924F"/>
<stop offset="0.93" stop-color="#F8924F"/>
<stop offset="1" stop-color="#F8924F"/>
</linearGradient>
<linearGradient id="paint40_linear_11668_67064" x1="17.3578" y1="13.3277" x2="17.9798" y2="16.2164" gradientUnits="userSpaceOnUse">
<stop stop-color="#FFDB44"/>
<stop offset="0.5" stop-color="#FEE525"/>
<stop offset="1" stop-color="#FEEF06"/>
</linearGradient>
<linearGradient id="paint41_linear_11668_67064" x1="16.9276" y1="14.2113" x2="18.2816" y2="17.4905" gradientUnits="userSpaceOnUse">
<stop stop-color="#FCB148"/>
<stop offset="0.06" stop-color="#FDBA46"/>
<stop offset="0.32" stop-color="#FFC444"/>
<stop offset="0.64" stop-color="#FBAB49"/>
<stop offset="0.87" stop-color="#F8924F"/>
<stop offset="0.93" stop-color="#F8924F"/>
<stop offset="1" stop-color="#F8924F"/>
</linearGradient>
<linearGradient id="paint42_linear_11668_67064" x1="20.7857" y1="20.5438" x2="18.6209" y2="21.1241" gradientUnits="userSpaceOnUse">
<stop stop-color="#FCB148"/>
<stop offset="0.06" stop-color="#FDBA46"/>
<stop offset="0.32" stop-color="#FFC444"/>
<stop offset="0.64" stop-color="#FBAB49"/>
<stop offset="0.87" stop-color="#F8924F"/>
<stop offset="0.93" stop-color="#F8924F"/>
<stop offset="1" stop-color="#F8924F"/>
</linearGradient>
<linearGradient id="paint43_linear_11668_67064" x1="22.6056" y1="18.5081" x2="20.4982" y2="22.6137" gradientUnits="userSpaceOnUse">
<stop stop-color="#FFDB44"/>
<stop offset="0.5" stop-color="#FEE525"/>
<stop offset="1" stop-color="#FEEF06"/>
</linearGradient>
<linearGradient id="paint44_linear_11668_67064" x1="22.047" y1="22.9134" x2="21.7775" y2="20.8897" gradientUnits="userSpaceOnUse">
<stop stop-color="#FCB148"/>
<stop offset="0.06" stop-color="#FDBA46"/>
<stop offset="0.32" stop-color="#FFC444"/>
<stop offset="0.64" stop-color="#FBAB49"/>
<stop offset="0.87" stop-color="#F8924F"/>
<stop offset="0.93" stop-color="#F8924F"/>
<stop offset="1" stop-color="#F8924F"/>
</linearGradient>
<linearGradient id="paint45_linear_11668_67064" x1="21.4182" y1="19.6267" x2="22.775" y2="22.9125" gradientUnits="userSpaceOnUse">
<stop stop-color="#FCB148"/>
<stop offset="0.06" stop-color="#FDBA46"/>
<stop offset="0.32" stop-color="#FFC444"/>
<stop offset="0.64" stop-color="#FBAB49"/>
<stop offset="0.87" stop-color="#F8924F"/>
<stop offset="0.93" stop-color="#F8924F"/>
<stop offset="1" stop-color="#F8924F"/>
</linearGradient>
<linearGradient id="paint46_linear_11668_67064" x1="21.3944" y1="18.9369" x2="22.0165" y2="21.8255" gradientUnits="userSpaceOnUse">
<stop stop-color="#FFDB44"/>
<stop offset="0.5" stop-color="#FEE525"/>
<stop offset="1" stop-color="#FEEF06"/>
</linearGradient>
<linearGradient id="paint47_linear_11668_67064" x1="20.9642" y1="19.8205" x2="22.3183" y2="23.0997" gradientUnits="userSpaceOnUse">
<stop stop-color="#FCB148"/>
<stop offset="0.06" stop-color="#FDBA46"/>
<stop offset="0.32" stop-color="#FFC444"/>
<stop offset="0.64" stop-color="#FBAB49"/>
<stop offset="0.87" stop-color="#F8924F"/>
<stop offset="0.93" stop-color="#F8924F"/>
<stop offset="1" stop-color="#F8924F"/>
</linearGradient>
<linearGradient id="paint48_linear_11668_67064" x1="16.228" y1="7.83151" x2="14.0632" y2="8.41182" gradientUnits="userSpaceOnUse">
<stop stop-color="#FCB148"/>
<stop offset="0.06" stop-color="#FDBA46"/>
<stop offset="0.32" stop-color="#FFC444"/>
<stop offset="0.64" stop-color="#FBAB49"/>
<stop offset="0.87" stop-color="#F8924F"/>
<stop offset="0.93" stop-color="#F8924F"/>
<stop offset="1" stop-color="#F8924F"/>
</linearGradient>
<linearGradient id="paint49_linear_11668_67064" x1="18.0479" y1="5.79587" x2="15.9405" y2="9.90142" gradientUnits="userSpaceOnUse">
<stop stop-color="#FFDB44"/>
<stop offset="0.5" stop-color="#FEE525"/>
<stop offset="1" stop-color="#FEEF06"/>
</linearGradient>
<linearGradient id="paint50_linear_11668_67064" x1="17.4893" y1="10.2011" x2="17.2198" y2="8.17741" gradientUnits="userSpaceOnUse">
<stop stop-color="#FCB148"/>
<stop offset="0.06" stop-color="#FDBA46"/>
<stop offset="0.32" stop-color="#FFC444"/>
<stop offset="0.64" stop-color="#FBAB49"/>
<stop offset="0.87" stop-color="#F8924F"/>
<stop offset="0.93" stop-color="#F8924F"/>
<stop offset="1" stop-color="#F8924F"/>
</linearGradient>
<linearGradient id="paint51_linear_11668_67064" x1="16.8741" y1="6.9294" x2="18.2309" y2="10.2152" gradientUnits="userSpaceOnUse">
<stop stop-color="#FCB148"/>
<stop offset="0.06" stop-color="#FDBA46"/>
<stop offset="0.32" stop-color="#FFC444"/>
<stop offset="0.64" stop-color="#FBAB49"/>
<stop offset="0.87" stop-color="#F8924F"/>
<stop offset="0.93" stop-color="#F8924F"/>
<stop offset="1" stop-color="#F8924F"/>
</linearGradient>
<linearGradient id="paint52_linear_11668_67064" x1="16.8367" y1="6.22461" x2="17.4587" y2="9.11327" gradientUnits="userSpaceOnUse">
<stop stop-color="#FFDB44"/>
<stop offset="0.5" stop-color="#FEE525"/>
<stop offset="1" stop-color="#FEEF06"/>
</linearGradient>
<linearGradient id="paint53_linear_11668_67064" x1="16.4065" y1="7.10823" x2="17.7605" y2="10.3875" gradientUnits="userSpaceOnUse">
<stop stop-color="#FCB148"/>
<stop offset="0.06" stop-color="#FDBA46"/>
<stop offset="0.32" stop-color="#FFC444"/>
<stop offset="0.64" stop-color="#FBAB49"/>
<stop offset="0.87" stop-color="#F8924F"/>
<stop offset="0.93" stop-color="#F8924F"/>
<stop offset="1" stop-color="#F8924F"/>
</linearGradient>
<linearGradient id="paint54_linear_11668_67064" x1="11.5274" y1="13.5883" x2="9.97537" y2="14.0043" gradientUnits="userSpaceOnUse">
<stop stop-color="#FCB148"/>
<stop offset="0.06" stop-color="#FDBA46"/>
<stop offset="0.32" stop-color="#FFC444"/>
<stop offset="0.64" stop-color="#FBAB49"/>
<stop offset="0.87" stop-color="#F8924F"/>
<stop offset="0.93" stop-color="#F8924F"/>
<stop offset="1" stop-color="#F8924F"/>
</linearGradient>
<linearGradient id="paint55_linear_11668_67064" x1="12.8457" y1="12.1325" x2="11.335" y2="15.0758" gradientUnits="userSpaceOnUse">
<stop stop-color="#FFDB44"/>
<stop offset="0.5" stop-color="#FEE525"/>
<stop offset="1" stop-color="#FEEF06"/>
</linearGradient>
<linearGradient id="paint56_linear_11668_67064" x1="12.4335" y1="15.2961" x2="12.2403" y2="13.8453" gradientUnits="userSpaceOnUse">
<stop stop-color="#FCB148"/>
<stop offset="0.06" stop-color="#FDBA46"/>
<stop offset="0.32" stop-color="#FFC444"/>
<stop offset="0.64" stop-color="#FBAB49"/>
<stop offset="0.87" stop-color="#F8924F"/>
<stop offset="0.93" stop-color="#F8924F"/>
<stop offset="1" stop-color="#F8924F"/>
</linearGradient>
<linearGradient id="paint57_linear_11668_67064" x1="11.9894" y1="12.9373" x2="12.962" y2="15.293" gradientUnits="userSpaceOnUse">
<stop stop-color="#FCB148"/>
<stop offset="0.06" stop-color="#FDBA46"/>
<stop offset="0.32" stop-color="#FFC444"/>
<stop offset="0.64" stop-color="#FBAB49"/>
<stop offset="0.87" stop-color="#F8924F"/>
<stop offset="0.93" stop-color="#F8924F"/>
<stop offset="1" stop-color="#F8924F"/>
</linearGradient>
<linearGradient id="paint58_linear_11668_67064" x1="11.9708" y1="12.4349" x2="12.4167" y2="14.5058" gradientUnits="userSpaceOnUse">
<stop stop-color="#FFDB44"/>
<stop offset="0.5" stop-color="#FEE525"/>
<stop offset="1" stop-color="#FEEF06"/>
</linearGradient>
<linearGradient id="paint59_linear_11668_67064" x1="11.6675" y1="13.0658" x2="12.6382" y2="15.4166" gradientUnits="userSpaceOnUse">
<stop stop-color="#FCB148"/>
<stop offset="0.06" stop-color="#FDBA46"/>
<stop offset="0.32" stop-color="#FFC444"/>
<stop offset="0.64" stop-color="#FBAB49"/>
<stop offset="0.87" stop-color="#F8924F"/>
<stop offset="0.93" stop-color="#F8924F"/>
<stop offset="1" stop-color="#F8924F"/>
</linearGradient>
<linearGradient id="paint60_linear_11668_67064" x1="32.9729" y1="30.6529" x2="32.3644" y2="26.5627" gradientUnits="userSpaceOnUse">
<stop stop-color="#6165D7"/>
<stop offset="0.5" stop-color="#8672E8"/>
<stop offset="1" stop-color="#AA80F9"/>
</linearGradient>
<linearGradient id="paint61_linear_11668_67064" x1="31.5305" y1="22.2044" x2="31.608" y2="23.7167" gradientUnits="userSpaceOnUse">
<stop stop-color="#FFC444"/>
<stop offset="0.5" stop-color="#F99A4D"/>
<stop offset="1" stop-color="#F36F56"/>
</linearGradient>
<linearGradient id="paint62_linear_11668_67064" x1="32.8785" y1="17.2382" x2="32.7427" y2="22.4784" gradientUnits="userSpaceOnUse">
<stop stop-color="#F36F56"/>
<stop offset="0.5" stop-color="#F99A4D"/>
<stop offset="1" stop-color="#FFC444"/>
</linearGradient>
<linearGradient id="paint63_linear_11668_67064" x1="32.6924" y1="20.2675" x2="32.0318" y2="18.6101" gradientUnits="userSpaceOnUse">
<stop stop-color="#26264F"/>
<stop offset="0.5" stop-color="#35396D"/>
<stop offset="1" stop-color="#444B8C"/>
</linearGradient>
<linearGradient id="paint64_linear_11668_67064" x1="64.5491" y1="-8.05336" x2="63.0282" y2="-9.39851" gradientUnits="userSpaceOnUse">
<stop stop-color="#F36F56"/>
<stop offset="0.5" stop-color="#F99A4D"/>
<stop offset="1" stop-color="#FFC444"/>
</linearGradient>
<linearGradient id="paint65_linear_11668_67064" x1="71.4372" y1="41.8689" x2="72.4199" y2="44.9516" gradientUnits="userSpaceOnUse">
<stop stop-color="#444B8C"/>
<stop offset="0.5" stop-color="#35396D"/>
<stop offset="1" stop-color="#26264F"/>
</linearGradient>
<linearGradient id="paint66_linear_11668_67064" x1="73.084" y1="41.2848" x2="73.1543" y2="46.2586" gradientUnits="userSpaceOnUse">
<stop stop-color="#FFC444"/>
<stop offset="0.5" stop-color="#F99A4D"/>
<stop offset="1" stop-color="#F36F56"/>
</linearGradient>
<linearGradient id="paint67_linear_11668_67064" x1="33.1178" y1="37.1969" x2="37.1818" y2="33.9023" gradientUnits="userSpaceOnUse">
<stop stop-color="#311944"/>
<stop offset="0.5" stop-color="#5D295D"/>
<stop offset="1" stop-color="#893976"/>
</linearGradient>
<linearGradient id="paint68_linear_11668_67064" x1="74.1098" y1="30.5511" x2="74.4212" y2="20.267" gradientUnits="userSpaceOnUse">
<stop stop-color="#311944"/>
<stop offset="0.5" stop-color="#5D295D"/>
<stop offset="1" stop-color="#893976"/>
</linearGradient>
<linearGradient id="paint69_linear_11668_67064" x1="67.842" y1="41.0479" x2="67.9123" y2="46.0219" gradientUnits="userSpaceOnUse">
<stop stop-color="#FFC444"/>
<stop offset="0.5" stop-color="#F99A4D"/>
<stop offset="1" stop-color="#F36F56"/>
</linearGradient>
<linearGradient id="paint70_linear_11668_67064" x1="67.1707" y1="41.2287" x2="68.1535" y2="44.3114" gradientUnits="userSpaceOnUse">
<stop stop-color="#444B8C"/>
<stop offset="0.5" stop-color="#35396D"/>
<stop offset="1" stop-color="#26264F"/>
</linearGradient>
<linearGradient id="paint71_linear_11668_67064" x1="29.9594" y1="34.4894" x2="34.1326" y2="34.0026" gradientUnits="userSpaceOnUse">
<stop stop-color="#311944"/>
<stop offset="0.5" stop-color="#5D295D"/>
<stop offset="1" stop-color="#893976"/>
</linearGradient>
<linearGradient id="paint72_linear_11668_67064" x1="39.7243" y1="27.6442" x2="23.4026" y2="24.6396" gradientUnits="userSpaceOnUse">
<stop stop-color="#6165D7"/>
<stop offset="0.5" stop-color="#8672E8"/>
<stop offset="1" stop-color="#AA80F9"/>
</linearGradient>
<linearGradient id="paint73_linear_11668_67064" x1="31.632" y1="25.3782" x2="32.8869" y2="31.9142" gradientUnits="userSpaceOnUse">
<stop stop-color="#6165D7"/>
<stop offset="0.5" stop-color="#8672E8"/>
<stop offset="1" stop-color="#AA80F9"/>
</linearGradient>
<linearGradient id="paint74_linear_11668_67064" x1="28.0634" y1="24.8082" x2="28.6716" y2="25.576" gradientUnits="userSpaceOnUse">
<stop stop-color="#FFC444"/>
<stop offset="0.5" stop-color="#F99A4D"/>
<stop offset="1" stop-color="#F36F56"/>
</linearGradient>
<linearGradient id="paint75_linear_11668_67064" x1="34.4369" y1="15.1386" x2="29.19" y2="30.8833" gradientUnits="userSpaceOnUse">
<stop stop-color="#6165D7"/>
<stop offset="0.5" stop-color="#8672E8"/>
<stop offset="1" stop-color="#AA80F9"/>
</linearGradient>
<linearGradient id="paint76_linear_11668_67064" x1="41.3078" y1="21.1263" x2="25.8741" y2="27.2274" gradientUnits="userSpaceOnUse">
<stop stop-color="#6165D7"/>
<stop offset="0.5" stop-color="#8672E8"/>
<stop offset="1" stop-color="#AA80F9"/>
</linearGradient>
</defs>
</svg>
