<svg width="29" height="44" viewBox="0 0 29 44" fill="none" xmlns="http://www.w3.org/2000/svg">
<path d="M15.2973 12.5777C16.144 11.2243 17.9303 10.8129 19.2838 11.6596C20.6372 12.5063 21.0486 14.2926 20.2019 15.646C19.3552 16.9994 17.5689 17.4109 16.2155 16.5642C14.8621 15.7175 14.4506 13.9312 15.2973 12.5777Z" fill="url(#paint0_angular_11668_66052)"/>
<path d="M15.2973 12.5777C16.144 11.2243 17.9303 10.8129 19.2838 11.6596C20.6372 12.5063 21.0486 14.2926 20.2019 15.646C19.3552 16.9994 17.5689 17.4109 16.2155 16.5642C14.8621 15.7175 14.4506 13.9312 15.2973 12.5777Z" stroke="#490AFF" stroke-width="1.1895"/>
<path d="M16.5757 13.4124L18.9672 14.9085" stroke="#490AFF" stroke-width="1.1895"/>
<path d="M16.2435 6.76928C15.1343 5.62114 15.1659 3.78832 16.314 2.67908C17.4621 1.56983 19.295 1.6014 20.4042 2.74954C21.5135 3.89767 21.4819 5.73049 20.3338 6.83974C19.1856 7.94899 17.3528 7.91741 16.2435 6.76928Z" fill="url(#paint1_angular_11668_66052)"/>
<path d="M16.2435 6.76928C15.1343 5.62114 15.1659 3.78832 16.314 2.67908C17.4621 1.56983 19.295 1.6014 20.4042 2.74954C21.5135 3.89767 21.4819 5.73049 20.3338 6.83974C19.1856 7.94899 17.3528 7.91741 16.2435 6.76928Z" stroke="#490AFF" stroke-width="1.1895"/>
<path d="M17.3616 5.73096L19.3903 3.7709" stroke="#490AFF" stroke-width="1.1895"/>
<path d="M7.39745 32.5547C7.13021 29.7854 8.20553 27.5744 9.56834 25.7607C11.3574 23.1153 14.8306 19.7109 9.70427 16.113C16.0051 15.6208 18.3598 15.5931 24.872 16.113C19.7456 19.7109 23.2188 23.1153 25.0079 25.7607C26.3707 27.5744 27.0322 29.9494 26.8363 32.4613C26.5725 36.4684 22.2365 39.909 17.2931 39.9114C12.3459 39.9127 7.89194 37.6431 7.39745 32.5547Z" fill="url(#paint2_angular_11668_66052)"/>
<path d="M7.39745 32.5547C7.13021 29.7854 8.20553 27.5744 9.56834 25.7607C11.3574 23.1153 14.8306 19.7109 9.70427 16.113C16.0051 15.6208 18.3598 15.5931 24.872 16.113C19.7456 19.7109 23.2188 23.1153 25.0079 25.7607C26.3707 27.5744 27.0322 29.9494 26.8363 32.4613C26.5725 36.4684 22.2365 39.909 17.2931 39.9114C12.3459 39.9127 7.89194 37.6431 7.39745 32.5547Z" stroke="#5153F1" stroke-width="1.36169" stroke-linecap="round" stroke-linejoin="round"/>
<path d="M19.1785 27.2025C19.1785 26.3488 18.3323 25.6562 17.2886 25.6562C16.2444 25.6562 15.3982 26.3488 15.3982 27.2025C15.3982 28.0567 16.2444 28.7493 17.2886 28.7493C18.3323 28.7493 19.1785 29.4419 19.1785 30.2956C19.1785 31.1498 18.3323 31.8423 17.2886 31.8423C16.2444 31.8423 15.3982 31.1498 15.3982 30.2956" stroke="#5153F1" stroke-width="1.36169" stroke-linecap="round" stroke-linejoin="round"/>
<path d="M17.2883 24.3906V33.1087" stroke="#5153F1" stroke-width="1.36169" stroke-linecap="round" stroke-linejoin="round"/>
<path d="M11.5012 20.8152C15.6662 20.86 19.3284 20.8599 23.1279 20.9048" stroke="#5153F1" stroke-width="2.42131" stroke-linecap="round" stroke-linejoin="round"/>
<path d="M4.19991 28.6098L2.19997 40.158" stroke="#5153F1" stroke-width="2.72332" stroke-miterlimit="10" stroke-linecap="round"/>
<path d="M6.47772 31.8246C12.6702 30.3177 11.339 35.0263 17.7691 34.5989C20.5637 34.4003 21.087 38.378 17.9211 38.4845C15.1038 38.5758 11.725 36.9849 11.725 36.9849C15.5553 38.6177 19.4784 39.3213 21.3775 37.3338C25.6404 32.8727 28.3164 35.7783 27.6108 36.4807C25.1306 38.9646 22.8331 41.2525 20.4907 42.2538C18.8633 42.9494 17.3445 42.7909 15.5556 42.2911C10.9529 41.0055 5.27683 38.8073 5.27683 38.8073L6.47772 31.8246Z" fill="url(#paint3_angular_11668_66052)"/>
<path d="M6.47772 31.8246C12.6702 30.3177 11.339 35.0263 17.7691 34.5989C20.5637 34.4003 21.087 38.378 17.9211 38.4845C15.1038 38.5758 11.725 36.9849 11.725 36.9849C15.5553 38.6177 19.4784 39.3213 21.3775 37.3338C25.6405 32.8727 28.3164 35.7783 27.6108 36.4807C25.1306 38.9646 22.8331 41.2525 20.4907 42.2538C18.8633 42.9494 17.3445 42.7909 15.5556 42.2911C10.9529 41.0055 5.27683 38.8074 5.27683 38.8074L6.47772 31.8246Z" stroke="#5153F1" stroke-width="1.36169" stroke-linecap="round" stroke-linejoin="round"/>
<defs>
<radialGradient id="paint0_angular_11668_66052" cx="0" cy="0" r="1" gradientUnits="userSpaceOnUse" gradientTransform="translate(17.7496 14.1119) rotate(32.0299) scale(2.89264)">
<stop stop-color="#E6E6FF"/>
<stop offset="0.380208" stop-color="#E2EBFF"/>
<stop offset="1" stop-color="#B9BAFC"/>
</radialGradient>
<radialGradient id="paint1_angular_11668_66052" cx="0" cy="0" r="1" gradientUnits="userSpaceOnUse" gradientTransform="translate(18.3239 4.75941) rotate(-44.013) scale(2.89264)">
<stop stop-color="#E6E6FF"/>
<stop offset="0.380208" stop-color="#E2EBFF"/>
<stop offset="1" stop-color="#B9BAFC"/>
</radialGradient>
<radialGradient id="paint2_angular_11668_66052" cx="0" cy="0" r="1" gradientUnits="userSpaceOnUse" gradientTransform="translate(17.1133 27.8224) rotate(90) scale(12.089 9.75683)">
<stop stop-color="#E6E6FF"/>
<stop offset="0.380208" stop-color="#E2EBFF"/>
<stop offset="1" stop-color="#B9BAFC"/>
</radialGradient>
<radialGradient id="paint3_angular_11668_66052" cx="0" cy="0" r="1" gradientUnits="userSpaceOnUse" gradientTransform="translate(16.5058 37.1782) rotate(91.0121) scale(5.51376 11.1984)">
<stop stop-color="#E6E6FF"/>
<stop offset="0.380208" stop-color="#E2EBFF"/>
<stop offset="1" stop-color="#B9BAFC"/>
</radialGradient>
</defs>
</svg>
