<svg width="24" height="24" viewBox="0 0 24 24" fill="none" xmlns="http://www.w3.org/2000/svg">
<g clip-path="url(#clip0_10089_43145)">
<path d="M10.7578 11.8275L18.6068 3.97852L20.0208 5.39252L18.6068 6.80752L21.0808 9.28152L19.6668 10.6965L17.1918 8.22152L15.7778 9.63552L17.8988 11.7565L16.4848 13.1715L14.3638 11.0495L12.1718 13.2415C12.8522 14.2755 13.1251 15.5251 12.9377 16.7486C12.7503 17.9722 12.1158 19.0828 11.1571 19.8657C10.1983 20.6485 8.98328 21.0481 7.74697 20.9872C6.51066 20.9262 5.34088 20.409 4.46379 19.5355C3.58482 18.6598 3.06282 17.4886 2.99925 16.2495C2.93567 15.0104 3.33507 13.792 4.11981 12.8309C4.90454 11.8699 6.01857 11.235 7.24535 11.0495C8.47214 10.8641 9.72406 11.1414 10.7578 11.8275ZM10.1208 18.1205C10.4121 17.845 10.6452 17.5138 10.8064 17.1466C10.9675 16.7795 11.0534 16.3837 11.059 15.9827C11.0646 15.5818 10.9897 15.1838 10.8388 14.8123C10.688 14.4408 10.4641 14.1032 10.1806 13.8197C9.89706 13.5362 9.55956 13.3123 9.18804 13.1615C8.81651 13.0106 8.41852 12.9357 8.01757 12.9413C7.61662 12.9469 7.22086 13.0328 6.85368 13.1939C6.48649 13.3551 6.15534 13.5882 5.87979 13.8795C5.33332 14.4453 5.03094 15.2031 5.03777 15.9897C5.04461 16.7763 5.36011 17.5287 5.91634 18.085C6.47256 18.6412 7.225 18.9567 8.01159 18.9635C8.79818 18.9704 9.55599 18.668 10.1218 18.1215L10.1208 18.1205Z" fill="#303030"/>
</g>
<defs>
<clipPath id="clip0_10089_43145">
<rect width="24" height="24" fill="white"/>
</clipPath>
</defs>
</svg>
