<svg width="26" height="27" viewBox="0 0 26 27" fill="none" xmlns="http://www.w3.org/2000/svg">
<path d="M23.0294 16.4451C22.6144 16.4142 21.7579 16.8778 21.5239 16.997C20.6895 17.4164 19.5284 18.0742 18.7646 18.5996C18.7116 18.6349 18.641 18.6835 18.588 18.7188C18.2437 18.9395 17.8817 19.0852 17.4799 19.1735C15.2636 19.6459 12.0364 19.6945 12.0364 19.6945L11.8465 19.7033C11.7053 19.7121 11.5772 19.6106 11.5596 19.4737C11.5375 19.3236 11.6479 19.1824 11.8068 19.1691L16.6058 18.7144C17.1355 18.657 17.555 18.1625 17.4976 17.6062C17.4402 17.05 16.928 16.6438 16.3983 16.7012L12.1291 16.6482C11.8377 16.6438 11.3741 16.5732 11.096 16.4893C8.34554 15.6858 6.79151 16.4363 5.96593 16.7895C5.7805 16.4849 5.43173 16.2862 5.04322 16.3127L3.20222 16.4363C2.58856 16.476 2.12941 16.9882 2.16914 17.5798L2.46494 21.6679C2.50909 22.2595 3.03887 22.7054 3.65254 22.6613L5.49354 22.5377C5.88205 22.5112 6.19992 22.2728 6.33678 21.9461L14.4248 22.2948C15.3254 22.392 16.1687 22.2816 16.9634 21.8666L17.1929 21.7474L23.3075 18.1714C23.6077 17.9948 23.8196 17.6901 23.8329 17.3546C23.8461 16.944 23.6121 16.4893 23.0294 16.4451ZM4.32801 21.6944C3.98365 21.6944 3.7011 21.4251 3.7011 21.0896C3.7011 20.754 3.98365 20.4847 4.32801 20.4847C4.67237 20.4847 4.95492 20.754 4.95492 21.0896C4.95492 21.4251 4.67237 21.6944 4.32801 21.6944ZM18.4821 17.8535C18.4909 17.7431 18.4909 17.6283 18.4777 17.5135C18.4644 17.3678 18.4291 17.231 18.3849 17.0985C18.3894 17.0897 18.3938 17.0809 18.3938 17.072C19.0383 16.7189 20.301 16.1096 20.9897 15.8403C21.3341 15.7034 21.674 15.7123 21.9875 15.9242C21.7402 16.0125 21.5107 16.1229 21.2943 16.2288C20.5703 16.5908 19.2944 17.284 18.6719 17.721C18.6101 17.7652 18.5439 17.8093 18.4821 17.8535ZM17.5461 16.0522C17.9699 15.8271 18.9147 15.5224 19.343 15.3547C19.6829 15.2178 20.0184 15.2266 20.3319 15.4341C19.833 15.6549 18.875 15.9904 18.4203 16.2421L18.1112 16.4098C18.0803 16.4275 18.0538 16.4451 18.0273 16.4672C17.8861 16.2994 17.7271 16.1626 17.5461 16.0522ZM19.2591 12.1804C19.5152 12.1804 19.7227 12.3879 19.7227 12.6439C19.7227 12.9 19.5152 13.1075 19.2591 13.1075H7.70097C7.44491 13.1075 7.23741 12.9 7.23741 12.6439C7.23741 12.3879 7.44491 12.1804 7.70097 12.1804H19.2591ZM7.24182 14.3172C7.24182 14.0611 7.44932 13.8536 7.70539 13.8536H19.2591C19.5152 13.8536 19.7227 14.0611 19.7227 14.3172C19.7227 14.5732 19.5152 14.7807 19.2591 14.7807H7.70097C7.44932 14.7807 7.24182 14.5732 7.24182 14.3172ZM17.5859 7.57567C17.5859 7.93769 17.2901 8.23349 16.928 8.23349C16.566 8.23349 16.2702 7.93769 16.2702 7.57567C16.2702 7.21366 16.566 6.91786 16.928 6.91786C17.2945 6.91786 17.5859 7.21366 17.5859 7.57567ZM10.6854 7.57567C10.6854 7.93769 10.3896 8.23349 10.0276 8.23349C9.66559 8.23349 9.36979 7.93769 9.36979 7.57567C9.36979 7.21366 9.66559 6.91786 10.0276 6.91786C10.394 6.91786 10.6854 7.21366 10.6854 7.57567ZM19.7271 4.78989C19.7271 4.19389 19.2414 3.70825 18.6454 3.70825H8.31464C7.71863 3.70825 7.23299 4.19389 7.23299 4.78989V10.3615C7.23299 10.9575 7.71863 11.4431 8.31464 11.4431H18.6454C19.2414 11.4431 19.7271 10.9575 19.7271 10.3615V4.78989ZM18.8044 9.32396C18.7161 9.30189 18.6278 9.28864 18.5351 9.28864C17.9302 9.28864 17.4402 9.77869 17.4402 10.3835C17.4402 10.4277 17.4446 10.4762 17.449 10.5204H9.42718C9.44043 10.4542 9.44484 10.3879 9.44484 10.3173C9.44484 9.71247 8.95479 9.22242 8.34996 9.22242C8.28373 9.22242 8.22192 9.22683 8.1557 9.24008V5.91127C8.21751 5.92451 8.28373 5.92893 8.34996 5.92893C8.95479 5.92893 9.44484 5.43888 9.44484 4.83404C9.44484 4.7634 9.43601 4.69718 9.42718 4.63096H17.4711C17.449 4.71484 17.4358 4.80755 17.4358 4.90027C17.4358 5.5051 17.9258 5.99515 18.5306 5.99515C18.6233 5.99515 18.7161 5.98191 18.7999 5.95983V9.32396H18.8044ZM13.48 5.20489C12.1732 5.20489 11.1092 6.26887 11.1092 7.57567C11.1092 8.88247 12.1732 9.94646 13.48 9.94646C14.7868 9.94646 15.8508 8.88247 15.8508 7.57567C15.8508 6.26887 14.7868 5.20489 13.48 5.20489ZM13.6346 8.10546L13.171 8.5646L12.7118 8.10104L12.2704 7.65514L12.7339 7.196L13.1754 7.6419L14.235 6.58674L14.6941 7.05031L13.6346 8.10546Z" fill="#828282"/>
</svg>
