<?xml version="1.0" standalone="no"?>
<svg version="1.0" xmlns="http://www.w3.org/2000/svg"
 width="50.000000pt" height="50.000000pt" viewBox="0 0 50.000000 50.000000"
 preserveAspectRatio="xMidYMid meet">

<g transform="translate(0.000000,50.000000) scale(0.100000,-0.100000)"
fill="#000000" stroke="none">
<path d="M199 475 c-14 -8 -32 -27 -38 -44 -7 -16 -22 -31 -33 -34 -16 -5 -19
-11 -14 -30 5 -21 2 -25 -22 -31 -36 -7 -104 -116 -73 -116 18 0 41 -32 41
-56 0 -14 7 -27 15 -30 8 -4 15 -18 15 -34 0 -36 24 -55 89 -70 52 -12 55 -12
72 11 l17 23 61 -29 61 -29 25 24 c17 16 23 30 19 44 -4 12 4 39 22 72 26 48
27 54 13 71 -26 30 -30 61 -8 68 23 8 36 52 22 74 -8 11 -23 15 -51 13 -28 -1
-42 2 -46 13 -3 8 -12 15 -19 15 -8 0 -20 14 -27 30 -22 53 -88 74 -141 45z
m106 -30 c15 -14 25 -36 25 -52 0 -26 -66 -153 -80 -153 -12 0 -71 109 -77
143 -11 73 79 116 132 62z m-150 -87 c9 -30 85 -148 95 -148 11 0 79 104 91
140 12 33 26 39 36 14 5 -12 14 -15 44 -10 22 3 40 2 44 -4 10 -17 -4 -48 -26
-53 -16 -4 -19 -11 -13 -34 3 -15 12 -37 19 -48 11 -17 9 -28 -14 -75 -15 -30
-26 -62 -24 -71 2 -9 -3 -21 -11 -28 -12 -10 -24 -7 -65 13 -61 31 -74 32 -93
5 -12 -19 -17 -20 -58 -9 -56 15 -70 26 -70 55 0 12 -7 28 -15 35 -8 7 -15 22
-15 35 0 12 -9 30 -20 40 -11 10 -20 23 -20 28 0 21 51 76 72 79 18 2 23 9 21
31 -2 33 13 36 22 5z"/>
<path d="M220 415 c-15 -18 -10 -45 13 -59 34 -22 73 27 47 59 -16 19 -44 19
-60 0z m46 -16 c10 -17 -13 -36 -27 -22 -12 12 -4 33 11 33 5 0 12 -5 16 -11z"/>
<path d="M154 215 c-4 -9 -2 -21 4 -27 15 -15 44 -1 40 19 -4 23 -36 29 -44 8z"/>
</g>
</svg>
