<svg id="vector" xmlns="http://www.w3.org/2000/svg" width="23" height="23" viewBox="0 0 23 23"><path fill="#F8924F" d="M15.64,6.398H18.552C18.728,6.399 18.898,6.464 19.029,6.582C19.159,6.701 19.241,6.863 19.259,7.038L19.692,11.375H18.262L17.907,7.82H15.64V9.953C15.64,10.142 15.565,10.323 15.432,10.456C15.299,10.589 15.118,10.664 14.929,10.664C14.741,10.664 14.56,10.589 14.427,10.456C14.293,10.323 14.218,10.142 14.218,9.953V7.82H8.531V9.953C8.531,10.142 8.456,10.323 8.323,10.456C8.189,10.589 8.008,10.664 7.82,10.664C7.631,10.664 7.451,10.589 7.317,10.456C7.184,10.323 7.109,10.142 7.109,9.953V7.82H4.841L3.704,19.195H11.375V20.617H2.917C2.818,20.617 2.72,20.596 2.629,20.556C2.538,20.515 2.457,20.457 2.39,20.383C2.324,20.309 2.274,20.222 2.243,20.128C2.212,20.034 2.201,19.934 2.211,19.835L3.49,7.038C3.508,6.863 3.59,6.701 3.72,6.582C3.851,6.464 4.021,6.399 4.197,6.398H7.109V5.902C7.109,3.437 9.009,1.422 11.375,1.422C13.741,1.422 15.64,3.437 15.64,5.902V6.4V6.398ZM14.218,6.398V5.902C14.218,4.204 12.936,2.844 11.375,2.844C9.813,2.844 8.531,4.204 8.531,5.902V6.4H14.218V6.398ZM18.693,17.148L17.062,15.518V20.617C17.062,20.806 16.987,20.987 16.854,21.12C16.721,21.253 16.54,21.328 16.351,21.328C16.163,21.328 15.982,21.253 15.848,21.12C15.715,20.987 15.64,20.806 15.64,20.617V15.518L14.011,17.148C13.945,17.216 13.867,17.27 13.78,17.307C13.693,17.344 13.6,17.364 13.505,17.365C13.411,17.366 13.318,17.348 13.23,17.312C13.143,17.276 13.063,17.223 12.997,17.157C12.93,17.09 12.877,17.01 12.841,16.923C12.806,16.836 12.788,16.742 12.788,16.648C12.789,16.553 12.809,16.46 12.846,16.373C12.883,16.287 12.938,16.208 13.005,16.142L15.849,13.299C15.983,13.165 16.163,13.091 16.352,13.091C16.54,13.091 16.721,13.165 16.854,13.299L19.698,16.142C19.766,16.208 19.82,16.287 19.858,16.373C19.895,16.46 19.914,16.553 19.915,16.648C19.916,16.742 19.898,16.836 19.862,16.923C19.827,17.01 19.774,17.09 19.707,17.157C19.64,17.223 19.561,17.276 19.473,17.312C19.386,17.348 19.293,17.366 19.198,17.365C19.104,17.364 19.01,17.344 18.924,17.307C18.837,17.27 18.759,17.216 18.693,17.148Z" id="path_0"/></svg>