<svg width="25" height="24" viewBox="0 0 25 24" fill="none" xmlns="http://www.w3.org/2000/svg">
<g clip-path="url(#clip0_10218_28113)">
<path d="M0.987962 0C0.478032 0 0.0625 0.414462 0.0625 0.923077V15.6923C0.0625 16.2009 0.478032 16.6154 0.987962 16.6154H15.7954C16.3053 16.6154 16.7208 16.2009 16.7208 15.6923V0.923077C16.7208 0.414462 16.3053 0 15.7954 0H0.987962ZM1.91342 1.84615H14.8699V12.9231H1.91342V1.84615ZM17.6463 2.68246V4.55723L19.3241 4.84615L17.6463 14.5385V15.6923C17.6463 16.7114 16.8161 17.5385 15.7954 17.5385H5.99101L17.7333 19.5582C17.9749 19.6 18.2233 19.5444 18.4239 19.4037C18.6245 19.263 18.7609 19.0486 18.8031 18.8077L21.2908 4.24062C21.3118 4.1212 21.309 3.99883 21.2825 3.88049C21.2561 3.76216 21.2065 3.65019 21.1366 3.55099C21.0667 3.45179 20.9779 3.36731 20.8752 3.30239C20.7726 3.23746 20.6581 3.19336 20.5383 3.17262L17.6463 2.68338V2.68246ZM8.39166 3.63415C7.32645 3.63415 6.42505 4.36523 6.42505 5.74062C6.42505 6.63969 6.8267 7.54246 7.3792 8.10554C7.59576 8.66862 7.22743 8.88277 7.14784 8.91323C6.03173 9.31569 4.7185 10.0625 4.7185 10.788V11.9714H12.0648V10.7889C12.0648 10.0412 10.7488 9.29908 9.57718 8.91323C9.5235 8.89569 9.19126 8.74708 9.40411 8.10554C9.95476 7.54246 10.387 6.63508 10.387 5.74062C10.387 4.36523 9.45687 3.63415 8.39166 3.63415ZM21.7239 7.29877L21.4064 9.11539L22.0709 9.25939L19.5259 20.0483L19.1502 19.9615C18.9438 20.1644 18.6915 20.3148 18.4146 20.4001C18.1378 20.4854 17.8444 20.5031 17.5593 20.4517L4.74812 18.2594L4.48621 19.3569C4.43168 19.5976 4.47378 19.8501 4.6035 20.0602C4.73323 20.2703 4.94027 20.4214 5.18031 20.4812L19.5833 23.8569C19.8246 23.9113 20.0777 23.8693 20.2884 23.7399C20.499 23.6105 20.6505 23.404 20.7105 23.1646L24.0671 8.79692C24.1847 8.30215 23.9006 7.78985 23.4027 7.67169L21.7248 7.29692L21.7239 7.29877Z" fill="#24500F"/>
</g>
<defs>
<clipPath id="clip0_10218_28113">
<rect width="24.062" height="24" fill="white" transform="translate(0.0625)"/>
</clipPath>
</defs>
</svg>
