<svg id="vector" xmlns="http://www.w3.org/2000/svg" width="21" height="24" viewBox="0 0 21 24"><path fill="#8672E8" d="M5.825,11.046H5.067V12.563H5.825V11.046ZM14.925,12.563H15.683V11.046H14.925V12.563ZM11.892,15.596H11.133V17.113H11.892V15.596ZM14.925,17.113H15.683V15.596H14.925V17.113ZM5.825,6.496H5.067V8.013H5.825V6.496ZM8.858,8.013H9.617V6.496H8.858V8.013ZM14.925,1.188L15.462,0.651L15.239,0.43H14.925V1.188ZM19.475,5.738H20.233V5.424L20.012,5.201L19.475,5.738ZM5.825,12.563H14.925V11.046H5.825V12.563ZM11.892,17.113H14.925V15.596H11.892V17.113ZM5.825,8.013H8.858V6.496H5.825V8.013ZM17.958,21.663H2.792V23.18H17.958V21.663ZM2.033,20.905V2.705H0.517V20.905H2.033ZM2.792,1.946H14.925V0.43H2.792V1.946ZM18.717,5.738V20.905H20.233V5.738H18.717ZM14.388,1.725L18.938,6.275L20.012,5.201L15.462,0.651L14.388,1.725ZM2.792,21.663C2.59,21.663 2.398,21.583 2.255,21.441C2.113,21.299 2.033,21.106 2.033,20.905H0.517C0.517,21.508 0.756,22.087 1.183,22.513C1.61,22.94 2.188,23.18 2.792,23.18V21.663ZM17.958,23.18C18.562,23.18 19.14,22.94 19.567,22.513C19.994,22.087 20.233,21.508 20.233,20.905H18.717C18.717,21.106 18.637,21.299 18.494,21.441C18.352,21.583 18.159,21.663 17.958,21.663V23.18ZM2.033,2.705C2.033,2.504 2.113,2.311 2.255,2.168C2.398,2.026 2.59,1.946 2.792,1.946V0.43C2.188,0.43 1.61,0.669 1.183,1.096C0.756,1.523 0.517,2.101 0.517,2.705H2.033Z" id="path_0"/></svg>