<!-- This SVG was generated using https://composables.com -->
<svg id="vector" xmlns="http://www.w3.org/2000/svg" width="24" height="24" viewBox="0 0 24 24">
    <path fill="#FDBA46" d="M12,12m-12,0a12,12 0,1 1,24 0a12,12 0,1 1,-24 0" id="path_0"/>
    <path fill="#FDBA46" d="M12,12m-12,0a12,12 0,1 1,24 0a12,12 0,1 1,-24 0" id="path_1"/>
    <path fill="#ffffff" d="M11.993,5.334C8.313,5.334 5.333,8.321 5.333,12.001C5.333,15.681 8.313,18.667 11.993,18.667C15.68,18.667 18.666,15.681 18.666,12.001C18.666,8.321 15.68,5.334 11.993,5.334ZM12,17.334C9.053,17.334 6.666,14.947 6.666,12.001C6.666,9.054 9.053,6.667 12,6.667C14.946,6.667 17.333,9.054 17.333,12.001C17.333,14.947 14.946,17.334 12,17.334Z" id="path_2"/>
    <path fill="#ffffff" d="M12.333,8.667H11.333V12.667L14.833,14.767L15.333,13.947L12.333,12.167V8.667Z" id="path_3"/>
</svg>