<svg id="vector" xmlns="http://www.w3.org/2000/svg" width="24" height="24" viewBox="0 0 24 24"><path fill="#000000" d="M12.7129,18.1397C10.6772,18.1397 8.6089,16.8557 7.4019,15.1562C1.6108,15.1562 1.4358,23.9462 1.4358,23.9462H23.9887C23.9887,23.9462 24.4433,15.1172 17.9308,15.1172C16.7252,16.8377 14.7487,18.1397 12.7129,18.1397Z" fill-rule="evenodd" id="path_0"/><path fill="#000000" d="M17.5638,7.6029C17.5638,10.1319 15.391,14.9679 12.7087,14.9679C10.0306,14.9679 7.8565,10.1304 7.8565,7.6029C7.8565,5.0754 10.0292,3.0234 12.7087,3.0234C15.391,3.0249 17.5638,5.0769 17.5638,7.6029Z" fill-rule="evenodd" id="path_1"/><path fill="#000000" d="M19.7294,5.4193C19.7294,4.9453 19.1082,4.5627 18.3374,4.5598V3.5833C18.3374,3.4378 18.3896,0.0313 12.7256,0.0313C7.0645,0.0313 7.1167,3.4378 7.1167,3.5833V4.5943C7.1026,4.5943 7.0913,4.5897 7.0786,4.5897C6.312,4.5897 5.695,4.9662 5.695,5.4328V9.5638C5.695,10.0273 6.3134,10.4053 7.0786,10.4053C7.8438,10.4053 8.4649,10.0273 8.4649,9.5638V5.4328C8.4649,5.3682 8.4268,5.3098 8.4042,5.2498V4.1233C8.4042,4.0198 7.9976,1.4488 12.7256,1.4488C17.4551,1.4488 16.9638,4.0198 16.9638,4.1233V5.3098C16.9553,5.3472 16.9285,5.3802 16.9285,5.4193V9.6447C16.9285,10.1203 17.5539,10.5058 18.3289,10.5058C18.3459,10.5058 18.3586,10.4998 18.3755,10.4998V12.0432H16.9863V13.4982H19.7435L19.7294,5.4193Z" fill-rule="evenodd" id="path_2"/></svg>