<svg width="26" height="26" viewBox="0 0 26 26" fill="none" xmlns="http://www.w3.org/2000/svg">
<path d="M10.6562 15.4937C10.2156 16.0265 9.94674 16.6802 9.885 17.3687H3.31C3.18705 17.3689 3.06534 17.3933 2.95181 17.4405C2.83828 17.4877 2.73516 17.5568 2.64834 17.6439C2.56151 17.7309 2.49269 17.8342 2.44579 17.9479C2.39889 18.0615 2.37484 18.1833 2.375 18.3063V19.0275C2.375 19.6975 2.61375 20.345 3.04875 20.8538C4.52 22.5775 6.77875 23.5038 9.885 23.61C9.94625 24.3225 10.2262 24.9725 10.6562 25.495H10.495C6.56375 25.495 3.58125 24.3638 1.6225 22.0713C0.897981 21.2226 0.499962 20.1433 0.5 19.0275V18.305C0.5 16.8175 1.65625 15.6 3.11875 15.5013L3.31125 15.4937H10.6562ZM16.4325 12.3687H20.1825C20.9925 12.3687 21.6575 12.9838 21.7375 13.7725L21.7463 13.9312L21.745 15.4937H23.3075C24.5163 15.4937 25.495 16.4738 25.495 17.6812V23.3063C25.495 23.8864 25.2645 24.4428 24.8543 24.853C24.4441 25.2633 23.8877 25.4938 23.3075 25.4938H13.3075C12.7273 25.4938 12.1709 25.2633 11.7607 24.853C11.3505 24.4428 11.12 23.8864 11.12 23.3063V17.6812C11.12 16.4738 12.1 15.4937 13.3075 15.4937H14.87V13.9312C14.87 13.1225 15.485 12.4563 16.2738 12.3775L16.4325 12.3687H20.1825H16.4325ZM23.3075 17.3687H13.3075C13.2246 17.3687 13.1451 17.4017 13.0865 17.4603C13.0279 17.5189 12.995 17.5984 12.995 17.6812V23.3063C12.995 23.4788 13.135 23.6188 13.3075 23.6188H23.3075C23.3904 23.6188 23.4699 23.5858 23.5285 23.5272C23.5871 23.4686 23.62 23.3891 23.62 23.3063V17.6812C23.62 17.5984 23.5871 17.5189 23.5285 17.4603C23.4699 17.4017 23.3904 17.3687 23.3075 17.3687ZM19.87 14.2437H16.745V15.4937H19.87V14.2437ZM10.4963 0.5C12.1539 0.5 13.7436 1.15848 14.9157 2.33058C16.0878 3.50269 16.7463 5.0924 16.7463 6.75C16.7463 8.4076 16.0878 9.99732 14.9157 11.1694C13.7436 12.3415 12.1539 13 10.4963 13C8.83865 13 7.24894 12.3415 6.07683 11.1694C4.90473 9.99732 4.24625 8.4076 4.24625 6.75C4.24625 5.0924 4.90473 3.50269 6.07683 2.33058C7.24894 1.15848 8.83865 0.5 10.4963 0.5ZM10.4963 2.375C9.33593 2.375 8.22313 2.83594 7.40266 3.65641C6.58219 4.47688 6.12125 5.58968 6.12125 6.75C6.12125 7.91032 6.58219 9.02312 7.40266 9.84359C8.22313 10.6641 9.33593 11.125 10.4963 11.125C11.6566 11.125 12.7694 10.6641 13.5898 9.84359C14.4103 9.02312 14.8712 7.91032 14.8713 6.75C14.8712 5.58968 14.4103 4.47688 13.5898 3.65641C12.7694 2.83594 11.6566 2.375 10.4963 2.375Z" fill="#C4C4C4"/>
</svg>
