<!-- This SVG was generated using https://composables.com -->
<svg id="vector" xmlns="http://www.w3.org/2000/svg" width="24" height="24" viewBox="0 0 24 24">
    <defs>
        <clipPath id="clip_path_0">
            <path d="M0,0h23.938v24h-23.938z"/>
        </clipPath>
    </defs>
    <g id="g_0">
        <path fill="#000000" d="M6.523,5C6.583,5.89 6.733,6.76 6.972,7.59L5.775,8.79C5.366,7.59 5.107,6.32 5.017,5H6.523ZM16.358,17.02C17.206,17.26 18.073,17.41 18.951,17.47V18.96C17.634,18.87 16.368,18.61 15.161,18.21L16.358,17.02ZM7.481,3H3.99C3.441,3 2.992,3.45 2.992,4C2.992,13.39 10.583,21 19.948,21C20.497,21 20.946,20.55 20.946,20V16.51C20.946,15.96 20.497,15.51 19.948,15.51C18.712,15.51 17.505,15.31 16.388,14.94C16.288,14.9 16.178,14.89 16.079,14.89C15.819,14.89 15.57,14.99 15.37,15.18L13.176,17.38C10.353,15.93 8.039,13.62 6.603,10.79L8.797,8.59C9.077,8.31 9.156,7.92 9.047,7.57C8.678,6.45 8.478,5.25 8.478,4C8.478,3.45 8.029,3 7.481,3Z" clip-path="url(#clip_path_0)"/>
    </g>
</svg>