<svg width="25" height="25" viewBox="0 0 25 25" fill="none" xmlns="http://www.w3.org/2000/svg">
<path d="M4.25 0.5C3.25544 0.5 2.30161 0.895088 1.59835 1.59835C0.895088 2.30161 0.5 3.25544 0.5 4.25V17.75C0.5 18.7446 0.895088 19.6984 1.59835 20.4016C2.30161 21.1049 3.25544 21.5 4.25 21.5H11.24C11.0882 21.0142 11.0073 20.509 11 20H4.25C3.65326 20 3.08097 19.7629 2.65901 19.341C2.23705 18.919 2 18.3467 2 17.75V4.25C2 3.65326 2.23705 3.08097 2.65901 2.65901C3.08097 2.23705 3.65326 2 4.25 2H17.75C18.3467 2 18.919 2.23705 19.341 2.65901C19.7629 3.08097 20 3.65326 20 4.25V6.7175C20.5415 6.878 21.047 7.1255 21.5 7.4405V4.25C21.5 3.25544 21.1049 2.30161 20.4016 1.59835C19.6984 0.895088 18.7446 0.5 17.75 0.5H4.25Z" fill="#C4C4C4"/>
<path d="M16.25 11.75C16.25 12.3467 16.4871 12.919 16.909 13.341C17.331 13.7629 17.9033 14 18.5 14H21.5C21.0278 14.6296 20.3694 15.0948 19.6181 15.3294C18.8669 15.5641 18.0608 15.5565 17.3141 15.3076C16.5675 15.0587 15.918 14.5812 15.4578 13.9427C14.9976 13.3042 14.75 12.5371 14.75 11.75C14.75 10.9629 14.9976 10.1958 15.4578 9.55734C15.918 8.91884 16.5675 8.44133 17.3141 8.19244C18.0608 7.94355 18.8669 7.9359 19.6181 8.17057C20.3694 8.40525 21.0278 8.87035 21.5 9.5H18.5C17.9033 9.5 17.331 9.73705 16.909 10.159C16.4871 10.581 16.25 11.1533 16.25 11.75Z" fill="#C4C4C4"/>
<path d="M14.2715 18.7895C14.4515 18.59 14.6525 18.5 14.825 18.5H24.3005C24.1886 18.2423 24.0368 18.0038 23.8505 17.7935C23.4575 17.3525 22.8725 17 22.175 17H14.825C14.1275 17 13.5425 17.3525 13.151 17.7935C12.761 18.23 12.5 18.8225 12.5 19.43V19.91C12.5 22.361 14.9495 24.5 18.5 24.5C20.36 24.5 21.92 23.912 22.982 23H18.5C15.455 23 14 21.2435 14 19.91V19.43C14 19.2425 14.09 18.995 14.2715 18.7895Z" fill="#C4C4C4"/>
<path d="M22.25 11.75C22.25 12.0065 22.2245 12.257 22.175 12.5H18.5V11H22.175C22.2245 11.243 22.25 11.4935 22.25 11.75Z" fill="#C4C4C4"/>
<path d="M24.1415 21.5H18.5V20H24.5C24.485 20.5205 24.3635 21.0275 24.1415 21.5Z" fill="#C4C4C4"/>
</svg>
