<svg id="vector" xmlns="http://www.w3.org/2000/svg" width="69" height="66" viewBox="0 0 69 66"><path fill="#FFFAFC" fill-opacity="0.71" d="M35.813,18.708H33.188V43.651H35.813V18.708Z" id="path_0"/><path fill="#FFFAFC" fill-opacity="0.71" d="M34.5,54.155C35.225,54.155 35.813,53.568 35.813,52.842C35.813,52.117 35.225,51.529 34.5,51.529C33.775,51.529 33.188,52.117 33.188,52.842C33.188,53.568 33.775,54.155 34.5,54.155Z" id="path_1"/><path fill="#FFE6E6" fill-opacity="0.7" d="M36.115,8.126C35.638,7.344 35.05,6.896 34.5,6.896C33.95,6.896 33.361,7.344 32.884,8.125L3.111,56.921C2.651,57.675 2.511,58.367 2.737,58.769C2.961,59.169 3.619,59.408 4.494,59.408H64.504C65.381,59.408 66.037,59.169 66.262,58.769C66.488,58.366 66.348,57.675 65.888,56.921L36.115,8.126ZM34.5,56.783C32.328,56.783 30.561,55.016 30.561,52.844C30.561,50.673 32.328,48.906 34.5,48.906C36.672,48.906 38.438,50.672 38.438,52.844C38.438,55.016 36.671,56.783 34.5,56.783ZM38.438,44.967C38.438,45.693 37.851,46.28 37.125,46.28H31.874C31.148,46.28 30.561,45.693 30.561,44.967V17.398C30.561,16.673 31.148,16.085 31.874,16.085H37.125C37.851,16.085 38.438,16.673 38.438,17.398V44.967Z" id="path_2"/><path fill="#D91D1D" d="M68.13,55.549L38.356,6.754C37.392,5.174 35.986,4.267 34.499,4.267C33.013,4.267 31.608,5.174 30.643,6.755V6.754L0.87,55.549C-0.121,57.173 -0.271,58.772 0.447,60.051C1.164,61.328 2.601,62.031 4.495,62.031H64.504C66.397,62.031 67.836,61.328 68.553,60.051C69.271,58.771 69.121,57.173 68.13,55.549ZM66.263,58.766C66.037,59.166 65.381,59.405 64.504,59.405H4.495C3.619,59.405 2.961,59.166 2.737,58.766C2.511,58.364 2.651,57.672 3.111,56.917L32.885,8.122V8.122C33.361,7.341 33.95,6.893 34.5,6.892C35.05,6.892 35.639,7.341 36.115,8.122L65.888,56.917C66.349,57.672 66.489,58.363 66.263,58.766Z" id="path_3"/><path fill="#D91D1D" d="M37.126,16.078H31.874C31.149,16.078 30.562,16.666 30.562,17.391V44.96C30.562,45.685 31.149,46.273 31.874,46.273H37.126C37.851,46.273 38.439,45.685 38.439,44.96V17.391C38.439,16.666 37.851,16.078 37.126,16.078ZM35.813,43.647H33.187V18.704H35.813V43.647Z" id="path_4"/><path fill="#D91D1D" d="M34.5,48.903C32.328,48.903 30.562,50.669 30.562,52.841C30.562,55.013 32.328,56.78 34.5,56.78C36.672,56.78 38.439,55.013 38.439,52.841C38.439,50.669 36.672,48.903 34.5,48.903ZM34.5,54.154C33.776,54.154 33.187,53.565 33.187,52.841C33.187,52.118 33.776,51.528 34.5,51.528C35.224,51.528 35.813,52.117 35.813,52.841C35.813,53.565 35.224,54.154 34.5,54.154Z" id="path_5"/><path fill="#D91D1D" d="M51.567,63.342H17.433C16.707,63.342 16.12,63.93 16.12,64.655C16.12,65.38 16.707,65.968 17.433,65.968H51.567C52.292,65.968 52.879,65.38 52.879,64.655C52.879,63.93 52.292,63.342 51.567,63.342Z" id="path_6"/><path fill="#FF5D5D" d="M58.299,28.882C57.963,28.882 57.627,28.754 57.371,28.498C56.858,27.985 56.858,27.154 57.371,26.641L62.013,22C62.525,21.487 63.356,21.487 63.869,22C64.382,22.512 64.382,23.344 63.869,23.856L59.227,28.498C58.971,28.754 58.635,28.882 58.299,28.882Z" id="path_7"/><path fill="#FF5D5D" d="M62.941,28.882C62.605,28.882 62.269,28.754 62.013,28.498L57.371,23.856C56.858,23.344 56.858,22.512 57.371,22C57.883,21.487 58.715,21.487 59.227,22L63.869,26.641C64.382,27.154 64.382,27.985 63.869,28.498C63.613,28.754 63.277,28.882 62.941,28.882Z" id="path_8"/><path fill="#D91D1D" fill-opacity="0.46" d="M9.068,9.19C6.535,9.19 4.474,7.128 4.474,4.595C4.474,2.061 6.535,0 9.068,0C11.602,0 13.663,2.061 13.663,4.595C13.663,7.128 11.602,9.19 9.068,9.19ZM9.068,2.625C7.983,2.625 7.099,3.509 7.099,4.595C7.099,5.681 7.983,6.564 9.068,6.564C10.154,6.564 11.038,5.681 11.038,4.595C11.038,3.509 10.154,2.625 9.068,2.625Z" id="path_9"/><path fill="#F99A4D" d="M17.378,56.004C17.029,56.004 16.696,55.866 16.449,55.619L12.736,51.906C12.223,51.393 12.223,50.562 12.736,50.049L16.449,46.336C16.962,45.824 17.793,45.824 18.306,46.336L22.019,50.049C22.265,50.296 22.404,50.63 22.404,50.978C22.404,51.326 22.265,51.66 22.019,51.906L18.306,55.62C18.06,55.866 17.726,56.004 17.378,56.004ZM15.521,50.978L17.378,52.835L19.234,50.978L17.378,49.121L15.521,50.978Z" id="path_10"/></svg>