<svg width="40" height="40" viewBox="0 0 40 40" fill="none" xmlns="http://www.w3.org/2000/svg">
<path d="M33.75 31.9825L31.25 29.4825V26.25H28.75V30.5175L31.9825 33.75L33.75 31.9825Z" fill="#24500F"/>
<path d="M30 38.75C28.2694 38.75 26.5777 38.2368 25.1388 37.2754C23.6998 36.3139 22.5783 34.9473 21.9161 33.3485C21.2538 31.7496 21.0805 29.9903 21.4181 28.293C21.7558 26.5956 22.5891 25.0365 23.8128 23.8128C25.0365 22.5891 26.5956 21.7558 28.293 21.4181C29.9903 21.0805 31.7496 21.2538 33.3485 21.9161C34.9473 22.5783 36.3139 23.6998 37.2754 25.1388C38.2368 26.5777 38.75 28.2694 38.75 30C38.7474 32.3198 37.8246 34.5439 36.1843 36.1843C34.5439 37.8246 32.3198 38.7474 30 38.75ZM30 23.75C28.7639 23.75 27.5555 24.1166 26.5277 24.8033C25.4999 25.4901 24.6988 26.4662 24.2258 27.6082C23.7527 28.7503 23.6289 30.0069 23.8701 31.2193C24.1113 32.4317 24.7065 33.5453 25.5806 34.4194C26.4547 35.2935 27.5683 35.8888 28.7807 36.1299C29.9931 36.3711 31.2497 36.2473 32.3918 35.7743C33.5338 35.3012 34.5099 34.5001 35.1967 33.4723C35.8834 32.4445 36.25 31.2361 36.25 30C36.2483 28.3429 35.5893 26.7542 34.4176 25.5824C33.2459 24.4107 31.6571 23.7517 30 23.75Z" fill="#24500F"/>
<path d="M20 35C16.0231 34.9957 12.2103 33.414 9.39815 30.6019C6.58604 27.7897 5.0043 23.9769 5 20H2.5C2.50529 24.6397 4.35074 29.0878 7.63148 32.3685C10.9122 35.6493 15.3603 37.4947 20 37.5V35Z" fill="#24500F"/>
<path d="M15 10.0001H8.8475C10.8703 7.73539 13.5335 6.13884 16.4843 5.42212C19.435 4.7054 22.5339 4.90235 25.3702 5.98687C28.2064 7.07138 30.6462 8.99224 32.3659 11.4948C34.0857 13.9974 35.0043 16.9636 35 20.0001H37.5C37.5055 16.5211 36.4723 13.1196 34.5327 10.2315C32.5931 7.34327 29.8355 5.09985 26.613 3.78858C23.3906 2.47732 19.85 2.1579 16.4449 2.87124C13.0398 3.58459 9.92519 5.29822 7.5 7.79263V2.50013H5V12.5001H15V10.0001Z" fill="#24500F"/>
</svg>
