<svg id="vector" xmlns="http://www.w3.org/2000/svg" width="127" height="108" viewBox="0 0 127 108"><path fill="#00000000" d="M62.27,27.91C61.86,33.45 61.75,39.02 61.95,44.58C62.02,44.08 62.1,43.59 62.17,43.09" stroke-linejoin="round" stroke-width="6.42203" stroke="#000000" stroke-linecap="round" id="path_0"/><path fill="#00000000" d="M72.47,26.99C72.25,33.5 72.47,40.02 73.13,46.5" stroke-linejoin="round" stroke-width="6.42203" stroke="#000000" stroke-linecap="round" id="path_1"/><path fill="#00000000" d="M63.95,38.02C63.7,38.32 63.45,38.61 63.21,38.9C67.25,37.97 71.2,36.58 74.93,34.76C74.89,35.34 74.26,35.8 73.7,35.66" stroke-linejoin="round" stroke-width="6.42203" stroke="#000000" stroke-linecap="round" id="path_2"/><path fill="#00000000" d="M81.84,44.6C83.33,37.72 84.81,30.85 86.3,23.97C88.05,32.47 91.04,40.72 95.16,48.36C95.23,48.06 95.3,47.75 95.37,47.44" stroke-linejoin="round" stroke-width="6.42203" stroke="#000000" stroke-linecap="round" id="path_3"/><path fill="#00000000" d="M98.6,22.99C101.02,25.12 103.89,26.75 106.96,27.74C107.88,28.03 108.95,28.25 109.75,27.71C110.74,27.03 110.74,25.58 110.44,24.42C110.14,23.26 109.63,22.06 109.96,20.91C107.96,31.21 106.39,41.58 105.25,52.01" stroke-linejoin="round" stroke-width="6.42203" stroke="#000000" stroke-linecap="round" id="path_4"/><path fill="#B7E143" d="M16.81,104.75L73.14,100.61C77.76,100.12 82.91,95.21 82.43,90.58L75.26,36.05L1.94,43.76L7.56,97.26C8.05,101.89 12.19,105.24 16.81,104.75Z" id="path_5"/><path fill="#00000000" d="M16.81,104.75L73.14,100.61C77.76,100.12 82.91,95.21 82.43,90.58L75.26,36.05L1.94,43.76L7.56,97.26C8.05,101.89 12.19,105.24 16.81,104.75Z" stroke-linejoin="round" stroke-width="1.28441" stroke="#000000" stroke-linecap="round" id="path_6"/><path fill="#B7E143" d="M16.81,102.96L73.14,97.52C77.76,97.04 82.91,92.12 82.42,87.5L75.26,32.97L1.94,40.68L7.56,94.18C8.05,98.8 12.19,103.44 16.81,102.96Z" id="path_7"/><path fill="#00000000" d="M16.81,102.96L73.14,97.52C77.76,97.04 82.91,92.12 82.42,87.5L75.26,32.97L1.94,40.68L7.56,94.18C8.05,98.8 12.19,103.44 16.81,102.96Z" stroke-linejoin="round" stroke-width="1.28441" stroke="#000000" stroke-linecap="round" id="path_8"/><path fill="#9DC333" d="M74.72,27.85C74.24,23.23 70.09,19.87 65.47,20.36L8.89,26.31C4.27,26.79 0.92,30.93 1.4,35.56L1.72,38.63L75.05,30.93L74.72,27.85Z" id="path_9"/><path fill="#00000000" d="M74.72,27.85C74.24,23.23 70.09,19.87 65.47,20.36L8.89,26.31C4.27,26.79 0.92,30.93 1.4,35.56L1.72,38.63L75.05,30.93L74.72,27.85Z" stroke-linejoin="round" stroke-width="1.28441" stroke="#000000" stroke-linecap="round" id="path_10"/><path fill="#259F46" d="M16.81,101.67L72.62,93.67C77.24,93.18 80.6,89.04 80.11,84.42L75.26,32.97L1.94,40.68L7.56,94.18C8.05,98.8 12.19,102.16 16.81,101.67Z" id="path_11"/><path fill="#00000000" d="M16.81,101.67L72.62,93.67C77.24,93.18 80.6,89.04 80.11,84.42L75.26,32.97L1.94,40.68L7.56,94.18C8.05,98.8 12.19,102.16 16.81,101.67Z" stroke-linejoin="round" stroke-width="1.28441" stroke="#000000" stroke-linecap="round" id="path_12"/><path fill="#0D0D0D" d="M13.91,32.88C12.43,33.04 11.1,31.96 10.94,30.48L10.57,26.91C10.41,25.43 11.49,24.1 12.97,23.94C14.44,23.79 15.78,24.87 15.93,26.34L16.31,29.92C16.46,31.39 15.38,32.73 13.91,32.88Z" id="path_13"/><path fill="#0D0D0D" d="M37.92,30.36C36.44,30.51 35.11,29.43 34.96,27.96L34.58,24.38C34.42,22.91 35.51,21.57 36.98,21.42C38.46,21.26 39.79,22.34 39.94,23.82L40.32,27.39C40.48,28.87 39.4,30.2 37.92,30.36Z" id="path_14"/><path fill="#0D0D0D" d="M61.93,27.83C60.46,27.99 59.13,26.91 58.97,25.43L58.59,21.86C58.44,20.38 59.52,19.05 60.99,18.89C62.47,18.74 63.8,19.82 63.96,21.29L64.34,24.87C64.49,26.35 63.41,27.68 61.93,27.83Z" id="path_15"/><path fill="#0D0D0D" d="M31.65,55.55C34.16,55.28 36.42,57.11 36.69,59.62C36.95,62.14 35.12,64.4 32.61,64.66C30.09,64.92 27.84,63.1 27.57,60.58C27.31,58.07 29.13,55.81 31.65,55.55Z" id="path_16"/><path fill="#0D0D0D" d="M49.29,53.69C51.81,53.43 54.06,55.25 54.33,57.77C54.59,60.28 52.76,62.54 50.25,62.81C47.73,63.07 45.48,61.24 45.21,58.73C44.95,56.21 46.78,53.96 49.29,53.69Z" id="path_17"/><path fill="#FDFDFD" d="M32.77,62.49C34.35,62.33 35.78,63.48 35.94,65.06C36.11,66.65 34.96,68.07 33.37,68.24C31.79,68.41 30.36,67.25 30.2,65.67C30.03,64.08 31.18,62.66 32.77,62.49Z" id="path_18"/><path fill="#FDFDFD" d="M49.32,60.84C50.91,60.67 52.33,61.82 52.5,63.41C52.67,64.99 51.51,66.42 49.93,66.58C48.34,66.75 46.92,65.6 46.75,64.01C46.59,62.43 47.74,61 49.32,60.84Z" id="path_19"/><path fill="#0D0D0D" d="M54.08,55.13C48.5,47.46 44.86,55.85 44.86,55.85C44.86,55.85 48.68,50.41 54.08,55.13Z" id="path_20"/><path fill="#0D0D0D" d="M26.88,56.83C32.18,51.88 36.28,56.49 36.28,56.49C36.28,56.49 31.91,49.33 26.88,56.83Z" id="path_21"/><path fill="#00000000" d="M27.28,71.71C27.28,71.71 42.19,80.73 59.22,67.34" stroke-linejoin="round" stroke-width="1.54129" stroke="#0D0D0D" stroke-linecap="round" id="path_22"/><path fill="#9DC333" d="M126.52,33.81C126.52,51.93 109.01,66.62 87.42,66.62C81.79,66.62 76.44,65.62 71.6,63.83C68.98,62.85 63.93,69.8 61.65,68.39C59.31,66.93 59.74,57.11 57.84,55.26C51.91,49.51 48.33,42.01 48.33,33.81C48.33,15.69 65.83,1 87.42,1C109.01,1 126.52,15.69 126.52,33.81Z" id="path_23"/><path fill="#00000000" d="M126.52,33.81C126.52,51.93 109.01,66.62 87.42,66.62C81.79,66.62 76.44,65.62 71.6,63.83C68.98,62.85 63.93,69.8 61.65,68.39C59.31,66.93 59.74,57.11 57.84,55.26C51.91,49.51 48.33,42.01 48.33,33.81C48.33,15.69 65.83,1 87.42,1C109.01,1 126.52,15.69 126.52,33.81Z" stroke-linejoin="round" stroke-width="0.698074" stroke="#000000" stroke-linecap="round" id="path_24"/><path fill="#00000000" d="M64.01,25.49C63.66,27.94 63.3,30.39 62.94,32.83C63.09,32.77 63.23,32.7 63.37,32.64" stroke-linejoin="round" stroke-width="7.70643" stroke="#ffffff" stroke-linecap="round" id="path_25"/><path fill="#00000000" d="M59.84,23.31C62.8,22.78 65.75,22.26 68.71,21.73C69.64,21.56 70.82,21.5 71.3,22.32C71.52,22.69 71.52,23.14 71.5,23.57C71.39,26.39 70.82,29.19 69.81,31.83C70.21,30.8 70.62,29.74 71.38,28.94C72.14,28.14 73.33,27.65 74.37,28.03C75.4,28.42 75.96,29.89 75.22,30.71C75.38,30.58 75.54,30.45 75.7,30.32" stroke-linejoin="round" stroke-width="7.70643" stroke="#ffffff" stroke-linecap="round" id="path_26"/><path fill="#00000000" d="M84.14,27.07C83.94,26.83 83.56,26.82 83.28,26.96C83,27.1 82.81,27.36 82.64,27.62C82.06,28.51 81.66,29.52 81.48,30.56C83.12,30.83 84.88,29.96 85.66,28.49C85.8,29.67 86.46,30.78 87.43,31.46" stroke-linejoin="round" stroke-width="7.70643" stroke="#ffffff" stroke-linecap="round" id="path_27"/><path fill="#00000000" d="M92.51,26.06C92.71,27.3 92.92,28.53 93.13,29.77C93.62,28.82 94.14,27.84 94.98,27.18C95.81,26.52 97.08,26.26 97.95,26.88C99,27.62 99.02,29.14 98.93,30.42C99.06,30.32 99.18,30.22 99.31,30.12" stroke-linejoin="round" stroke-width="7.70643" stroke="#ffffff" stroke-linecap="round" id="path_28"/><path fill="#00000000" d="M105.44,20.92C105.42,20.85 105.4,20.77 105.38,20.7C105.14,23.47 104.89,26.24 104.65,29.02C105.66,27 107.43,25.37 109.53,24.53C108.79,25.33 108.51,26.54 108.86,27.57C109.27,28.8 110.47,29.63 111.73,29.95C112.99,30.28 114.31,30.18 115.6,30.08" stroke-linejoin="round" stroke-width="7.70643" stroke="#ffffff" stroke-linecap="round" id="path_29"/><path fill="#00000000" d="M70.96,41.48C72.07,43.08 74.09,43.98 76.02,43.75" stroke-linejoin="round" stroke-width="7.70643" stroke="#ffffff" stroke-linecap="round" id="path_30"/><path fill="#00000000" d="M78.19,40.24C76.26,45.3 74.34,50.37 72.41,55.43" stroke-linejoin="round" stroke-width="7.70643" stroke="#ffffff" stroke-linecap="round" id="path_31"/><path fill="#00000000" d="M86.04,40.08C84.54,40.99 83.38,42.44 82.8,44.1C82.46,45.08 82.34,46.22 82.9,47.1C83.58,48.16 85.15,48.44 86.29,47.87C87.42,47.31 88.13,46.09 88.34,44.84C88.54,43.59 88.32,42.3 87.98,41.08" stroke-linejoin="round" stroke-width="7.70643" stroke="#ffffff" stroke-linecap="round" id="path_32"/><path fill="#00000000" d="M95.6,39.66C94.93,40.36 94.44,41.24 94.19,42.17C93.93,43.15 93.93,44.23 94.35,45.15C94.77,46.07 95.63,46.82 96.64,46.94C97.92,47.1 99.16,46.25 99.84,45.15C100.52,44.05 100.76,42.75 100.99,41.47C101.21,40.25 101.43,39.02 101.64,37.79" stroke-linejoin="round" stroke-width="7.70643" stroke="#ffffff" stroke-linecap="round" id="path_33"/><path fill="#00000000" d="M111.01,37.74C110.3,39.96 109.59,42.18 108.88,44.4C109.18,44.32 109.47,44.25 109.76,44.17" stroke-linejoin="round" stroke-width="7.70643" stroke="#ffffff" stroke-linecap="round" id="path_34"/><path fill="#00000000" d="M106.78,51.97C106.69,51.88 106.6,51.79 106.51,51.7" stroke-linejoin="round" stroke-width="7.70643" stroke="#ffffff" stroke-linecap="round" id="path_35"/><path fill="#00000000" d="M63.63,25.49C63.27,27.94 62.91,30.39 62.56,32.83C62.7,32.77 62.84,32.7 62.99,32.64" stroke-linejoin="round" stroke-width="5.29817" stroke="#111111" stroke-linecap="round" id="path_36"/><path fill="#00000000" d="M59.46,23.31C62.41,22.78 65.37,22.26 68.32,21.73C69.25,21.56 70.44,21.5 70.92,22.32C71.14,22.69 71.14,23.14 71.12,23.57C71.01,26.39 70.43,29.19 69.43,31.83C69.82,30.8 70.24,29.74 70.99,28.94C71.75,28.14 72.95,27.65 73.98,28.03C75.01,28.42 75.57,29.89 74.83,30.71C74.99,30.58 75.15,30.45 75.32,30.32" stroke-linejoin="round" stroke-width="5.29817" stroke="#111111" stroke-linecap="round" id="path_37"/><path fill="#00000000" d="M83.76,27.07C83.55,26.83 83.17,26.82 82.9,26.96C82.62,27.1 82.42,27.36 82.25,27.62C81.68,28.51 81.28,29.52 81.09,30.56C82.73,30.83 84.5,29.96 85.28,28.49C85.41,29.67 86.07,30.78 87.04,31.46" stroke-linejoin="round" stroke-width="5.29817" stroke="#111111" stroke-linecap="round" id="path_38"/><path fill="#00000000" d="M92.12,26.06C92.33,27.3 92.54,28.53 92.75,29.77C93.24,28.82 93.75,27.84 94.59,27.18C95.43,26.52 96.69,26.26 97.57,26.88C98.61,27.62 98.63,29.14 98.55,30.42C98.67,30.32 98.8,30.22 98.92,30.12" stroke-linejoin="round" stroke-width="5.29817" stroke="#111111" stroke-linecap="round" id="path_39"/><path fill="#00000000" d="M105.05,20.92C105.03,20.85 105.01,20.77 105,20.7C104.75,23.47 104.51,26.24 104.26,29.02C105.27,27 107.05,25.37 109.15,24.53C108.4,25.33 108.13,26.54 108.47,27.57C108.89,28.8 110.09,29.63 111.35,29.95C112.6,30.28 113.92,30.18 115.22,30.08" stroke-linejoin="round" stroke-width="5.29817" stroke="#111111" stroke-linecap="round" id="path_40"/><path fill="#00000000" d="M70.57,41.48C71.68,43.08 73.7,43.98 75.63,43.75" stroke-linejoin="round" stroke-width="5.29817" stroke="#111111" stroke-linecap="round" id="path_41"/><path fill="#00000000" d="M77.8,40.24C75.88,45.3 73.95,50.37 72.03,55.43" stroke-linejoin="round" stroke-width="5.29817" stroke="#111111" stroke-linecap="round" id="path_42"/><path fill="#00000000" d="M85.66,40.08C84.16,40.99 82.99,42.44 82.41,44.1C82.07,45.08 81.96,46.22 82.51,47.1C83.2,48.16 84.76,48.44 85.9,47.87C87.04,47.31 87.74,46.09 87.95,44.84C88.16,43.59 87.93,42.3 87.6,41.08" stroke-linejoin="round" stroke-width="5.29817" stroke="#111111" stroke-linecap="round" id="path_43"/><path fill="#00000000" d="M95.22,39.66C94.55,40.36 94.06,41.24 93.81,42.17C93.54,43.15 93.55,44.23 93.96,45.15C94.38,46.07 95.25,46.82 96.25,46.94C97.54,47.1 98.78,46.25 99.46,45.15C100.14,44.05 100.38,42.75 100.6,41.47C100.82,40.25 101.04,39.02 101.26,37.79" stroke-linejoin="round" stroke-width="5.29817" stroke="#111111" stroke-linecap="round" id="path_44"/><path fill="#00000000" d="M110.62,37.74C109.91,39.96 109.21,42.18 108.5,44.4C108.79,44.32 109.08,44.25 109.38,44.17" stroke-linejoin="round" stroke-width="5.29817" stroke="#111111" stroke-linecap="round" id="path_45"/><path fill="#00000000" d="M106.4,51.97C106.31,51.88 106.22,51.79 106.13,51.7" stroke-linejoin="round" stroke-width="5.29817" stroke="#111111" stroke-linecap="round" id="path_46"/></svg>