<!-- This SVG was generated using https://composables.com -->
<svg id="vector" xmlns="http://www.w3.org/2000/svg" width="24" height="24" viewBox="0 0 24 24">
    <defs>
        <clipPath id="clip_path_0">
            <path d="M0,0h23.938v24h-23.938z"/>
        </clipPath>
    </defs>
    <g id="g_0">
        <path fill="#000000" d="M3.264,4C2.363,4 1.633,4.716 1.633,5.601V18.4C1.633,19.284 2.363,20.001 3.264,20.001H20.674C21.576,20.001 22.306,19.284 22.306,18.4V5.601C22.306,4.716 21.576,4 20.674,4H3.264ZM20.674,2.4C22.477,2.4 23.938,3.833 23.938,5.601V18.4C23.938,20.168 22.477,21.6 20.674,21.6H3.264C1.461,21.6 0,20.168 0,18.4V5.601C0,3.833 1.461,2.4 3.264,2.4H20.674ZM9.775,15.76H4.788C4.682,15.759 4.576,15.778 4.478,15.818C4.379,15.858 4.29,15.916 4.214,15.991C4.138,16.065 4.078,16.153 4.036,16.251C3.994,16.349 3.972,16.454 3.971,16.56C3.971,17.002 4.336,17.361 4.788,17.361H9.775C9.881,17.362 9.986,17.342 10.085,17.302C10.183,17.263 10.272,17.204 10.348,17.13C10.424,17.056 10.484,16.967 10.526,16.869C10.567,16.772 10.589,16.667 10.59,16.56C10.589,16.454 10.567,16.349 10.526,16.251C10.484,16.154 10.424,16.065 10.348,15.991C10.272,15.917 10.183,15.858 10.085,15.818C9.986,15.779 9.881,15.759 9.775,15.76ZM16.458,6.4C14.634,6.4 13.148,7.829 13.148,9.6C13.148,10.528 13.555,11.362 14.206,11.946C12.973,12.676 12.151,13.99 12.151,15.491C12.151,15.92 12.218,16.341 12.349,16.743C12.486,17.163 12.946,17.396 13.374,17.261C13.476,17.231 13.569,17.181 13.651,17.113C13.733,17.046 13.8,16.963 13.849,16.87C13.899,16.776 13.929,16.674 13.938,16.568C13.947,16.463 13.936,16.356 13.903,16.256C13.823,16.009 13.783,15.751 13.784,15.491C13.784,14.081 14.977,12.932 16.458,12.932C17.938,12.932 19.133,14.081 19.133,15.491C19.133,15.699 19.108,15.902 19.057,16.098C19.032,16.201 19.028,16.308 19.044,16.413C19.06,16.517 19.097,16.618 19.152,16.708C19.208,16.798 19.28,16.876 19.366,16.938C19.452,17 19.549,17.044 19.652,17.068C19.86,17.12 20.081,17.088 20.266,16.979C20.451,16.87 20.585,16.693 20.641,16.485C20.723,16.161 20.764,15.828 20.764,15.491C20.764,13.99 19.942,12.676 18.709,11.944C19.36,11.362 19.767,10.528 19.767,9.6C19.767,7.829 18.283,6.4 16.458,6.4ZM9.775,11.56H4.788C4.682,11.559 4.576,11.578 4.478,11.618C4.379,11.658 4.29,11.716 4.214,11.79C4.138,11.865 4.078,11.953 4.036,12.051C3.994,12.149 3.972,12.254 3.971,12.36C3.971,12.802 4.336,13.161 4.788,13.161H9.775C9.881,13.162 9.986,13.142 10.085,13.102C10.183,13.063 10.272,13.004 10.348,12.93C10.424,12.856 10.484,12.767 10.526,12.669C10.567,12.572 10.589,12.467 10.59,12.36C10.589,12.254 10.567,12.149 10.526,12.052C10.484,11.954 10.424,11.865 10.348,11.791C10.272,11.717 10.183,11.658 10.085,11.618C9.986,11.579 9.881,11.559 9.775,11.56ZM16.458,8.001C17.388,8.001 18.136,8.721 18.136,9.6C18.136,10.481 17.388,11.2 16.458,11.2C15.528,11.2 14.78,10.48 14.78,9.6C14.78,8.72 15.528,8.001 16.458,8.001ZM9.775,7.36H4.788C4.682,7.359 4.576,7.378 4.478,7.418C4.379,7.458 4.29,7.516 4.214,7.59C4.138,7.665 4.078,7.753 4.036,7.851C3.994,7.949 3.972,8.054 3.971,8.16C3.971,8.602 4.336,8.961 4.788,8.961H9.775C9.881,8.962 9.986,8.942 10.085,8.902C10.183,8.863 10.272,8.804 10.348,8.73C10.424,8.656 10.484,8.567 10.526,8.469C10.567,8.372 10.589,8.267 10.59,8.16C10.589,8.054 10.567,7.949 10.526,7.852C10.484,7.754 10.424,7.665 10.348,7.591C10.272,7.517 10.183,7.458 10.085,7.418C9.986,7.379 9.881,7.359 9.775,7.36Z" clip-path="url(#clip_path_0)"/>
    </g>
</svg>